<?xml version="1.0" encoding="UTF-8" standalone="no"?>
<svg width="123px" height="63px" viewBox="0 0 123 63" version="1.1" xmlns="http://www.w3.org/2000/svg" xmlns:xlink="http://www.w3.org/1999/xlink">
    <!-- Generator: Sketch 39 (31667) - http://www.bohemiancoding.com/sketch -->
    <title>Group 11</title>
    <desc>Created with Sketch.</desc>
    <defs>
        <path d="M31,62.0628803 C48.1208272,62.0628803 62,48.1696313 62,31.0314402 C62,13.893249 48.1208272,0 31,0 C13.8791728,0 0,13.893249 0,31.0314402 C0,48.1696313 13.8791728,62.0628803 31,62.0628803 Z" id="path-1"></path>
        <mask id="mask-2" maskContentUnits="userSpaceOnUse" maskUnits="objectBoundingBox" x="0" y="0" width="62" height="62.0628803" fill="white">
            <use xlink:href="#path-1"></use>
        </mask>
    </defs>
    <g id="Акция-ПДБ" stroke="none" stroke-width="1" fill="none" fill-rule="evenodd">
        <g id="Деньги---действия" transform="translate(-788.000000, -462.000000)">
            <g id="выпадушка" transform="translate(380.000000, 60.000000)">
                <g id="Group-8" transform="translate(103.000000, 402.000000)">
                    <g id="Group-11" transform="translate(305.000000, 0.000000)">
                        <rect id="Rectangle-2" fill="#2B2B2B" x="60" y="30.030426" width="52" height="3.0030426"></rect>
                        <polygon id="Triangle" fill="#2B2B2B" points="107 37.0375254 107 26.0263692 123 31.5319473"></polygon>
                        <use id="Oval" stroke="#2B2B2B" mask="url(#mask-2)" stroke-width="4" stroke-linecap="square" xlink:href="#path-1"></use>
                        <path d="M27.3076923,20.0192698 C26.2165612,20.0192698 25.2165994,20.481213 24.5384615,21.2310238 C22.9829314,21.3470093 21.8364406,22.3073501 20.7307692,23.2379914 L20.3076923,23.6166646 C19.4190769,24.3509875 16.7452308,26.5354771 15,27.9714056 L15,31.1143926 C15.2904615,30.8756771 20.5590769,26.5675886 21.8846154,25.4721629 L22.3461538,25.0934898 C22.8520738,24.6663828 23.2413765,24.351179 23.6153846,24.1089396 L23.6153846,32.250412 C23.15432,32.5013845 22.2692308,32.969891 22.2692308,32.969891 L23.4230769,35.0904605 C23.4230769,35.0904605 28.136048,32.5453966 28.6923077,32.250412 C30.0093169,31.5514832 30.8174843,30.925056 32.0384615,30.925056 C32.8403249,30.925056 33.4615385,31.5527228 33.4615385,32.4776159 C33.4615385,33.0204563 33.3429157,33.2265453 33.1153846,33.5000334 C32.8878535,33.7735214 32.4907754,34.0986168 31.9230769,34.4467162 C30.5845083,35.2698437 29.1153846,36.6808877 29.1153846,36.6808877 L29.0384615,36.7944896 L28.9615385,36.8702243 C27.5344751,38.9202746 25.6949058,40.6190883 22.4230769,40.6190883 L15,40.6190883 L15,43.0425963 L22.4230769,43.0425963 C26.4990375,43.0425963 29.1635988,40.7605157 30.8461538,38.4227841 C30.8461538,38.4227841 31.7334658,37.6067441 32.5384615,36.9838262 L43.3076923,36.9838262 C45.3349292,36.9838262 47,35.3444805 47,33.3485641 L47,23.6545319 C47,21.6586158 45.3349292,20.0192698 43.3076923,20.0192698 L27.3076923,20.0192698 L27.3076923,20.0192698 Z M27.3076923,22.4427778 L43.3076923,22.4427778 C44.0004554,22.4427778 44.5384615,22.9724715 44.5384615,23.6545319 L44.5384615,24.8662859 L27.3076923,24.8662859 L27.3076923,27.289794 L44.5384615,27.289794 L44.5384615,33.3485641 C44.5384615,34.0306241 44.0004554,34.5603181 43.3076923,34.5603181 L35.3846154,34.5603181 C35.725376,33.975585 35.9230769,33.2644732 35.9230769,32.4776159 C35.9230769,30.3295008 34.2125982,28.501548 32.0384615,28.501548 C29.9535926,28.501548 28.5485292,29.5733941 27.5,30.1298425 C27.3313403,30.2192832 26.6594215,30.571213 26.0769231,30.8871887 L26.0769231,23.6545319 C26.0769231,22.9724715 26.6149292,22.4427778 27.3076923,22.4427778 L27.3076923,22.4427778 Z" id="Shape" fill="#2B2B2B"></path>
                    </g>
                </g>
            </g>
        </g>
    </g>
</svg>