<?xml version="1.0" encoding="UTF-8" standalone="no"?>
<svg width="123px" height="63px" viewBox="0 0 123 63" version="1.1" xmlns="http://www.w3.org/2000/svg" xmlns:xlink="http://www.w3.org/1999/xlink">
    <!-- Generator: Sketch 39 (31667) - http://www.bohemiancoding.com/sketch -->
    <title>Group 6</title>
    <desc>Created with Sketch.</desc>
    <defs>
        <path d="M31,62.0628803 C48.1208272,62.0628803 62,48.1696313 62,31.0314402 C62,13.893249 48.1208272,0 31,0 C13.8791728,0 0,13.893249 0,31.0314402 C0,48.1696313 13.8791728,62.0628803 31,62.0628803 Z" id="path-1"></path>
        <mask id="mask-2" maskContentUnits="userSpaceOnUse" maskUnits="objectBoundingBox" x="0" y="0" width="62" height="62.0628803" fill="white">
            <use xlink:href="#path-1"></use>
        </mask>
    </defs>
    <g id="Акция-ПДБ" stroke="none" stroke-width="1" fill="none" fill-rule="evenodd">
        <g id="Деньги---действия" transform="translate(-525.000000, -462.000000)">
            <g id="выпадушка" transform="translate(380.000000, 60.000000)">
                <g id="Group-8" transform="translate(103.000000, 402.000000)">
                    <g id="Group-6" transform="translate(42.000000, 0.000000)">
                        <use id="Oval" stroke="#2B2B2B" mask="url(#mask-2)" stroke-width="4" stroke-linecap="square" xlink:href="#path-1"></use>
                        <rect id="Rectangle-2" fill="#2B2B2B" x="61" y="30.030426" width="52" height="3.0030426"></rect>
                        <polygon id="Triangle" fill="#2B2B2B" points="107 37.0375254 107 26.0263692 123 31.5319473"></polygon>
                        <path d="M34.2142857,18 L34.2142857,19.2380952 L34.2142857,29.1428571 L34.2142857,30.3809524 L35.4285714,30.3809524 L36.6428571,30.3809524 L36.6428571,31.6190476 L36.6428571,33.9404762 L38.5401786,32.6636905 L41.8794643,30.3809524 L48.7857143,30.3809524 L50,30.3809524 L50,29.1428571 L50,19.2380952 L50,18 L48.7857143,18 L35.4285714,18 L34.2142857,18 L34.2142857,18 Z M36.6428571,20.4761905 L47.5714286,20.4761905 L47.5714286,27.9047619 L41.5,27.9047619 L41.1205357,27.9047619 L40.8169643,28.0982143 L39.0714286,29.297619 L39.0714286,29.1428571 L39.0714286,27.9047619 L37.8571429,27.9047619 L36.6428571,27.9047619 L36.6428571,20.4761905 L36.6428571,20.4761905 Z M25.7142857,21.7142857 C21.7048797,21.7142857 18.4285714,25.054835 18.4285714,29.1428571 C18.4285714,31.5989199 19.612663,33.7857589 21.4263393,35.139881 C18.2235356,36.7621893 16,40.1176131 16,44 L18.4285714,44 C18.4285714,39.8826375 21.6761033,36.5714286 25.7142857,36.5714286 C29.7524681,36.5714286 33,39.8826375 33,44 L35.4285714,44 C35.4285714,40.1176131 33.2050358,36.7621893 30.0022321,35.139881 C31.8159087,33.7857589 33,31.5989199 33,29.1428571 C33,25.054835 29.723692,21.7142857 25.7142857,21.7142857 L25.7142857,21.7142857 Z M25.7142857,24.1904762 C28.4111949,24.1904762 30.5714286,26.3930674 30.5714286,29.1428571 C30.5714286,31.8926469 28.4111949,34.0952381 25.7142857,34.0952381 C23.0173771,34.0952381 20.8571429,31.8926469 20.8571429,29.1428571 C20.8571429,26.3930674 23.0173771,24.1904762 25.7142857,24.1904762 L25.7142857,24.1904762 Z" id="Shape" fill="#2B2B2B"></path>
                    </g>
                </g>
            </g>
        </g>
    </g>
</svg>