<?xml version="1.0" encoding="UTF-8" standalone="no"?>
<svg width="62px" height="63px" viewBox="0 0 62 63" version="1.1" xmlns="http://www.w3.org/2000/svg" xmlns:xlink="http://www.w3.org/1999/xlink">
    <!-- Generator: Sketch 39 (31667) - http://www.bohemiancoding.com/sketch -->
    <title>Group 21</title>
    <desc>Created with Sketch.</desc>
    <defs>
        <path d="M31,62.0628803 C48.1208272,62.0628803 62,48.1696313 62,31.0314402 C62,13.893249 48.1208272,0 31,0 C13.8791728,0 0,13.893249 0,31.0314402 C0,48.1696313 13.8791728,62.0628803 31,62.0628803 Z" id="path-1"></path>
        <mask id="mask-2" maskContentUnits="userSpaceOnUse" maskUnits="objectBoundingBox" x="0" y="0" width="62" height="62.0628803" fill="white">
            <use xlink:href="#path-1"></use>
        </mask>
    </defs>
    <g id="Акция-ПДБ" stroke="none" stroke-width="1" fill="none" fill-rule="evenodd">
        <g id="Деньги---действия" transform="translate(-1051.000000, -462.000000)">
            <g id="выпадушка" transform="translate(380.000000, 60.000000)">
                <g id="Group-8" transform="translate(103.000000, 402.000000)">
                    <g id="Group-10" transform="translate(568.000000, 0.000000)">
                        <g id="Group-21">
                            <use id="Oval" stroke="#2B2B2B" mask="url(#mask-2)" stroke-width="4" stroke-linecap="square" xlink:href="#path-1"></use>
                            <path d="M22.9318182,15 C20.3993905,15 18.3181818,17.1051307 18.3181818,19.6666667 C18.3181818,22.2282027 20.3993905,24.3333333 22.9318182,24.3333333 C25.4642458,24.3333333 27.5454545,22.2282025 27.5454545,19.6666667 C27.5454545,17.1051308 25.4642458,15 22.9318182,15 L22.9318182,15 Z M40.0681818,15 C37.5357542,15 35.4545455,17.1051308 35.4545455,19.6666667 C35.4545455,22.2282025 37.5357542,24.3333333 40.0681818,24.3333333 C42.6006095,24.3333333 44.6818182,22.2282025 44.6818182,19.6666667 C44.6818182,17.1051308 42.6006095,15 40.0681818,15 L40.0681818,15 Z M22.9318182,17.6666667 C24.0394495,17.6666667 24.9090909,18.5463041 24.9090909,19.6666667 C24.9090909,20.7870292 24.0394495,21.6666667 22.9318182,21.6666667 C21.8241872,21.6666667 20.9545455,20.7870291 20.9545455,19.6666667 C20.9545455,18.5463043 21.8241872,17.6666667 22.9318182,17.6666667 L22.9318182,17.6666667 Z M40.0681818,17.6666667 C41.1758131,17.6666667 42.0454545,18.5463041 42.0454545,19.6666667 C42.0454545,20.7870292 41.1758131,21.6666667 40.0681818,21.6666667 C38.9605505,21.6666667 38.0909091,20.7870292 38.0909091,19.6666667 C38.0909091,18.5463041 38.9605505,17.6666667 40.0681818,17.6666667 L40.0681818,17.6666667 Z M22.2727273,25.6666667 C19.3648182,25.6666667 17,28.0586667 17,31 L17,38 L19.6363636,39.3333333 L19.6363636,47 L22.2727273,47 L22.2727273,37.6666667 L19.6363636,36.3333333 L19.6363636,31 C19.6363636,29.5293333 20.8187727,28.3333333 22.2727273,28.3333333 L23.796875,28.3333333 C24.8013295,28.3333333 25.6953864,28.881 26.1448864,29.7916667 L27.8338068,33.2083333 L31.8707386,36.4166667 L33.765625,34.5416667 L29.8934659,31.4583333 L28.4928977,28.625 C27.5938977,26.8063333 25.8071023,25.6666667 23.796875,25.6666667 L22.2727273,25.6666667 L22.2727273,25.6666667 Z M39.203125,25.6666667 C37.1928977,25.6666667 35.4061023,26.8063333 34.5071023,28.625 L33.1065341,31.4583333 L32.5710227,31.875 L34.3011364,33.25 L34.7130682,33.5833333 L35.1661932,33.2083333 L36.8551136,29.7916667 C37.3046136,28.881 38.1986705,28.3333333 39.203125,28.3333333 L40.7272727,28.3333333 C42.1992415,28.3333333 43.3636364,29.511112 43.3636364,31 L43.3636364,36.375 L41.46875,37.3333333 L40.7272727,37.6666667 L40.7272727,38.5 L40.7272727,47 L43.3636364,47 L43.3636364,39.3333333 L45.2585227,38.375 L46,38 L46,37.1666667 L46,31 C46,28.0702213 43.6237585,25.6666667 40.7272727,25.6666667 L39.203125,25.6666667 L39.203125,25.6666667 Z M23.5909091,37.6666667 L23.5909091,47 L26.2272727,47 L26.2272727,37.6666667 L23.5909091,37.6666667 L23.5909091,37.6666667 Z M36.7727273,37.6666667 L36.7727273,47 L39.4090909,47 L39.4090909,37.6666667 L36.7727273,37.6666667 L36.7727273,37.6666667 Z" id="Shape" fill="#2B2B2B"></path>
                        </g>
                    </g>
                </g>
            </g>
        </g>
    </g>
</svg>