<?xml version="1.0" standalone="no"?>
<!DOCTYPE svg PUBLIC "-//W3C//DTD SVG 1.1//EN" "http://www.w3.org/Graphics/SVG/1.1/DTD/svg11.dtd">
<svg xmlns="http://www.w3.org/2000/svg">
<metadata>Generated by Fontastic.me</metadata>
<defs>
<font id="mb-icon-font" horiz-adv-x="512">
<font-face font-family="mb-icon-font" units-per-em="512" ascent="480" descent="-32"/>
<missing-glyph horiz-adv-x="512" />

<glyph glyph-name="trash-bin" unicode="&#98;" d="M201 302l0-165c0-3-1-5-2-6-2-2-4-3-7-3l-18 0c-3 0-5 1-7 3-2 1-2 3-2 6l0 165c0 2 0 5 2 6 2 2 4 3 7 3l18 0c3 0 5-1 7-3 1-1 2-4 2-6z m73 0l0-165c0-3-1-5-2-6-2-2-4-3-7-3l-18 0c-3 0-5 1-7 3-1 1-2 3-2 6l0 165c0 2 1 5 2 6 2 2 4 3 7 3l18 0c3 0 5-1 7-3 1-1 2-4 2-6z m73 0l0-165c0-3 0-5-2-6-2-2-4-3-7-3l-18 0c-3 0-5 1-7 3-1 1-2 3-2 6l0 165c0 2 1 5 2 6 2 2 4 3 7 3l18 0c3 0 5-1 7-3 2-1 2-4 2-6z m37-207l0 271-256 0 0-271c0-4 1-8 2-12 1-3 3-6 4-7 2-2 3-3 3-3l238 0c0 0 1 1 3 3 1 1 3 4 4 7 1 4 2 8 2 12z m-192 307l128 0-14 34c-1 1-3 2-5 3l-90 0c-2-1-4-2-5-3z m265-9l0-18c0-3-1-5-2-7-2-1-4-2-7-2l-27 0 0-271c0-16-5-30-14-41-9-12-20-17-32-17l-238 0c-12 0-23 5-32 16-9 11-14 25-14 41l0 272-27 0c-3 0-5 1-7 2-1 2-2 4-2 7l0 18c0 3 1 5 2 7 2 1 4 2 7 2l88 0 20 48c3 7 8 13 16 18 7 5 15 7 22 7l92 0c7 0 15-2 22-7 8-5 13-11 16-18l20-48 88 0c3 0 5-1 7-2 1-2 2-4 2-7z"/>
<glyph glyph-name="info" unicode="&#99;" d="M276 383c-3 2-6 3-9 4-3 1-7 1-11 1-4 0-7 0-11-1-3-1-6-2-9-4-3-2-5-5-6-8-2-3-2-7-2-12 0-5 0-9 2-12 1-4 3-6 6-8 3-2 6-4 9-5 4 0 7-1 11-1 4 0 8 1 11 1 3 1 6 3 9 5 3 2 5 4 6 8 2 3 3 7 3 12 0 5-1 9-3 12-1 3-3 6-6 8z m-46-95l52 0 0-163-52 0z m26 224c-141 0-256-115-256-256 0-141 115-256 256-256 141 0 256 115 256 256 0 141-115 256-256 256z m0-469c-118 0-213 95-213 213 0 118 95 213 213 213 118 0 213-95 213-213 0-118-95-213-213-213z"/>
<glyph glyph-name="menu-dashboard" unicode="&#101;" d="M68 239c0 18-16 34-34 34-19 0-34-16-34-34 0-19 15-35 34-35 18 0 34 16 34 35z m135 67c0 19-15 34-34 34-19 0-34-15-34-34 0-19 15-35 34-35 19 0 34 16 34 35z m111 86c0 19-15 35-34 35-19 0-34-16-34-35 0-19 15-34 34-34 19 0 34 15 34 34z m100-60c0 19-15 34-34 34-19 0-34-15-34-34 0-19 15-35 34-35 19 0 34 16 34 35z m0-272c0 19-15 34-34 34-19 0-34-15-34-34 0-19 15-34 34-34 19 0 34 15 34 34z m98 418c0 19-15 34-34 34-18 0-34-15-34-34 0-19 16-35 34-35 19 0 34 16 34 35z m0-297c0 19-15 35-34 35-18 0-34-16-34-35 0-19 16-34 34-34 19 0 34 15 34 34z m-444-92c0 19-16 35-34 35-19 0-34-16-34-35 0-19 15-34 34-34 18 0 34 15 34 34z m135-29c0 19-15 34-34 34-19 0-34-15-34-34 0-19 15-34 34-34 19 0 34 15 34 34z m111 85c0 19-15 35-34 35-19 0-34-16-34-35 0-19 15-34 34-34 19 0 34 15 34 34z m-142 146l11 6-12 23-11-6-129-66-11-5 11-23 12 5z m115 100l10 8-17 20-10-9-113-98-9-8 17-20 9 9z m97-83l10-7 15 21-10 7-113 82-10 8-15-21 10-8z m99 151l7 11-22 14-7-11-97-147-7-11 22-14 7 11z m-320-415l12-3 6 25-12 3-129 33-12 3-7-25 13-3z m124 101l10 9-17 19-10-8-113-99-9-8 17-19 9 8z m95-114l9-9 18 18-9 9-112 115-9 9-19-18 9-9z m100 133l8 10-21 15-8-10-96-131-8-10 21-16 8 11z"/>
<glyph glyph-name="fullsize2" unicode="&#102;" d="M101 1l386 0c13 0 23 11 23 24l0 386c0 13-10 23-23 23l-193 0c-13 0-24-10-24-23 0-13 11-24 24-24l169 0 0-338-338 0 0 169c0 13-11 24-24 24-13 0-24-11-24-24l0-193c0-13 11-24 24-24z m-97 483l0-123c0-13 11-24 24-24 13 0 24 11 24 24l0 65 166-166c4-4 10-7 16-7 6 0 12 3 17 7 9 10 9 25 0 34l-166 166 66 0c13 0 23 11 23 24 0 13-10 23-23 23l-123 0c-3 0-5 0-7-1-1 0-2 0-2-1-1 0-2 0-2 0-1-1-1-1-2-2-1 0-1 0-2-1-1 0-1-1-2-2 0 0-1-1-1-1-2-2-3-5-4-7-1 0-1-1-1-2-1-2-1-4-1-6z"/>
<glyph glyph-name="logout" unicode="&#104;" d="M0 492l0-472c0-11 9-20 20-20l295 0c11 0 20 9 20 20l0 98-71 0 0-47-193 0 0 370 193 0 0-47 71 0 0 98c0 11-9 20-20 20l-295 0c-1 0-2 0-2 0-1 0-1 0-2 0-9-2-16-10-16-20z m407-139c-2 0-4 0-6-1-4-2-6-6-6-10l0-46c0 0-202-7-206-10-7-5-11-18-11-30 0-12 4-27 11-31 4-3 206-9 206-9l0-46c0-4 2-8 6-10 4-2 9-2 12 1 48 32 94 85 96 88 2 2 3 4 3 7 0 3-1 5-3 7-2 3-48 56-96 88-1 2-4 2-6 2z"/>
<glyph glyph-name="menu-clients" unicode="&#105;" d="M156 254c-46 0-85 39-85 86 0 47 39 85 85 85 47 0 86-38 86-85 0-47-39-86-86-86z m0 142c-30 0-56-26-56-56 0-31 26-56 56-56 31 0 56 25 56 56 0 30-25 56-56 56z m157-341l-313 0 0 60c0 70 55 125 125 125l63 0c69 0 125-55 125-125z m-278 32l243 0 0 30c0 51-42 91-92 91l-59 0c-51 0-92-41-92-91z m321 224c-47 0-86 39-86 86 0 46 39 85 86 85 46 0 85-39 85-85 0-47-39-86-85-86z m0 142c-31 0-56-26-56-56 0-31 25-57 56-57 30 0 56 26 56 57 0 30-26 56-56 56z m-15-341l0 29 143 0 0 31c0 54-45 97-97 97l-63 0c-17 0-32-5-47-13l-14 24c19 10 40 16 61 16l63 0c70 0 125-56 125-126l0-58z"/>
<glyph glyph-name="menu-doc" unicode="&#106;" d="M113 227l189 0 0-31-189 0z m0 95l189 0 0-31-189 0z m0 95l189 0 0-31-189 0z m347 21l-74 0 0 53c0 13-7 21-21 21l-315 0c-14 0-22-8-22-21l0-390c0-13 8-21 22-21l73 0 0-48c0-13 8-21 21-21l316 0c13 0 21 8 21 21l0 385c0 13-8 21-21 21z m-400-316l0 348c0 6 4 10 11 10l273 0c7 0 11-4 11-10l0-348c0-7-4-11-11-11l-273 0c-7 0-11 4-11 11z m390-69c0-6-4-10-11-10l-268 0c-7 0-11 4-11 10l0 27 205 0c14 0 21 8 21 21l0 300 53 0c7 0 11-4 11-10z"/>
<glyph glyph-name="menu-report" unicode="&#108;" d="M37 208l219 0c8 0 16 3 24 7l189 109c7-22 11-44 11-68 0-123-101-224-224-224-107 0-197 75-219 176z m-37 32c8-134 119-240 256-240 141 0 256 115 256 256 0 41-10 80-27 114l-221-127c-3-2-6-3-8-3z m0 32l240 0 0 240c-129-8-232-111-240-240z m37 32c18 86 85 153 171 171l0-171z m267 171c45-9 86-33 117-67l-117-68z m-32 37l0-228 197 114c-43 65-115 109-197 114z"/>
<glyph glyph-name="menu-transaction" unicode="&#107;" d="M347 73c-84-42-185-21-246 49l-34-30c74-86 198-111 301-60 103 52 157 167 132 279l-44-10c20-91-24-186-109-228z m-182 366c86 43 191 20 251-55l35 29c-73 91-201 120-307 67-103-52-157-167-132-278l44 10c-20 91 24 185 109 227z m270-58l15 19-80-1 1-30 79 0 19 0-4 19-17 83-30-7z m-352-257l-15-19 80 1-1 31-80-1-18 0 4-19 17-82 30 6z m199 113c19 0 33 5 42 15 10 11 15 26 15 45 0 18-5 33-15 44-9 10-23 15-42 15l-71 0 0-97-24 0 0-22 24 0 0-22-24 0 0-23 24 0 0-38 25 0 0 38 66 0 0 23-66 0 0 22z m-46 97l38 0c14 0 24-4 30-10 7-6 10-15 10-27 0-13-3-22-10-28-6-6-16-10-30-10l-38 0z"/>
<glyph glyph-name="profile" unicode="&#109;" d="M437 473c11 0 20-9 20-20l0-414-402 0 0 414c0 11 9 20 20 20z m0 39l-362 0c-34 0-61-26-61-59l0-453 484 0 0 453c0 33-27 59-61 59z m-221-374l80 0 0-138-80 0z m0 197l80 0 0-59-80 0z m0-99l80 0 0-59-80 0z m121 99l80 0 0-59-80 0z m-242 0l80 0 0-59-80 0z m121 98l80 0 0-59-80 0z m121 0l80 0 0-59-80 0z m-242 0l80 0 0-59-80 0z m242-197l80 0 0-59-80 0z m-242 0l80 0 0-59-80 0z m242-98l80 0 0-59-80 0z m-242 0l80 0 0-59-80 0z"/>
<glyph glyph-name="settings" unicode="&#110;" d="M493 227l0 59-71 12c-4 16-10 32-19 46l41 59-42 42-58-42c-14 9-30 16-47 20l-12 70-59 0-12-70c-16-4-32-11-47-19l-57 41-42-42 40-58c-8-15-15-30-19-47l-70-12 0-59 70-12c4-17 10-33 19-48l-41-57 42-42 58 40c15-8 30-15 47-19l12-70 59 0 13 70c16 4 32 11 47 20l58-41 42 42-42 58c9 14 15 30 20 46z m-237-99c-71 0-128 57-128 128 0 71 57 128 128 128 71 0 128-57 128-128 0-71-57-128-128-128z m-74 128c0-41 33-74 74-74 41 0 74 33 74 74 0 41-33 74-74 74-41 0-74-33-74-74z m123 0c0-27-22-49-49-49-27 0-49 22-49 49 0 27 22 49 49 49 27 0 49-22 49-49z"/>
<glyph glyph-name="mail-sent2" unicode="&#111;" d="M45 168l0 198 164-186 163 186 0-105 34-24 0 195-395 0 0-305 253 0c8 14 18 28 29 41z m299 222l-135-153-135 153z m158-235l-115 67 0-38c-84-11-104-115-104-115 0 0 25 49 104 55l0-36z"/>
<glyph glyph-name="step-check" unicode="&#114;" d="M191 52l-191 191 91 91 100-100 230 230 91-91z"/>
<glyph glyph-name="check" unicode="&#115;" d="M179 164l36-36-36-36-138 138 36 37 18-19 84-84 256 256 36-36-292-292-36 36z"/>
<glyph glyph-name="search" unicode="&#116;" d="M450 117c10-12 11-22 3-32 0 0-24-24-24-24-12-10-24-10-35 0 0 0-97 98-97 98-25-15-52-22-80-22-44 0-82 16-114 49-33 32-49 70-49 114 0 44 16 81 46 112 31 31 68 47 112 47 44 0 82-16 115-49 32-32 49-70 49-114 0-30-8-58-24-83 0 0 98-96 98-96m-348 183c0-30 12-57 35-80 23-23 50-35 80-35 30 0 56 11 77 33 22 21 33 47 33 78 0 30-12 56-35 79-23 23-50 35-80 35-30 0-56-11-77-33-22-21-33-47-33-77"/>
<glyph glyph-name="arrow-up" unicode="&#118;" d="M399 361c11-11 11-29 0-40-11-11-29-11-40 0l-72 72-1-388-57 0 1 388-71-72c-11-11-29-11-41 0-11 11-11 30 0 41l120 120c3 2 5 3 8 5 0 0 1 1 2 1 1 0 1 0 2 1 1 0 2 0 3 0 1 1 2 1 3 1 1 0 2 0 3 0 0 0 1 0 2 0 3 0 6-1 9-3 1 0 2 0 2 0 3-2 5-3 7-5z"/>
<glyph glyph-name="close" unicode="&#119;" d="M260 300l-211 212-40-41 211-211-211-211 40-40 211 211 211-211 41 40-212 211 212 211-41 41z"/>
<glyph glyph-name="left-big" unicode="&#100;" d="M368 67c9-9 9-18 0-25-8-9-17-9-24 0 0 0-201 202-201 202-8 8-8 16 0 25 0 0 201 202 201 202 7 9 16 9 24 0 9-7 9-16 0-25 0 0-183-190-183-190 0 0 183-189 183-189"/>
<glyph glyph-name="left-mini" unicode="&#120;" d="M317 169c9-9 9-17 0-25-9-8-17-8-24 0 0 0-99 100-99 100-8 8-8 16 0 25 0 0 99 100 99 100 7 9 15 9 24 0 9-8 9-16 0-25 0 0-80-88-80-88 0 0 80-87 80-87"/>
<glyph glyph-name="pencil" unicode="&#65;" d="M424 425c11-11 19-22 24-33 5-11 8-19 8-24 0 0 0-9 0-9 0 0-129-129-129-129 0 0-149-147-149-147 0 0-122-27-122-27 0 0 26 123 26 123 0 0 148 148 148 148 0 0 129 129 129 129 19 4 40-6 65-31m-253-328c0 0 12 13 12 13 0 15-9 31-26 48-8 7-16 13-23 18-8 4-14 6-18 6 0 0-7 1-7 1 0 0-12-12-12-12 0 0-9-41-9-41 10-5 17-11 24-17 8-9 14-17 18-25 0 0 41 9 41 9"/>
<glyph glyph-name="user-add" unicode="&#122;" d="M317 142c62-22 93-42 93-62 0 0 0-54 0-54 0 0-410 0-410 0 0 0 0 103 0 103 12 5 26 9 42 13 32 12 54 24 66 36 12 12 18 28 18 48 0 8-4 16-12 25-8 9-13 21-16 38 0 4-4 8-11 13-8 4-12 14-13 31 0 5 1 10 2 13 2 4 4 6 5 6 0 0 2 2 2 2-3 17-5 32-6 45-2 19 5 38 20 58 16 19 43 29 82 29 39 0 66-10 82-29 16-20 23-39 22-58 0 0-8-45-8-45 7-2 10-10 10-21-1-10-3-17-5-22-2-5-5-8-7-9-2-1-5-2-7-4-3-2-4-5-5-9-3-16-9-28-17-38-8-9-12-17-12-25 0-20 7-36 19-48 12-12 34-24 66-36m118 140c0 0 77 0 77 0 0 0 0-52 0-52 0 0-77 0-77 0 0 0 0-76 0-76 0 0-51 0-51 0 0 0 0 76 0 76 0 0-77 0-77 0 0 0 0 52 0 52 0 0 77 0 77 0 0 0 0 76 0 76 0 0 51 0 51 0 0 0 0-76 0-76"/>
<glyph glyph-name="group-half-add" unicode="&#66;" d="M256 288c27 0 48 21 48 48 0 27-21 48-48 48-27 0-48-21-48-48 0-27 21-48 48-48z m128 96c27 0 48 21 48 48 0 27-21 48-48 48-27 0-48-21-48-48 0-27 21-48 48-48z m-192-96c-10 13-16 30-16 48 0 5 1 11 2 16-35 0-114 0-114 0 0 0-32 0-32-32 0-12 0-192 0-192l96 0 0 96c0 64 64 64 64 64z m-64 96c27 0 48 21 48 48 0 27-21 48-48 48-27 0-48-21-48-48 0-27 21-48 48-48z m352-150l0 86c0 0 0 32-32 32l-114 0c1-5 2-11 2-16 0-18-6-35-16-48l0 0c8 0 14-1 20-3-23-4-45-15-62-29-38 0-86 0-86 0 0 0-32 0-32-32 0-12 0-192 0-192l118 0c24-20 56-32 90-32 80 0 144 64 144 144 0 34-12 66-32 90z m-112-200c-61 0-110 49-110 110 0 61 49 110 110 110 61 0 110-49 110-110 0-61-49-110-110-110z m80 126l-64 0 0 64-32 0 0-64-64 0 0-32 64 0 0-64 32 0 0 64 64 0z"/>
<glyph glyph-name="user-full-add" unicode="&#67;" d="M256 416c27 0 48 21 48 48 0 27-21 48-48 48-27 0-48-21-48-48 0-27 21-48 48-48z m112-128c-5 0-11 0-16-1 0 33 0 65 0 65 0 0 0 32-32 32-9 0-128 0-128 0 0 0-32 0-32-32l0-128c0-37 32-32 32-32l0-192 128 0 0 8c15-5 31-8 48-8 80 0 144 64 144 144 0 80-64 144-144 144z m0-254c-61 0-110 49-110 110 0 61 49 110 110 110 61 0 110-49 110-110 0-61-49-110-110-110z m80 126l-64 0 0 64-32 0 0-64-64 0 0-32 64 0 0-64 32 0 0 64 64 0z"/>
<glyph glyph-name="group-full" unicode="&#68;" d="M128 192c0 32 0 160 0 160 0 0 0 7 4 16-33 0-68 0-68 0 0 0-32 0-32-32l0-112c0-32 32-32 32-32l0-160 96 0 0 128c0 0-32 0-32 32z m0 192c8 0 16 2 23 6 1 1 2 1 3 2 13 8 22 23 22 40 0 27-21 48-48 48-27 0-48-21-48-48 0-27 21-48 48-48z m320-16l-68 0c4-9 4-16 4-16 0 0 0-128 0-160 0-32-32-32-32-32l0-128 96 0 0 160c0 0 32 0 32 32 0 32 0 112 0 112 0 0 0 32-32 32z m-90 24c1-1 2-1 3-2 7-4 15-6 23-6 27 0 48 21 48 48 0 27-21 48-48 48-27 0-48-21-48-48 0-17 9-32 22-40z m-102-8c27 0 48 21 48 48 0 27-21 48-48 48-27 0-48-21-48-48 0-27 21-48 48-48z m96-48c0 0 0 32-32 32-8 0-128 0-128 0 0 0-32 0-32-32l0-112c0-32 32-32 32-32l0-160 128 0 0 160c0 0 32 0 32 32 0 32 0 112 0 112z"/>
<glyph glyph-name="mail-add" unicode="&#71;" d="M0 448l0-384 248 0c26-39 70-64 120-64 50 0 94 25 120 64l24 0 0 384z m450-32l-194-156-194 156z m-418-320l0 303 217-174c-16-23-25-51-25-81 0-17 3-33 8-48z m336-62c-61 0-110 49-110 110 0 61 49 110 110 110 61 0 110-49 110-110 0-61-49-110-110-110z m0 254c-11 0-21-1-31-3l143 114 0-165c-26 33-67 54-112 54z m80-128l-64 0 0 64-32 0 0-64-64 0 0-32 64 0 0-64 32 0 0 64 64 0z"/>
<glyph glyph-name="mail" unicode="&#70;" d="M0 448l0-384 512 0 0 384z m450-32l-194-156-194 156z m-418-320l0 303 224-179 224 179 0-303z"/>
<glyph glyph-name="file" unicode="&#74;" d="M110 73l292 0 0 220-119 0c-7 0-14 2-19 8-5 5-8 11-8 19l0 119-146 0z m183 256l107 0c-2 6-4 10-6 12l-90 89c-2 3-6 5-11 7z m146-9l0-256c0-8-3-14-8-19-5-6-12-8-20-8l-310 0c-8 0-15 2-20 8-5 5-8 11-8 19l0 384c0 8 3 14 8 19 5 6 12 8 20 8l182 0c8 0 16-1 26-5 9-4 16-9 21-14l89-89c6-5 10-13 14-22 4-9 6-17 6-25z"/>
<glyph glyph-name="down-big" unicode="&#72;" d="M67 369c0 0 189-183 189-183 0 0 190 183 190 183 8 9 16 9 25 0 9-8 9-16 0-25 0 0-203-201-203-201-7-7-15-7-24 0 0 0-203 201-203 201-9 9-9 17 0 25 8 8 17 8 26 0"/>
<glyph glyph-name="attach" unicode="&#73;" d="M141 5c-35 0-64 12-87 37-25 24-38 52-38 85-1 33 13 65 43 97 0 0 254 254 254 254 27 28 57 37 89 28 15-4 28-12 40-24 12-12 20-26 24-41 9-32 0-62-27-90 0 0-243-242-243-242-14-14-29-22-45-24-17-1-30 3-41 14-10 9-15 21-14 38 1 17 9 33 24 47 0 0 170 171 170 171 8 9 17 9 26 0 9-9 9-17 0-25 0 0-170-170-170-170-15-15-19-27-11-36 5-3 9-4 13-3 8 1 16 6 23 13 0 0 243 243 243 243 17 17 23 35 17 55-5 21-18 34-39 39-18 5-36-1-55-18 0 0-253-253-253-253-22-26-33-51-33-74 1-22 10-42 27-59 17-17 37-25 60-26 23-1 47 10 72 32 0 0 254 253 254 253 8 8 17 8 26 0 9-8 9-16 0-25 0 0-254-254-254-254-28-28-60-42-95-42"/>
<glyph glyph-name="password" unicode="&#75;" d="M405 320l0 64c0 43-42 107-149 107-107 0-149-64-149-107l0-64-43 0 0-235c0-35 29-64 64-64l256 0c35 0 64 29 64 64l0 235z m-256 85c0 0 22 43 107 43 85 0 107-43 107-43l0-85-214 0z m256-320c0-11-9-21-21-21l-256 0c-12 0-21 10-21 21l0 192 298 0z m-170 70l0-48 42 0 0 48c13 8 22 21 22 37 0 24-19 43-43 43-24 0-43-19-43-43 0-16 9-29 22-37z"/>
<glyph glyph-name="thumbs-down" unicode="&#117;" d="M163 188c-1 2-11 5-29 7-19 2-38 7-56 12-18 6-27 14-27 24 0 25 11 74 32 146 21 73 39 109 54 109 49 0 99-7 148-22 49-14 73-29 73-45 0 0 0-175 0-175 0-4-1-8-4-13-2-4-7-9-12-15-6-5-12-10-17-15-5-4-12-10-21-16-10-7-17-12-21-15-5-3-12-8-21-14 0 0-17-12-17-12-17-11-35-28-54-51-18-22-32-40-43-53-11-13-18-17-21-13-16 26-21 49-15 70 7 21 17 41 30 61 14 19 21 30 21 30m221 2c-4 0-4 3 1 8 16 17 25 34 25 53 0 0 0 163 0 163 0 17-9 35-27 53-3 3-3 5 1 5 9 0 18-1 28-4 10-3 21-10 32-23 11-13 17-30 17-51 0 0 0-124 0-124 0-16-3-30-9-41-7-11-14-20-23-25-10-5-18-8-25-10-7-3-14-4-20-4"/>
<glyph glyph-name="thumbs-up" unicode="&#76;" d="M349 323c1-2 11-5 30-7 19-2 37-7 55-12 18-6 27-14 27-24 0-25-11-73-31-146-21-72-40-108-55-108-49 0-99 7-148 21-49 14-73 29-73 45 0 0 0 175 0 175 0 5 2 11 7 18 5 6 13 14 24 23 10 8 19 15 27 21 7 5 18 13 32 22 13 9 21 14 23 16 17 11 35 28 54 51 18 22 32 40 43 53 11 13 18 17 21 13 16-26 21-49 15-70-7-21-17-41-30-61-14-20-21-30-21-30m-221-2c5 0 5-3 0-8-17-17-26-34-26-53 0 0 0-163 0-163 0-17 9-35 27-53 3-3 3-5-1-5-9 0-18 1-28 4-10 3-21 10-32 23-11 13-17 30-17 51 0 0 0 124 0 124 0 21 6 38 17 51 11 13 22 21 32 24 11 3 20 5 28 5"/>
<glyph glyph-name="arrow-right" unicode="&#78;" d="M256 0c141 0 256 115 256 256 0 141-115 256-256 256-141 0-256-115-256-256 0-141 115-256 256-256z m0 472c119 0 216-97 216-216 0-119-97-216-216-216-119 0-216 97-216 216 0 119 97 216 216 216z m-30-328l112 112-112 112-32-32 80-80-80-80z"/>
<glyph glyph-name="arrow-left" unicode="&#79;" d="M256 512c-141 0-256-115-256-256 0-141 115-256 256-256 141 0 256 115 256 256 0 141-115 256-256 256z m0-472c-119 0-216 97-216 216 0 119 97 216 216 216 119 0 216-97 216-216 0-119-97-216-216-216z m30 328l-112-112 112-112 32 32-80 80 80 80z"/>
<glyph glyph-name="reload" unicode="&#80;" d="M224 466c58 0 107-20 147-59 41-40 62-88 63-145 0 0 63 0 63 0 0 0-95-105-95-105 0 0-94 105-94 105 0 0 74 0 74 0-1 42-17 78-48 108-31 29-67 44-110 44-43 0-80-16-110-46-31-31-46-68-46-112 0-43 15-80 46-111 30-30 67-46 110-46 36 0 67 11 93 31 0 0 36-39 36-39-37-30-80-45-129-45-57 0-106 21-147 62-41 40-62 90-62 148 0 58 21 108 62 148 41 41 90 62 147 62"/>
<glyph glyph-name="right-big" unicode="&#81;" d="M144 67c0 0 183 189 183 189 0 0-183 190-183 190-9 9-9 18 0 25 8 9 17 9 24 0 0 0 201-202 201-202 8-9 8-17 0-25 0 0-201-202-201-202-7-9-16-9-24 0-9 7-9 16 0 25"/>
<glyph glyph-name="chat2" unicode="&#82;" d="M304 512l-96 0c-115 0-208-93-208-208 0-74 39-139 98-176l-2 0 0-128 144 96 64 0c115 0 208 93 208 208 0 115-93 208-208 208z m0-352l-64 0-80-48 0 57c-56 20-96 72-96 135 0 80 64 144 144 144l96 0c80 0 144-64 144-144 0-80-64-144-144-144z"/>
<glyph glyph-name="plus" unicode="&#97;" d="M448 288l0-64-160 0 0-160-64 0 0 160-160 0 0 64 160 0 0 160 64 0 0-160z"/>
<glyph glyph-name="submenu" unicode="&#85;" d="M476 290c10 0 19-3 26-8 7-5 10-11 10-18 0-7-3-13-10-18-9-5-17-8-26-8l-440 0c-9 0-17 3-26 8-7 5-10 11-10 18 0 7 3 13 10 18 7 5 16 8 26 8l440 0m-440 114c-9 0-17 2-26 8-7 6-10 12-10 18 0 8 3 14 10 19 7 5 16 8 26 8l440 0c10 0 19-3 26-8 7-5 10-11 10-19 0-6-3-12-10-18-9-6-17-8-26-8l-440 0m440-282c10 0 19-2 26-7 7-6 10-13 10-19 0-7-3-13-10-18-9-6-17-9-26-9l-440 0c-9 0-17 3-26 9-7 5-10 11-10 18 0 6 3 13 10 19 7 5 16 7 26 7l440 0"/>
<glyph glyph-name="notes" unicode="&#84;" d="M64 469l0-448 363 0 0 448z m320-405l-277 0 0 363 277 0z m-43 299l-192 0 0-43 192 0z m0-64l-192 0 0-22 192 0z m0-43l-192 0 0-21 192 0z m0-43l-192 0 0-21 192 0z m0-42l-192 0 0-22 192 0z"/>
<glyph glyph-name="date" unicode="&#83;" d="M469 464l-69 0 0 32c0 9-7 16-16 16-9 0-16-7-16-16l0-32-96 0 0 32c0 9-7 16-16 16-9 0-16-7-16-16l0-32-96 0 0 32c0 9-7 16-16 16-9 0-16-7-16-16l0-32-69 0c-24 0-43-19-43-43l0-378c0-24 19-43 43-43l426 0c24 0 43 19 43 43l0 378c0 24-19 43-43 43z m11-421c0-6-5-11-11-11l-426 0c-6 0-11 5-11 11l0 378c0 6 5 11 11 11l69 0 0-32c0-9 7-16 16-16 9 0 16 7 16 16l0 32 96 0 0-32c0-9 7-16 16-16 9 0 16 7 16 16l0 32 96 0 0-32c0-9 7-16 16-16 9 0 16 7 16 16l0 32 69 0c6 0 11-5 11-11z m-368 277l64 0 0-48-64 0z m0-80l64 0 0-48-64 0z m0-80l64 0 0-48-64 0z m112 0l64 0 0-48-64 0z m0 80l64 0 0-48-64 0z m0 80l64 0 0-48-64 0z m112-160l64 0 0-48-64 0z m0 80l64 0 0-48-64 0z m0 80l64 0 0-48-64 0z"/>
<glyph glyph-name="date-from" unicode="&#86;" d="M469 464l-69 0 0 32c0 9-7 16-16 16-9 0-16-7-16-16l0-32-96 0 0 32c0 9-7 16-16 16-9 0-16-7-16-16l0-32-96 0 0 32c0 9-7 16-16 16-9 0-16-7-16-16l0-32-69 0c-24 0-43-19-43-43l0-378c0-24 19-43 43-43l426 0c24 0 43 19 43 43l0 378c0 24-19 43-43 43z m11-421c0-6-5-11-11-11l-426 0c-6 0-11 5-11 11l0 378c0 6 5 11 11 11l69 0 0-32c0-9 7-16 16-16 9 0 16 7 16 16l0 32 96 0 0-32c0-9 7-16 16-16 9 0 16 7 16 16l0 32 96 0 0-32c0-9 7-16 16-16 9 0 16 7 16 16l0 32 69 0c6 0 11-5 11-11z m-448 309l448 0 0-32-448 0z m288-256l0 160 96-80z m-192 96l192 0 0-32-192 0z"/>
<glyph glyph-name="date-to" unicode="&#87;" d="M469 464l-69 0 0 32c0 9-7 16-16 16-9 0-16-7-16-16l0-32-96 0 0 32c0 9-7 16-16 16-9 0-16-7-16-16l0-32-96 0 0 32c0 9-7 16-16 16-9 0-16-7-16-16l0-32-69 0c-24 0-43-19-43-43l0-378c0-24 19-43 43-43l426 0c24 0 43 19 43 43l0 378c0 24-19 43-43 43z m11-421c0-6-5-11-11-11l-426 0c-6 0-11 5-11 11l0 378c0 6 5 11 11 11l69 0 0-32c0-9 7-16 16-16 9 0 16 7 16 16l0 32 96 0 0-32c0-9 7-16 16-16 9 0 16 7 16 16l0 32 96 0 0-32c0-9 7-16 16-16 9 0 16 7 16 16l0 32 69 0c6 0 11-5 11-11z m-448 309l448 0 0-32-448 0z m192-256l0 160-96-80z m0 96l192 0 0-32-192 0z"/>
<glyph glyph-name="home" unicode="&#77;" d="M101 257l146 111 147-111 0-221-83 0 0 135-128 0 0-135-82 0z m-101 8l39-51 27 20 0-234 363 0 0 234 27-20 39 51-90 68 0 113-64 0 0-64-94 71z"/>
<glyph glyph-name="right-open-mini" unicode="&#88;" d="M195 169c0 0 81 87 81 87 0 0-81 88-81 88-9 9-9 17 0 25 9 9 17 9 24 0 0 0 99-100 99-100 8-9 8-17 0-25 0 0-99-100-99-100-7-8-15-8-24 0-9 8-9 16 0 25"/>
<glyph glyph-name="sort-down" unicode="&#89;" d="M446 218c11 12 11 31 0 42-12 12-31 12-42 0l-118-118 0 312c0 16-14 30-30 30-16 0-30-14-30-30l0-312-118 118c-11 12-30 12-42 0-5-6-8-13-8-21 0-7 3-15 8-21l190-190z"/>
<glyph glyph-name="sort-up" unicode="&#90;" d="M66 294c-11-12-11-31 0-42 12-12 31-12 42 0l118 118 0-312c0-16 14-30 30-30 16 0 30 14 30 30l0 312 118-118c11-12 30-12 42 0 6 6 8 13 8 21 0 8-2 15-8 21l-190 190z"/>
<glyph glyph-name="phone" unicode="&#49;" d="M128 384l224 0 0-192-224 0z m64 64l96 0 0-32-96 0z m160 64l-224 0c-35 0-64-29-64-64l0-384c0-35 29-64 64-64l224 0c35 0 64 29 64 64l0 384c0 35-29 64-64 64m32-448c0-18-14-32-32-32l-224 0c-18 0-32 14-32 32l0 384c0 18 14 32 32 32l224 0c18 0 32-14 32-32z m-256 32l32 0 0-32-32 0z m64 0l32 0 0-32-32 0z m64 0l32 0 0-32-32 0z m64 0l32 0 0-32-32 0z m-192 64l32 0 0-32-32 0z m64 0l32 0 0-32-32 0z m64 0l32 0 0-32-32 0z m64 0l32 0 0-32-32 0z"/>
<glyph glyph-name="change" unicode="&#50;" d="M416 256l-96-96 64 0c0-18-14-32-32-32l-192 0c-18 0-32 14-32 32l0 32-64 0 0-32c0-53 43-96 96-96l192 0c53 0 96 43 96 96l64 0z m-64 192l-192 0c-53 0-96-43-96-96l0-1-64 0 96-95 96 95-64 0 0 1c0 18 14 32 32 32l192 0c18 0 32-14 32-32l0-32 64 0 0 32c0 53-43 96-96 96z"/>
<glyph glyph-name="mail-accept" unicode="&#51;" d="M0 448l0-384 248 0c26-39 70-64 120-64 50 0 94 25 120 64l24 0 0 384z m450-32l-194-156-194 156z m-418-320l0 303 217-174c-16-23-25-51-25-81 0-17 3-33 8-48z m336-62c-61 0-110 49-110 110 0 61 49 110 110 110 61 0 110-49 110-110 0-61-49-110-110-110z m0 254c-11 0-21-1-31-3l143 114 0-165c-26 33-67 54-112 54z m-80-144l32 32 32-32 64 64 32-32-96-96z"/>
<glyph glyph-name="help" unicode="&#103;" d="M282 128l-52 0 0 51 52 0z m-52 77c0 36 16 48 29 61 7 5 12 13 15 21 5 7 5 15 5 25 0 11-3 18-8 26-5 5-10 10-20 10-8 0-26-2-26-38l-46 0 0 10c0 23 8 38 21 51 15 8 33 13 53 13 26 0 44-5 57-20 13-16 20-31 20-52 0-61-51-64-51-107z m26 307c-141 0-256-115-256-256 0-141 115-256 256-256 141 0 256 115 256 256 0 141-115 256-256 256z m0-469c-118 0-213 95-213 213 0 118 95 213 213 213 118 0 213-95 213-213 0-118-95-213-213-213z"/>
<glyph glyph-name="round-plus" unicode="&#52;" d="M272 384l-32 0 0-112-112 0 0-32 112 0 0-112 32 0 0 112 112 0 0 32-112 0z m-16 128c-141 0-256-115-256-256 0-141 115-256 256-256 141 0 256 115 256 256 0 141-115 256-256 256z m0-472c-119 0-216 97-216 216 0 119 97 216 216 216 119 0 216-97 216-216 0-119-97-216-216-216z"/>
<glyph glyph-name="round-action" unicode="&#57;" d="M256 512c-141 0-256-115-256-256 0-141 115-256 256-256 141 0 256 115 256 256 0 141-115 256-256 256z m0-472c-119 0-216 97-216 216 0 119 97 216 216 216 119 0 216-97 216-216 0-119-97-216-216-216z m24 248c0 0-59 1-101-26-43-28-53-86-53-86 0 0 38 44 75 58 41 15 79 6 79 6l0-48 96 64-96 80z"/>
<glyph glyph-name="round-check" unicode="&#54;" d="M256 484c-126 0-228-102-228-228 0-126 102-228 228-228 126 0 228 102 228 228 0 126-102 228-228 228z m129-183l-153-153c-5-5-11-7-18-7-7 0-13 2-18 7l-74 75c-10 10-10 26 0 36 10 10 26 10 36 0l56-56 135 135c10 10 26 10 36 0 10-10 10-27 0-37z"/>
<glyph glyph-name="round-minus" unicode="&#53;" d="M192 271l142 0 0-30-142 0z m64 227c-133 0-242-109-242-242 0-133 109-242 242-242 133 0 242 109 242 242 0 133-109 242-242 242z m0-446c-112 0-204 92-204 204 0 112 92 204 204 204 112 0 204-92 204-204 0-112-92-204-204-204z"/>
<glyph glyph-name="more" unicode="&#55;" d="M77 312c16 0 29-5 40-16 11-11 16-24 16-40 0-15-5-28-16-39-11-12-24-17-40-17-16 0-29 5-40 17-11 11-17 24-17 39 0 16 6 29 17 40 11 11 24 16 40 16m179 0c16 0 29-5 40-16 11-11 16-24 16-40 0-15-5-28-17-39-11-12-24-17-39-17-15 0-28 5-39 17-12 11-17 24-17 39 0 16 5 29 16 40 11 11 24 16 40 16m179 0c16 0 29-5 40-16 11-11 17-24 17-40 0-15-6-28-17-39-11-12-24-17-40-17-15 0-29 5-40 17-11 11-16 24-16 39 0 16 5 29 16 40 11 11 25 16 40 16"/>
<glyph glyph-name="warning" unicode="&#56;" d="M293 119l0 54c0 3-1 5-3 7-2 2-4 3-7 3l-54 0c-3 0-5-1-7-3-2-2-3-4-3-7l0-54c0-3 1-5 3-7 2-1 4-2 7-2l54 0c3 0 5 1 7 2 2 2 3 4 3 7z m-1 107l5 131c0 2-1 4-3 6-2 2-4 3-7 3l-62 0c-3 0-5-1-7-3-2-2-3-4-3-6l5-131c0-2 1-3 3-5 1-1 4-2 6-2l53 0c3 0 5 1 7 2 2 2 3 3 3 5z m-4 267l219-402c7-12 7-24 0-36-3-6-8-10-13-14-6-3-12-4-19-4l-438 0c-7 0-13 1-19 4-5 4-10 8-13 14-7 12-7 24 0 36l219 402c3 6 8 10 13 14 6 3 12 5 19 5 7 0 13-2 19-5 5-4 10-8 13-14z"/>
<glyph glyph-name="more-small" unicode="&#48;" d="M256 288c18 0 32-14 32-32 0-18-14-32-32-32-18 0-32 14-32 32 0 18 14 32 32 32z m-128 0c18 0 32-14 32-32 0-18-14-32-32-32-18 0-32 14-32 32 0 18 14 32 32 32z m256 0c18 0 32-14 32-32 0-18-14-32-32-32-18 0-32 14-32 32 0 18 14 32 32 32z"/>
<glyph glyph-name="redo" unicode="&#33;" d="M64 112l0 32c0 17-3 83 49 136 35 36 80 53 143 56l0 80 192-128-192-128 0 80c-40-1-63-9-87-20-31-14-55-44-75-77l-20-31z"/>
<glyph glyph-name="favorites" unicode="&#34;" d="M433 326l-110 0-33 102-1 0c-9 28-21 42-33 42-12 0-24-14-33-42l-1 0-33-102-110 0c-59 0-68-28-20-62l1-1 1 0c0 0 0 0 0 0l87-62-34-101c0 0 0 0 0 0l0-1 0-1c-12-36-6-56 13-56 10 0 24 6 40 17l1 1 88 63 86-62c0 0 0 0 0 0l1-1 1-1c17-11 30-17 40-17 19 0 26 20 14 56l-1 1 0 1c0 0 0 0 0 0l-33 101 86 61c0 0 0 0 0 1l2 1c49 34 40 62-19 62z m-93-90l-26-19 10-30 26-78-69 49-25 18-25-18-69-49 26 78 10 30-25 19-68 48 115 0 10 29 26 80 26-80 10-29 115 0z"/>
<glyph glyph-name="delete-circle" unicode="&#36;" d="M335 358l-79-79-79 79-23-23 79-79-79-79 23-23 79 79 79-79 23 23-79 79 79 79z m-79 154c-141 0-256-115-256-256 0-141 115-256 256-256 141 0 256 115 256 256 0 141-115 256-256 256z m0-472c-119 0-216 97-216 216 0 119 97 216 216 216 119 0 216-97 216-216 0-119-97-216-216-216z"/>
<glyph glyph-name="clock" unicode="&#35;" d="M256 480c124 0 224-100 224-224 0-124-100-224-224-224-124 0-224 100-224 224 0 124 100 224 224 224z m169-133c-2 3-3 6-5 9z m-69 73c-3 2-6 3-9 5z m-191 5c-3-2-6-3-9-5z m-73-69c-2-3-3-6-5-9z m-5-191c2-3 3-6 5-9z m69-73c3-2 6-3 9-5z m191-5c3 2 6 3 9 5z m45 33c10 10 18 21 26 33l-27 16 8 14 27-16c13 25 21 52 22 81l-32 0 0 16 32 0c-1 29-9 56-22 81l-28-16-8 14 28 16c-8 12-16 23-26 33-10 10-21 18-33 26l-16-27-14 8 16 27c-25 13-52 21-81 22l0-32-16 0 0 32c-29-1-56-9-81-22l16-28-14-8-16 28c-12-8-23-16-33-26-10-10-18-21-26-33l27-16-8-14-27 16c-13-25-21-52-22-81l32 0 0-16-32 0c1-29 9-56 22-81l28 16 8-14-28-16c8-12 16-23 26-33 10-10 21-18 33-26l16 27 14-8-16-27c25-13 52-21 81-22l0 32 16 0 0-32c29 1 56 9 81 22l-16 27 14 8 16-27c12 8 23 16 33 26z m33 45l-5-9c2 3 3 6 5 9z m-25 98l0-16-113 0c-4-13-17-23-31-23-7 0-15 3-20 7l-70-71-6 6 71 70c-4 6-7 13-7 20 0 12 6 22 16 28l0 84 32 0 0-84c8-4 13-12 15-21z"/>
<glyph glyph-name="checkbox" unicode="&#38;" d="M212 77c-11 0-21 5-28 14 0 0-92 121-92 121-6 8-8 17-6 27 1 9 5 17 13 23 7 6 16 9 26 7 10-1 18-6 24-14 0 0 60-79 60-79 0 0 152 243 152 243 5 8 13 13 22 15 9 2 18 1 27-4 8-5 13-13 15-22 3-9 1-18-4-27 0 0-179-287-179-287-7-11-16-16-28-16 0 0-2-1-2-1"/>
<glyph glyph-name="stop" unicode="&#121;" d="M256 0c-141 0-256 115-256 256 0 141 115 256 256 256 141 0 256-115 256-256 0-141-115-256-256-256z m-192 256c0-41 13-79 36-111l267 267c-32 23-70 36-111 36-106 0-192-86-192-192z m348 111l-267-268c32-22 70-35 111-35 106 0 192 86 192 192 0 41-13 79-36 111z"/>
<glyph glyph-name="favorites-solid" unicode="&#37;" d="M59 264l1 0 2-1c0 0 0 0 0 0l86-62-33-101c0 0 0 0 0 0l-1-1 0-1c-18-55 6-72 53-38l1 0 88 63 86-62c0 0 0 0 0 0l2-1 1-1c47-34 71-16 53 39l0 1-1 1c0 0 0 0 0 0l-33 101 86 62c0 0 0 0 0 0l3 1c47 34 38 62-20 62l-110 0-34 102 0 0c-18 56-48 56-67 0l0 0-33-102-111 0c-57 0-66-27-19-62z"/>
<glyph glyph-name="payment" unicode="&#39;" d="M473 432l-473 0 0-20 473 0c5 0 11-5 13-10 0-1 0-2 0-2l0-28-460 0 0-48 459 0 1-181c0-5-7-9-13-9l-373 0 0-25 373 0c19 0 35 15 35 32l0 259c0 18-16 32-35 32z m-397-230l112 0 0-25-112 0z m-23 69l108 0 0-25-108 0z m290-53c0-10 8-18 18-18l56 0c9 0 17 8 17 18l0 30c0 10-8 18-17 18l-56 0c-10 0-18-8-18-18z"/>
<glyph glyph-name="user" unicode="&#40;" d="M497 24l-482 0 0 31c0 52 0 98 73 115l4 0c34 8 76 18 83 34 3 4 1 12-4 21-49 90-58 160-26 213 23 38 63 59 111 59 48 0 88-21 110-58 32-53 23-123-25-213-5-10-6-18-4-23 7-15 48-25 84-33l3-1c73-16 73-62 73-114z m-446 36l410 0c0 49-1 64-45 74l-3 1c-48 11-94 22-109 54-7 15-5 33 5 53 42 79 51 137 26 179-16 26-44 40-79 40-36 0-64-15-80-41-25-42-16-100 26-177 11-20 13-39 6-54-14-32-60-43-108-54l-4-1c-44-10-45-25-45-74z"/>
<glyph glyph-name="bell" unicode="&#41;" d="M261 27c0 3-2 5-5 5-11 0-21 4-29 12-8 8-12 18-12 29 0 3-2 5-5 5-3 0-4-2-4-5 0-14 5-26 14-35 10-10 22-15 36-15 3 0 5 1 5 4z m-190 83l370 0c-31 34-54 73-70 117-16 44-24 90-24 139 0 48-30 73-91 73-61 0-91-25-91-73 0-49-8-95-24-139-16-44-39-83-70-117z m423 0c0-10-4-19-11-26-7-7-16-11-26-11l-128 0c0-20-7-37-21-52-15-14-32-21-52-21-20 0-37 7-52 21-14 15-21 32-21 52l-128 0c-10 0-19 4-26 11-7 7-11 16-11 26 36 30 64 68 82 113 19 45 28 93 28 143 0 31 9 56 27 75 19 18 44 29 76 33-2 3-2 7-2 11 0 7 2 14 8 19 5 5 11 8 19 8 8 0 14-3 19-8 6-5 8-12 8-19 0-4 0-8-2-11 32-4 57-15 76-33 18-19 27-44 27-75 0-50 9-98 28-143 18-45 46-83 82-113z"/>
<glyph glyph-name="sign" unicode="&#69;" d="M319 88c-6 0-5-4-10-9l0 6 0-23-252 0 0 274 113 0c5 0 10 5 10 10l0 110 129 0 0-80c0-5 4-9 10-9l24 0c6 0 10 4 10 9l0 115c0 5-4 9-10 9l-183 0-145-144 0-329c0-5 4-9 10-9l318 0c6 0 10 4 10 9l0 52c0 5-4 9-10 9z m159 232l-64 65c-4 4-10 4-14 0l-178-177 1-1-1 1-24-92c-1-3 0-6 2-10 4-2 8-3 11-1l90 24 177 178c5 3 5 10 0 13z m-250-185l14 53 39-39z"/>
<glyph glyph-name="down-small" unicode="&#42;" d="M374 358c0 0-118-204-118-204 0 0-118 204-118 204 0 0 236 0 236 0"/>
<glyph glyph-name="fullsize" unicode="&#43;" d="M289 119c0-3-1-5-3-7l-14-14c-2-2-4-3-7-3-2 0-5 1-6 3l-134 133c-1 2-2 4-2 7 0 2 1 4 2 6l134 133c1 2 4 3 6 3 3 0 5-1 7-3l14-14c2-2 3-4 3-6 0-3-1-5-3-7l-112-112 112-113c2-1 3-4 3-6z m110 0c0-3-1-5-3-7l-15-14c-1-2-4-3-6-3-3 0-5 1-7 3l-133 133c-2 2-3 4-3 7 0 2 1 4 3 6l133 133c2 2 4 3 7 3 2 0 5-1 6-3l15-14c2-2 3-4 3-6 0-3-1-5-3-7l-113-112 113-113c2-1 3-4 3-6z"/>
<glyph glyph-name="currency-change" unicode="&#44;" d="M256 512c-142 0-256-114-256-256 0-59 21-114 54-158l-54 0 0-39 118 0 0 118-39 0 0-45c-25 36-40 78-40 124 0 120 97 217 217 217 35 0 69-8 98-24l0 43c-29 12-63 20-98 20z m138-59l0-118 39 0 0 45c25-36 40-78 40-124 0-120-97-217-217-217-35 0-69 8-98 24l0-43c29-12 63-20 98-20 142 0 256 114 256 256 0 59-21 114-54 158l54 0 0 39z m-158-39l0-40c-33-5-59-34-59-69 0-38 31-69 69-69l20 0c17 0 29-12 29-29 0-17-12-30-29-30l-69 0 0-39 39 0 0-40 40 0 0 40c33 5 59 34 59 69 0 38-31 69-69 69l-20 0c-17 0-29 12-29 29 0 17 12 30 29 30l69 0 0 39-39 0 0 40z"/>
<glyph glyph-name="customs" unicode="&#45;" d="M298 512c-16 2-28-17-19-31 1 0 1-1 2-1l32-30-34-33c-3-3-4-8-2-11 2-4 5-7 10-7l30 0c0-39 33-71 72-71 39 0 72 32 72 71l0 9c0 0 0 1 0 1 0 1 0 1 0 1l0 39c0 0 0 1 0 1 0 1 0 1 0 1l0 32c0 5-4 10-9 10z m1-21l141-17 0-13-108 0z m33-51l108 0 0-20-128 0z m6-41l102 0c0-28-23-51-51-51-28 0-51 23-51 51z m31-82c-26 0-48-14-61-34l0 1-161-212-86 0 0 184-30 0c-17 0-31-14-31-31l0-143c0-17 14-31 31-31l10 0 0-20c0-17 14-31 31-31l163 0c17 0 31 14 31 31l0 41-22 0 53 70 0-132c0-5 4-10 10-10l195 0c5 0 10 5 10 10l0 266c0 23-18 41-41 41z m0-20l77 0-129-156 0 31c0 4-3 8-7 10-4 1-8 0-11-4l-81-106-46 0 152 199c1 1 1 1 1 1 8 15 25 25 44 25z m122-44l0-192-162 0z m-460-18l10 0 0-163-10 0c-6 0-11 4-11 10l0 143c0 6 5 10 11 10z m30-184l185 0 0-20c0-6-5-11-11-11l-163 0c-6 0-11 5-11 11z m256-10l174 0 0-21-174 0z"/>
<glyph glyph-name="government" unicode="&#46;" d="M496 53l-480 0 0 213 479 0 0-213z m-456 22l432 0 0 168-432 0z m0 168l-24 0 0 75 171 0 0-23-147 0z m456 0l-24 0 0 52-147 0 0 23 171 0z m-491-202l502 0 0-23-502 0z m338 219l23 0 0-202-23 0z m-66 0l23 0 0-202-23 0z m-65 0l23 0 0-202-23 0z m-66 0l23 0 0-202-23 0z m-66 0l23 0 0-202-23 0z m329-5l23 0 0-202-23 0z m-164 248l22 0 0-133-22 0z m126-76l-126 0 0 81 126 0z m-104 24l81 0 0 35-81 0z m111-205l-122 110-122-110-16 17 138 124 138-124z"/>
<glyph glyph-name="insurance" unicode="&#47;" d="M228 105c-1 0-2 0-3 1-5 1-9 7-7 12l44 165c1 6 6 9 12 8 5-1 9-7 8-13l-45-165c0-5-5-8-9-8z m70 0c-21 0-38 16-38 36l0 22c0 19 17 36 38 36 21 0 38-16 38-36l0-22c0-20-17-36-38-36z m0 72c-10 0-17-7-17-15l0-22c0-8 7-15 17-15 10 0 17 7 17 15l0 22c0 8-7 15-17 15z m-96 21c-21 0-38 16-38 36l0 22c0 19 17 36 38 36 20 0 38-16 38-36l0-22c0-20-18-36-38-36z m0 72c-10 0-18-7-18-15l0-22c0-8 8-15 18-15 9 0 17 7 17 15l0 22c0 8-8 15-17 15z m82 156c-2 0-4 1-7 3-6 4-7 11-2 17l23 30-46-4-2 0-46 4 23-30c5-6 4-13-2-17-6-5-13-4-17 2l-41 54c-3 4-3 9-1 13 3 4 8 7 13 7l72-9 73 9c5 0 10-2 12-7 3-5 3-10 0-13l-41-54c-3-3-7-5-11-5z m-33-426c-85 0-180 0-180 123 0 115 81 290 180 290 99 0 179-175 179-290 0-123-95-123-179-123z m0 388c-37 0-76-34-107-92-29-53-47-121-47-172-1-94 58-99 154-99 95 0 154 5 154 98 0 52-18 120-47 173-32 58-71 92-107 92z"/>
<glyph glyph-name="building" unicode="&#58;" d="M165 137l0-18c0-3-1-5-3-7-2-1-4-2-7-2l-18 0c-2 0-4 1-6 2-2 2-3 4-3 7l0 18c0 3 1 5 3 7 2 1 4 2 6 2l18 0c3 0 5-1 7-2 2-2 3-4 3-7z m0 73l0-18c0-2-1-5-3-6-2-2-4-3-7-3l-18 0c-2 0-4 1-6 3-2 1-3 4-3 6l0 18c0 3 1 5 3 7 2 2 4 2 6 2l18 0c3 0 5 0 7-2 2-2 3-4 3-7z m73 0l0-18c0-2-1-5-3-6-2-2-4-3-6-3l-19 0c-2 0-4 1-6 3-2 1-3 4-3 6l0 18c0 3 1 5 3 7 2 2 4 2 6 2l19 0c2 0 4 0 6-2 2-2 3-4 3-7z m-73 73l0-18c0-2-1-4-3-6-2-2-4-3-7-3l-18 0c-2 0-4 1-6 3-2 2-3 4-3 6l0 18c0 3 1 5 3 7 2 2 4 3 6 3l18 0c3 0 5-1 7-3 2-2 3-4 3-7z m219-146l0-18c0-3-1-5-3-7-2-1-4-2-6-2l-18 0c-3 0-5 1-7 2-2 2-3 4-3 7l0 18c0 3 1 5 3 7 2 1 4 2 7 2l18 0c2 0 4-1 6-2 2-2 3-4 3-7z m-73 73l0-18c0-2-1-5-3-6-2-2-4-3-6-3l-19 0c-2 0-4 1-6 3-2 1-3 4-3 6l0 18c0 3 1 5 3 7 2 2 4 2 6 2l19 0c2 0 4 0 6-2 2-2 3-4 3-7z m-73 73l0-18c0-2-1-4-3-6-2-2-4-3-6-3l-19 0c-2 0-4 1-6 3-2 2-3 4-3 6l0 18c0 3 1 5 3 7 2 2 4 3 6 3l19 0c2 0 4-1 6-3 2-2 3-4 3-7z m-73 74l0-19c0-2-1-4-3-6-2-2-4-3-7-3l-18 0c-2 0-4 1-6 3-2 2-3 4-3 6l0 19c0 2 1 4 3 6 2 2 4 3 6 3l18 0c3 0 5-1 7-3 2-2 3-4 3-6z m219-147l0-18c0-2-1-5-3-6-2-2-4-3-6-3l-18 0c-3 0-5 1-7 3-2 1-3 4-3 6l0 18c0 3 1 5 3 7 2 2 4 2 7 2l18 0c2 0 4 0 6-2 2-2 3-4 3-7z m-73 73l0-18c0-2-1-4-3-6-2-2-4-3-6-3l-19 0c-2 0-4 1-6 3-2 2-3 4-3 6l0 18c0 3 1 5 3 7 2 2 4 3 6 3l19 0c2 0 4-1 6-3 2-2 3-4 3-7z m-73 74l0-19c0-2-1-4-3-6-2-2-4-3-6-3l-19 0c-2 0-4 1-6 3-2 2-3 4-3 6l0 19c0 2 1 4 3 6 2 2 4 3 6 3l19 0c2 0 4-1 6-3 2-2 3-4 3-6z m-73 73l0-19c0-2-1-4-3-6-2-2-4-3-7-3l-18 0c-2 0-4 1-6 3-2 2-3 4-3 6l0 19c0 2 1 4 3 6 2 2 4 3 6 3l18 0c3 0 5-1 7-3 2-2 3-4 3-6z m219-147l0-18c0-2-1-4-3-6-2-2-4-3-6-3l-18 0c-3 0-5 1-7 3-2 2-3 4-3 6l0 18c0 3 1 5 3 7 2 2 4 3 7 3l18 0c2 0 4-1 6-3 2-2 3-4 3-7z m-73 74l0-19c0-2-1-4-3-6-2-2-4-3-6-3l-19 0c-2 0-4 1-6 3-2 2-3 4-3 6l0 19c0 2 1 4 3 6 2 2 4 3 6 3l19 0c2 0 4-1 6-3 2-2 3-4 3-6z m-73 73l0-19c0-2-1-4-3-6-2-2-4-3-6-3l-19 0c-2 0-4 1-6 3-2 2-3 4-3 6l0 19c0 2 1 4 3 6 2 2 4 3 6 3l19 0c2 0 4-1 6-3 2-2 3-4 3-6z m146-73l0-19c0-2-1-4-3-6-2-2-4-3-6-3l-18 0c-3 0-5 1-7 3-2 2-3 4-3 6l0 19c0 2 1 4 3 6 2 2 4 3 7 3l18 0c2 0 4-1 6-3 2-2 3-4 3-6z m-73 73l0-19c0-2-1-4-3-6-2-2-4-3-6-3l-19 0c-2 0-4 1-6 3-2 2-3 4-3 6l0 19c0 2 1 4 3 6 2 2 4 3 6 3l19 0c2 0 4-1 6-3 2-2 3-4 3-6z m73 0l0-19c0-2-1-4-3-6-2-2-4-3-6-3l-18 0c-3 0-5 1-7 3-2 2-3 4-3 6l0 19c0 2 1 4 3 6 2 2 4 3 7 3l18 0c2 0 4-1 6-3 2-2 3-4 3-6z m-73-393l110 0 0 438-330 0 0-438 110 0 0 64c0 2 1 4 3 6 2 2 4 3 6 3l92 0c2 0 4-1 6-3 2-2 3-4 3-6z m146 457l0-476c0-5-2-9-5-13-4-3-8-5-13-5l-366 0c-5 0-9 2-13 5-3 4-5 8-5 13l0 476c0 5 2 9 5 13 4 3 8 5 13 5l366 0c5 0 9-2 13-5 3-4 5-8 5-13z"/>
<glyph glyph-name="smile-bubble" unicode="&#59;" d="M185 282c0 15-9 28-19 28-10 0-18-13-18-28 0-15 8-28 18-28 10 0 19 13 19 28z m184 0c0 15-8 28-18 28-10 0-19-13-19-28 0-15 9-28 19-28 10 0 18 13 18 28z m-55-55c-5 0-9-4-9-10 0-25-21-46-46-46-26 0-47 21-47 46 0 6-4 10-9 10-5 0-9-4-9-10 0-35 29-64 64-64 36 0 65 29 65 64 0 6-4 10-9 10z m194 46c0 117-112 212-249 212-138 0-250-95-250-212 0-117 112-212 250-212 31 0 62 5 92 15 4 0 11-5 18-9 17-11 39-25 74-25 3 0 6 2 8 4 2 3 2 7 0 9-17 36-11 72-3 80 39 38 60 87 60 138z m-73-125c-14-14-19-51-6-86-22 3-37 12-50 20-10 7-18 12-28 12-2 0-4 0-7-1-27-9-56-14-85-14-128 0-231 87-231 194 0 107 103 194 231 194 127 0 230-87 230-194 0-46-19-90-54-125z"/>
<glyph glyph-name="smile-bubble-angry" unicode="&#60;" d="M182 282c0 15-8 28-18 28-11 0-19-13-19-28 0-15 8-28 19-28 10 0 18 13 18 28z m185 0c0 15-8 28-19 28-10 0-18-13-18-28 0-15 8-28 18-28 11 0 19 13 19 28z m-111-46c-60 0-73-66-73-69-1-6-1-12 2-16 2-5 6-7 9-7l124 0c3 0 7 2 9 7 3 4 3 10 2 16 0 3-13 69-73 69z m249 37c0 117-112 212-249 212-137 0-249-95-249-212 0-117 112-212 249-212 32 0 63 4 93 15 4 0 11-5 18-9 16-11 39-25 74-25 3 0 6 2 7 4 2 3 2 7 1 9-18 36-12 72-4 80 39 38 60 87 60 138z m-73-125c-14-14-18-51-6-86-21 3-37 12-49 20-10 7-19 12-28 12-3 0-5 0-7-1-27-9-56-14-86-14-127 0-231 87-231 194 0 107 104 194 231 194 127 0 231-87 231-194 0-46-20-90-55-125z"/>
<glyph glyph-name="smile-bubble-happy" unicode="&#61;" d="M182 276c0 16-8 28-18 28-11 0-19-12-19-28 0-15 8-27 19-27 10 0 18 12 18 27z m185 0c0 16-8 28-19 28-10 0-18-12-18-28 0-15 8-27 18-27 11 0 19 12 19 27z m-19-46l-184 0c-6 0-12-3-15-7-3-5-5-11-3-16 1-3 20-69 110-69 90 0 109 66 110 69 2 5 1 11-3 16-3 4-9 7-15 7z m157 37c0 117-112 212-249 212-137 0-249-95-249-212 0-117 112-212 249-212 32 0 63 5 93 15 4 0 11-5 18-9 16-11 39-25 74-25 3 0 6 2 7 5 2 2 2 6 1 9-18 35-12 71-4 79 39 38 60 87 60 138z m-73-125c-14-14-18-51-6-86-21 3-37 12-49 20-10 7-19 12-28 12-3 0-5 0-7-1-27-9-56-14-86-14-127 0-231 87-231 194 0 107 104 194 231 194 127 0 231-87 231-194 0-46-20-90-55-125z"/>
<glyph glyph-name="smile-bubble-wow" unicode="&#62;" d="M185 282c0 15-9 28-19 28-10 0-18-13-18-28 0-15 8-28 18-28 10 0 19 13 19 28z m184 0c0 15-8 28-18 28-10 0-19-13-19-28 0-15 9-28 19-28 10 0 18 13 18 28z m-74-83c0 20-16 37-36 37-21 0-37-17-37-37 0-20 16-37 37-37 20 0 36 17 36 37z m213 74c0 117-112 212-249 212-138 0-250-95-250-212 0-117 112-212 250-212 31 0 62 5 92 15 4 0 11-5 18-9 17-11 39-25 74-25 3 0 6 2 8 4 2 3 2 7 0 9-17 36-11 72-3 80 39 38 60 87 60 138z m-73-125c-14-14-19-51-6-86-22 3-37 12-50 20-10 7-18 12-28 12-2 0-4 0-7-1-27-9-56-14-85-14-128 0-231 87-231 194 0 107 103 194 231 194 127 0 230-87 230-194 0-46-19-90-54-125z"/>
<glyph glyph-name="news" unicode="&#63;" d="M464 512l-352 0c-27 0-48-21-48-48l0-32-16 0c-27 0-48-21-48-48l0-320c0-35 29-64 64-64l384 0c35 0 64 29 64 64l0 400c0 27-22 48-48 48z m16-448c0-18-14-32-32-32l-384 0c-18 0-32 14-32 32l0 320c0 9 7 16 16 16l16 0 0-320c0-9 7-16 16-16 9 0 16 7 16 16l0 384c0 9 7 16 16 16l352 0c9 0 16-7 16-16z m-168 240l128 0c4 0 8 4 8 8 0 4-4 8-8 8l-128 0c-4 0-8-4-8-8 0-4 4-8 8-8z m0 48l128 0c4 0 8 4 8 8 0 4-4 8-8 8l-128 0c-4 0-8-4-8-8 0-4 4-8 8-8z m0 48l128 0c4 0 8 4 8 8 0 4-4 8-8 8l-128 0c-4 0-8-4-8-8 0-4 4-8 8-8z m-48-320l-128 0c-4 0-8-4-8-8 0-4 4-8 8-8l128 0c4 0 8 4 8 8 0 4-4 8-8 8z m0 48l-128 0c-4 0-8-4-8-8 0-4 4-8 8-8l128 0c4 0 8 4 8 8 0 4-4 8-8 8z m0 48l-128 0c-4 0-8-4-8-8 0-4 4-8 8-8l128 0c4 0 8 4 8 8 0 4-4 8-8 8z m176-96l-128 0c-4 0-8-4-8-8 0-4 4-8 8-8l128 0c4 0 8 4 8 8 0 4-4 8-8 8z m0 48l-128 0c-4 0-8-4-8-8 0-4 4-8 8-8l128 0c4 0 8 4 8 8 0 4-4 8-8 8z m0 48l-128 0c-4 0-8-4-8-8 0-4 4-8 8-8l128 0c4 0 8 4 8 8 0 4-4 8-8 8z m0 96l-304 0c-4 0-8-4-8-8 0-4 4-8 8-8l304 0c4 0 8 4 8 8 0 4-4 8-8 8z m0-48l-304 0c-4 0-8-4-8-8 0-4 4-8 8-8l304 0c4 0 8 4 8 8 0 4-4 8-8 8z m-296 80l112 0c9 0 16 7 16 16l0 112c0 9-7 16-16 16l-112 0c-9 0-16-7-16-16l0-112c0-9 7-16 16-16z m16 112l80 0 0-80-80 0z"/>
<glyph glyph-name="next" unicode="&#64;" d="M294 446c-12 11-31 11-42 0-12-12-12-31 0-42l118-118-312 0c-16 0-30-14-30-30 0-16 14-30 30-30l312 0-118-118c-12-11-12-30 0-42 6-6 13-8 21-8 7 0 15 2 21 8l190 190z"/>
<glyph glyph-name="menu-clients2" unicode="&#91;" d="M48 261c-7 0-14 3-19 8l-26 26 109 108 26-26c11-10 11-27 0-37l-71-71c-5-5-11-8-19-8z m-26 34l17-17c5-5 14-5 19 0l71 71c5 5 5 13 0 18l-17 17z m49-13l47-47-9-10-47 48z m46-100l-1 0c-5 0-9 1-13 5l-9 9c-6 7-6 18 1 25l41 42c6 5 15 5 20 0l15-15c3-3 4-7 5-10 0-4-2-8-5-10l-9-10-10 10 10 9c0 0 0 1 0 1l-15 15c-1 0-1 0-1 0l-42-42c-2-1-2-4 0-6l9-10c1 0 2-1 3-1 2 0 3 0 4 1l4 4 9-9-4-3c-3-4-8-5-12-5z m31-20l0 0c-5 0-10 1-13 5l-9 9c-7 7-7 19 0 26l41 41c3 3 7 4 11 4 3 0 7-1 10-4l14-15c6-6 5-15 0-20l-7-7-9 10 6 7c1 0 1 2 0 2l-14 17-1 0-41-44c-2-1-2-5-1-7l9-10c1 0 2-1 4-1 1 0 2 0 3 1l5 5 10-9-5-5c-4-4-8-5-13-5z m30-22c-5 0-10 2-14 6l-9 9c-7 7-6 19 1 26l41 41c6 6 15 6 20 0l16-15c5-5 5-14 0-20l-15-14-9 9 14 15c0 0 0 0 0 0l-15 16c-1 0-1 0-1 0l-42-42c-2-2-2-5 0-6l9-10c2-2 5-2 7 0l4 4 9-10-4-4c-3-3-8-5-12-5z m30-18c-5 0-10 2-13 5l-8 8c-7 8-7 19 0 26l41 41c5 5 14 5 20 0l13-14c6-5 6-14 0-19l-40-42c-4-3-8-5-13-5z m30 67l-1 0-40-39c-2-2-2-4 0-6l8-8c1-1 4-1 6 1l40 41c1 0 1-1 0-1z m-71 123l-35 30 8 10 30-25 59 10 3-14z m292-50c-7 0-14 3-19 8l-68 68c-11 10-11 27 0 37l26 27 106-106-27-26c-5-5-11-8-18-8z m-61 121l-17-17c-5-5-5-13 0-18l69-69c5-4 13-4 18 0l17 17z m-161-274c-3 0-7 1-10 4l-15 15 10 10 15-15 15 13c5 6 14 5 19 0l4-3 15 16c2 2 6 4 10 4 4 0 7-1 10-4l1-1 14 13c6 6 15 6 20 0l21 20-108 108-46-46-40 38 73 71 23 0 70-25 30 25 9-11-37-30-74 28-15 0-59-58 19-19 47 46 117-117c3-3 5-6 5-10 0-4-2-7-5-10l-20-19c-6-6-14-6-20 0l-14-14c-5-5-14-5-19 0l-2 1-15-16c-2-2-6-4-10-4-4 0-7 1-10 4l-3 3-15-13c-3-3-6-4-10-4z m208 166l10-10-84-80-9 10z m-142-72l42-42-10-9-41 41z m-21-26l26-27-10-9-26 26z m-37-15l26-26-9-10-26 26z"/>
<glyph glyph-name="menu-contragents" unicode="&#93;" d="M29 448c-16 0-29-13-29-29l0-272c0-17 14-31 31-31l42 0c5-30 30-52 60-52 30 0 56 22 61 52l155 0c5-30 30-52 61-52 30 0 55 22 60 52l11 0c9 0 16 4 22 9 5 6 9 13 9 22l0 100c0 11-4 22-8 30-4 8-8 14-8 14l0 0-42 57-1 0 0 1c-9 11-23 26-43 26l-82 0c-4 0-7 0-11-2l0 45c0 16-13 30-29 30z m0-21l259 0c4 0 9-5 9-9l0-281-103 0c-5 29-31 52-61 52-30 0-55-23-60-52l-42 0c-6 0-11 4-11 10l0 272c0 5 4 8 9 8z m299-72l41 0 0-94c0-8 3-16 9-22 5-5 13-9 21-9l93 0 0-83c0-2-2-5-4-7-2-2-5-3-7-3l-11 0c-5 29-30 52-60 52-31 0-56-23-61-52l-32 0 0 207c0 2 2 5 4 7 2 2 5 4 7 4z m61 0l21 0c8 0 20-10 27-19l42-57 0 0c1-1 3-5 6-11 3-5 4-12 5-17l-91 0c-1 0-4 1-6 3-3 3-4 5-4 7z m-256-187c23 0 41-19 41-42 0-23-18-41-41-41-23 0-41 18-41 41 0 23 18 42 41 42z m277 0c22 0 41-19 41-42 0-23-19-41-41-41-23 0-41 18-41 41 0 23 18 42 41 42z"/>
<glyph glyph-name="print" unicode="&#113;" d="M92 512l0-143-61 0c-18 0-31-14-31-31l0-215c0-18 13-31 31-31l61 0 0-92 328 0 0 92 61 0c18 0 31 13 31 31l0 215c0 17-13 31-31 31l-61 0 0 143z m21-20l286 0 0-123-286 0z m327-175c12 0 21-9 21-20 0-11-9-21-21-21-11 0-20 10-20 21 0 11 9 20 20 20z m-327-112l286 0 0-185-286 0z m41-41c-7 0-11-4-11-10 0-7 4-11 11-11l204 0c7 0 11 4 11 11 0 6-4 10-11 10z m0-41c-7 0-11-4-11-10 0-7 4-11 11-11l163 0c7 0 11 4 11 11 0 6-4 10-11 10z m0-41c-7 0-11-4-11-10 0-6 4-11 11-11l204 0c7 0 11 5 11 11 0 6-4 10-11 10z"/>
<glyph glyph-name="mail-sent" unicode="&#112;" d="M490 512c-2 0-5-1-7-2l-473-256c-6-4-10-12-9-20 0-7 6-14 13-16l126-38c3-23 16-123 18-143 3-20 16-23 29-5 9 12 62 86 62 86l112-112c5-5 12-7 18-5 7 2 12 7 14 14l118 472c2 7 1 13-4 18-4 5-10 8-17 7z m-28-58l-99-396-111 111 162 225-252-180-92 27z"/>
<glyph glyph-name="save" unicode="&#94;" d="M446 204c-4 0-7-3-7-7l0-127c0-4-3-7-7-7l-356 0c-4 0-7 3-7 7l0 127c0 4-4 7-8 7l-54 0c-4 0-7-3-7-7l0-190c0-4 3-7 7-7l498 0c4 0 7 3 7 7l0 190c0 4-3 7-7 7z m-139 94c-6 0-12 5-12 12l0 182c0 6-5 12-11 12l-56 0c-6 0-11-6-11-12l0-182c0-7-6-12-12-12l-66 0c-6 0-8-4-5-10l115-169c4-5 10-5 14 0l115 169c3 6 1 10-5 10l-66 0z"/>
<glyph glyph-name="share" unicode="&#95;" d="M480 288c-18 0-32-14-32-32l0-192-384 0 0 192c0 18-14 32-32 32-18 0-32-14-32-32l0-224c0-18 14-32 32-32l448 0c18 0 32 14 32 32l0 224c0 18-14 32-32 32z m-256-96c0-18 14-32 32-32 18 0 32 14 32 32l0 192 96 0-128 128-128-128 96 0z"/>
<glyph glyph-name="chat" unicode="&#96;" d="M208 512l96 0c115 0 208-93 208-208 0-74-39-139-98-176l2 0 0-128-144 96-64 0c-115 0-208 93-208 208 0 115 93 208 208 208z m0-352l64 0 80-48 0 57c56 20 96 72 96 135 0 80-64 144-144 144l-96 0c-80 0-144-64-144-144 0-80 64-144 144-144z m5 149c0-17-14-32-32-32-17 0-32 15-32 32 0 18 15 32 32 32 18 0 32-14 32-32z m86 0c0-17-15-32-32-32-18 0-32 15-32 32 0 18 14 32 32 32 17 0 32-14 32-32z m85 0c0-17-14-32-32-32-18 0-32 15-32 32 0 18 14 32 32 32 18 0 32-14 32-32z"/>
<glyph glyph-name="delivered" unicode="&#123;" d="M17 209l114-136 20-25 40 49-20 24-114 136-20 25-40-49z m154-136l284 341 20 24-40 48-20-24-284-341-20-24 40-49z"/>
<glyph glyph-name="timer" unicode="&#124;" d="M215 502l0-31 21 0 0-11c-115-11-205-107-205-224 0-125 101-226 225-226 124 0 225 101 225 226 0 117-90 213-205 224l0 11 21 0 0 31z m197-43l-21-20 48-48 20 21z m-156-19c113 0 205-91 205-204 0-114-92-205-205-205-113 0-205 91-205 205 0 113 92 204 205 204z m-111-85c-4-1-7-4-8-8-1-3 0-7 3-10l96-96c0-2 0-4 0-5 0-12 9-21 20-21 2 0 4 0 5 1l17-17c2-3 6-4 10-3 4 1 7 4 8 7 1 4-1 8-4 11l-16 16c0 2 0 4 0 6 0 11-9 20-20 20-2 0-4 0-5-1l-96 96c-3 3-6 4-9 4 0 0 0 0-1 0z"/>
<glyph glyph-name="stop-light" unicode="&#125;" d="M233 491c-124-12-222-116-222-243 0-135 109-245 244-245 134 0 244 110 244 245 0 127-98 231-223 243z m22-22c122 0 222-98 222-221 0-123-100-222-222-222-123 0-222 99-222 222 0 123 99 221 222 221z m-178-76l341-317 17 18-341 317z"/>
</font>
</defs>
</svg>
