<?xml version="1.0" encoding="UTF-8" standalone="no"?>
<svg width="31px" height="34px" viewBox="0 0 31 34" version="1.1" xmlns="http://www.w3.org/2000/svg" xmlns:xlink="http://www.w3.org/1999/xlink" xmlns:sketch="http://www.bohemiancoding.com/sketch/ns">
    <!-- Generator: Sketch 3.2.2 (9983) - http://www.bohemiancoding.com/sketch -->
    <title>Imported Layers</title>
    <desc>Created with Sketch.</desc>
    <defs></defs>
    <g id="Открытие-счета" stroke="none" stroke-width="1" fill="none" fill-rule="evenodd" sketch:type="MSPage">
        <g id="блок-счета-варианты" sketch:type="MSArtboardGroup" transform="translate(-1589.000000, -123.000000)" fill="#D0011B">
            <g id="Group" sketch:type="MSLayerGroup" transform="translate(1565.000000, 65.000000)">
                <path d="M54.5159081,62.6293399 L39.5959727,58.2402292 L24.6760373,62.6293399 C24.6760373,62.6293399 22.5995723,81.4928862 39.5959727,91.6197708 C56.592373,81.4928862 54.5159081,62.6293399 54.5159081,62.6293399 Z M39.5959727,65.2090828 C35.3969779,65.2090828 31.9935869,68.6124738 31.9935869,72.8114685 C31.9935869,77.0104632 35.3969779,80.4138542 39.5959727,80.4138542 C43.7949674,80.4138542 47.1983584,77.0104632 47.1983584,72.8114685 C47.1983584,68.6124738 43.7949674,65.2090828 39.5959727,65.2090828 Z M39.6740377,77.5303538 C38.9261882,77.5303538 38.2186595,77.35533 37.5904208,77.0456032 L43.9081723,70.7278517 C44.2178992,71.3560903 44.392923,72.063619 44.392923,72.8123695 C44.392923,75.417679 42.2802481,77.5303538 39.6740377,77.5303538 Z M39.6740377,68.0925832 C40.4218872,68.0925832 41.1294159,68.267607 41.7576545,68.5773339 L35.439903,74.8950853 C35.1301762,74.2668467 34.9551524,73.559318 34.9551524,72.8114685 C34.9551524,70.2052581 37.0678272,68.0925832 39.6740377,68.0925832 Z" id="Imported-Layers" sketch:type="MSShapeGroup"></path>
            </g>
        </g>
    </g>
</svg>