<?xml version="1.0" encoding="UTF-8" standalone="no"?>
<svg width="32px" height="20px" viewBox="0 0 32 20" version="1.1" xmlns="http://www.w3.org/2000/svg" xmlns:xlink="http://www.w3.org/1999/xlink">
    <!-- Generator: Sketch 39 (31667) - http://www.bohemiancoding.com/sketch -->
    <title>account_widget_status</title>
    <desc>Created with Sketch.</desc>
    <defs>
        <rect id="path-1" x="12" y="11" width="10" height="3" rx="1.5"></rect>
        <mask id="mask-2" maskContentUnits="userSpaceOnUse" maskUnits="objectBoundingBox" x="-2" y="-2" width="14" height="7">
            <rect x="10" y="9" width="14" height="7" fill="white"></rect>
            <use xlink:href="#path-1" fill="black"></use>
        </mask>
    </defs>
    <g id="Page-1" stroke="none" stroke-width="1" fill="none" fill-rule="evenodd" opacity="0.300000012">
        <g id="account_widget_status">
            <path d="M16,0 C12.66937,0 9.9482319,2.370825 9.25,5.5 C8.0323941,5.979587 7.1250623,6.871246 6.59375,8.0625 C6.393524,8.040162 6.2108978,8 6,8 C2.6983746,8 0,10.698375 0,14 C0,17.301625 2.6983746,20 6,20 L26,20 C29.301625,20 32,17.301625 32,14 C32,11.834851 30.729674,10.054754 29,9 C29,5.698375 26.301625,3 23,3 C22.567646,3 22.204176,3.1301253 21.8125,3.21875 C20.563417,1.3016794 18.451368,0 16,0 L16,0 Z M16,2 C17.958258,2 19.644293,3.1194266 20.46875,4.75 L20.84375,5.53125 L21.6875,5.25 C22.124556,5.09644 22.555632,5 23,5 C25.220375,5 27,6.779625 27,9 C27,8.991 26.98625,9.07798 26.96875,9.3125 L26.90625,10.03125 L27.5625,10.3125 C28.990818,10.922353 30,12.338324 30,14 C30,16.220375 28.220375,18 26,18 L6,18 C3.7796254,18 2,16.220375 2,14 C2,11.779625 3.7796254,10 6,10 C6.2910493,10 6.5770183,10.0266 6.875,10.09375 L7.875,10.3125 L8.0625,9.34375 C8.3101638,8.229637 9.2024354,7.358515 10.3125,7.09375 L10.96875,6.9375 L11.0625,6.25 C11.418499,3.8363784 13.477927,2 16,2 L16,2 Z" id="Shape" fill="#000000"></path>
            <g id="Rectangle">
                <use fill-opacity="0" fill="#FFFFFF" fill-rule="evenodd" xlink:href="#path-1"></use>
                <use stroke="#000000" mask="url(#mask-2)" stroke-width="4" stroke-linecap="square" xlink:href="#path-1"></use>
            </g>
            <rect id="Rectangle" fill="#000000" x="13" y="12" width="3" height="1" rx="0.5"></rect>
        </g>
    </g>
</svg>