<?xml version="1.0" encoding="UTF-8" standalone="no"?>
<svg width="31px" height="31px" viewBox="0 0 31 31" version="1.1" xmlns="http://www.w3.org/2000/svg" xmlns:xlink="http://www.w3.org/1999/xlink" xmlns:sketch="http://www.bohemiancoding.com/sketch/ns">
    <!-- Generator: Sketch 3.2.2 (9983) - http://www.bohemiancoding.com/sketch -->
    <title>Imported Layers + Path</title>
    <desc>Created with Sketch.</desc>
    <defs></defs>
    <g id="Открытие-счета" stroke="none" stroke-width="1" fill="none" fill-rule="evenodd" sketch:type="MSPage">
        <g id="блок-счета-варианты" sketch:type="MSArtboardGroup" transform="translate(-2710.000000, -123.000000)">
            <g id="Group" sketch:type="MSLayerGroup" transform="translate(2686.000000, 65.000000)">
                <g id="Imported-Layers-+-Path" transform="translate(24.000000, 58.000000)" sketch:type="MSShapeGroup">
                    <path d="M28.6024444,19.1944444 C28.9131111,18.026 30.75,17.0175556 30.75,15.75 C30.75,14.4824444 28.9131111,13.474 28.6024444,12.3055556 C28.2793333,11.0971111 29.3557778,9.30733333 28.7428889,8.24822222 C28.1215556,7.17533333 26.0277778,7.21533333 25.1562222,6.34377778 C24.2846667,5.47222222 24.3264444,3.37844444 23.2517778,2.75711111 C22.1926667,2.14422222 20.4028889,3.22066667 19.1944444,2.89755556 C18.026,2.58688889 17.0175556,0.75 15.75,0.75 C14.4824444,0.75 13.474,2.58688889 12.3055556,2.89755556 C11.0971111,3.22066667 9.30733333,2.14422222 8.24822222,2.75711111 C7.17533333,3.37844444 7.21533333,5.47222222 6.34377778,6.34377778 C5.47222222,7.21533333 3.37844444,7.17355556 2.75711111,8.24822222 C2.14422222,9.30733333 3.22066667,11.0971111 2.89755556,12.3055556 C2.58688889,13.474 0.75,14.4824444 0.75,15.75 C0.75,17.0175556 2.58688889,18.026 2.89755556,19.1944444 C3.22066667,20.4028889 2.14422222,22.1926667 2.75711111,23.2517778 C3.37844444,24.3246667 5.47222222,24.2846667 6.34377778,25.1562222 C7.21533333,26.0277778 7.17355556,28.1215556 8.24822222,28.7428889 C9.30733333,29.3557778 11.0971111,28.2793333 12.3055556,28.6024444 C13.474,28.9131111 14.4824444,30.75 15.75,30.75 C17.0175556,30.75 18.026,28.9131111 19.1944444,28.6024444 C20.4028889,28.2793333 22.1926667,29.3557778 23.2517778,28.7428889 C24.3246667,28.1215556 24.2846667,26.0277778 25.1562222,25.1562222 C26.0277778,24.2846667 28.1215556,24.3264444 28.7428889,23.2517778 C29.354,22.1926667 28.2793333,20.4028889 28.6024444,19.1944444 L28.6024444,19.1944444 Z" id="Imported-Layers" fill="#8DC540"></path>
                    <path d="M13.8108889,20.854 L9.55222222,16.5677778 L11.6197778,14.486 L13.87,16.75 L19.9375556,10.646 L21.946,12.6664444 L13.8108889,20.854 Z" id="Path" fill="#FFFFFF"></path>
                </g>
            </g>
        </g>
    </g>
</svg>