<?xml version="1.0" encoding="UTF-8" standalone="no"?>
<svg width="31px" height="23px" viewBox="0 0 31 23" version="1.1" xmlns="http://www.w3.org/2000/svg" xmlns:xlink="http://www.w3.org/1999/xlink" xmlns:sketch="http://www.bohemiancoding.com/sketch/ns">
    <!-- Generator: Sketch 3.2.2 (9983) - http://www.bohemiancoding.com/sketch -->
    <title>Imported Layers</title>
    <desc>Created with Sketch.</desc>
    <defs></defs>
    <g id="Открытие-счета" stroke="none" stroke-width="1" fill="none" fill-rule="evenodd" sketch:type="MSPage">
        <g id="блок-счета-варианты" sketch:type="MSArtboardGroup" transform="translate(-849.000000, -127.000000)">
            <g id="Group" sketch:type="MSLayerGroup" transform="translate(825.000000, 65.000000)">
                <g id="Imported-Layers" transform="translate(24.500000, 62.100000)" sketch:type="MSShapeGroup">
                    <path d="M26.1516,8.6344 C26.1936,8.3092 26.25,7.9876 26.25,7.65 C26.25,3.508 22.8936,0.15 18.75,0.15 C16.3,0.15 14.1452,1.342 12.7764,3.1608 C12.2844,3.0408 11.778,2.9624 11.25,2.9624 C7.6248,2.9624 4.6876,5.9 4.6876,9.5248 C4.6876,9.628 4.7124,9.7188 4.7172,9.822 C1.9984,10.622 0,13.108 0,16.0876 C0,19.7124 2.9376,22.65 6.5624,22.65 L22.5,22.65 C26.6436,22.65 30,19.2936 30,15.15 C30,12.3408 28.4376,9.9204 26.1516,8.6344 L26.1516,8.6344 Z M22.1099534,18.4574721 L7.89004664,18.4574721 C6.58124087,18.4574721 5.52017454,17.3964058 5.52017454,16.0876 C5.52017454,14.7787942 6.58124087,13.7177279 7.89004664,13.7177279 L22.1099534,13.7177279 C23.4187591,13.7177279 24.4798255,14.7787942 24.4798255,16.0876 C24.4798255,17.3964058 23.4187591,18.4574721 22.1099534,18.4574721 L22.1099534,18.4574721 Z" id="Fill-1" fill="#00AEF0"></path>
                    <path d="M17.3698721,14.5074606 L7.89004664,14.5074606 C7.01975653,14.5074606 6.31024426,15.2173099 6.31024426,16.0876 C6.31024426,16.9592384 7.01975653,17.6674024 7.89004664,17.6674024 L17.3698721,17.6674024 C18.2415105,17.6674024 18.9500115,16.9592384 18.9500115,16.0876 C18.9500115,15.2173099 18.2415105,14.5074606 17.3698721,14.5074606 L17.3698721,14.5074606 Z" id="Fill-2" fill="#8DC540"></path>
                </g>
            </g>
        </g>
    </g>
</svg>