<?xml version="1.0" encoding="UTF-8" standalone="no"?>
<svg width="32px" height="29px" viewBox="0 0 32 29" version="1.1" xmlns="http://www.w3.org/2000/svg" xmlns:xlink="http://www.w3.org/1999/xlink" xmlns:sketch="http://www.bohemiancoding.com/sketch/ns">
    <!-- Generator: Sketch 3.3 (11970) - http://www.bohemiancoding.com/sketch -->
    <title>noun_48776</title>
    <desc>Created with Sketch.</desc>
    <defs></defs>
    <g id="Мессенджер" stroke="none" stroke-width="1" fill="none" fill-rule="evenodd" sketch:type="MSPage">
        <g id="месенджер---сообщение" sketch:type="MSArtboardGroup" transform="translate(-925.000000, -668.000000)" fill="#828A96">
            <g id="Group" sketch:type="MSLayerGroup" transform="translate(800.000000, 385.000000)">
                <g id="noun_48776" transform="translate(125.000000, 283.307692)" sketch:type="MSShapeGroup">
                    <ellipse id="Oval" cx="10.3883077" cy="13.1293162" rx="1.15384615" ry="1.74247863"></ellipse>
                    <path d="M21.9267692,14.8717949 C22.5640209,14.8717949 23.0806154,14.0916606 23.0806154,13.1293162 C23.0806154,12.1669719 22.5640209,11.3868376 21.9267692,11.3868376 C21.2895176,11.3868376 20.7729231,12.1669719 20.7729231,13.1293162 C20.7729231,14.0916606 21.2895176,14.8717949 21.9267692,14.8717949 Z" id="Oval"></path>
                    <path d="M19.6190769,16.6142735 C19.3003077,16.6142735 19.0418462,16.8739103 19.0418462,17.1955128 C19.0418462,18.7973291 17.7483077,20.1004701 16.1569231,20.1004701 C14.5655385,20.1004701 13.272,18.7979487 13.272,17.1955128 C13.272,16.8745299 13.0141538,16.6142735 12.6947692,16.6142735 C12.3753846,16.6142735 12.1175385,16.8739103 12.1175385,17.1955128 C12.1175385,19.4374359 13.9292308,21.2617094 16.1556923,21.2617094 C18.3821538,21.2617094 20.1938462,19.4374359 20.1938462,17.1955128 C20.1963077,16.8745299 19.9378462,16.6142735 19.6190769,16.6142735 L19.6190769,16.6142735 Z" id="Shape"></path>
                    <path d="M31.7347692,13.7099359 C31.7347692,6.34282051 24.7476923,0.348867521 16.1581538,0.348867521 C7.56861538,0.348867521 0.581538462,6.34282051 0.581538462,13.7099359 C0.581538462,21.0770513 7.56861538,27.0710043 16.1581538,27.0710043 C18.1366154,27.0710043 20.0658462,26.7568376 21.9655385,26.1260256 C22.2067692,26.1260256 22.6338462,26.3980556 23.0855385,26.6874359 C24.1076923,27.3399359 25.5083077,28.2328632 27.6966154,28.2328632 C27.896,28.2328632 28.0818462,28.1287607 28.1876923,27.9571154 C28.2923077,27.7854701 28.3015385,27.5723077 28.2123077,27.3919872 C27.0947692,25.1420085 27.4867692,22.9093803 28.0006154,22.3932051 C30.4086154,19.9796368 31.7347692,16.8962179 31.7347692,13.7099359 L31.7347692,13.7099359 Z M27.1858462,21.5696795 C26.3095385,22.451453 26.0129231,24.7671154 26.7993846,27.0090385 C25.4424615,26.8157051 24.4929231,26.2102991 23.7027692,25.7065171 C23.0793846,25.3080769 22.5409231,24.9641667 21.9649231,24.9641667 C21.8129231,24.9641667 21.664,24.9895726 21.5230769,25.0366667 C19.8153846,25.6154274 18.0098462,25.9091453 16.1575385,25.9091453 C8.20492308,25.9091453 1.73415385,20.4369444 1.73415385,13.7093162 C1.73415385,6.98168803 8.20430769,1.50948718 16.1575385,1.50948718 C24.1107692,1.50948718 30.5809231,6.98168803 30.5809231,13.7093162 C30.5809231,16.5839103 29.3747692,19.3767094 27.1858462,21.5696795 L27.1858462,21.5696795 Z" id="Shape"></path>
                </g>
            </g>
        </g>
    </g>
</svg>