<svg version="1.1" id="Слой_1" xmlns="http://www.w3.org/2000/svg" xmlns:xlink="http://www.w3.org/1999/xlink" x="0px" y="0px" width="48px" height="48px" viewBox="0 0 48 48" enable-background="new 0 0 48 48" xml:space="preserve">
<circle fill="#4CAF50" cx="24" cy="24" r="19"></circle>
<path fill="#FFFFFF" d="M26.9,29.196c0-0.805-0.215-1.444-0.645-1.92c-0.431-0.477-1.161-0.916-2.192-1.318
	c-1.03-0.402-3.355-1.708-4.369-2.651c-0.544-0.506-0.95-1.122-1.249-1.818C18.149,20.791,18,19.962,18,19
	c0-1.658,0.498-3.092,1.406-4.25C20.656,13.156,23,13,23,13v-3h2v3c1.166,0,3.466,0.387,4.82,2.461C31.017,17.292,31,20,31,20h-4
	c0-1.178-0.234-2.019-0.701-2.603c-0.469-0.584-1.194-0.876-1.979-0.876c-0.776,0-1.256,0.334-1.681,0.791
	C22.213,17.769,22,18.399,22,19.204c0,0.746,0.208,1.345,0.624,1.796s1.069,0.807,2.199,1.277c1.13,0.472,2.059,0.916,2.787,1.332
	c0.729,0.418,1.344,0.89,1.845,1.413c0.501,0.526,0.884,1.125,1.149,1.796C30.867,27.492,31,28.274,31,29.167
	c0,1.668-0.501,3.023-1.504,4.063c-1.002,1.04-2.737,1.653-4.496,1.84V38h-2v-2.915c-1.938-0.216-3.34-0.93-4.404-2.143
	C17.532,31.731,17,30.012,17,28h4c0,1.168,0.267,2.171,0.801,2.793c0.534,0.624,1.196,0.936,2.199,0.936
	c0.833,0,1.695-0.229,2.178-0.684C26.66,30.587,26.9,29.972,26.9,29.196z"></path>
</svg>