<svg version="1.1" id="Слой_1" xmlns="http://www.w3.org/2000/svg" xmlns:xlink="http://www.w3.org/1999/xlink" x="0px" y="0px" width="48px" height="48px" viewBox="0 0 48 48" enable-background="new 0 0 48 48" xml:space="preserve">
<circle fill="#3F51B5" cx="24" cy="24" r="19"></circle>
<path fill="#FFD600" d="M27,27h-5c0,4,2,4.465,4.62,4.465c1.047,0,1.994-0.15,2.841-0.455L30,34.573
	C28.764,34.857,27.487,35,26.172,35c-2.623,0-4.699-0.694-6.229-2.084C18.412,31.527,18.08,29.474,18,27h-3v-2h3v-2h-3v-2h3
	c0.17-2.474,0.601-4.577,2.182-5.945C21.762,13.684,23.858,13,26.471,13c1.047,0,2.223,0.152,3.529,0.456l-0.539,3.579
	c-0.937-0.314-1.859-0.472-2.766-0.472C23.874,16.563,22,18,22.059,21H27v2h-5v2h5V27z"></path>
</svg>