<?xml version="1.0" encoding="UTF-8" standalone="no"?>
<svg width="32px" height="43px" viewBox="0 0 32 43" version="1.1" xmlns="http://www.w3.org/2000/svg" xmlns:xlink="http://www.w3.org/1999/xlink" xmlns:sketch="http://www.bohemiancoding.com/sketch/ns">
    <!-- Generator: Sketch 3.2.2 (9983) - http://www.bohemiancoding.com/sketch -->
    <title>icon_file_other</title>
    <desc>Created with Sketch.</desc>
    <defs></defs>
    <g id="brandbook" stroke="none" stroke-width="1" fill="none" fill-rule="evenodd" sketch:type="MSPage">
        <g id="icon_file_other" sketch:type="MSLayerGroup" transform="translate(0.000000, 0.226592)">
            <path d="M1.88116854,0.0161797753 L21.2970187,0.0161797753 L31.9036404,10.6229213 L31.9036404,40.6715206 C31.9036404,41.6613633 31.0960899,42.4691536 30.1060075,42.4691536 L1.88116854,42.4691536 C0.891205993,42.4691536 0.0834157303,41.661603 0.0834157303,40.6715206 L0.0834157303,1.81393258 C0.0834157303,0.823730337 0.891086142,0.0161797753 1.88116854,0.0161797753" id="Fill-1" fill="#F3F2EF" sketch:type="MSShapeGroup"></path>
            <path d="M0.0840149813,40.7177828 C0.10870412,41.6866517 0.906546816,42.4691536 1.88116854,42.4691536 C0.906666667,42.4691536 0.10870412,41.6866517 0.0840149813,40.7177828 M31.9036404,40.6715206 C31.9036404,41.6613633 31.0960899,42.4691536 30.1060075,42.4691536 C31.0960899,42.4691536 31.9036404,41.661603 31.9036404,40.6715206" id="Fill-2" fill="#E5E5E5" sketch:type="MSShapeGroup"></path>
            <path d="M31.9036404,39.2331985 C31.9036404,40.2232809 31.0960899,41.0309513 30.1060075,41.0309513 L1.88116854,41.0309513 C0.891205993,41.0309513 0.0834157303,40.2234007 0.0834157303,39.2331985 L0.0834157303,40.6715206 C0.0834157303,40.6869813 0.0836554307,40.7023221 0.0840149813,40.7177828 C0.10870412,41.6866517 0.906666667,42.4691536 1.88116854,42.4691536 L30.1060075,42.4691536 C31.0960899,42.4691536 31.9036404,41.6613633 31.9036404,40.6715206 L31.9036404,39.2331985" id="Fill-3" fill="#DAD9D7" sketch:type="MSShapeGroup"></path>
            <path d="M21.2970187,0.0161797753 L21.2970187,10.6229213 L31.9036404,10.6229213 L21.2970187,0.0161797753" id="Fill-4" fill="#F8F7F4" sketch:type="MSShapeGroup"></path>
            <path d="M31.9036404,10.6229213 L21.2970187,10.6229213 L31.9036404,21.2296629 L31.9036404,10.6229213" id="Fill-6" fill="#DAD9D7" sketch:type="MSShapeGroup"></path>
        </g>
    </g>
</svg>