<?xml version="1.0" encoding="UTF-8" standalone="no"?>
<svg width="33px" height="43px" viewBox="0 0 33 43" version="1.1" xmlns="http://www.w3.org/2000/svg" xmlns:xlink="http://www.w3.org/1999/xlink" xmlns:sketch="http://www.bohemiancoding.com/sketch/ns">
    <!-- Generator: Sketch 3.2.2 (9983) - http://www.bohemiancoding.com/sketch -->
    <title>icon_file_doc</title>
    <desc>Created with Sketch.</desc>
    <defs></defs>
    <g id="brandbook" stroke="none" stroke-width="1" fill="none" fill-rule="evenodd" sketch:type="MSPage">
        <g id="icon_file_doc" sketch:type="MSLayerGroup" transform="translate(0.500000, 0.000000)">
            <path d="M1.82159398,0.0923909774 L21.3104361,0.0923909774 L31.9570526,10.7387669 L31.9570526,40.9003308 C31.9570526,41.894015 31.1462256,42.7048421 30.1525414,42.7048421 L1.82159398,42.7048421 C0.827909774,42.7048421 0.0172030075,41.8942556 0.0172030075,40.9003308 L0.0172030075,1.89666165 C0.0172030075,0.902857143 0.827789474,0.0923909774 1.82159398,0.0923909774" id="Fill-1" fill="#3EA3DB" sketch:type="MSShapeGroup"></path>
            <path d="M0.0173233083,40.9294436 C0.032962406,41.910015 0.837533835,42.7048421 1.82159398,42.7048421 C0.837654135,42.7048421 0.032962406,41.910015 0.0173233083,40.9294436 M31.9570526,40.9003308 C31.9570526,41.894015 31.1462256,42.7048421 30.1525414,42.7048421 C31.1463459,42.7048421 31.9570526,41.8942556 31.9570526,40.9003308" id="Fill-2" fill="#CCCCCC" sketch:type="MSShapeGroup"></path>
            <path d="M31.9570526,39.4567218 C31.9570526,40.4505263 31.1462256,41.2612331 30.1525414,41.2612331 L1.82159398,41.2612331 C0.827909774,41.2612331 0.0172030075,40.4506466 0.0172030075,39.4567218 L0.0172030075,40.9003308 C0.0172030075,40.9100752 0.0172030075,40.9198195 0.0173233083,40.9294436 C0.032962406,41.910015 0.837654135,42.7048421 1.82159398,42.7048421 L30.1525414,42.7048421 C31.1462256,42.7048421 31.9570526,41.894015 31.9570526,40.9003308 L31.9570526,39.4567218" id="Fill-3" fill="#3282AF" sketch:type="MSShapeGroup"></path>
            <path d="M27.2861353,13.385985 L23.0480602,29.4112481 L19.0464962,29.4112481 L16.3877293,19.1307068 C16.2464962,18.5929624 16.1626466,17.993985 16.1320902,17.3302857 L16.0862556,17.3302857 C16.0175639,18.0588271 15.9222857,18.6615338 15.7963308,19.1307068 L13.0688722,29.4112481 L8.89948872,29.4112481 L4.6881203,13.385985 L8.63242105,13.385985 L10.8907068,24.059188 C10.9861053,24.5133233 11.0585263,25.123609 11.1005113,25.8902857 L11.169203,25.8902857 C11.1997594,25.3181353 11.3064662,24.6924511 11.4934135,24.013594 L14.4002406,13.385985 L18.2644211,13.385985 L20.8927519,24.1471278 C20.9881504,24.5437594 21.0758496,25.1159098 21.1482707,25.8675489 L21.1941053,25.8675489 C21.2246617,25.28 21.3009323,24.6848722 21.4267669,24.0821654 L23.643188,13.385985 L27.2861353,13.385985" id="Fill-4" fill="#FFFFFF" sketch:type="MSShapeGroup"></path>
            <path d="M21.3104361,0.0923909774 L21.3104361,10.7387669 L31.9570526,10.7387669 L21.3104361,0.0923909774" id="Fill-5" fill="#52ACDF" sketch:type="MSShapeGroup"></path>
            <path d="M31.9570526,10.7387669 L21.3104361,10.7387669 L23.9574135,13.385985 L27.2861353,13.385985 L26.5899549,16.018406 L31.9570526,21.3855038 L31.9570526,10.7387669" id="Fill-6" fill="#3282AF" sketch:type="MSShapeGroup"></path>
            <path d="M27.2861353,13.385985 L23.9574135,13.385985 L26.5899549,16.018406 L27.2861353,13.385985" id="Fill-7" fill="#CCCCCC" sketch:type="MSShapeGroup"></path>
        </g>
    </g>
</svg>