<?xml version="1.0" encoding="UTF-8" standalone="no"?>
<svg width="17px" height="16px" viewBox="0 0 17 16" version="1.1" xmlns="http://www.w3.org/2000/svg" xmlns:xlink="http://www.w3.org/1999/xlink" xmlns:sketch="http://www.bohemiancoding.com/sketch/ns">
    <!-- Generator: Sketch 3.3.2 (12043) - http://www.bohemiancoding.com/sketch -->
    <title>Shape</title>
    <desc>Created with Sketch.</desc>
    <defs></defs>
    <g id="Платежки" stroke="none" stroke-width="1" fill="none" fill-rule="evenodd" sketch:type="MSPage">
        <g id="создание-платежки-copy-4" sketch:type="MSArtboardGroup" transform="translate(-436.000000, -588.000000)" fill="#6690B0">
            <g id="Group" sketch:type="MSLayerGroup" transform="translate(230.000000, 127.000000)">
                <g id="Rectangle-3-Copy-+-Полное-наименование*-Copy-Copy-Copy-Copy-Copy" transform="translate(10.500000, 282.000000)" sketch:type="MSShapeGroup">
                    <path d="M210.65625,180.5 L208.5,180.5 L208.5,179.5 C208.5,179.21875 208.28125,179 208,179 C207.71875,179 207.5,179.21875 207.5,179.5 L207.5,180.5 L204.5,180.5 L204.5,179.5 C204.5,179.21875 204.28125,179 204,179 C203.71875,179 203.5,179.21875 203.5,179.5 L203.5,180.5 L200.5,180.5 L200.5,179.5 C200.5,179.21875 200.28125,179 200,179 C199.71875,179 199.5,179.21875 199.5,179.5 L199.5,180.5 L197.34375,180.5 C196.59375,180.5 196,181.09375 196,181.84375 L196,193.65625 C196,194.40625 196.59375,195 197.34375,195 L210.65625,195 C211.40625,195 212,194.40625 212,193.65625 L212,181.84375 C212,181.09375 211.40625,180.5 210.65625,180.5 L210.65625,180.5 Z M211,193.65625 C211,193.84375 210.84375,194 210.65625,194 L197.34375,194 C197.15625,194 197,193.84375 197,193.65625 L197,181.84375 C197,181.65625 197.15625,181.5 197.34375,181.5 L199.5,181.5 L199.5,182.5 C199.5,182.78125 199.71875,183 200,183 C200.28125,183 200.5,182.78125 200.5,182.5 L200.5,181.5 L203.5,181.5 L203.5,182.5 C203.5,182.78125 203.71875,183 204,183 C204.28125,183 204.5,182.78125 204.5,182.5 L204.5,181.5 L207.5,181.5 L207.5,182.5 C207.5,182.78125 207.71875,183 208,183 C208.28125,183 208.5,182.78125 208.5,182.5 L208.5,181.5 L210.65625,181.5 C210.84375,181.5 211,181.65625 211,181.84375 L211,193.65625 Z M199.5,185 L201.5,185 L201.5,186.5 L199.5,186.5 L199.5,185 Z M199.5,187.5 L201.5,187.5 L201.5,189 L199.5,189 L199.5,187.5 Z M199.5,190 L201.5,190 L201.5,191.5 L199.5,191.5 L199.5,190 Z M203,190 L205,190 L205,191.5 L203,191.5 L203,190 Z M203,187.5 L205,187.5 L205,189 L203,189 L203,187.5 Z M203,185 L205,185 L205,186.5 L203,186.5 L203,185 Z M206.5,190 L208.5,190 L208.5,191.5 L206.5,191.5 L206.5,190 Z M206.5,187.5 L208.5,187.5 L208.5,189 L206.5,189 L206.5,187.5 Z M206.5,185 L208.5,185 L208.5,186.5 L206.5,186.5 L206.5,185 Z" id="Shape"></path>
                </g>
            </g>
        </g>
    </g>
</svg>