<?xml version="1.0" encoding="UTF-8" standalone="no"?>
<svg width="50px" height="55px" viewBox="0 0 50 55" version="1.1" xmlns="http://www.w3.org/2000/svg" xmlns:xlink="http://www.w3.org/1999/xlink" xmlns:sketch="http://www.bohemiancoding.com/sketch/ns">
    <!-- Generator: Sketch 3.2.2 (9983) - http://www.bohemiancoding.com/sketch -->
    <title>noun_18231</title>
    <desc>Created with Sketch.</desc>
    <defs></defs>
    <g id="Открытие-счета" stroke="none" stroke-width="1" fill="none" fill-rule="evenodd" sketch:type="MSPage">
        <g id="открытие-счета-1" sketch:type="MSArtboardGroup" transform="translate(-304.000000, -399.000000)">
            <g id="noun_18231" sketch:type="MSLayerGroup" transform="translate(304.000000, 399.000000)">
                <path d="M44.274,32.122 L44.2785,33.588 L36.2705,38.211 L33.0685,40.0595 L25.063,44.6815 L25.0005,22.619 L24.9375,44.6815 L16.9325,40.0595 L16.948,34.54 L16.9455,34.538 L16.935,38.1925 L13.7355,36.3455 L13.73,38.211 L5.7225,33.588 L5.727,32.1015 L0,35.4295 L25.0805,49.91 L50,35.4275 L44.274,32.122 Z" id="Shape" fill="#A6A67C" sketch:type="MSShapeGroup"></path>
                <path d="M13.73,38.211 L13.7355,36.346 L13.7335,36.344 L13.521,32.6625 L16.5,34.5105 L16.5,34.538 L16.725,34.54 L16.821,40.0595 L24.8815,44.6815 L24.972,22.619 L24.9845,22.62 L8.535,13.1 L5.782,11.5085 L5.7255,32.1015 L5.7215,33.588 L13.73,38.211 L13.73,38.211 Z M23.3435,41.92 L20.1395,40.0705 L20.15,36.389 L23.3545,38.2385 L23.3435,41.92 L23.3435,41.92 Z M23.3645,34.5595 L20.1605,32.709 L20.171,29.0305 L23.375,30.881 L23.3645,34.5595 L23.3645,34.5595 Z M23.3955,23.5195 L23.385,27.198 L20.181,25.3485 L20.1915,21.6695 L23.3955,23.5195 L23.3955,23.5195 Z M13.788,17.9725 L16.9895,19.821 L16.979,23.5 L13.7775,21.6515 L13.788,17.9725 L13.788,17.9725 Z M16.969,27.1815 L16.9585,30.861 L13.7565,29.0125 L13.767,25.3335 L16.969,27.1815 L16.969,27.1815 Z M7.382,14.274 L10.5835,16.1225 L10.573,19.8015 L7.3715,17.953 L7.382,14.274 L7.382,14.274 Z M7.361,21.635 L10.5625,23.4835 L10.552,27.1625 L7.3505,25.314 L7.361,21.635 L7.361,21.635 Z M10.542,30.842 L10.5315,34.5235 L7.33,32.675 L7.3405,28.9935 L10.542,30.842 L10.542,30.842 Z" id="Shape" fill="#A6A67C" sketch:type="MSShapeGroup"></path>
                <path d="M29.8095,21.6695 L26.6055,23.52 L26.6155,27.198 L29.82,25.3485 L29.8095,21.6695 Z" id="Shape" fill="#A6A67C" sketch:type="MSShapeGroup"></path>
                <path d="M33.0215,23.5 L36.223,21.6515 L36.213,17.9725 L33.011,19.8215 L33.0215,23.5 Z" id="Shape" fill="#A6A67C" sketch:type="MSShapeGroup"></path>
                <path d="M42.629,17.9535 L42.6185,14.2745 L39.417,16.123 L39.427,19.802 L42.629,17.9535 Z" id="Shape" fill="#A6A67C" sketch:type="MSShapeGroup"></path>
                <path d="M29.83,29.028 L26.6265,30.878 L26.6365,34.5595 L29.8405,32.709 L29.83,29.028 Z" id="Shape" fill="#A6A67C" sketch:type="MSShapeGroup"></path>
                <path d="M33.0315,27.179 L33.0425,30.8615 L36.244,29.0125 L36.234,25.3305 L33.0315,27.179 Z" id="Shape" fill="#A6A67C" sketch:type="MSShapeGroup"></path>
                <path d="M39.448,27.1625 L42.65,25.314 L42.6395,21.6325 L39.438,23.481 L39.448,27.1625 Z" id="Shape" fill="#A6A67C" sketch:type="MSShapeGroup"></path>
                <path d="M26.647,38.2385 L26.6575,41.917 L29.8615,40.0675 L29.851,36.3885 L26.647,38.2385 Z" id="Shape" fill="#A6A67C" sketch:type="MSShapeGroup"></path>
                <path d="M33.0525,34.54 L33.0685,40.0595 L36.2705,38.211 L36.2545,32.6915 L33.0525,34.54 Z" id="Shape" fill="#A6A67C" sketch:type="MSShapeGroup"></path>
                <path d="M39.4585,30.842 L39.469,34.5205 L42.671,32.672 L42.66,28.993 L39.4585,30.842 Z" id="Shape" fill="#A6A67C" sketch:type="MSShapeGroup"></path>
                <path d="M24.9185,1.619 L40.7225,10.7435 L42.0445,9.9755 L24.9225,0.09 L24.9185,1.619 Z" id="Shape" fill="#A6A67C" sketch:type="MSShapeGroup"></path>
                <path d="M9.2275,10.738 L24.9185,1.619 L24.9225,0.09 L7.9095,9.977 L9.2275,10.738 Z" id="Shape" fill="#A6A67C" sketch:type="MSShapeGroup"></path>
                <path d="M24.9985,22.62 L25.0025,21.0915 L5.788,9.976 L5.7835,11.504 L8.542,13.1 L24.9985,22.62 Z" id="Shape" fill="#A6A67C" sketch:type="MSShapeGroup"></path>
                <g id="Group" transform="translate(21.000000, 31.000000)" sketch:type="MSShapeGroup">
                    <path d="M10.0064516,18.7045161 C4.87896774,18.7045161 0.707612903,14.5331613 0.707612903,9.40645161 C0.707612903,4.27974194 4.87896774,0.107612903 10.0064516,0.107612903 C15.1339355,0.107612903 19.3045161,4.27896774 19.3045161,9.40645161 C19.3045161,14.5339355 15.1331613,18.7045161 10.0064516,18.7045161 L10.0064516,18.7045161 Z" id="Path" stroke="#FFFBDB" stroke-width="2" fill="#A5A67C"></path>
                    <path d="M10.0064516,2.43019355 C6.15948387,2.43019355 3.03019355,5.55948387 3.03019355,9.40645161 C3.03019355,13.2526452 6.15948387,16.3819355 10.0064516,16.3819355 C13.8526452,16.3819355 16.9819355,13.2526452 16.9819355,9.40645161 C16.9819355,5.55948387 13.8526452,2.43019355 10.0064516,2.43019355 L10.0064516,2.43019355 Z" id="Path" fill="#FFFBDB"></path>
                    <path d="M22.6877419,23.4665806 C22.3904516,23.4665806 22.0931613,23.3535484 21.8663226,23.1267097 L14.8954839,16.155871 C14.4418065,15.7029677 14.4418065,14.9667097 14.8954839,14.5138065 C15.3491613,14.060129 16.083871,14.060129 16.5375484,14.5138065 L23.5083871,21.4846452 C23.9620645,21.9375484 23.9620645,22.6738065 23.5083871,23.1267097 C23.2815484,23.3535484 22.9842581,23.4665806 22.6877419,23.4665806 L22.6877419,23.4665806 Z" id="Shape" fill="#A5A67C"></path>
                </g>
            </g>
        </g>
    </g>
</svg>