<svg xmlns="http://www.w3.org/2000/svg" width="54" height="54" viewBox="0 0 54 54">
  <g fill="none" fill-rule="evenodd">
    <path fill="#F7F7F7" d="M27,54 C41.9116882,54 54,41.9116882 54,27 C54,12.0883118 41.9116882,0 27,0 C12.0883118,0 0,12.0883118 0,27 C0,41.9116882 12.0883118,54 27,54 Z"/>
    <path fill="#00417B" d="M18.803871,11.0024573 C16.9606424,11.0024573 15.4593548,12.5053747 15.4593548,14.3504573 L15.4593548,32.2064573 L11.5574194,32.2064573 C11.2495779,32.2064881 11.0000307,32.4562952 11,32.7644573 L11,34.4384573 C11,36.9019157 12.9985137,38.9024573 15.4593548,38.9024573 L26.6077419,38.9024573 L26.6077419,41.6924573 C26.6077727,42.0006194 26.8573198,42.2504265 27.1651613,42.2504573 L42.7729032,42.2504573 C43.0807447,42.2504265 43.3302918,42.0006194 43.3303226,41.6924573 L43.3303226,21.6044573 C43.3302918,21.2962952 43.0807447,21.0464881 42.7729032,21.0464573 L36.6412903,21.0464573 L36.6412903,14.3853323 C36.6412903,12.5257416 35.1435881,11.0024573 33.2967742,11.0024573 C33.23669,11.0024573 33.1818867,10.9992734 33.1225806,11.0024573 C33.0878188,10.9991809 33.0528264,10.9991809 33.0180645,11.0024573 L18.803871,11.0024573 L18.803871,11.0024573 Z M18.803871,12.1184573 L30.8232258,12.1184573 C30.2780697,12.7212415 29.9522581,13.5088634 29.9522581,14.3853323 L29.9522581,21.0464573 L27.1651613,21.0464573 C26.8573198,21.0464881 26.6077727,21.2962952 26.6077419,21.6044573 L26.6077419,32.1715823 L16.5741935,32.2064573 L16.5741935,14.3504573 C16.5741935,13.1043317 17.558975,12.1184573 18.803871,12.1184573 L18.803871,12.1184573 Z M33.0877419,12.1184573 C33.1571306,12.1120193 33.2255828,12.1184573 33.2967742,12.1184573 C34.5380613,12.1184573 35.5264516,13.1180027 35.5264516,14.3853323 L35.5264516,21.0464573 L31.0670968,21.0464573 L31.0670968,14.3853323 C31.0670968,13.1906878 31.9472709,12.2242721 33.0877419,12.1184573 L33.0877419,12.1184573 Z M17.6890323,14.3504573 L17.6890323,15.4664573 L18.803871,15.4664573 L18.803871,14.3504573 L17.6890323,14.3504573 L17.6890323,14.3504573 Z M19.9187097,14.3504573 L19.9187097,15.4664573 L28.8374194,15.4664573 L28.8374194,14.3504573 L19.9187097,14.3504573 L19.9187097,14.3504573 Z M17.6890323,16.5824573 L17.6890323,17.6984573 L18.803871,17.6984573 L18.803871,16.5824573 L17.6890323,16.5824573 L17.6890323,16.5824573 Z M19.9187097,16.5824573 L19.9187097,17.6984573 L28.8374194,17.6984573 L28.8374194,16.5824573 L19.9187097,16.5824573 L19.9187097,16.5824573 Z M17.6890323,18.8144573 L17.6890323,19.9304573 L18.803871,19.9304573 L18.803871,18.8144573 L17.6890323,18.8144573 L17.6890323,18.8144573 Z M19.9187097,18.8144573 L19.9187097,19.9304573 L28.8374194,19.9304573 L28.8374194,18.8144573 L19.9187097,18.8144573 L19.9187097,18.8144573 Z M17.6890323,21.0464573 L17.6890323,22.1624573 L18.803871,22.1624573 L18.803871,21.0464573 L17.6890323,21.0464573 L17.6890323,21.0464573 Z M19.9187097,21.0464573 L19.9187097,22.1624573 L25.4929032,22.1624573 L25.4929032,21.0464573 L19.9187097,21.0464573 L19.9187097,21.0464573 Z M27.7225806,22.1624573 L30.4051613,22.1624573 L36.1883871,22.1624573 L42.2154839,22.1624573 L42.2154839,41.1344573 L27.7225806,41.1344573 L27.7225806,38.4490823 C27.7258537,38.4142843 27.7258537,38.3792554 27.7225806,38.3444573 L27.7225806,32.7295823 C27.7258537,32.6947843 27.7258537,32.6597554 27.7225806,32.6249573 L27.7225806,22.1624573 L27.7225806,22.1624573 Z M28.6632258,22.7204573 C28.4244694,22.7987604 28.2675381,23.0272618 28.28,23.2784573 L28.28,26.6264573 C28.2800308,26.9346194 28.5295779,27.1844265 28.8374194,27.1844573 L41.1006452,27.1844573 C41.4084866,27.1844265 41.6580337,26.9346194 41.6580645,26.6264573 L41.6580645,23.2784573 C41.6580337,22.9702952 41.4084866,22.7204881 41.1006452,22.7204573 L28.8374194,22.7204573 C28.7797136,22.7113201 28.7209316,22.7113201 28.6632258,22.7204573 L28.6632258,22.7204573 Z M17.6890323,23.2784573 L17.6890323,24.3944573 L18.803871,24.3944573 L18.803871,23.2784573 L17.6890323,23.2784573 L17.6890323,23.2784573 Z M19.9187097,23.2784573 L19.9187097,24.3944573 L25.4929032,24.3944573 L25.4929032,23.2784573 L19.9187097,23.2784573 L19.9187097,23.2784573 Z M29.3948387,23.8364573 L40.5432258,23.8364573 L40.5432258,26.0684573 L29.3948387,26.0684573 L29.3948387,23.8364573 L29.3948387,23.8364573 Z M21.0335484,25.5104573 L21.0335484,26.6264573 L25.4929032,26.6264573 L25.4929032,25.5104573 L21.0335484,25.5104573 L21.0335484,25.5104573 Z M21.0335484,27.7424573 L21.0335484,28.8584573 L25.4929032,28.8584573 L25.4929032,27.7424573 L21.0335484,27.7424573 L21.0335484,27.7424573 Z M29.2903226,27.7424573 C29.0238304,27.7933589 28.8326387,28.0289169 28.8374194,28.3004573 L28.8374194,30.5324573 C28.8374501,30.8406194 29.0869972,31.0904265 29.3948387,31.0904573 L31.6245161,31.0904573 C31.9323576,31.0904265 32.1819047,30.8406194 32.1819355,30.5324573 L32.1819355,28.3004573 C32.1819047,27.9922952 31.9323576,27.7424881 31.6245161,27.7424573 L29.3948387,27.7424573 C29.3600769,27.7391809 29.3250844,27.7391809 29.2903226,27.7424573 L29.2903226,27.7424573 Z M33.7496774,27.7424573 C33.4831853,27.7933589 33.2919935,28.0289169 33.2967742,28.3004573 L33.2967742,30.5324573 C33.296805,30.8406194 33.5463521,31.0904265 33.8541935,31.0904573 L36.083871,31.0904573 C36.3917124,31.0904265 36.6412596,30.8406194 36.6412903,30.5324573 L36.6412903,28.3004573 C36.6412596,27.9922952 36.3917124,27.7424881 36.083871,27.7424573 L33.8541935,27.7424573 C33.8194317,27.7391809 33.7844393,27.7391809 33.7496774,27.7424573 L33.7496774,27.7424573 Z M38.2090323,27.7424573 C37.9425401,27.7933589 37.7513484,28.0289169 37.756129,28.3004573 L37.756129,30.5324573 C37.7561598,30.8406194 38.0057069,31.0904265 38.3135484,31.0904573 L40.5432258,31.0904573 C40.8510673,31.0904265 41.1006144,30.8406194 41.1006452,30.5324573 L41.1006452,28.3004573 C41.1006144,27.9922952 40.8510673,27.7424881 40.5432258,27.7424573 L38.3135484,27.7424573 C38.2787866,27.7391809 38.2437941,27.7391809 38.2090323,27.7424573 L38.2090323,27.7424573 Z M29.9522581,28.8584573 L31.0670968,28.8584573 L31.0670968,29.9744573 L29.9522581,29.9744573 L29.9522581,28.8584573 L29.9522581,28.8584573 Z M34.4116129,28.8584573 L35.5264516,28.8584573 L35.5264516,29.9744573 L34.4116129,29.9744573 L34.4116129,28.8584573 L34.4116129,28.8584573 Z M38.8709677,28.8584573 L39.9858065,28.8584573 L39.9858065,29.9744573 L38.8709677,29.9744573 L38.8709677,28.8584573 L38.8709677,28.8584573 Z M29.2903226,32.2064573 C29.0238304,32.2573589 28.8326387,32.4929169 28.8374194,32.7644573 L28.8374194,34.9964573 C28.8374501,35.3046194 29.0869972,35.5544265 29.3948387,35.5544573 L31.6245161,35.5544573 C31.9323576,35.5544265 32.1819047,35.3046194 32.1819355,34.9964573 L32.1819355,32.7644573 C32.1819047,32.4562952 31.9323576,32.2064881 31.6245161,32.2064573 L29.3948387,32.2064573 C29.3600769,32.2031809 29.3250844,32.2031809 29.2903226,32.2064573 L29.2903226,32.2064573 Z M33.7496774,32.2064573 C33.4831853,32.2573589 33.2919935,32.4929169 33.2967742,32.7644573 L33.2967742,34.9964573 C33.296805,35.3046194 33.5463521,35.5544265 33.8541935,35.5544573 L36.083871,35.5544573 C36.3917124,35.5544265 36.6412596,35.3046194 36.6412903,34.9964573 L36.6412903,32.7644573 C36.6412596,32.4562952 36.3917124,32.2064881 36.083871,32.2064573 L33.8541935,32.2064573 C33.8194317,32.2031809 33.7844393,32.2031809 33.7496774,32.2064573 L33.7496774,32.2064573 Z M38.2090323,32.2064573 C37.9425401,32.2573589 37.7513484,32.4929169 37.756129,32.7644573 L37.756129,39.4604573 C37.7561598,39.7686194 38.0057069,40.0184265 38.3135484,40.0184573 L40.5432258,40.0184573 C40.8510673,40.0184265 41.1006144,39.7686194 41.1006452,39.4604573 L41.1006452,32.7644573 C41.1006144,32.4562952 40.8510673,32.2064881 40.5432258,32.2064573 L38.3135484,32.2064573 C38.2787866,32.2031809 38.2437941,32.2031809 38.2090323,32.2064573 L38.2090323,32.2064573 Z M26.6077419,33.2875823 L26.6077419,37.7864573 L15.4593548,37.7864573 C13.5968506,37.7864573 12.1148387,36.3028469 12.1148387,34.4384573 L12.1148387,33.3224573 L26.6077419,33.2875823 L26.6077419,33.2875823 Z M29.9522581,33.3224573 L31.0670968,33.3224573 L31.0670968,34.4384573 L29.9522581,34.4384573 L29.9522581,33.3224573 L29.9522581,33.3224573 Z M34.4116129,33.3224573 L35.5264516,33.3224573 L35.5264516,34.4384573 L34.4116129,34.4384573 L34.4116129,33.3224573 L34.4116129,33.3224573 Z M38.8709677,33.3224573 L39.9858065,33.3224573 L39.9858065,38.9024573 L38.8709677,38.9024573 L38.8709677,33.3224573 L38.8709677,33.3224573 Z M29.2903226,36.6704573 C29.0238304,36.7213589 28.8326387,36.9569169 28.8374194,37.2284573 L28.8374194,39.4604573 C28.8374501,39.7686194 29.0869972,40.0184265 29.3948387,40.0184573 L31.6245161,40.0184573 C31.9323576,40.0184265 32.1819047,39.7686194 32.1819355,39.4604573 L32.1819355,37.2284573 C32.1819047,36.9202952 31.9323576,36.6704881 31.6245161,36.6704573 L29.3948387,36.6704573 C29.3600769,36.6671809 29.3250844,36.6671809 29.2903226,36.6704573 L29.2903226,36.6704573 Z M33.7496774,36.6704573 C33.4831853,36.7213589 33.2919935,36.9569169 33.2967742,37.2284573 L33.2967742,39.4604573 C33.296805,39.7686194 33.5463521,40.0184265 33.8541935,40.0184573 L36.083871,40.0184573 C36.3917124,40.0184265 36.6412596,39.7686194 36.6412903,39.4604573 L36.6412903,37.2284573 C36.6412596,36.9202952 36.3917124,36.6704881 36.083871,36.6704573 L33.8541935,36.6704573 C33.8194317,36.6671809 33.7844393,36.6671809 33.7496774,36.6704573 L33.7496774,36.6704573 Z M29.9522581,37.7864573 L31.0670968,37.7864573 L31.0670968,38.9024573 L29.9522581,38.9024573 L29.9522581,37.7864573 L29.9522581,37.7864573 Z M34.4116129,37.7864573 L35.5264516,37.7864573 L35.5264516,38.9024573 L34.4116129,38.9024573 L34.4116129,37.7864573 L34.4116129,37.7864573 Z"/>
  </g>
</svg>
