<?xml version="1.0" encoding="UTF-8" standalone="no"?>
<svg width="33px" height="43px" viewBox="0 0 33 43" version="1.1" xmlns="http://www.w3.org/2000/svg" xmlns:xlink="http://www.w3.org/1999/xlink" xmlns:sketch="http://www.bohemiancoding.com/sketch/ns">
    <!-- Generator: Sketch 3.2.2 (9983) - http://www.bohemiancoding.com/sketch -->
    <title>icon_file_img</title>
    <desc>Created with Sketch.</desc>
    <defs></defs>
    <g id="brandbook" stroke="none" stroke-width="1" fill="none" fill-rule="evenodd" sketch:type="MSPage">
        <g id="icon_file_img" sketch:type="MSLayerGroup" transform="translate(0.500000, 0.409091)">
            <path d="M1.79399408,0.00178233035 L20.9874322,0.00178233035 L31.4727364,10.5176502 L31.4727364,40.3083513 C31.4727364,41.2897024 30.6743131,42.0905629 29.6955662,42.0905629 L1.79399408,42.0905629 C0.815365687,42.0905629 0.0168238779,41.2899401 0.0168238779,40.3083513 L0.0168238779,1.7842315 C0.0168238779,0.802523944 0.815247209,0.00178233035 1.79399408,0.00178233035" id="Fill-1" fill="#FFC224" sketch:type="MSShapeGroup"></path>
            <path d="M0.0186010481,40.3884374 C0.0606607428,41.3330725 0.841904762,42.0905629 1.79399408,42.0905629 C0.84202324,42.0905629 0.0606607428,41.3330725 0.0186010481,40.3884374 M31.4727364,40.3083513 C31.4727364,41.2897024 30.6743131,42.0905629 29.6955662,42.0905629 C30.6744315,42.0905629 31.4727364,41.2899401 31.4727364,40.3083513" id="Fill-2" fill="#CCCCCC" sketch:type="MSShapeGroup"></path>
            <path d="M31.4727364,38.8823682 C31.4727364,39.8640758 30.6743131,40.6646986 29.6955662,40.6646986 L1.79399408,40.6646986 C0.815365687,40.6646986 0.0168238779,39.8640758 0.0168238779,38.8823682 L0.0168238779,40.3083513 C0.0168238779,40.3352051 0.0174162679,40.3618213 0.0186010481,40.3884374 C0.0606607428,41.3330725 0.84202324,42.0905629 1.79399408,42.0905629 L29.6955662,42.0905629 C30.6743131,42.0905629 31.4727364,41.2897024 31.4727364,40.3083513 L31.4727364,38.8823682" id="Fill-3" fill="#D2A01F" sketch:type="MSShapeGroup"></path>
            <path d="M5.25959444,10.5306018 L26.2300843,10.5306018 L26.2300843,31.5620999 L5.25959444,31.5620999 L5.25959444,10.5306018 Z" id="Fill-4" stroke="#FFFFFF" stroke-width="0.96969697" sketch:type="MSShapeGroup"></path>
            <path d="M19.0093233,31.5620999 L5.25959444,31.5620999 L5.25959444,25.8595933 L9.29128275,21.8159611 L19.0093233,31.5620999" id="Fill-5" fill="#FFFFFF" sketch:type="MSShapeGroup"></path>
            <path d="M26.2300843,27.3356005 L26.2300843,31.5620999 L5.25959444,31.5620999 L17.8519116,18.9331012 L26.2300843,27.3356005" id="Fill-6" fill="#FFFFFF" sketch:type="MSShapeGroup"></path>
            <path d="M20.9874322,0.00178233035 L20.9874322,10.5176502 L31.4727364,10.5176502 L20.9874322,0.00178233035" id="Fill-7" fill="#FFD76D" sketch:type="MSShapeGroup"></path>
            <path d="M21.0724432,10.4730114 L31.4769425,20.8775107 L31.5336174,10.5989583 L21.0724432,10.4730114 Z" id="Path-529" fill-opacity="0.113451087" fill="#000000" sketch:type="MSShapeGroup"></path>
        </g>
    </g>
</svg>