<svg xmlns="http://www.w3.org/2000/svg" width="54" height="54" viewBox="0 0 54 54">
  <g fill="none" fill-rule="evenodd">
    <path fill="#F7F7F7" d="M27,54 C41.9116882,54 54,41.9116882 54,27 C54,12.0883118 41.9116882,0 27,0 C12.0883118,0 0,12.0883118 0,27 C0,41.9116882 12.0883118,54 27,54 Z"/>
    <path fill="#00417B" d="M28.449219,11 C28.4348465,11.0006832 28.4205101,11.0019863 28.40625,11.0039057 C28.167209,11.0495105 27.9957118,11.2605565 28,11.5038406 L28,19.0028641 L13.5,19.0028641 C13.2238691,19.0028917 13.0000276,19.226704 13,19.502799 L13,36.5005858 C13.0000276,36.7766808 13.2238691,37.0004932 13.5,37.0005207 L22,37.0005207 L22,40.0001302 L19,40.0001302 L19,41 L33,41 L33,40.0001302 L30,40.0001302 L30,37.0005207 L38.5,37.0005207 C38.7761309,37.0004932 38.9999724,36.7766808 39,36.5005858 L39,28.0016924 L39,27.5017575 L38,27.5017575 L38,28.0016924 L38,33.0010415 L14,33.0010415 L14,20.0027339 L28,20.0027339 L28,26.4706418 C28.0000276,26.7467368 28.223869,26.9705491 28.5,26.9705767 L30.25,26.9705767 L30.625,26.9998699 L33.59375,29.8744956 C33.7362441,30.0095907 33.9446287,30.0487919 34.1264827,29.9747129 C34.3083367,29.9006338 34.4299948,29.7269883 34.4375,29.5307903 L34.4375,26.9998699 L37.0625,26.9705767 L39.59375,26.9705767 L42.5,26.9705767 C42.776131,26.9705491 42.9999724,26.7467368 43,26.4706418 L43,25.3457882 L43,24.4396562 L43,16.8156489 L43,11.5038406 C42.9999724,11.2277456 42.776131,11.0039333 42.5,11.0039057 L38.625,11.0039057 L28.5,11.0039057 C28.4831503,11.0017422 28.4662014,11.0004386 28.449219,11 Z M29,12.0037754 L38.625,12.0037754 L42,12.0037754 L42,16.8156489 L42,24.4396562 L42,25.3457882 L42,25.9707069 L39.59375,25.9707069 L37.0625,25.9707069 L33.9375,26 C33.661369,26.0000276 33.4375276,26.2238399 33.4375,26.499935 L33.4375,28.3434449 L31.1875,26.1249838 C31.0928141,26.0414122 30.9700075,25.996761 30.84375,26 L30.28125,25.9707069 C30.2708359,25.9703813 30.2604141,25.9703813 30.25,25.9707069 L29,25.9707069 L29,12.0037754 Z M30,14.003515 L30,15.0033848 L30.5,15.0033848 L31.21875,15.0033848 L31.28125,15.0033848 L32.78125,21.1900793 C32.299963,21.4411466 31.968737,21.9269834 31.96875,22.5024084 C31.968731,23.3244014 32.64666,24.0022132 33.46875,24.0022132 C34.290839,24.0022132 34.968768,23.3244014 34.96875,22.5024084 C34.968754,22.3311307 34.92889,22.1563535 34.875,22.0024735 L36,22.0024735 C35.94611,22.1563535 35.90625,22.3311307 35.90625,22.5024084 C35.906232,23.3244014 36.58416,24.0022132 37.40625,24.0022132 C38.228339,24.0022132 38.906268,23.3244014 38.90625,22.5024084 C38.906266,21.7526061 38.347983,21.138736 37.625,21.0338497 C37.5948585,21.0203649 37.5634552,21.0098985 37.53125,21.0026037 C37.52125,21.0018038 37.51003,21.0032036 37.5,21.0026037 L33.75,21.0026037 L33.5,20.0027339 L38.1875,20.0027339 C38.4125856,20.0139106 38.617336,19.8731631 38.6875,19.6590287 L39.96875,15.6595494 C40.0185174,15.5082611 39.9932234,15.3423168 39.9006424,15.2127202 C39.8080613,15.0831236 39.6592699,15.0053802 39.5,15.0033848 L32.3125,15.0033848 L32.15625,14.3784662 C32.1043343,14.1735876 31.9291847,14.0234789 31.71875,14.003515 L31.21875,14.003515 L30.5,14.003515 L30,14.003515 Z M32.5625,16.0032547 L38.8125,16.0032547 L38.5,17.0031245 L35.375,17.0031245 L35.375,18.0029943 L38.15625,18.0029943 L37.84375,19.0028641 L33.28125,19.0028641 L32.5625,16.0032547 Z M15.900391,21.4966804 C15.8814147,21.4975558 15.8625037,21.4995117 15.84375,21.5025386 C15.6295877,21.5726935 15.4888218,21.7774173 15.5,22.0024735 L15.5,27.0018226 C15.5000276,27.2779176 15.7238691,27.5017299 16,27.5017575 L21,27.5017575 C21.2761309,27.5017299 21.4999724,27.2779176 21.5,27.0018226 L21.5,22.0024735 C21.4999724,21.7263785 21.2761309,21.5025662 21,21.5025386 L16,21.5025386 C15.9670754,21.4972702 15.9337063,21.4953077 15.900391,21.4966804 Z M22,22.0024735 L22,23.0023434 L26,23.0023434 L26,22.0024735 L22,22.0024735 Z M33.34375,22.0024735 L33.46875,22.0024735 C33.750125,22.0024735 33.968756,22.2205451 33.96875,22.5024084 C33.968756,22.7842717 33.750125,23.0023434 33.46875,23.0023434 C33.187375,23.0023434 32.968743,22.7842717 32.96875,22.5024084 C32.968744,22.26004 33.119504,22.052367 33.34375,22.0024735 Z M37.40625,22.0024735 C37.687625,22.0024735 37.906256,22.2205451 37.90625,22.5024084 C37.906256,22.7842717 37.687625,23.0023434 37.40625,23.0023434 C37.124875,23.0023434 36.906244,22.7842717 36.90625,22.5024084 C36.906244,22.2205451 37.124875,22.0024735 37.40625,22.0024735 Z M16.5,22.5024084 L20.5,22.5024084 L20.5,26.5018877 L16.5,26.5018877 L16.5,22.5024084 Z M22,24.0022132 L22,25.002083 L26,25.002083 L26,24.0022132 L22,24.0022132 Z M22,26.0019528 L22,27.0018226 L26,27.0018226 L26,26.0019528 L22,26.0019528 Z M16,28.0016924 L16,29.0015622 L20,29.0015622 L20,28.0016924 L16,28.0016924 Z M24,28.5016273 C23.177649,28.5016273 22.5,29.1791391 22.5,30.0014321 C22.5,30.823725 23.177649,31.5012368 24,31.5012368 L25,31.5012368 C25.822351,31.5012368 26.5,30.823725 26.5,30.0014321 C26.5,29.1791391 25.822351,28.5016273 25,28.5016273 L24,28.5016273 Z M26.5,30.0014321 C26.5,30.823725 27.177649,31.5012368 28,31.5012368 L29,31.5012368 C29.822351,31.5012368 30.5,30.823725 30.5,30.0014321 C30.5,29.1791391 29.822351,28.5016273 29,28.5016273 L28,28.5016273 C27.177649,28.5016273 26.5,29.1791391 26.5,30.0014321 Z M24,29.5014971 L25,29.5014971 C25.285649,29.5014971 25.5,29.7158692 25.5,30.0014321 C25.5,30.2869949 25.285649,30.501367 25,30.501367 L24,30.501367 C23.714351,30.501367 23.5,30.2869949 23.5,30.0014321 C23.5,29.7158692 23.714351,29.5014971 24,29.5014971 Z M28,29.5014971 L29,29.5014971 C29.285649,29.5014971 29.5,29.7158692 29.5,30.0014321 C29.5,30.2869949 29.285649,30.501367 29,30.501367 L28,30.501367 C27.714351,30.501367 27.5,30.2869949 27.5,30.0014321 C27.5,29.7158692 27.714351,29.5014971 28,29.5014971 Z M14,34.0009113 L38,34.0009113 L38,36.0006509 L14,36.0006509 L14,34.0009113 Z M23,37.0005207 L29,37.0005207 L29,40.0001302 L23,40.0001302 L23,37.0005207 Z"/>
  </g>
</svg>
