<svg xmlns="http://www.w3.org/2000/svg" width="100" height="100" viewBox="0 0 100 100">
  <g fill="none" fill-rule="evenodd">
    <path fill="#FFFFFF" d="M100,50 C100,77.6153846 77.6153846,100 50,100 C22.3846154,100 0,77.6153846 0,50 C0,22.3846154 22.3846154,0 50,0 C77.6153846,0 100,22.3846154 100,50"/>
    <polygon fill="#353F49" points="49.365 11.495 50.634 11.495 50.634 6.753 49.365 6.753"/>
    <polyline fill="#353F49" points="40.383 7.832 41.629 7.564 42.612 12.207 41.372 12.468 40.383 7.832"/>
    <polyline fill="#353F49" points="31.828 10.751 32.99 10.234 34.922 14.566 33.756 15.082 31.828 10.751"/>
    <polyline fill="#353F49" points="24.068 15.383 25.092 14.637 27.88 18.475 26.852 19.221 24.068 15.383"/>
    <polyline fill="#353F49" points="17.435 21.535 18.285 20.589 21.809 23.762 20.957 24.707 17.435 21.535"/>
    <polyline fill="#353F49" points="12.227 28.926 12.862 27.825 16.969 30.195 16.333 31.305 12.227 28.926"/>
    <polyline fill="#353F49" points="8.673 37.242 9.064 36.032 13.573 37.497 13.182 38.708 8.673 37.242"/>
    <polyline fill="#353F49" points="6.923 46.114 7.054 44.842 11.767 45.344 11.635 46.607 6.923 46.114"/>
    <polyline fill="#353F49" points="6.923 53.887 11.635 53.395 11.767 54.658 7.054 55.158 6.923 53.887"/>
    <polyline fill="#353F49" points="8.673 62.76 13.182 61.299 13.573 62.503 9.064 63.969 8.673 62.76"/>
    <polyline fill="#353F49" points="12.227 71.075 16.333 68.705 16.969 69.808 12.862 72.176 12.227 71.075"/>
    <polyline fill="#353F49" points="17.435 78.47 20.958 75.295 21.809 76.241 18.285 79.412 17.435 78.47"/>
    <polyline fill="#353F49" points="24.068 84.616 26.854 80.783 27.879 81.525 25.094 85.362 24.068 84.616"/>
    <polyline fill="#353F49" points="31.828 89.251 33.756 84.922 34.922 85.438 32.99 89.768 31.828 89.251"/>
    <polyline fill="#353F49" points="65.085 85.438 66.242 84.922 68.172 89.251 67.008 89.768 65.085 85.438"/>
    <polyline fill="#353F49" points="72.118 81.525 73.146 80.783 75.939 84.616 74.905 85.362 72.118 81.525"/>
    <polyline fill="#353F49" points="78.189 76.241 79.04 75.296 82.562 78.468 81.715 79.412 78.189 76.241"/>
    <polyline fill="#353F49" points="83.03 69.808 83.665 68.708 87.772 71.075 87.135 72.176 83.03 69.808"/>
    <polyline fill="#353F49" points="86.426 62.503 86.817 61.301 91.327 62.76 90.935 63.969 86.426 62.503"/>
    <polyline fill="#353F49" points="88.232 54.661 88.362 53.398 93.076 53.887 92.946 55.158 88.232 54.661"/>
    <polyline fill="#353F49" points="88.232 45.345 92.945 44.842 93.077 46.114 88.363 46.608 88.232 45.345"/>
    <polyline fill="#353F49" points="86.426 37.498 90.935 36.032 91.327 37.242 86.821 38.708 86.426 37.498"/>
    <polyline fill="#353F49" points="83.031 30.198 87.135 27.827 87.772 28.927 83.667 31.305 83.031 30.198"/>
    <polyline fill="#353F49" points="78.194 23.762 81.715 20.589 82.562 21.535 79.043 24.707 78.194 23.762"/>
    <polyline fill="#353F49" points="72.122 18.475 74.905 14.638 75.939 15.385 73.151 19.221 72.122 18.475"/>
    <polyline fill="#353F49" points="65.085 14.565 67.008 10.237 68.172 10.751 66.246 15.081 65.085 14.565"/>
    <polyline fill="#353F49" points="57.388 12.207 58.37 7.565 59.617 7.832 58.628 12.468 57.388 12.207"/>
    <g transform="translate(23.846 23.846)">
      <polygon fill="#3D546B" points="23.008 58.493 29.298 58.493 29.298 51.732 23.008 51.732"/>
      <path fill="#3D546B" d="M52.3084615,26.1538462 C52.3084615,40.6007692 40.5992308,52.31 26.1523077,52.31 C11.71,52.31 0.000769230769,40.6007692 0.000769230769,26.1538462 C0.000769230769,11.71 11.71,0 26.1523077,0 C40.5992308,0 52.3084615,11.71 52.3084615,26.1538462"/>
      <path fill="#FFFFFF" d="M47.0784615,26.1538462 C47.0784615,37.7123077 37.7115385,47.0784615 26.1546154,47.0784615 C14.5961538,47.0784615 5.22846154,37.7123077 5.22846154,26.1538462 C5.22846154,14.5953846 14.5961538,5.22923077 26.1546154,5.22923077 C37.7115385,5.22923077 47.0784615,14.5953846 47.0784615,26.1538462"/>
      <polygon fill="#3D546B" points="21.201 76.154 31.106 76.154 31.106 63.725 21.201 63.725"/>
      <polygon fill="#293949" points="20.377 63.725 31.93 63.725 31.93 58.493 20.377 58.493"/>
    </g>
    <path fill="#FAB83E" d="M65.3838462,50.0061538 C65.3838462,58.4969231 58.5,65.3838462 50,65.3838462 C41.5,65.3838462 34.6146154,58.4969231 34.6146154,50.0061538 C34.6146154,41.5123077 41.5,34.6153846 50,34.6153846 C58.5,34.6153846 65.3838462,41.5123077 65.3838462,50.0061538"/>
    <path fill="#FFDB79" d="M62.3015385,50.0061538 C62.3015385,56.8061538 56.7992308,62.3076923 50,62.3076923 C43.2023077,62.3076923 37.6976923,56.8061538 37.6976923,50.0061538 C37.6976923,43.2069231 43.2023077,37.7007692 50,37.7007692 C56.7992308,37.7007692 62.3015385,43.2069231 62.3015385,50.0061538"/>
    <path fill="#FAB83E" d="M51.2923077,51.0215385 L48.7061538,51.0215385 C47.6292308,51.0215385 46.6153846,50.5984615 45.8561538,49.8330769 C45.1,49.0861538 44.6784615,48.0723077 44.6784615,46.9861538 C44.6784615,45.9076923 45.0984615,44.8953846 45.86,44.1346154 C46.6076923,43.38 47.62,42.9646154 48.7061538,42.9646154 L54.3038462,42.9646154 L54.3038462,44.9946154 L48.7061538,44.9946154 C48.1653846,44.9946154 47.6623077,45.2007692 47.2976923,45.5692308 C46.9146154,45.9484615 46.7123077,46.4507692 46.7123077,46.9861538 C46.7123077,47.5253846 46.9146154,48.0253846 47.2907692,48.3961538 C47.6761538,48.7815385 48.1738462,48.99 48.7061538,48.99 L51.2923077,48.99 L51.2923077,51.0215385"/>
    <path fill="#FAB83E" d="M51.2923077,57.0469231 L45.6961538,57.0469231 L45.6961538,55.0176923 L51.2923077,55.0176923 C51.8230769,55.0176923 52.33,54.8107692 52.7084615,54.4315385 C53.0823077,54.0623077 53.2915385,53.56 53.2915385,53.0207692 C53.2915385,52.48 53.0823077,51.9823077 52.7107692,51.6161538 C52.33,51.23 51.8230769,51.0215385 51.2923077,51.0215385 L48.7061538,51.0215385 L48.7061538,48.99 L51.2923077,48.99 C52.3692308,48.99 53.3823077,49.4107692 54.1407692,50.1753846 C54.8984615,50.9161538 55.32,51.9353846 55.32,53.0207692 C55.32,54.1015385 54.9,55.1184615 54.1392308,55.8730769 C53.3723077,56.6315385 52.3607692,57.0469231 51.2923077,57.0469231"/>
    <polygon fill="#FAB83E" points="48.985 57.753 51.014 57.753 51.014 42.258 48.985 42.258"/>
  </g>
</svg>
