<svg xmlns="http://www.w3.org/2000/svg" width="100" height="102" viewBox="0 0 100 102">
  <g fill="none" fill-rule="evenodd">
    <path fill="#FFFFFF" d="M100,51.085 C100,78.8259091 77.6153846,101.312273 50,101.312273 C22.3846154,101.312273 0,78.8259091 0,51.085 C0,23.3440909 22.3846154,0.857727273 50,0.857727273 C77.6153846,0.857727273 100,23.3440909 100,51.085"/>
    <polygon fill="#FDCA5C" points="60.077 91.074 76.829 91.074 76.829 87.555 60.077 87.555"/>
    <polygon fill="#FFDB79" points="60.077 90.724 76.829 90.724 76.829 87.206 60.077 87.206"/>
    <polygon fill="#FAB83E" points="57.701 87.206 74.456 87.206 74.456 83.688 57.701 83.688"/>
    <polygon fill="#FDCA5C" points="57.701 86.852 74.456 86.852 74.456 83.338 57.701 83.338"/>
    <polygon fill="#FDCA5C" points="61.432 83.338 78.185 83.338 78.185 79.821 61.432 79.821"/>
    <polygon fill="#FFDB79" points="61.432 82.986 78.185 82.986 78.185 79.466 61.432 79.466"/>
    <polygon fill="#FDCA5C" points="61.956 79.466 78.708 79.466 78.708 75.953 61.956 75.953"/>
    <polygon fill="#FAB83E" points="61.956 79.12 78.708 79.12 78.708 75.601 61.956 75.601"/>
    <polygon fill="#FAB83E" points="60.454 75.601 77.206 75.601 77.206 72.084 60.454 72.084"/>
    <polygon fill="#FDCA5C" points="60.454 75.248 77.206 75.248 77.206 71.734 60.454 71.734"/>
    <polygon fill="#FAB83E" points="61.031 71.734 77.783 71.734 77.783 68.215 61.031 68.215"/>
    <polygon fill="#FDCA5C" points="61.031 71.381 77.783 71.381 77.783 67.86 61.031 67.86"/>
    <polygon fill="#FDCA5C" points="60.077 67.86 76.829 67.86 76.829 64.349 60.077 64.349"/>
    <polygon fill="#FFDB79" points="60.077 67.512 76.829 67.512 76.829 63.995 60.077 63.995"/>
    <path fill="#FDCA5C" d="M92.3576923,82.2854091 C92.3576923,86.9279545 88.6069231,90.6980909 83.9815385,90.6980909 C79.3546154,90.6980909 75.6053846,86.9279545 75.6053846,82.2854091 C75.6053846,77.6382273 79.3546154,73.8665455 83.9815385,73.8665455 C88.6069231,73.8665455 92.3576923,77.6382273 92.3576923,82.2854091"/>
    <path fill="#FFDB79" d="M90.6784615,82.2854091 C90.6784615,86.0053182 87.6838462,89.0143182 83.9815385,89.0143182 C80.2776923,89.0143182 77.2807692,86.0053182 77.2807692,82.2854091 C77.2807692,78.5662727 80.2776923,75.5549545 83.9815385,75.5549545 C87.6838462,75.5549545 90.6784615,78.5662727 90.6784615,82.2854091"/>
    <path fill="#FDCA5C" d="M84.6846154,82.8394545 L83.2761538,82.8394545 C82.69,82.8394545 82.1376923,82.6091818 81.7261538,82.1895909 C81.3130769,81.7815909 81.0830769,81.226 81.0830769,80.6340909 C81.0830769,80.0421818 81.3130769,79.4904545 81.7292308,79.0731818 C82.1330769,78.6628636 82.6846154,78.4341364 83.2761538,78.4341364 L86.3253846,78.4341364 L86.3253846,79.5445455 L83.2761538,79.5445455 C82.9823077,79.5445455 82.7092308,79.6581364 82.5092308,79.8575 C82.3023077,80.0653636 82.1892308,80.3389091 82.1892308,80.6340909 C82.1892308,80.9277273 82.3023077,81.2005 82.5046154,81.4037273 C82.7153846,81.6154545 82.9869231,81.7298182 83.2761538,81.7298182 L84.6846154,81.7298182 L84.6846154,82.8394545"/>
    <path fill="#FDCA5C" d="M84.6846154,86.1366818 L81.6361538,86.1366818 L81.6361538,85.0255 L84.6846154,85.0255 C84.9730769,85.0255 85.2484615,84.9126818 85.4569231,84.7055909 C85.6569231,84.5031364 85.7730769,84.2311364 85.7730769,83.9351818 C85.7730769,83.6384545 85.6569231,83.3656818 85.4569231,83.1678636 C85.2484615,82.9553636 84.9730769,82.8394545 84.6846154,82.8394545 L83.2761538,82.8394545 L83.2761538,81.7298182 L84.6846154,81.7298182 C85.27,81.7298182 85.82,81.9608636 86.2361538,82.3750455 C86.6484615,82.7830455 86.8769231,83.3401818 86.8769231,83.9351818 C86.8769231,84.5247727 86.6484615,85.0819091 86.2338462,85.493 C85.8184615,85.9071818 85.2653846,86.1366818 84.6846154,86.1366818"/>
    <polygon fill="#FDCA5C" points="83.429 86.522 84.532 86.522 84.532 78.047 83.429 78.047"/>
    <polygon fill="#474F59" points="49.456 76.118 50.545 76.118 50.545 5.023 49.456 5.023"/>
    <path fill="#353F49" d="M50.61.255C50.4430769.085 50.2223077 0 50 0 49.78 0 49.5584615.085 49.3923077.255 49.2215385.422681818 49.1369231.646 49.1369231.865454545L49.1369231 5.02272727 50.8646154 5.02272727 50.8646154.865454545C50.8646154.646 50.78.422681818 50.61.255M57.1946154 91.0736364C52.7492308 91.0736364 49.1369231 87.4441364 49.1369231 82.9800909L49.1369231 76.1182727 50.8646154 76.1182727 50.8646154 82.9800909C50.8646154 86.4859545 53.7030769 89.3380909 57.1946154 89.3380909 60.6838462 89.3380909 63.5223077 86.4859545 63.5223077 82.9800909 63.5223077 82.5017727 63.91 82.1161818 64.3823077 82.1161818 64.8584615 82.1161818 65.2461538 82.5017727 65.2461538 82.9800909 65.2461538 87.4441364 61.6330769 91.0736364 57.1946154 91.0736364"/>
    <path fill="#CCCBC9" d="M49.7546154,7.77131818 C39.2376923,8.05104545 28.7061538,25.9953182 28.6869231,43.061 C26.2307692,40.7312273 22.3746154,39.2259545 18.0369231,39.2259545 C13.8446154,39.2259545 10.1038462,40.6307727 7.63923077,42.8299545 C11.4792308,22.9306818 28.8523077,7.88722727 49.7546154,7.77131818"/>
    <path fill="#3D546B" d="M92.3576923 42.8299545C89.8969231 40.6307727 86.1569231 39.2259545 81.9638462 39.2259545 77.6276923 39.2259545 73.7715385 40.7312273 71.32 43.061 71.2946154 25.9953182 60.7638462 8.05104545 50.2476923 7.77131818 71.1492308 7.88722727 88.5223077 22.9306818 92.3576923 42.8299545M50 7.76668182L50 43.0695C47.55 40.7335455 43.6892308 39.2259545 39.3461538 39.2259545 35.0061538 39.2259545 31.1453846 40.7335455 28.6953846 43.0695L28.6869231 43.061C28.7061538 25.9953182 39.2376923 8.05104545 49.7546154 7.77131818 49.8353846 7.76668182 49.9153846 7.76668182 50 7.76668182"/>
    <path fill="#CCCBC9" d="M71.32,43.061 L71.3061538,43.0695 C68.8561538,40.7335455 64.9992308,39.2259545 60.6538462,39.2259545 C56.3123077,39.2259545 52.4523077,40.7335455 50,43.0695 L50,7.76668182 C50.0815385,7.76668182 50.1669231,7.76668182 50.2476923,7.77131818 C60.7638462,8.05104545 71.2946154,25.9953182 71.32,43.061"/>
    <polygon fill="#63DDE8" points="13.678 91.074 52.382 91.074 52.382 68.532 13.678 68.532"/>
    <polygon fill="#36BDCA" points="13.678 90.035 52.382 90.035 52.382 67.497 13.678 67.497"/>
    <polygon fill="#63DDE8" points="13.678 88.998 52.382 88.998 52.382 66.459 13.678 66.459"/>
    <polygon fill="#36BDCA" points="13.678 87.962 52.382 87.962 52.382 65.42 13.678 65.42"/>
    <polygon fill="#63DDE8" points="13.678 86.926 52.382 86.926 52.382 64.384 13.678 64.384"/>
    <polygon fill="#36BDCA" points="13.678 85.884 52.382 85.884 52.382 63.349 13.678 63.349"/>
    <polygon fill="#63DDE8" points="13.678 84.844 52.382 84.844 52.382 62.308 13.678 62.308"/>
    <polygon fill="#36BDCA" points="13.678 83.81 52.382 83.81 52.382 61.269 13.678 61.269"/>
    <polyline fill="#63DDE8" points="52.382 60.112 52.382 82.647 21.122 82.647 19.96 81.48 14.845 76.338 13.678 75.168 13.678 60.112 52.382 60.112"/>
    <polyline fill="#36BDC9" points="51.215 61.282 51.215 81.48 19.96 81.48 14.845 76.338 14.845 61.282 51.215 61.282"/>
    <polyline fill="#63DDE8" points="50.011 62.495 50.011 80.271 18.755 80.271 16.051 77.55 16.051 62.495 50.011 62.495"/>
    <path fill="#36BDC9" d="M26.2353846,71.3783636 C26.2353846,67.6105455 29.2761538,64.5520909 33.03,64.5520909 C36.7853846,64.5520909 39.8284615,67.6105455 39.8284615,71.3783636 C39.8284615,75.1469545 36.7853846,78.2069545 33.03,78.2069545 C29.2761538,78.2069545 26.2353846,75.1469545 26.2353846,71.3783636"/>
    <path fill="#ADECF8" d="M35.1423077,71.5452727 C34.7592308,71.1596818 34.2538462,70.9502727 33.7169231,70.9502727 L32.3453846,70.9502727 C32.11,70.9502727 31.9223077,71.1395909 31.9223077,71.3783636 C31.9223077,71.6148182 32.11,71.8072273 32.3453846,71.8072273 L33.7169231,71.8072273 C34.0253846,71.8072273 34.3223077,71.9308636 34.54,72.1541818 C34.7592308,72.3744091 34.8830769,72.6688182 34.8830769,72.981 C34.8830769,73.2947273 34.7592308,73.5899091 34.54,73.8132273 C34.3223077,74.0342273 34.0253846,74.1547727 33.7169231,74.1547727 L31.1753846,74.1547727 L31.1753846,75.0179091 L33.7169231,75.0179091 C34.2538462,75.0179091 34.7592308,74.8038636 35.1423077,74.4190455 C35.5292308,74.0342273 35.7392308,73.5265455 35.7392308,72.981 C35.7392308,72.4400909 35.5292308,71.9262273 35.1423077,71.5452727"/>
    <path fill="#ADECF8" d="M32.3453846,68.6019545 L34.8830769,68.6019545 L34.8830769,67.7434545 L32.3453846,67.7434545 C31.8038462,67.7434545 31.2946154,67.9551818 30.9169231,68.3384545 C30.5346154,68.7217273 30.3223077,69.2332727 30.3223077,69.7757273 C30.3223077,70.3205 30.5346154,70.8289545 30.9169231,71.2122273 C31.2992308,71.5962727 31.8038462,71.8072273 32.3453846,71.8072273 L33.7169231,71.8072273 C33.95,71.8072273 34.1376923,71.6148182 34.1376923,71.3783636 C34.1376923,71.1395909 33.95,70.9502727 33.7169231,70.9502727 L32.3453846,70.9502727 C32.0361538,70.9502727 31.7376923,70.8289545 31.5223077,70.6048636 C31.2992308,70.3838636 31.1753846,70.091 31.1753846,69.7757273 C31.1753846,69.4627727 31.2992308,69.1668182 31.5223077,68.9465909 C31.7376923,68.7217273 32.0361538,68.6019545 32.3453846,68.6019545"/>
    <polygon fill="#ADECF8" points="32.602 75.499 33.457 75.499 33.457 67.259 32.602 67.259"/>
    <path fill="#36BDC9" d="M51.2184615 66.8223636L51.2184615 61.2857727 45.7038462 61.2857727C46.1907692 64.1108636 48.4023077 66.3285909 51.2184615 66.8223636M14.8430769 66.8223636C17.6584615 66.3285909 19.8676923 64.1108636 20.3553846 61.2857727L14.8430769 61.2857727 14.8430769 66.8223636M45.6984615 81.4802273L51.2184615 81.4802273 51.2184615 75.9343636C48.3976923 76.4312273 46.1853846 78.6520455 45.6984615 81.4802273"/>
    <polyline fill="#8CF6FF" points="21.122 75.166 13.678 75.166 21.122 82.647 21.122 75.166"/>
  </g>
</svg>
