<svg xmlns="http://www.w3.org/2000/svg" width="54" height="54" viewBox="0 0 54 54">
  <g fill="none" fill-rule="evenodd">
    <path fill="#F7F7F7" d="M27,54 C41.9116882,54 54,41.9116882 54,27 C54,12.0883118 41.9116882,0 27,0 C12.0883118,0 0,12.0883118 0,27 C0,41.9116882 12.0883118,54 27,54 Z"/>
    <path fill="#00417B" d="M42.999875,30.2995207 C42.999875,29.9251676 42.7008761,29.6201652 42.3338775,29.6201652 L39.9238863,29.6201652 L39.3338885,29.6201652 C39.3338885,29.6201652 36.5458988,25.0121109 29.6659867,25.0121109 C29.44055,25.0121109 29.2186758,25.0170827 28.9999266,25.0270901 L28.9999266,19.6084368 C30.121235,19.8202494 31.061169,20.5551873 31.5686046,21.5556717 C32.1740399,20.3620509 33.3952229,19.5459703 34.8044677,19.5459703 C35.9655884,19.5459703 36.9998971,20.1005839 37.6659572,20.9645343 L37.6659572,20.8786109 C37.6659572,15.8501823 33.8436588,11.7330002 28.9999266,11.3845899 L28.9999266,10.6799291 L28.9999266,10.6799291 C28.9999266,10.304365 28.7009277,10 28.3339291,10 C27.9650554,10 27.665994,10.304365 27.665994,10.6799291 L27.665994,10.6812039 L27.665994,11.3845261 C22.8231369,11.7329364 18.9999635,15.8501823 18.9999635,20.8785472 L18.9999635,20.9644706 C19.6666485,20.1005201 20.7012072,19.5459065 21.8623904,19.5459065 C23.2710727,19.5459065 24.4925682,20.3620509 25.097691,21.555608 C25.6053141,20.5551235 26.5458732,19.8201856 27.665994,19.6083731 L27.665994,25.147625 C22.1512644,25.9062747 19.5088366,29.6126437 19.5088366,29.6126437 C8.25000312,29.6651666 11.407804,37.2503888 11.407804,37.2503888 L15.0490405,37.2503888 C15.3526644,38.8182989 16.7070969,40 18.3336534,40 C19.9595849,40 21.31433,38.8182989 21.6176413,37.2503888 L32.3829766,37.2503888 C32.685663,38.8182989 34.041033,40 35.666027,40 C37.2928335,40 38.647641,38.8182989 38.9509524,37.2503888 L40.3339473,37.2503888 L40.3915096,37.2503888 C41.5876302,37.2503888 42.2965026,36.9685245 42.6660637,36.7491905 C42.6758137,36.7435812 42.6856262,36.7366334 42.6954386,36.7297494 C42.8786879,36.6078759 43,36.398613 43,36.1598378 L43,36.1598378 L43,30.2995207 L42.999875,30.2995207 L42.999875,30.2995207 Z M25.7104387,18.9482038 C25.494127,19.0853752 25.2895028,19.2384819 25.097691,19.4059305 C24.9061917,19.2384819 24.7015675,19.0853752 24.4852558,18.9482038 C23.6987587,18.4498101 22.791887,18.1858571 21.8623904,18.1858571 C21.4775793,18.1858571 21.1004557,18.2295836 20.7340196,18.3164631 C21.1200182,17.1213126 21.7781407,16.0257898 22.6766999,15.1094439 C24.1873819,13.5686877 26.1962495,12.7197802 28.3338666,12.7197802 C30.4704837,12.7197802 32.4784138,13.5686877 33.9900957,15.1094439 C34.8883424,16.0252161 35.5464025,17.1207389 35.9337136,18.3164631 C35.5660274,18.2295836 35.1892163,18.1858571 34.8044677,18.1858571 C33.8749086,18.1858571 32.967412,18.4498738 32.1812899,18.9482038 C31.9649782,19.0853752 31.7609164,19.2384819 31.5685421,19.4059305 C31.3767304,19.2384819 31.1714811,19.0853752 30.9570444,18.9482038 C30.1696098,18.4498101 29.2628006,18.1858571 28.3338666,18.1858571 C27.40437,18.1857933 26.4968733,18.4498101 25.7104387,18.9482038 L25.7104387,18.9482038 Z M36.1954001,28.3434257 C36.8270853,28.7977104 37.302646,29.2570944 37.6310198,29.6201015 L31.6660418,29.6201015 L31.6660418,26.5236735 C32.3259769,26.6267433 32.960162,26.7817623 33.5642848,26.9898779 C34.5177188,27.3154688 35.4024655,27.7716019 36.1954001,28.3434257 L36.1954001,28.3434257 Z M25.6690639,26.9967619 C26.9221218,26.5824431 28.2677418,26.3717779 29.6659867,26.3717779 C29.8909233,26.3717779 30.1132975,26.3775146 30.3339217,26.3887331 L30.3339217,29.6201015 L21.305705,29.6201015 C21.6767661,29.2595803 22.1898892,28.8165141 22.8455743,28.3771449 C23.7156336,27.793529 24.6653801,27.3298106 25.6690639,26.9967619 L25.6690639,26.9967619 Z M18.3335909,38.6395043 C17.222095,38.6395043 16.3182859,37.7183779 16.3182859,36.5860763 C16.3182859,35.4524362 17.222095,34.5306723 18.3335909,34.5306723 C19.4442118,34.5306723 20.3479585,35.4524362 20.3479585,36.5860763 C20.348021,37.7183779 19.4442118,38.6395043 18.3335909,38.6395043 L18.3335909,38.6395043 Z M35.6659645,38.6395043 C34.5556561,38.6395043 33.652472,37.7183779 33.652472,36.5860763 C33.652472,35.4524362 34.5556561,34.5306723 35.6659645,34.5306723 C36.7774604,34.5306723 37.6812696,35.4524362 37.6812696,36.5860763 C37.6812696,37.7183779 36.7774604,38.6395043 35.6659645,38.6395043 L35.6659645,38.6395043 Z M40.3436348,35.891168 L40.3375098,35.891168 L40.3338223,35.891168 L38.9453274,35.891168 C38.6309536,34.3369623 37.2823336,33.1709416 35.665902,33.1709416 C34.0507205,33.1709416 32.703288,34.3369623 32.3883516,35.891168 L21.6118289,35.891168 C21.2975175,34.3369623 19.9491475,33.1709416 18.3336534,33.1709416 C16.7178469,33.1709416 15.3698519,34.3369623 15.0549155,35.891168 L12.4151753,35.891168 C12.2843632,35.1619031 12.2442384,34.0813595 12.8385487,33.1740649 C13.7705453,31.7498279 16.0796617,30.9880549 19.5153366,30.9712271 L19.936585,30.9768364 L19.936585,30.9805971 L41.6659424,30.9805971 L41.6659424,35.7174728 C41.4024434,35.8054996 40.9901324,35.891168 40.3913846,35.891168 L40.3436348,35.891168 L40.3436348,35.891168 Z"/>
  </g>
</svg>
