<svg xmlns="http://www.w3.org/2000/svg" width="100" height="109" viewBox="0 0 100 109">
  <g fill="none" fill-rule="evenodd">
    <path fill="#63DDE8" d="M100,59 C100,86.6153846 77.6153846,109 50,109 C22.3846154,109 0,86.6153846 0,59 C0,31.3846154 22.3846154,9 50,9 C77.6153846,9 100,31.3846154 100,59"/>
    <polygon fill="#FFFFFF" points="17.692 96.426 82.308 96.426 82.308 58.652 17.692 58.652"/>
    <polygon fill="#F87B55" points="17.692 58.652 82.308 58.652 82.308 49.209 17.692 49.209"/>
    <polygon fill="#F87B55" points="26.426 87.692 46.73 87.692 46.73 67.388 26.426 67.388"/>
    <path fill="#353F49" d="M47.4146154,87.0069231 L72.89,87.0069231 L72.89,68.0723077 L47.4146154,68.0723077 L47.4146154,87.0069231 Z M46.73,87.6915385 L73.5738462,87.6915385 L73.5738462,67.3876923 L46.73,67.3876923 L46.73,87.6915385 Z"/>
    <polygon fill="#353F49" points="47.073 81.153 73.231 81.153 73.231 80.468 47.073 80.468"/>
    <polygon fill="#353F49" points="47.073 74.61 73.231 74.61 73.231 73.925 47.073 73.925"/>
    <polygon fill="#353F49" points="66.348 87.349 67.034 87.349 67.034 67.73 66.348 67.73"/>
    <polygon fill="#353F49" points="59.808 87.349 60.493 87.349 60.493 67.73 59.808 67.73"/>
    <polygon fill="#353F49" points="53.27 87.349 53.955 87.349 53.955 67.73 53.27 67.73"/>
    <path fill="#353F49" d="M24.2376923 52.3861538L24.2376923 51.2253846C25.3492308 51.2253846 26.2538462 50.3207692 26.2538462 49.2092308 26.2538462 48.0976923 25.3492308 47.1938462 24.2376923 47.1938462 23.1253846 47.1938462 22.2215385 48.0976923 22.2215385 49.2092308L21.0615385 49.2092308C21.0615385 47.4576923 22.4861538 46.0330769 24.2376923 46.0330769 25.9884615 46.0330769 27.4138462 47.4576923 27.4138462 49.2092308 27.4138462 50.9607692 25.9884615 52.3861538 24.2376923 52.3861538M34.5407692 52.3861538L34.5407692 51.2253846C35.6538462 51.2253846 36.5592308 50.3207692 36.5592308 49.2092308 36.5592308 48.0976923 35.6538462 47.1938462 34.5407692 47.1938462 33.4292308 47.1938462 32.5246154 48.0976923 32.5246154 49.2092308L31.3646154 49.2092308C31.3646154 47.4576923 32.79 46.0330769 34.5407692 46.0330769 36.2938462 46.0330769 37.7192308 47.4576923 37.7192308 49.2092308 37.7192308 50.9607692 36.2938462 52.3861538 34.5407692 52.3861538M44.8469231 52.3861538L44.8469231 51.2253846C45.9592308 51.2253846 46.8646154 50.3207692 46.8646154 49.2092308 46.8646154 48.0976923 45.9592308 47.1938462 44.8469231 47.1938462 43.7346154 47.1938462 42.8307692 48.0976923 42.8307692 49.2092308L41.6707692 49.2092308C41.6707692 47.4576923 43.0953846 46.0330769 44.8469231 46.0330769 46.5992308 46.0330769 48.0246154 47.4576923 48.0246154 49.2092308 48.0246154 50.9607692 46.5992308 52.3861538 44.8469231 52.3861538M55.1530769 52.3861538L55.1530769 51.2253846C56.2653846 51.2253846 57.1692308 50.3207692 57.1692308 49.2092308 57.1692308 48.0976923 56.2653846 47.1938462 55.1530769 47.1938462 54.0407692 47.1938462 53.1353846 48.0976923 53.1353846 49.2092308L51.9753846 49.2092308C51.9753846 47.4576923 53.4007692 46.0330769 55.1530769 46.0330769 56.9046154 46.0330769 58.3292308 47.4576923 58.3292308 49.2092308 58.3292308 50.9607692 56.9046154 52.3861538 55.1530769 52.3861538M65.4576923 52.3861538L65.4576923 51.2253846C66.5692308 51.2253846 67.4738462 50.3207692 67.4738462 49.2092308 67.4738462 48.0976923 66.5692308 47.1938462 65.4576923 47.1938462 64.3453846 47.1938462 63.4407692 48.0976923 63.4407692 49.2092308L62.2807692 49.2092308C62.2807692 47.4576923 63.7053846 46.0330769 65.4576923 46.0330769 67.2084615 46.0330769 68.6338462 47.4576923 68.6338462 49.2092308 68.6338462 50.9607692 67.2084615 52.3861538 65.4576923 52.3861538M75.7623077 52.3861538L75.7623077 51.2253846C76.8746154 51.2253846 77.7784615 50.3207692 77.7784615 49.2092308 77.7784615 48.0976923 76.8746154 47.1938462 75.7623077 47.1938462 74.65 47.1938462 73.7446154 48.0976923 73.7446154 49.2092308L72.5846154 49.2092308C72.5846154 47.4576923 74.01 46.0330769 75.7623077 46.0330769 77.5138462 46.0330769 78.9384615 47.4576923 78.9384615 49.2092308 78.9384615 50.9607692 77.5138462 52.3861538 75.7623077 52.3861538"/>
    <path fill="#3D546B" d="M42.3123077,21.1561538 C42.3123077,32.8407692 32.8415385,42.3115385 21.1553846,42.3115385 C9.47307692,42.3115385 0,32.8407692 0,21.1561538 C0,9.47153846 9.47307692,0 21.1553846,0 C32.8415385,0 42.3123077,9.47153846 42.3123077,21.1561538"/>
    <path fill="#FFFFFF" d="M38.5753846,21.1561538 C38.5753846,30.7776923 30.7807692,38.5784615 21.1553846,38.5784615 C11.5361538,38.5784615 3.73538462,30.7776923 3.73538462,21.1561538 C3.73538462,11.5353846 11.5361538,3.73307692 21.1553846,3.73307692 C30.7807692,3.73307692 38.5753846,11.5353846 38.5753846,21.1561538"/>
    <path fill="#E6E5E5" d="M21.1553846,38.5784615 C30.7807692,38.5784615 38.5753846,30.7776923 38.5753846,21.1561538 L38.5753846,21.1538462 L21.1553846,21.1538462 L21.1553846,38.5784615"/>
    <path fill="#353F49" d="M21.5892308 5.94C21.5892308 6.18 21.3946154 6.37307692 21.1553846 6.37307692 20.9184615 6.37307692 20.7238462 6.18 20.7238462 5.94 20.7238462 5.70307692 20.9184615 5.50923077 21.1553846 5.50923077 21.3946154 5.50923077 21.5892308 5.70307692 21.5892308 5.94M13.9261538 7.76230769C14.0438462 7.96923077 13.9723077 8.23384615 13.7661538 8.35384615 13.56 8.47230769 13.2946154 8.40153846 13.1776923 8.19307692 13.0576923 7.98692308 13.1276923 7.72538462 13.3330769 7.60692308 13.5415385 7.48615385 13.8053846 7.55615385 13.9261538 7.76230769M8.19846154 13.1723077C8.40538462 13.2946154 8.47538462 13.5569231 8.35384615 13.7653846 8.23615385 13.97 7.97384615 14.0407692 7.76461538 13.92 7.56076923 13.8023077 7.48923077 13.54 7.60846154 13.3346154 7.72846154 13.1253846 7.99230769 13.0546154 8.19846154 13.1723077M5.94307692 20.7230769C6.18230769 20.7230769 6.37615385 20.9161538 6.37615385 21.1561538 6.37769231 21.3938462 6.18230769 21.5853846 5.94307692 21.5853846 5.70692308 21.5853846 5.51384615 21.3938462 5.51230769 21.1561538 5.51384615 20.9161538 5.70692308 20.7230769 5.94307692 20.7230769M7.76461538 28.3876923C7.97384615 28.2676923 8.23615385 28.3384615 8.35769231 28.5461538 8.47692308 28.7515385 8.40769231 29.0153846 8.19846154 29.1346154 7.99230769 29.2538462 7.72923077 29.1838462 7.61 28.9792308 7.48923077 28.7692308 7.56153846 28.5069231 7.76461538 28.3876923M13.1776923 34.1146154C13.2961538 33.9069231 13.56 33.8369231 13.7669231 33.9561538 13.9738462 34.0761538 14.0438462 34.3376923 13.9261538 34.5461538 13.8076923 34.7523077 13.5423077 34.8230769 13.3369231 34.7030769 13.1284615 34.5823077 13.0576923 34.3192308 13.1776923 34.1146154M20.7238462 36.3692308C20.7238462 36.1284615 20.9192308 35.9376923 21.1584615 35.9376923 21.3946154 35.9376923 21.5915385 36.1284615 21.5892308 36.3692308 21.5915385 36.6061538 21.3946154 36.7984615 21.1592308 36.7984615 20.9184615 36.7984615 20.7238462 36.6061538 20.7238462 36.3692308M28.3930769 34.5461538C28.2715385 34.3369231 28.3430769 34.0761538 28.5492308 33.9553846 28.7553846 33.8361538 29.0192308 33.9061538 29.1376923 34.1146154 29.2576923 34.3192308 29.1892308 34.5823077 28.9823077 34.7015385 28.7746154 34.8230769 28.51 34.7507692 28.3930769 34.5461538M34.1176923 29.1346154C33.9092308 29.0153846 33.84 28.7507692 33.9607692 28.5415385 34.0776923 28.3376923 34.3423077 28.2669231 34.5484615 28.3876923 34.7553846 28.5069231 34.8253846 28.7684615 34.7084615 28.9753846 34.5884615 29.1838462 34.3230769 29.2523077 34.1176923 29.1346154M36.3715385 21.5853846C36.1330769 21.5838462 35.9407692 21.3923077 35.94 21.1530769 35.94 20.9146154 36.1330769 20.7215385 36.3723077 20.7230769 36.6092308 20.7215385 36.8015385 20.9146154 36.8015385 21.1515385 36.8015385 21.3938462 36.6092308 21.5838462 36.3715385 21.5853846M34.5484615 13.9215385C34.3423077 14.0392308 34.08 13.9684615 33.9576923 13.7615385 33.84 13.5569231 33.9092308 13.2938462 34.1184615 13.1738462 34.3230769 13.0546154 34.5884615 13.1253846 34.7053846 13.33 34.8253846 13.5384615 34.7553846 13.8007692 34.5484615 13.9215385M29.1376923 8.19384615C29.0169231 8.40153846 28.7553846 8.47153846 28.5461538 8.35153846 28.3430769 8.23384615 28.2715385 7.96923077 28.3930769 7.76230769 28.51 7.55538462 28.7746154 7.48538462 28.98 7.60384615 29.1892308 7.72461538 29.2569231 7.98692308 29.1376923 8.19384615"/>
    <polygon fill="#353F49" points="20.637 29.6 21.682 29.6 21.682 21.155 20.637 21.155"/>
    <polyline fill="#353F49" points="22.023 21.502 22.023 20.805 32.474 20.805 32.474 21.505 22.023 21.502"/>
    <path fill="#353F49" d="M23.1007692,21.1553846 C23.1007692,22.2276923 22.23,23.0984615 21.1553846,23.0984615 C20.0846154,23.0984615 19.2146154,22.2276923 19.2146154,21.1553846 C19.2146154,20.0807692 20.0846154,19.2123077 21.1553846,19.2123077 C22.23,19.2123077 23.1007692,20.0807692 23.1007692,21.1553846"/>
    <polyline fill="#F87B55" points="23.157 22.859 22.862 23.155 13.008 13.301 13.302 13.005 23.157 22.859"/>
    <path fill="#F87B55" d="M22.4523077,21.1553846 C22.4523077,21.87 21.8746154,22.4515385 21.1553846,22.4515385 C20.4392308,22.4515385 19.8584615,21.87 19.8584615,21.1561538 C19.8584615,20.4407692 20.4415385,19.8607692 21.1576923,19.8592308 C21.8746154,19.8592308 22.4523077,20.4392308 22.4523077,21.1553846"/>
    <path fill="#353F49" d="M21.8061538,21.1553846 C21.8061538,21.5130769 21.5115385,21.8007692 21.1553846,21.8007692 C20.8007692,21.8007692 20.51,21.5130769 20.51,21.1553846 C20.51,20.7946154 20.8007692,20.5069231 21.1553846,20.5069231 C21.5115385,20.5069231 21.8061538,20.7946154 21.8061538,21.1553846"/>
    <path fill="#FFFFFF" d="M82.3076923,17.7015385 L82.3076923,42.3115385 L61.7,42.3115385 C59.4884615,42.3115385 57.6976923,40.5192308 57.6976923,38.3069231 L57.6976923,17.7015385 L82.3076923,17.7015385"/>
    <path fill="#F87B55" d="M71.4261538,20.6146154 C71.4261538,21.4007692 70.7884615,22.0392308 70.0023077,22.0392308 C69.2153846,22.0392308 68.5769231,21.4007692 68.5769231,20.6146154 C68.5769231,19.8284615 69.2153846,19.1907692 70.0023077,19.1907692 C70.7884615,19.1907692 71.4261538,19.8284615 71.4261538,20.6146154"/>
    <polygon fill="#CCCBCA" points="62.118 27.871 77.886 27.871 77.886 26.807 62.118 26.807"/>
    <polygon fill="#CCCBCA" points="62.118 30.538 77.886 30.538 77.886 29.473 62.118 29.473"/>
    <polygon fill="#CCCBCA" points="62.118 33.206 70.002 33.206 70.002 32.141 62.118 32.141"/>
  </g>
</svg>
