<svg xmlns="http://www.w3.org/2000/svg" width="54" height="54" viewBox="0 0 54 54">
  <g fill="none" fill-rule="evenodd">
    <path fill="#F7F7F7" d="M27,54 C41.9116882,54 54,41.9116882 54,27 C54,12.0883118 41.9116882,0 27,0 C12.0883118,0 0,12.0883118 0,27 C0,41.9116882 12.0883118,54 27,54 Z"/>
    <g fill="#00417B" transform="translate(12 12)">
      <path d="M28.2439024,7.78974359 L21.5853659,7.78974359 L21.5853659,6.92820513 L27.3292683,6.92820513 L27.3292683,0.215384615 L12.804878,0.215384615 L12.804878,6.92820513 L18.5487805,6.92820513 L18.5487805,7.78974359 L10.3170732,7.78974359 L10.3170732,5.92307692 C10.3170732,5.74358974 10.2073171,5.6 10.0609756,5.52820513 C9.87804878,5.45641026 9.69512195,5.49230769 9.58536585,5.63589744 L9.14634146,6.06666667 L8.70731707,5.63589744 C8.52439024,5.45641026 8.23170732,5.45641026 8.08536585,5.63589744 L7.64634146,6.06666667 L7.20731707,5.63589744 C7.13414634,5.56410256 7.02439024,5.49230769 6.87804878,5.49230769 L6.87804878,5.49230769 C6.76829268,5.49230769 6.65853659,5.52820513 6.54878049,5.63589744 L6.1097561,6.06666667 L5.67073171,5.63589744 C5.48780488,5.45641026 5.19512195,5.45641026 5.04878049,5.63589744 L4.6097561,6.06666667 L4.17073171,5.63589744 C4.06097561,5.52820513 3.84146341,5.45641026 3.69512195,5.52820513 C3.51219512,5.6 3.43902439,5.74358974 3.43902439,5.92307692 L3.43902439,7.78974359 L1.68292683,7.78974359 C0.804878049,7.78974359 0.0731707317,8.50769231 0.0731707317,9.36923077 L0.0731707317,13.5692308 L0.0731707317,22.0051282 L0.0731707317,26.2051282 C0.0731707317,27.0666667 0.804878049,27.7846154 1.68292683,27.7846154 L28.2073171,27.7846154 C29.0853659,27.7846154 29.8170732,27.0666667 29.8170732,26.2051282 L29.8170732,22.0051282 L29.8170732,13.5692308 L29.8170732,9.36923077 C29.8536585,8.50769231 29.1219512,7.78974359 28.2439024,7.78974359 Z M13.6829268,1.07692308 L26.4512195,1.07692308 L26.4512195,6.06666667 L13.6829268,6.06666667 L13.6829268,1.07692308 Z M19.4268293,6.92820513 L20.7073171,6.92820513 L20.7073171,7.78974359 L19.4268293,7.78974359 L19.4268293,6.92820513 Z M4.24390244,6.96410256 L4.24390244,6.96410256 C4.42682927,7.14358974 4.7195122,7.14358974 4.86585366,6.96410256 L5.30487805,6.53333333 L5.74390244,6.96410256 C5.92682927,7.14358974 6.2195122,7.14358974 6.36585366,6.96410256 L6.80487805,6.53333333 L7.24390244,6.96410256 C7.31707317,7.03589744 7.42682927,7.10769231 7.57317073,7.10769231 L7.57317073,7.10769231 C7.68292683,7.10769231 7.79268293,7.07179487 7.90243902,6.96410256 L8.34146341,6.53333333 L8.7804878,6.96410256 C8.96341463,7.14358974 9.25609756,7.14358974 9.40243902,6.96410256 L9.40243902,6.96410256 L9.40243902,14.5025641 L4.24390244,14.5025641 L4.24390244,6.96410256 Z M9.87804878,15.3641026 C10.1341463,15.3641026 10.3170732,15.1846154 10.3170732,14.9333333 L10.3170732,13.425641 L10.8292683,13.425641 L10.8292683,16.1179487 L2.85365854,16.1179487 L2.85365854,13.425641 L3.36585366,13.425641 L3.36585366,14.9333333 C3.36585366,15.1846154 3.54878049,15.3641026 3.80487805,15.3641026 L9.87804878,15.3641026 Z M28.2439024,26.9230769 L1.68292683,26.9230769 C1.2804878,26.9230769 0.951219512,26.6 0.951219512,26.2051282 L0.951219512,23.4051282 C1.17073171,23.5128205 1.42682927,23.5846154 1.68292683,23.5846154 L28.2073171,23.5846154 C28.4634146,23.5846154 28.7195122,23.5128205 28.9390244,23.4051282 L28.9390244,26.2051282 C28.9756098,26.6358974 28.6463415,26.9230769 28.2439024,26.9230769 Z M28.9756098,22.0051282 C28.9756098,22.4 28.6463415,22.7230769 28.2439024,22.7230769 L1.68292683,22.7230769 C1.2804878,22.7230769 0.951219512,22.4 0.951219512,22.0051282 L0.951219512,13.5692308 L0.951219512,9.36923077 C0.951219512,8.97435897 1.2804878,8.65128205 1.68292683,8.65128205 L3.36585366,8.65128205 L3.36585366,12.5641026 L1.97560976,12.5641026 L1.97560976,16.9794872 L11.7439024,16.9794872 L11.7439024,12.5641026 L10.3536585,12.5641026 L10.3536585,8.65128205 L28.2439024,8.65128205 C28.6463415,8.65128205 28.9756098,8.97435897 28.9756098,9.36923077 L28.9756098,13.5692308 L28.9756098,22.0051282 L28.9756098,22.0051282 Z"/>
      <path d="M12.804878 14.1076923L27.3292683 14.1076923 27.3292683 9.69230769 12.804878 9.69230769 12.804878 14.1076923zM13.6829268 10.5538462L26.4512195 10.5538462 26.4512195 13.2461538 13.6829268 13.2461538 13.6829268 10.5538462zM14.8536585 4.91794872L25.2804878 4.91794872 25.2804878 2.22564103 14.8536585 2.22564103 14.8536585 4.91794872zM15.7317073 3.08717949L24.402439 3.08717949 24.402439 4.05641026 15.7317073 4.05641026 15.7317073 3.08717949z"/>
      <rect width="2.78" height=".862" x="12.841" y="15.364"/>
      <rect width="2.78" height=".862" x="16.72" y="15.364"/>
      <rect width="2.78" height=".862" x="20.561" y="15.364"/>
      <rect width="2.78" height=".862" x="24.402" y="15.364"/>
      <rect width="2.78" height=".862" x="12.841" y="17.267"/>
      <rect width="2.78" height=".862" x="16.72" y="17.267"/>
      <rect width="2.78" height=".862" x="20.561" y="17.267"/>
      <rect width="2.78" height=".862" x="24.402" y="17.267"/>
      <rect width="2.78" height=".862" x="12.841" y="19.169"/>
      <rect width="2.78" height=".862" x="16.72" y="19.169"/>
      <rect width="2.78" height=".862" x="20.561" y="19.169"/>
      <rect width="2.78" height=".862" x="24.402" y="19.169"/>
      <rect width=".878" height="3.159" x="4.866" y="8.579"/>
      <rect width=".878" height="3.159" x="6.329" y="8.579"/>
      <rect width=".878" height="3.159" x="7.793" y="8.579"/>
      <path d="M20.195122,24.625641 L9.69512195,24.625641 C9.43902439,24.625641 9.25609756,24.8051282 9.25609756,25.0564103 C9.25609756,25.3076923 9.43902439,25.4871795 9.69512195,25.4871795 L20.195122,25.4871795 C20.4512195,25.4871795 20.6341463,25.3076923 20.6341463,25.0564103 C20.6341463,24.8051282 20.4512195,24.625641 20.195122,24.625641 Z"/>
    </g>
  </g>
</svg>
