<?xml version="1.0" encoding="UTF-8" standalone="no"?>
<svg width="32px" height="43px" viewBox="0 0 32 43" version="1.1" xmlns="http://www.w3.org/2000/svg" xmlns:xlink="http://www.w3.org/1999/xlink" xmlns:sketch="http://www.bohemiancoding.com/sketch/ns">
    <!-- Generator: Sketch 3.2.2 (9983) - http://www.bohemiancoding.com/sketch -->
    <title>icon_file_ppt</title>
    <desc>Created with Sketch.</desc>
    <defs></defs>
    <g id="brandbook" stroke="none" stroke-width="1" fill="none" fill-rule="evenodd" sketch:type="MSPage">
        <g id="icon_file_ppt" sketch:type="MSLayerGroup" transform="translate(0.000000, 0.226592)">
            <path d="M1.88116854,0.0920449438 L21.2970187,0.0920449438 L31.9036404,10.6985468 L31.9036404,40.7471461 C31.9036404,41.7371086 31.0960899,42.5448989 30.1060075,42.5448989 L1.88116854,42.5448989 C0.891205993,42.5448989 0.0834157303,41.7373483 0.0834157303,40.7471461 L0.0834157303,1.8896779 C0.0834157303,0.899475655 0.891086142,0.0920449438 1.88116854,0.0920449438" id="Fill-1" fill="#F26A21" sketch:type="MSShapeGroup"></path>
            <path d="M0.0836554307,40.7761498 C0.0992359551,41.7530487 0.900674157,42.5448989 1.88116854,42.5448989 C0.900913858,42.5448989 0.0992359551,41.7530487 0.0836554307,40.7761498 M31.9036404,40.7471461 C31.9036404,41.7371086 31.0960899,42.5448989 30.1060075,42.5448989 C31.0962097,42.5448989 31.9036404,41.7373483 31.9036404,40.7471461" id="Fill-2" fill="#CCCCCC" sketch:type="MSShapeGroup"></path>
            <path d="M31.9036404,39.3089438 C31.9036404,40.2990262 31.0960899,41.1066966 30.1060075,41.1066966 L1.88116854,41.1066966 C0.891205993,41.1066966 0.0834157303,40.2991461 0.0834157303,39.3089438 L0.0834157303,40.7471461 C0.0834157303,40.7568539 0.0835355805,40.7665618 0.0836554307,40.7761498 C0.0992359551,41.7530487 0.900913858,42.5448989 1.88116854,42.5448989 L30.1060075,42.5448989 C31.0960899,42.5448989 31.9036404,41.7371086 31.9036404,40.7471461 L31.9036404,39.3089438" id="Fill-3" fill="#C2551A" sketch:type="MSShapeGroup"></path>
            <path d="M21.2970187,0.0920449438 L21.2970187,10.6985468 L31.9036404,10.6985468 L21.2970187,0.0920449438" id="Fill-4" fill="#F37938" sketch:type="MSShapeGroup"></path>
            <path d="M31.9036404,10.6985468 L21.2970187,10.6985468 L31.9036404,21.3055281 L31.9036404,10.6985468" id="Fill-5" fill="#C2551A" sketch:type="MSShapeGroup"></path>
            <path d="M13.7573633,23.8017678 L13.7573633,29.3007341 L10.1581423,29.3007341 L10.1581423,13.3358502 L15.7940974,13.3358502 C19.8186667,13.3358502 21.8290337,15.0307715 21.8290337,18.4243296 C21.8290337,20.0280449 21.2513558,21.3241049 20.096,22.315985 C18.940764,23.30403 17.4015281,23.8017678 15.4711011,23.8017678 L13.7573633,23.8017678 L13.7573633,23.8017678 Z M13.7573633,16.0949213 L13.7573633,21.0730187 L15.1709963,21.0730187 C17.0862022,21.0730187 18.0438052,20.2333483 18.0438052,18.5574831 C18.0438052,16.9157753 17.0862022,16.0949213 15.1709963,16.0949213 L13.7573633,16.0949213 L13.7573633,16.0949213 Z" id="Fill-6" fill="#FFFFFF" sketch:type="MSShapeGroup"></path>
        </g>
    </g>
</svg>