<?xml version="1.0" encoding="UTF-8" standalone="no"?>
<svg width="33px" height="43px" viewBox="0 0 33 43" version="1.1" xmlns="http://www.w3.org/2000/svg" xmlns:xlink="http://www.w3.org/1999/xlink" xmlns:sketch="http://www.bohemiancoding.com/sketch/ns">
    <!-- Generator: Sketch 3.2.2 (9983) - http://www.bohemiancoding.com/sketch -->
    <title>icon_file_xls</title>
    <desc>Created with Sketch.</desc>
    <defs></defs>
    <g id="brandbook" stroke="none" stroke-width="1" fill="none" fill-rule="evenodd" sketch:type="MSPage">
        <g id="icon_file_xls" sketch:type="MSLayerGroup" transform="translate(0.500000, 0.146617)">
            <path d="M1.83458647,0.0923909774 L21.3233083,0.0923909774 L31.9699248,10.7387669 L31.9699248,40.9003308 C31.9699248,41.894015 31.159218,42.7048421 30.1654135,42.7048421 L1.83458647,42.7048421 C0.841022556,42.7048421 0.0301954887,41.8942556 0.0301954887,40.9003308 L0.0301954887,1.89678195 C0.0301954887,0.902857143 0.840781955,0.0923909774 1.83458647,0.0923909774" id="Fill-1" fill="#25A65A" sketch:type="MSShapeGroup"></path>
            <path d="M0.0303157895,40.9294436 C0.0459548872,41.910015 0.850406015,42.7048421 1.83458647,42.7048421 C0.850646617,42.7048421 0.0459548872,41.910015 0.0303157895,40.9294436 M31.9699248,40.9003308 C31.9699248,41.894015 31.159218,42.7048421 30.1654135,42.7048421 C31.1593383,42.7048421 31.9699248,41.8942556 31.9699248,40.9003308" id="Fill-2" fill="#CCCCCC" sketch:type="MSShapeGroup"></path>
            <path d="M31.9699248,39.4567218 C31.9699248,40.4505263 31.159218,41.2612331 30.1654135,41.2612331 L1.83458647,41.2612331 C0.840902256,41.2612331 0.0301954887,40.4506466 0.0301954887,39.4567218 L0.0301954887,40.9003308 C0.0301954887,40.9100752 0.0301954887,40.9198195 0.0303157895,40.9294436 C0.0459548872,41.910015 0.850646617,42.7048421 1.83458647,42.7048421 L30.1654135,42.7048421 C31.159218,42.7048421 31.9699248,41.894015 31.9699248,40.9003308 L31.9699248,39.4567218" id="Fill-3" fill="#1E8548" sketch:type="MSShapeGroup"></path>
            <path d="M21.3233083,0.0923909774 L21.3233083,10.7387669 L31.9699248,10.7387669 L21.3233083,0.0923909774" id="Fill-4" fill="#3BAF6B" sketch:type="MSShapeGroup"></path>
            <path d="M31.9699248,10.7387669 L21.3233083,10.7387669 L31.9699248,21.3856241 L31.9699248,10.7387669" id="Fill-5" fill="#1E8548" sketch:type="MSShapeGroup"></path>
            <path d="M23.4253233,29.4114887 L19.1451429,29.4114887 L16.3833985,24.1929624 C16.2804211,23.9983158 16.1733534,23.6399398 16.0590677,23.1210827 L16.0170827,23.1210827 C15.9636692,23.3652932 15.8416842,23.739188 15.6470376,24.2386767 L12.8773534,29.4114887 L8.57455639,29.4114887 L13.678797,21.3966917 L9.00956391,13.385985 L13.4003008,13.385985 L15.6927519,18.1924812 C15.8722406,18.5701053 16.0322406,19.0200301 16.1733534,19.5427368 L16.2193083,19.5427368 C16.3068872,19.2299549 16.4748271,18.7646316 16.7189173,18.1467669 L19.2673684,13.385985 L23.2917895,13.385985 L18.4852932,21.3319699 L23.4253233,29.4114887" id="Fill-6" fill="#FFFFFF" sketch:type="MSShapeGroup"></path>
        </g>
    </g>
</svg>