<svg xmlns="http://www.w3.org/2000/svg" width="100" height="101" viewBox="0 0 100 101">
  <g fill="none" fill-rule="evenodd">
    <path fill="#FFFFFF" d="M100,50.7727273 C100,78.5136364 77.6153846,101 50,101 C22.3846154,101 0,78.5136364 0,50.7727273 C0,23.0318182 22.3846154,0.545454545 50,0.545454545 C77.6153846,0.545454545 100,23.0318182 100,50.7727273"/>
    <path fill="#B9BEC4" d="M29.7358398,51.3984375 C29.7358398,50.5553343 30.0068332,49.8387074 30.5488281,49.2485352 C31.090823,48.6583629 31.8435824,48.3632812 32.8071289,48.3632812 C33.7706754,48.3632812 34.5294569,48.6583629 35.0834961,49.2485352 C35.6375353,49.8387074 35.9145508,50.5553343 35.9145508,51.3984375 C35.9145508,52.2415407 35.6375353,52.9340793 35.0834961,53.4760742 C34.5294569,54.0180691 33.7706754,54.2890625 32.8071289,54.2890625 C31.8435824,54.2890625 31.090823,54.0180691 30.5488281,53.4760742 C30.0068332,52.9340793 29.7358398,52.2415407 29.7358398,51.3984375 Z M47.4047852,51.3984375 C47.4047852,50.5553343 47.6757785,49.8387074 48.2177734,49.2485352 C48.7597683,48.6583629 49.5125277,48.3632812 50.4760742,48.3632812 C51.4396207,48.3632812 52.1984022,48.6583629 52.7524414,49.2485352 C53.3064806,49.8387074 53.5834961,50.5553343 53.5834961,51.3984375 C53.5834961,52.2415407 53.3064806,52.9340793 52.7524414,53.4760742 C52.1984022,54.0180691 51.4396207,54.2890625 50.4760742,54.2890625 C49.5125277,54.2890625 48.7597683,54.0180691 48.2177734,53.4760742 C47.6757785,52.9340793 47.4047852,52.2415407 47.4047852,51.3984375 Z M65.0737305,51.3984375 C65.0737305,50.5553343 65.3447239,49.8387074 65.8867188,49.2485352 C66.4287136,48.6583629 67.181473,48.3632812 68.1450195,48.3632812 C69.108566,48.3632812 69.8673475,48.6583629 70.4213867,49.2485352 C70.9754259,49.8387074 71.2524414,50.5553343 71.2524414,51.3984375 C71.2524414,52.2415407 70.9754259,52.9340793 70.4213867,53.4760742 C69.8673475,54.0180691 69.108566,54.2890625 68.1450195,54.2890625 C67.181473,54.2890625 66.4287136,54.0180691 65.8867188,53.4760742 C65.3447239,52.9340793 65.0737305,52.2415407 65.0737305,51.3984375 Z"/>
  </g>
</svg>
