<svg xmlns="http://www.w3.org/2000/svg" width="54" height="54" viewBox="0 0 54 54">
  <g fill="none" fill-rule="evenodd">
    <path fill="#F7F7F7" d="M27,54 C41.9116882,54 54,41.9116882 54,27 C54,12.0883118 41.9116882,0 27,0 C12.0883118,0 0,12.0883118 0,27 C0,41.9116882 12.0883118,54 27,54 Z"/>
    <g fill="#00417B" transform="translate(15 12)">
      <path d="M21.7680339,27.8937037 L21.7680339,0.569259259 C21.7680339,0.255028148 21.5119731,0 21.1951909,0 L0.572842999,0 C0.256633663,0 0,0.255028148 0,0.569259259 L0,27.8937037 C0,28.2085041 0.256633663,28.462963 0.572842999,28.462963 L21.1951909,28.462963 C21.5119731,28.462963 21.7680339,28.2085041 21.7680339,27.8937037 L21.7680339,27.8937037 Z M20.6223479,27.3244444 L1.145686,27.3244444 L1.145686,1.13851852 L20.6223479,1.13851852 L20.6223479,27.3244444 L20.6223479,27.3244444 Z"/>
      <path d="M23.4865629,2.27703704 C23.1697808,2.27703704 22.9137199,2.53206519 22.9137199,2.8462963 L22.9137199,29.6014815 L1.718529,29.6014815 C1.40231966,29.6014815 1.145686,29.8559404 1.145686,30.1707407 C1.145686,30.4855411 1.40231966,30.74 1.718529,30.74 L23.4865629,30.74 C23.8033451,30.74 24.0594059,30.4855411 24.0594059,30.1707407 L24.0594059,2.8462963 C24.0594059,2.53206519 23.8033451,2.27703704 23.4865629,2.27703704 L23.4865629,2.27703704 Z"/>
      <path d="M14.321075 8.86678222L14.321075 11.9544444C14.321075 12.2686756 14.5771358 12.5237037 14.893918 12.5237037 15.2107001 12.5237037 15.466761 12.2686756 15.466761 11.9544444L15.466761 13.092963C15.466761 13.4071941 15.7228218 13.6622222 16.039604 13.6622222 16.3563861 13.6622222 16.612447 13.4071941 16.612447 13.092963L16.612447 8.86678222C17.6223692 8.42617556 18.330976 7.42598704 18.330976 6.26185185 18.330976 4.69240407 17.0460891 3.41555556 15.466761 3.41555556 13.8874328 3.41555556 12.602546 4.69240407 12.602546 6.26185185 12.602546 7.42598704 13.3111528 8.42617556 14.321075 8.86678222L14.321075 8.86678222zM15.466761 4.55407407C16.4142433 4.55407407 17.18529 5.32029704 17.18529 6.26185185 17.18529 7.20340667 16.4142433 7.96962963 15.466761 7.96962963 14.5192786 7.96962963 13.748232 7.20340667 13.748232 6.26185185 13.748232 5.32029704 14.5192786 4.55407407 15.466761 4.55407407L15.466761 4.55407407zM4.00990099 5.69259259L9.73833098 5.69259259C10.0545403 5.69259259 10.311174 5.43756444 10.311174 5.12333333 10.311174 4.80910222 10.0545403 4.55407407 9.73833098 4.55407407L4.00990099 4.55407407C3.69369165 4.55407407 3.43705799 4.80910222 3.43705799 5.12333333 3.43705799 5.43756444 3.69369165 5.69259259 4.00990099 5.69259259L4.00990099 5.69259259zM4.00990099 7.96962963L9.73833098 7.96962963C10.0545403 7.96962963 10.311174 7.71460148 10.311174 7.40037037 10.311174 7.08613926 10.0545403 6.83111111 9.73833098 6.83111111L4.00990099 6.83111111C3.69369165 6.83111111 3.43705799 7.08613926 3.43705799 7.40037037 3.43705799 7.71460148 3.69369165 7.96962963 4.00990099 7.96962963L4.00990099 7.96962963zM4.00990099 10.2466667L9.73833098 10.2466667C10.0545403 10.2466667 10.311174 9.99163852 10.311174 9.67740741 10.311174 9.3631763 10.0545403 9.10814815 9.73833098 9.10814815L4.00990099 9.10814815C3.69369165 9.10814815 3.43705799 9.3631763 3.43705799 9.67740741 3.43705799 9.99163852 3.69369165 10.2466667 4.00990099 10.2466667L4.00990099 10.2466667zM4.00990099 17.0777778L17.758133 17.0777778C18.0749151 17.0777778 18.330976 16.8233189 18.330976 16.5085185 18.330976 16.1937181 18.0749151 15.9392593 17.758133 15.9392593L4.00990099 15.9392593C3.69369165 15.9392593 3.43705799 16.1937181 3.43705799 16.5085185 3.43705799 16.8233189 3.69369165 17.0777778 4.00990099 17.0777778L4.00990099 17.0777778zM4.00990099 19.3548148L17.758133 19.3548148C18.0749151 19.3548148 18.330976 19.1003559 18.330976 18.7855556 18.330976 18.4707552 18.0749151 18.2162963 17.758133 18.2162963L4.00990099 18.2162963C3.69369165 18.2162963 3.43705799 18.4707552 3.43705799 18.7855556 3.43705799 19.1003559 3.69369165 19.3548148 4.00990099 19.3548148L4.00990099 19.3548148zM14.321075 23.9088889L7.44695898 23.9088889C7.13074965 23.9088889 6.87411598 24.1633478 6.87411598 24.4781481 6.87411598 24.7929485 7.13074965 25.0474074 7.44695898 25.0474074L14.321075 25.0474074C14.6378571 25.0474074 14.893918 24.7929485 14.893918 24.4781481 14.893918 24.1633478 14.6378571 23.9088889 14.321075 23.9088889L14.321075 23.9088889zM8.27471711 23.5866881C8.59722772 23.5866881 8.90770863 23.3863089 9.17809052 23.1415274 9.25141443 23.2030074 9.33619519 23.2559485 9.4335785 23.2969352 9.9531471 23.5200848 10.3380976 23.2804267 10.599314 22.97815 10.650297 22.980427 10.7018529 22.97815 10.7534088 22.9673341 10.8851627 22.9400096 11.0106153 22.9041463 11.1349222 22.8671444 11.1578359 22.8603133 11.1801768 22.8546207 11.2019448 22.8477896 11.3783805 22.9872581 11.5857496 23.0510152 11.7260962 23.0948481 11.7965559 23.1170493 11.9437765 23.16259 11.9580976 23.1882067 12.1116195 23.4637281 12.4610537 23.5627793 12.7365912 23.410787 13.0132744 23.2582256 13.1135219 22.9115467 12.9605728 22.6371637 12.7234158 22.2113578 12.3121146 22.084413 12.0663649 22.0087015 12.0348586 21.9984548 11.9964781 21.9870696 11.9649717 21.9762537 11.8630057 21.7548119 11.6292857 21.6147741 11.3755163 21.6472219 11.2672489 21.6603148 11.16471 21.6813774 11.0678996 21.7052863 11.0025955 21.5737874 10.8868812 21.4679052 10.7385149 21.4172411 10.4784441 21.3318522 10.1908769 21.4383037 10.055686 21.6768233 10.0258982 21.7291952 9.99324611 21.7940907 9.957157 21.8652481 9.95028289 21.8789104 9.94226308 21.8959881 9.9330976 21.9136352 9.88898868 21.7690433 9.78702263 21.643237 9.64438472 21.5715104 9.41295615 21.454243 9.1311174 21.5077533 8.95811881 21.700163L8.83495757 21.84077C8.72955446 21.9631607 8.43339463 22.3064241 8.26211457 22.4231222 8.03183168 22.3844126 7.79066478 22.4868793 7.66693069 22.6997822 7.50939887 22.9724574 7.60334512 23.3202748 7.87773692 23.4768211 8.01063649 23.5536711 8.14353607 23.5866881 8.27471711 23.5866881L8.27471711 23.5866881z"/>
    </g>
  </g>
</svg>
