<svg xmlns="http://www.w3.org/2000/svg" width="54" height="54" viewBox="0 0 54 54">
  <g fill="none" fill-rule="evenodd">
    <path fill="#F7F7F7" d="M27,54 C41.9116882,54 54,41.9116882 54,27 C54,12.0883118 41.9116882,0 27,0 C12.0883118,0 0,12.0883118 0,27 C0,41.9116882 12.0883118,54 27,54 Z"/>
    <g fill="#00417B" transform="translate(13 12)">
      <path d="M23.274,24.732 L4.806,24.732 C3.888,24.732 3.186,24.03 3.186,23.112 L3.186,4.698 C3.186,3.78 3.888,3.078 4.806,3.078 L23.274,3.078 C24.192,3.078 24.894,3.78 24.894,4.698 L24.894,23.166 C24.894,24.03 24.138,24.732 23.274,24.732 L23.274,24.732 Z M4.806,4.158 C4.482,4.158 4.266,4.374 4.266,4.698 L4.266,23.166 C4.266,23.49 4.482,23.706 4.806,23.706 L23.274,23.706 C23.598,23.706 23.814,23.49 23.814,23.166 L23.814,4.698 C23.814,4.374 23.598,4.158 23.274,4.158 L4.806,4.158 L4.806,4.158 Z"/>
      <path d="M14.04,19.386 C11.016,19.386 8.586,16.956 8.586,13.932 C8.586,10.908 11.016,8.478 14.04,8.478 C17.064,8.478 19.494,10.908 19.494,13.932 C19.494,16.956 17.064,19.386 14.04,19.386 L14.04,19.386 Z M14.04,9.558 C11.61,9.558 9.666,11.502 9.666,13.932 C9.666,16.362 11.61,18.306 14.04,18.306 C16.47,18.306 18.414,16.362 18.414,13.932 C18.414,11.502 16.47,9.558 14.04,9.558 L14.04,9.558 Z"/>
      <path d="M14.04 16.524C12.582 16.524 11.448 15.336 11.448 13.932 11.448 12.528 12.636 11.34 14.04 11.34 15.444 11.34 16.632 12.528 16.632 13.932 16.632 15.336 15.498 16.524 14.04 16.524L14.04 16.524zM14.04 12.366C13.176 12.366 12.528 13.068 12.528 13.878 12.528 14.688 13.23 15.39 14.04 15.39 14.85 15.39 15.552 14.688 15.552 13.878 15.552 13.068 14.904 12.366 14.04 12.366L14.04 12.366zM14.04 7.506C13.716 7.506 13.5 7.29 13.5 6.966L13.5 5.94C13.5 5.616 13.716 5.4 14.04 5.4 14.364 5.4 14.58 5.616 14.58 5.94L14.58 6.912C14.58 7.236 14.364 7.506 14.04 7.506L14.04 7.506zM14.04 22.626C13.716 22.626 13.5 22.41 13.5 22.086L13.5 21.06C13.5 20.736 13.716 20.52 14.04 20.52 14.364 20.52 14.58 20.736 14.58 21.06L14.58 22.032C14.58 22.356 14.364 22.626 14.04 22.626L14.04 22.626zM22.086 14.526L21.114 14.526C20.79 14.526 20.574 14.31 20.574 13.986 20.574 13.662 20.79 13.446 21.114 13.446L22.086 13.446C22.41 13.446 22.626 13.662 22.626 13.986 22.626 14.31 22.41 14.526 22.086 14.526L22.086 14.526zM6.966 14.526L5.994 14.526C5.67 14.526 5.454 14.31 5.454 13.986 5.454 13.662 5.67 13.446 5.994 13.446L6.966 13.446C7.29 13.446 7.506 13.662 7.506 13.986 7.506 14.31 7.29 14.526 6.966 14.526L6.966 14.526zM19.71 20.25C19.548 20.25 19.44 20.196 19.332 20.088L18.63 19.386C18.414 19.17 18.414 18.846 18.63 18.63 18.846 18.414 19.17 18.414 19.386 18.63L20.088 19.332C20.304 19.548 20.304 19.872 20.088 20.088 20.034 20.196 19.872 20.25 19.71 20.25L19.71 20.25zM9.018 9.558C8.856 9.558 8.748 9.504 8.64 9.396L7.938 8.694C7.722 8.478 7.722 8.154 7.938 7.938 8.154 7.722 8.478 7.722 8.694 7.938L9.396 8.64C9.612 8.856 9.612 9.18 9.396 9.396 9.342 9.504 9.18 9.558 9.018 9.558L9.018 9.558zM8.37 20.25C8.208 20.25 8.1 20.196 7.992 20.088 7.776 19.872 7.776 19.548 7.992 19.332L8.694 18.63C8.91 18.414 9.234 18.414 9.45 18.63 9.666 18.846 9.666 19.17 9.45 19.386L8.748 20.088C8.64 20.196 8.478 20.25 8.37 20.25L8.37 20.25zM19.062 9.558C18.9 9.558 18.792 9.504 18.684 9.396 18.468 9.18 18.468 8.856 18.684 8.64L19.386 7.938C19.602 7.722 19.926 7.722 20.142 7.938 20.358 8.154 20.358 8.478 20.142 8.694L19.44 9.396C19.332 9.504 19.17 9.558 19.062 9.558L19.062 9.558z"/>
      <path d="M25.434,0.378 L2.646,0.378 C1.458,0.378 0.486,1.35 0.486,2.538 L0.486,25.272 C0.486,26.46 1.458,27.432 2.646,27.432 L3.186,27.432 L3.186,28.242 C3.186,29.106 3.942,29.862 4.806,29.862 L7.614,29.862 C8.532,29.862 9.234,29.106 9.234,28.242 L9.234,27.432 L18.846,27.432 L18.846,28.242 C18.846,29.106 19.548,29.862 20.466,29.862 L23.274,29.862 C24.138,29.862 24.894,29.106 24.894,28.242 L24.894,27.432 L25.434,27.432 C26.622,27.432 27.594,26.46 27.594,25.272 L27.594,2.538 C27.594,1.35 26.622,0.378 25.434,0.378 L25.434,0.378 Z M8.154,28.242 C8.154,28.512 7.938,28.782 7.614,28.782 L4.806,28.782 C4.536,28.782 4.266,28.512 4.266,28.242 L4.266,27.432 L8.154,27.432 L8.154,28.242 L8.154,28.242 Z M23.814,28.242 C23.814,28.512 23.544,28.782 23.274,28.782 L20.466,28.782 C20.142,28.782 19.926,28.512 19.926,28.242 L19.926,27.432 L23.814,27.432 L23.814,28.242 L23.814,28.242 Z M26.514,25.272 C26.514,25.866 26.028,26.352 25.434,26.352 L2.646,26.352 C2.052,26.352 1.566,25.866 1.566,25.272 L1.566,2.538 C1.566,1.944 2.052,1.458 2.646,1.458 L25.38,1.458 C25.974,1.458 26.46,1.944 26.46,2.538 L26.46,25.272 L26.514,25.272 Z"/>
    </g>
  </g>
</svg>
