<svg xmlns="http://www.w3.org/2000/svg" width="54" height="53" viewBox="0 0 54 53">
  <g fill="none" fill-rule="evenodd">
    <path fill="#F7F7F7" d="M26.7326733,53 C41.496721,53 53.4653465,41.1355459 53.4653465,26.5 C53.4653465,11.8644541 41.496721,0 26.7326733,0 C11.9686255,0 0,11.8644541 0,26.5 C0,41.1355459 11.9686255,53 26.7326733,53 Z"/>
    <path fill="#00417B" d="M27.0332026,11.000102 C23.6540716,10.981102 20.8587766,13.619155 20.5351566,17.002055 L17.9492186,17.002055 C17.7865106,16.350255 17.1970456,15.859477 16.4980466,15.859477 C15.6755416,15.859477 14.9980466,16.536977 14.9980466,17.359477 C14.9980466,17.773677 15.1697176,18.149277 15.4453126,18.421977 L12.0253906,28.195414 C12.0176306,28.215414 12.0246637,28.237915 12.0195312,28.257914 L11.9941406,28.257914 L11.9941406,28.757914 C11.9941412,30.364814 12.8525305,31.852752 14.2441406,32.656352 C15.6357516,33.459652 17.3525296,33.459752 18.7441406,32.656352 C20.1357506,31.852852 20.9941396,30.364814 20.9941406,28.757914 L20.9941406,28.257914 L20.9726566,28.257914 C20.9675566,28.236915 20.9745966,28.214415 20.9667966,28.195414 L17.5468746,18.42393 C17.6703506,18.30243 17.7696406,18.159355 17.8457026,18.002055 L25.1152346,18.002055 C25.2002046,18.248055 25.3300846,18.471464 25.4980466,18.664164 L25.4980466,36.002055 L23.4980466,36.002055 C23.2219156,36.002155 22.9980746,36.225955 22.9980466,36.502055 L22.9980466,38.002055 L21.4980466,38.002055 C21.2219156,38.002155 20.9980746,38.225955 20.9980466,38.502055 L20.9980466,40.502055 C20.9980746,40.778255 21.2219156,41.002055 21.4980466,41.002055 L32.4980466,41.002055 C32.7741776,41.002055 32.9980186,40.778255 32.9980466,40.502055 L32.9980466,38.502055 C32.9980186,38.225955 32.7741776,38.002155 32.4980466,38.002055 L30.9980466,38.002055 L30.9980466,36.502055 C30.9980186,36.225955 30.7741776,36.002155 30.4980466,36.002055 L28.4980466,36.002055 L28.4980466,18.664164 C28.6660096,18.471565 28.7958946,18.248055 28.8808596,18.002055 L32.8496096,18.002055 C32.8977296,18.017055 32.9477696,18.02454 32.9980466,18.02354 C33.0483266,18.02394 33.0983666,18.013055 33.1464846,18.002055 L36.1503906,18.002055 C36.2258306,18.158055 36.3231776,18.301077 36.4453126,18.421977 L33.0253906,28.195414 C33.0175906,28.215414 33.0265846,28.237915 33.0214846,28.257914 L32.9941406,28.257914 L32.9941406,28.757914 C32.9941416,30.364814 33.8525306,31.852752 35.2441406,32.656352 C36.6357516,33.459652 38.3525296,33.459752 39.7441406,32.656352 C41.1357506,31.852852 41.9941396,30.364814 41.9941406,28.757914 L41.9941406,28.494243 C41.9958406,28.442243 42.0039066,28.392046 42.0039066,28.339946 L41.9999996,28.339946 C41.9993326,28.329946 41.9953406,28.322555 41.9941406,28.314555 L41.9941406,28.257914 L41.9804686,28.257914 C41.9752686,28.236915 41.9746666,28.215414 41.9667966,28.195414 L38.5468746,18.42393 C38.8242316,18.15113 38.9980466,17.775177 38.9980466,17.359477 C38.9980466,16.536977 38.3205516,15.859477 37.4980466,15.859477 C36.7990476,15.859477 36.2095826,16.350255 36.0468746,17.002055 L33.4609376,17.002055 C33.1407656,13.650755 30.3877716,11.019102 27.0332026,11.000102 Z M27.0273436,12.000102 C29.8327756,12.016102 32.1459326,14.183055 32.4589846,17.002055 L28.9609376,17.002055 C28.8950676,16.642055 28.7302116,16.318936 28.4980466,16.052836 L28.4980466,13.502055 C28.4980186,13.225955 28.2741776,13.002155 27.9980466,13.002055 L25.9980466,13.002055 C25.7219156,13.002155 25.4980746,13.225955 25.4980466,13.502055 L25.4980466,16.052836 C25.2658826,16.318936 25.1010666,16.642055 25.0351566,17.002055 L21.5371096,17.002055 C21.8532916,14.155555 24.2008006,11.984002 27.0273436,12.000102 Z M26.4980466,14.002055 L27.4980466,14.002055 L27.4980466,15.42979 C27.3372936,15.387789 27.1713886,15.359477 26.9980466,15.359477 C26.8247056,15.359477 26.6588006,15.387789 26.4980466,15.42979 L26.4980466,14.002055 Z M26.9980466,16.359477 C27.5562566,16.359477 27.9980436,16.801277 27.9980466,17.359477 C27.9980806,17.917677 27.5562836,18.359477 26.9980466,18.359477 C26.4398106,18.359477 25.9980126,17.917677 25.9980466,17.359477 C25.9980496,16.801277 26.4398376,16.359477 26.9980466,16.359477 Z M16.4980466,16.859477 C16.7801116,16.859477 16.9980466,17.077377 16.9980466,17.359477 C16.9980466,17.641577 16.7801116,17.859477 16.4980466,17.859477 C16.2159826,17.859477 15.9980466,17.641577 15.9980466,17.359477 C15.9980466,17.077377 16.2159816,16.859477 16.4980466,16.859477 Z M37.4980466,16.859477 C37.7801116,16.859477 37.9980466,17.077377 37.9980466,17.359477 C37.9980466,17.641577 37.7801116,17.859477 37.4980466,17.859477 C37.2159826,17.859477 36.9980466,17.641577 36.9980466,17.359477 C36.9980466,17.077377 37.2159826,16.859477 37.4980466,16.859477 Z M16.3574216,18.843852 C16.4044316,18.843852 16.4499416,18.859477 16.4980466,18.859477 C16.5447566,18.859477 16.5890866,18.849805 16.6347656,18.845805 L19.9296876,28.257914 L16.4941406,28.257914 L13.0624996,28.257914 L16.3574216,18.843852 Z M37.3574216,18.843852 C37.4044316,18.843852 37.4499416,18.859477 37.4980466,18.859477 C37.5447566,18.859477 37.5890866,18.849805 37.6347656,18.845805 L40.9296876,28.257914 L37.4941406,28.257914 L34.0624996,28.257914 L37.3574216,18.843852 Z M26.4980466,19.287211 C26.6588066,19.329211 26.8246976,19.357524 26.9980466,19.357524 C27.1713966,19.357524 27.3372866,19.329211 27.4980466,19.287211 L27.4980466,36.002055 L26.4980466,36.002055 L26.4980466,19.287211 Z M10.9980468,28.058696 L10,28.11729 L10.03125,28.61729 L10.0507812,28.95518 L10.0527344,28.98643 L10.0585937,29.015727 L10.1816406,29.664164 L10.2734375,30.156352 L11.2558594,29.970805 L11.1640625,29.480571 L11.0488281,28.86143 L11.0292968,28.552836 L10.9980468,28.058696 Z M32.0039066,28.058696 L31.0058596,28.11729 L31.0371096,28.61729 L31.0566406,28.95518 L31.0585936,28.98643 L31.0644526,29.015727 L31.1874996,29.664164 L31.2792966,30.156352 L32.2617186,29.970805 L32.1699216,29.480571 L32.0546876,28.86143 L32.0351566,28.552836 L32.0039066,28.058696 Z M21.9843746,28.24229 L21.9472656,28.865336 L21.9257816,28.978618 L21.8339846,29.470805 L22.8183596,29.654399 L22.9101566,29.164164 L22.9374996,29.019633 L22.9433596,28.988383 L22.9433596,28.957133 L22.9824216,28.29893 L21.9843746,28.24229 Z M42.9902346,28.24229 L42.9531246,28.865336 L42.9316406,28.978618 L42.8398436,29.470805 L43.8242186,29.654399 L43.9160156,29.164164 L43.9433596,29.019633 L43.9492186,28.988383 L43.9492186,28.957133 L43.9882816,28.29893 L42.9902346,28.24229 Z M13.1269526,29.257914 L16.4941406,29.257914 L19.8613286,29.257914 C19.7026916,30.299415 19.1731856,31.252764 18.2441406,31.789164 C17.1605426,32.414765 15.8277386,32.414765 14.7441406,31.789164 C13.8150956,31.252765 13.2855936,30.299415 13.1269526,29.257914 Z M34.1269526,29.257914 L37.4941406,29.257914 L40.8613286,29.257914 C40.7026916,30.299415 40.1731856,31.252764 39.2441406,31.789164 C38.1605426,32.414765 36.8277386,32.414765 35.7441406,31.789164 C34.8150956,31.252765 34.2855906,30.299415 34.1269526,29.257914 Z M21.5937496,30.312602 L21.3847656,30.76768 L21.2539066,31.050883 L20.9238286,31.582133 L20.6582026,32.005961 L21.5078126,32.533305 L21.7714846,32.109477 L22.1191406,31.552836 L22.1347656,31.527446 L22.1484376,31.498149 L22.2929686,31.185649 L22.5019526,30.730571 L21.5937496,30.312602 Z M42.5996096,30.312602 L42.3906246,30.76768 L42.2597656,31.050883 L41.9296876,31.582133 L41.6640626,32.005961 L42.5136716,32.533305 L42.7773436,32.109477 L43.1249996,31.552836 L43.1406246,31.527446 L43.1542966,31.498149 L43.2988286,31.185649 L43.5078126,30.730571 L42.5996096,30.312602 Z M11.5507812,30.74229 L10.703125,31.27354 L10.9667968,31.697368 L11.3085937,32.246196 L11.3261718,32.269633 L11.3457031,32.293071 L11.5683594,32.568461 L11.8847656,32.95518 L12.6601562,32.322368 L12.34375,31.935649 L12.1445312,31.691508 L11.8164062,31.164164 L11.5507812,30.74229 Z M32.5566406,30.74229 L31.7089846,31.27354 L31.9726566,31.697368 L32.3144526,32.246196 L32.3320316,32.269633 L32.3515626,32.293071 L32.5742186,32.568461 L32.8906246,32.95518 L33.6660156,32.322368 L33.3496096,31.935649 L33.1503906,31.691508 L32.8222656,31.164164 L32.5566406,30.74229 Z M20.0996096,32.595805 L19.6933596,32.886821 L19.2402346,33.212993 L18.9082026,33.386821 L18.4667966,33.621196 L18.9335936,34.505961 L19.3749996,34.271586 L19.7304686,34.084086 L19.7617186,34.064555 L19.7890626,34.046977 L20.2753906,33.697368 L20.6816406,33.406352 L20.0996096,32.595805 Z M41.1054686,32.595805 L40.6992186,32.886821 L40.2460936,33.212993 L39.9140626,33.386821 L39.4726566,33.621196 L39.9394526,34.505961 L40.3808596,34.271586 L40.7363286,34.084086 L40.7675786,34.064555 L40.7949216,34.046977 L41.2812496,33.697368 L41.6874996,33.406352 L41.1054686,32.595805 Z M13.3144526,32.89854 L12.7324218,33.707133 L13.1386716,34.000102 L13.2070316,34.04893 L13.2343746,34.066508 L13.2656246,34.087993 L13.9804686,34.462993 L14.0097656,34.480571 L14.0429686,34.49229 L14.1445316,34.529399 L14.6152346,34.699321 L14.9550786,33.759868 L14.4843746,33.589946 L14.4179686,33.564555 L13.7558596,33.216899 L13.7207026,33.193461 L13.3144526,32.89854 Z M34.3203126,32.89854 L33.7382816,33.707133 L34.1445316,34.000102 L34.2128906,34.04893 L34.2402346,34.066508 L34.2714846,34.087993 L34.9863286,34.462993 L35.0156246,34.480571 L35.0488286,34.49229 L35.1503906,34.529399 L35.6210936,34.699321 L35.9609376,33.759868 L35.4902346,33.589946 L35.4238286,33.564555 L34.7617186,33.216899 L34.7265626,33.193461 L34.3203126,32.89854 Z M17.7167966,33.918071 L17.2187496,33.949321 L16.4960936,34.002055 L16.2910156,33.98643 L15.7910156,33.951274 L15.7226566,34.951274 L16.2207026,34.982524 L16.4628906,35.000102 L16.4980466,35.000102 L16.5332026,35.000102 L17.2871096,34.947368 L17.7871096,34.912211 L17.7167966,33.918071 Z M38.7226566,33.918071 L38.2246096,33.949321 L37.5019526,34.002055 L37.2968746,33.98643 L36.7968746,33.951274 L36.7285156,34.951274 L37.2265626,34.982524 L37.4687496,35.000102 L37.5039066,35.000102 L37.5390626,35.000102 L38.2929686,34.947368 L38.7929686,34.912211 L38.7226566,33.918071 Z M23.9980466,37.002055 L29.9980466,37.002055 L29.9980466,38.002055 L23.9980466,38.002055 L23.9980466,37.002055 Z M21.9980466,39.002055 L23.4980466,39.002055 L30.4980466,39.002055 L31.9980466,39.002055 L31.9980466,40.002055 L21.9980466,40.002055 L21.9980466,39.002055 Z"/>
  </g>
</svg>
