<svg xmlns="http://www.w3.org/2000/svg" width="105" height="100" viewBox="0 0 105 100">
  <g fill="none" fill-rule="evenodd">
    <path fill="#FFDB79" d="M102.683824,50 C102.683824,77.6153846 80.2169118,100 52.5,100 C24.7830882,100 2.31617647,77.6153846 2.31617647,50 C2.31617647,22.3846154 24.7830882,0 52.5,0 C80.2169118,0 102.683824,22.3846154 102.683824,50"/>
    <path fill="#353F49" d="M94.0962132,36.36 C93.5557721,35.8092308 92.8354412,35.5430769 92.1120221,35.5430769 L12.8902941,35.5430769 C12.1722794,35.5430769 11.4527206,35.8092308 10.9022426,36.36 C10.3563971,36.9038462 10.0830882,37.6192308 10.0830882,38.3392308 L10.0830882,87.1176923 L94.9176838,87.1176923 L94.9176838,38.3392308 C94.9176838,37.6192308 94.6497794,36.9038462 94.0962132,36.36"/>
    <path fill="#474F59" d="M53.6874265,37.6861538 C53.6874265,38.3469231 53.1585662,38.8769231 52.5,38.8769231 C51.8398897,38.8769231 51.3094853,38.3469231 51.3094853,37.6861538 C51.3094853,37.0338462 51.8398897,36.5076923 52.5,36.5076923 C53.1585662,36.5076923 53.6874265,37.0338462 53.6874265,37.6861538"/>
    <path fill="#FFFFFF" d="M53.011875,37.6861538 C53.011875,37.97 52.7794853,38.1930769 52.5,38.1930769 C52.2228309,38.1930769 51.988125,37.97 51.988125,37.6861538 C51.988125,37.4146154 52.2228309,37.1861538 52.5,37.1861538 C52.7794853,37.1861538 53.011875,37.4146154 53.011875,37.6861538"/>
    <polygon fill="#FFFFFF" points="14.499 87.118 90.506 87.118 90.506 39.842 14.499 39.842"/>
    <path fill="#CCCBCA" d="M0.386029412,88.7261538 C4.34900735,90.4692308 8.73275735,91.4307692 13.3450368,91.4307692 L91.6534191,91.4307692 C96.2672426,91.4307692 100.647904,90.4692308 104.613971,88.7261538 L0.386029412,88.7261538"/>
    <polygon fill="#FFFFFF" points=".386 88.726 104.614 88.726 104.614 87.118 .386 87.118"/>
    <polygon fill="#CCCBCA" points="43.455 87.921 61.545 87.921 61.545 87.118 43.455 87.118"/>
    <path fill="#63DDE8" d="M36.5554412,7.78230769 C36.5546691,7.18769231 36.7878309,6.58846154 37.2433456,6.13230769 C37.7004044,5.67923077 38.2979779,5.44769231 38.9017279,5.44769231 L66.0990441,5.45 C66.6989338,5.44769231 67.3042279,5.67923077 67.7574265,6.13461538 C68.2198897,6.59 68.4399265,7.18769231 68.4399265,7.78461538 L68.4406985,50.77 C68.4399265,51.3676923 68.2168015,51.9653846 67.7597426,52.4223077 C67.3042279,52.8730769 66.6989338,53.1038462 66.0990441,53.1038462 L38.9017279,53.1030769 C38.29875,53.1030769 37.7011765,52.8761538 37.2425735,52.4207692 C36.7870588,51.9653846 36.5600735,51.3661538 36.5554412,50.77 L36.5554412,7.78230769"/>
    <polygon fill="#353F49" points="61.377 47.169 62.397 47.169 62.397 39.72 61.377 39.72"/>
    <polygon fill="#353F49" points="61.377 37.727 62.394 37.727 62.394 30.275 61.377 30.275"/>
    <polyline fill="#353F49" points="62.397 20.828 62.394 28.279 61.377 28.279 61.377 20.828 62.397 20.828"/>
    <polyline fill="#353F49" points="62.397 11.385 62.397 18.832 61.377 18.835 61.377 11.385 62.397 11.385"/>
    <polygon fill="#FFFFFF" points="52.492 47.169 56.594 47.169 56.594 11.385 52.492 11.385"/>
    <polyline fill="#353F49" points="54.923 27.508 54.925 29.558 54.157 29.558 54.158 27.508 54.923 27.508"/>
    <polyline fill="#353F49" points="54.923 20.223 54.923 26.362 54.157 26.36 54.158 20.223 54.923 20.223"/>
    <polyline fill="#353F49" points="54.925 12.94 54.923 19.077 54.158 19.077 54.158 12.938 54.925 12.94"/>
    <polyline fill="#353F49" points="49.653 5.448 49.653 53.103 42.356 53.103 42.357 5.448 49.653 5.448"/>
    <polygon fill="#F87B55" points="25.168 87.118 79.832 87.118 79.832 27.541 25.168 27.541"/>
    <path fill="#353F49" d="M64.9177941 34.7230769C64.9177941 35.8776923 65.8581618 36.8176923 67.0139338 36.8176923 68.1828309 36.8176923 69.1309191 35.8776923 69.1309191 34.7230769 69.1309191 33.5592308 68.1828309 32.6223077 67.0139338 32.6223077 65.8581618 32.6223077 64.9177941 33.5592308 64.9177941 34.7230769M35.8721691 34.7230769C35.8721691 35.8776923 36.815625 36.8176923 37.9768015 36.8176923 39.1348897 36.8176923 40.0822059 35.8776923 40.0822059 34.7230769 40.0822059 33.5592308 39.1348897 32.6223077 37.9768015 32.6223077 36.815625 32.6223077 35.8721691 33.5592308 35.8721691 34.7230769"/>
    <path fill="#FFFFFF" d="M52.5 56.1676923C48.4598162 56.1676923 44.6628309 54.6 41.8046691 51.7538462 38.9480515 48.9069231 37.3753676 45.1246154 37.3753676 41.0984615L37.3753676 34.72C37.3753676 34.39 37.6463603 34.1215385 37.9768015 34.1215385 38.3103309 34.1215385 38.5805515 34.39 38.5805515 34.72L38.5805515 41.0984615C38.5805515 44.8030769 40.0266176 48.2853846 42.6554779 50.9076923 45.2866544 53.5261538 48.7817647 54.97 52.5 54.97 56.2166912 54.97 59.7133456 53.5261538 62.3422059 50.9076923 64.9733824 48.2853846 66.4194485 44.8030769 66.4194485 41.0984615L66.4194485 34.72C66.4194485 34.39 66.6935294 34.1215385 67.0208824 34.1215385 67.3544118 34.1215385 67.6215441 34.39 67.6215441 34.72L67.6215441 41.0984615C67.6215441 45.1238462 66.0511765 48.9069231 63.1945588 51.7538462 60.3379412 54.6 56.5378676 56.1676923 52.5 56.1676923M55.8051838 69.9838462C55.8051838 71.7869231 54.3351838 73.2492308 52.5231618 73.2492308 50.7111397 73.2492308 49.2434559 71.7869231 49.2434559 69.9838462 49.2434559 68.1769231 50.7111397 66.7146154 52.5231618 66.7146154 54.3351838 66.7146154 55.8051838 68.1769231 55.8051838 69.9838462"/>
    <polyline fill="#353F49" points="58.05 83.625 52.523 69.984 66.213 75.488 60.884 78.311 58.05 83.625"/>
    <polyline fill="#353F49" points="61.115 77.011 59.575 78.545 64.135 83.085 65.675 81.549 61.115 77.011"/>
    <polyline fill="#FFFFFF" points="47.895 66.035 44.866 63.016 45.531 62.353 48.561 65.372 47.895 66.035"/>
    <polyline fill="#FFFFFF" points="46.733 68.098 42.771 66.466 43.13 65.599 47.093 67.232 46.733 68.098"/>
    <polyline fill="#FFFFFF" points="46.449 70.453 42.161 70.452 42.161 69.514 46.449 69.515 46.449 70.453"/>
    <polyline fill="#FFFFFF" points="43.133 74.368 42.772 73.502 46.735 71.865 47.096 72.732 43.133 74.368"/>
    <polyline fill="#FFFFFF" points="45.532 77.613 44.865 76.95 47.895 73.927 48.562 74.59 45.532 77.613"/>
    <polyline fill="#FFFFFF" points="48.993 79.699 48.123 79.341 49.765 75.389 50.635 75.748 48.993 79.699"/>
    <polyline fill="#FFFFFF" points="52.054 80.304 52.052 76.032 52.994 76.032 52.996 80.304 52.054 80.304"/>
    <polyline fill="#FFFFFF" points="62.882 70.452 58.592 70.451 58.592 69.513 62.882 69.514 62.882 70.452"/>
    <polyline fill="#FFFFFF" points="58.314 68.098 57.953 67.232 61.916 65.598 62.277 66.465 58.314 68.098"/>
    <polyline fill="#FFFFFF" points="57.15 66.035 56.484 65.372 59.516 62.352 60.183 63.015 57.15 66.035"/>
    <polyline fill="#FFFFFF" points="55.282 64.573 54.412 64.215 56.054 60.265 56.923 60.625 55.282 64.573"/>
    <polygon fill="#FFFFFF" points="52.052 63.931 52.994 63.931 52.994 59.659 52.052 59.659"/>
    <polyline fill="#FFFFFF" points="49.763 64.573 48.123 60.625 48.993 60.266 50.633 64.215 49.763 64.573"/>
  </g>
</svg>
