<svg xmlns="http://www.w3.org/2000/svg" width="100" height="100" viewBox="0 0 100 100">
  <g fill="none" fill-rule="evenodd">
    <path fill="#FFDB79" d="M99.6794872,50 C99.6794872,77.4365385 77.4378205,99.6794872 50,99.6794872 C22.5628205,99.6794872 0.320512821,77.4365385 0.320512821,50 C0.320512821,22.5628205 22.5628205,0.320512821 50,0.320512821 C77.4378205,0.320512821 99.6794872,22.5628205 99.6794872,50"/>
    <path fill="#F77B55" d="M79.4288462,26.8737179 C80.0980769,26.8724359 80.7717949,27.1314103 81.2852564,27.6423077 C81.7935897,28.1538462 82.0512821,28.8230769 82.0512821,29.500641 L82.049359,59.9480769 C82.0512821,60.6217949 81.7935897,61.2923077 81.2833333,61.8044872 C80.7705128,62.3166667 80.0980769,62.5705128 79.4262821,62.5705128 L31.1275641,62.5717949 C30.4564103,62.5698718 29.7852564,62.3160256 29.2717949,61.8051282 C28.7634615,61.2923077 28.5038462,60.6224359 28.5038462,59.9480769 L28.5051282,29.500641 C28.5044872,28.825 28.7621795,28.1544872 29.2724359,27.6410256 C29.7852564,27.1307692 30.4583333,26.8775641 31.1275641,26.8737179 L79.4288462,26.8737179"/>
    <polygon fill="#242D3C" points="35.174 55.801 43.544 55.801 43.544 54.658 35.174 54.658"/>
    <polyline fill="#242D3C" points="54.156 55.798 45.784 55.799 45.784 54.659 54.156 54.658 54.156 55.798"/>
    <polyline fill="#242D3C" points="64.772 55.801 56.399 55.799 56.399 54.658 64.772 54.659 64.772 55.801"/>
    <polyline fill="#242D3C" points="75.381 55.801 67.012 55.8 67.01 54.659 75.381 54.658 75.381 55.801"/>
    <polyline fill="#FFFFFF" points="75.381 49.305 35.174 49.304 35.174 44.715 75.381 44.715 75.381 49.305"/>
    <polyline fill="#242D3C" points="57.265 47.437 54.963 47.438 54.963 46.576 57.265 46.577 57.265 47.437"/>
    <polyline fill="#242D3C" points="65.451 47.437 58.554 47.437 58.556 46.575 65.451 46.577 65.451 47.437"/>
    <polyline fill="#242D3C" points="73.635 47.438 66.74 47.437 66.74 46.577 73.637 46.577 73.635 47.438"/>
    <polyline fill="#3D546B" points="82.051 41.535 28.504 41.535 28.504 33.367 82.051 33.369 82.051 41.535"/>
    <path fill="#FFFFFF" d="M68.8730769,37.4288462 C69.5423077,37.4288462 70.2166667,37.6846154 70.7282051,38.1961538 C71.2371795,38.7070513 71.4961538,39.3801282 71.4961538,40.05 L71.4942308,70.500641 C71.4961538,71.174359 71.2371795,71.8461538 70.7282051,72.3596154 C70.2153846,72.8717949 69.5423077,73.125 68.8737179,73.1262821 L20.5717949,73.1262821 C19.900641,73.1262821 19.2307692,72.8717949 18.7153846,72.3596154 C18.2051282,71.8461538 17.9487179,71.174359 17.9487179,70.5025641 L17.950641,40.0519231 C17.9487179,39.3801282 18.2051282,38.7070513 18.7153846,38.1929487 C19.2307692,37.6846154 19.900641,37.4288462 20.5692308,37.4288462 L68.8730769,37.4288462"/>
    <path fill="#FF6D3B" d="M51.700641,55.2775641 C51.700641,52.6730769 53.0076923,50.3685897 54.9987179,48.9826923 C54.2634615,48.7064103 53.4705128,48.5487179 52.6391026,48.5487179 C48.9230769,48.5487179 45.9108974,51.5621795 45.9108974,55.2775641 C45.9108974,58.9935897 48.9230769,62.0057692 52.6391026,62.0057692 C53.4705128,62.0057692 54.2634615,61.8480769 54.9987179,61.5724359 C53.0076923,60.1865385 51.700641,57.8820513 51.700641,55.2775641"/>
    <path fill="#CCCBCA" d="M59.3679487,62.0044872 C55.6564103,62.0044872 52.6391026,58.9871795 52.6391026,55.275641 C52.6391026,51.5653846 55.6564103,48.5487179 59.3679487,48.5487179 L59.3679487,48.9576923 C55.8833333,48.9576923 53.0474359,51.7903846 53.0474359,55.275641 C53.0474359,58.7608974 55.8833333,61.5974359 59.3679487,61.5974359 L59.3679487,62.0044872"/>
    <path fill="#CCCBCA" d="M59.3679487,62.0044872 C58.4153846,62.0044872 57.5307692,61.2858974 56.8782051,59.9820513 C56.2474359,58.7224359 55.900641,57.050641 55.900641,55.275641 C55.900641,53.5044872 56.2474359,51.8320513 56.8782051,50.5730769 C57.5307692,49.2673077 58.4153846,48.5487179 59.3679487,48.5487179 L59.3679487,48.9576923 C58.5782051,48.9576923 57.8237179,49.5948718 57.2448718,50.7532051 C56.6416667,51.9589744 56.3115385,53.5660256 56.3115385,55.275641 C56.3115385,56.9897436 56.6416667,58.5942308 57.2448718,59.7987179 C57.8237179,60.9602564 58.5782051,61.5974359 59.3679487,61.5974359 L59.3679487,62.0044872"/>
    <polygon fill="#CCCBCA" points="59.164 61.801 59.571 61.801 59.571 48.753 59.164 48.753"/>
    <path fill="#CCCBCA" d="M59.3679487,62.0044872 L59.3679487,61.5974359 C60.1589744,61.5974359 60.9121795,60.9602564 61.4923077,59.7987179 C62.0942308,58.5942308 62.425641,56.9897436 62.425641,55.275641 C62.425641,53.5660256 62.0942308,51.9589744 61.4923077,50.7532051 C60.9121795,49.5948718 60.1589744,48.9576923 59.3679487,48.9576923 L59.3679487,48.5487179 C60.3198718,48.5487179 61.2051282,49.2673077 61.8570513,50.5730769 C62.4865385,51.8320513 62.8333333,53.5044872 62.8333333,55.275641 C62.8333333,57.050641 62.4865385,58.7224359 61.8570513,59.9820513 C61.2051282,61.2858974 60.3198718,62.0044872 59.3679487,62.0044872"/>
    <path fill="#CCCBCA" d="M59.3679487,62.0044872 L59.3679487,61.5974359 C62.8538462,61.5974359 65.6878205,58.7608974 65.6878205,55.275641 C65.6878205,51.7903846 62.8538462,48.9576923 59.3679487,48.9576923 L59.3679487,48.5487179 C63.0782051,48.5487179 66.0961538,51.5653846 66.0961538,55.275641 C66.0961538,58.9871795 63.0782051,62.0044872 59.3679487,62.0044872"/>
    <polygon fill="#CCCBCA" points="53.717 52.218 65.018 52.218 65.018 51.811 53.717 51.811"/>
    <polygon fill="#CCCBCA" points="52.844 55.481 65.892 55.481 65.892 55.073 52.844 55.073"/>
    <polygon fill="#CCCBCA" points="53.717 58.743 65.018 58.743 65.018 58.334 53.717 58.334"/>
    <path fill="#FFD55C" d="M32.2461538,58.0948718 C32.2461538,58.4865385 31.9269231,58.8083333 31.5320513,58.8083333 L24.0615385,58.8083333 C23.6685897,58.8083333 23.3487179,58.4865385 23.3487179,58.0948718 L23.3487179,52.4596154 C23.3487179,52.0673077 23.6685897,51.7474359 24.0615385,51.7474359 L31.5320513,51.7474359 C31.9269231,51.7474359 32.2461538,52.0673077 32.2461538,52.4596154 L32.2461538,58.0948718"/>
    <polygon fill="#FFB733" points="23.349 57.062 32.246 57.062 32.246 53.491 23.349 53.491"/>
    <polygon fill="#CCCBCA" points="23.349 67.313 32.246 67.313 32.246 66.244 23.349 66.244"/>
    <polygon fill="#CCCBCA" points="34.63 67.313 43.53 67.313 43.53 66.244 34.63 66.244"/>
    <polygon fill="#CCCBCA" points="45.913 67.313 54.814 67.313 54.814 66.244 45.913 66.244"/>
    <polygon fill="#CCCBCA" points="57.197 67.313 66.096 67.313 66.096 66.244 57.197 66.244"/>
    <polygon fill="#3D546B" points="23.349 44.192 43.53 44.192 43.53 41.694 23.349 41.694"/>
    <polygon fill="#FF6D3B" points="17.951 45.849 71.494 45.849 71.494 45.35 17.951 45.35"/>
  </g>
</svg>
