<svg xmlns="http://www.w3.org/2000/svg" width="54" height="54" viewBox="0 0 54 54">
  <g fill="none" fill-rule="evenodd">
    <path fill="#F7F7F7" d="M27,54 C41.9116882,54 54,41.9116882 54,27 C54,12.0883118 41.9116882,0 27,0 C12.0883118,0 0,12.0883118 0,27 C0,41.9116882 12.0883118,54 27,54 Z"/>
    <path fill="#00417B" d="M0.820546369,0.368165647 C0.540952214,0.412023554 0.349711345,0.675122104 0.393397931,0.955812706 C0.437084518,1.23650331 0.699155339,1.42849414 0.978749494,1.38463624 C1.01032137,1.3875976 1.04209949,1.3875976 1.07367137,1.38463624 C2.45262823,1.43150661 3.50999949,2.46337276 3.50999949,3.73522447 L3.50999949,8.754048 L3.50999949,11.6446362 L3.50999949,26.7964009 C3.50999949,28.377462 4.72598891,29.6649562 6.26273387,29.814048 C6.30339355,29.8300298 6.3459287,29.8407053 6.38929637,29.8458127 C6.40005023,29.846385 6.41015427,29.8453533 6.42093699,29.8458127 C6.45250887,29.8487741 6.48428699,29.8487741 6.51585887,29.8458127 C6.52672492,29.8459286 6.53660692,29.8458127 6.54749949,29.8458127 L13.6349995,29.8458127 L13.6349995,32.3869892 C13.6350274,32.6676682 13.8616669,32.8951964 14.1412495,32.8952245 L20.2162495,32.8952245 C20.4958321,32.8951964 20.7224716,32.6676682 20.7224995,32.3869892 L20.7224995,25.7799304 L24.7408589,25.7799304 L30.2779682,25.7799304 C31.1506946,25.7799304 31.8599995,25.0360264 31.8599995,24.1599304 L31.8599995,15.1069892 L31.8599995,12.0575774 L31.8599995,11.5493421 L31.8599995,11.1046362 C31.8599995,10.2285402 31.1506369,9.51640094 30.2779682,9.51640094 L24.7408589,9.51640094 L20.7224995,9.51640094 L20.7224995,8.81757741 C20.7224995,7.10724418 19.3831382,5.75115562 17.6849995,5.514048 L17.6849995,3.73522447 C17.6849995,1.8541441 16.0799723,0.368165647 14.1412495,0.368165647 L1.10531199,0.368165647 C1.06240083,0.3666982 1.02200704,0.368165647 0.978749494,0.368165647 C0.926340908,0.359843316 0.872954955,0.359843316 0.820546369,0.368165647 L0.820546369,0.368165647 Z M3.50999949,1.38463624 L14.1412495,1.38463624 C15.5680766,1.38463624 16.6724995,2.43332894 16.6724995,3.73522447 L16.6724995,5.45051859 L11.7998432,5.45051859 C11.7787701,5.4491939 11.7576351,5.4491939 11.736562,5.45051859 C11.692902,5.44920429 11.6546842,5.45051859 11.6099995,5.45051859 C9.93598161,5.45051859 8.57249949,6.81929798 8.57249949,8.49993035 L8.57249949,9.51640094 L8.12953074,9.51640094 C7.25686165,9.51640094 6.54749949,10.2285402 6.54749949,11.1046362 L6.54749949,11.5493421 L6.54749949,12.0575774 L6.54749949,15.1069892 L6.54749949,15.6152245 L6.54749949,24.1599304 C6.54749949,25.0360264 7.25680475,25.7799304 8.12953074,25.7799304 L8.57249949,25.7799304 L8.57249949,26.7964009 C8.56720583,26.8385872 8.56720583,26.8812735 8.57249949,26.9234598 C8.50764522,27.9966911 7.63487711,28.8293421 6.54749949,28.8293421 C5.41689279,28.8293421 4.52249949,27.931392 4.52249949,26.7964009 L4.52249949,11.6446362 L4.52249949,8.754048 L4.52249949,3.73522447 C4.52249949,2.81029062 4.13496563,1.98883682 3.50999949,1.38463624 L3.50999949,1.38463624 Z M11.6099995,6.46698918 C12.5018014,6.46698918 12.9392632,6.72456282 13.2236714,7.10228329 C13.5080796,7.48000376 13.6220395,8.02473035 13.6349995,8.49993035 L13.6349995,8.754048 C13.63368,8.77520375 13.63368,8.79642166 13.6349995,8.81757741 L13.6349995,9.51640094 L9.58499949,9.51640094 L9.58499949,8.49993035 C9.58499949,7.36493929 10.4793924,6.46698918 11.6099995,6.46698918 L11.6099995,6.46698918 Z M13.9830464,6.46698918 L16.9889057,6.46698918 C17.0516345,6.47886089 17.1160207,6.47886089 17.1787495,6.46698918 C18.6055766,6.46698918 19.7099995,7.51568188 19.7099995,8.81757741 L19.7099995,31.8787539 L14.6474995,31.8787539 L14.6474995,26.8916951 C14.6478291,26.8811094 14.6478291,26.870516 14.6474995,26.8599304 L14.6474995,8.81757741 C14.6504721,8.7858828 14.6504721,8.75397791 14.6474995,8.72228329 L14.6474995,8.49993035 C14.6478291,8.4893447 14.6478291,8.4787513 14.6474995,8.46816565 C14.6308135,7.856352 14.4822423,7.11981741 14.014687,6.49875388 C14.005696,6.48681228 13.9922864,6.47878583 13.9830464,6.46698918 L13.9830464,6.46698918 Z M15.6599995,10.0246362 L15.6599995,11.0411068 L17.6849995,11.0411068 L17.6849995,10.0246362 L15.6599995,10.0246362 L15.6599995,10.0246362 Z M8.12953074,10.5328715 L13.6349995,10.5328715 L13.6349995,11.5493421 L7.55999949,11.5493421 L7.55999949,11.1046362 C7.55999949,10.7739784 7.80020034,10.5328715 8.12953074,10.5328715 L8.12953074,10.5328715 Z M20.7224995,10.5328715 L24.7408589,10.5328715 L30.2779682,10.5328715 C30.6072991,10.5328715 30.8474995,10.7739784 30.8474995,11.1046362 L30.8474995,11.5493421 L25.2787495,11.5493421 L20.7224995,11.5493421 L20.7224995,10.5328715 L20.7224995,10.5328715 Z M15.6599995,12.0575774 L15.6599995,13.074048 L18.6974995,13.074048 L18.6974995,12.0575774 L15.6599995,12.0575774 L15.6599995,12.0575774 Z M7.55999949,12.5658127 L13.6349995,12.5658127 L13.6349995,14.5987539 L7.55999949,14.5987539 L7.55999949,12.5658127 L7.55999949,12.5658127 Z M20.7224995,12.5658127 L25.2787495,12.5658127 L30.8474995,12.5658127 L30.8474995,14.5987539 L25.2787495,14.5987539 L20.7224995,14.5987539 L20.7224995,12.5658127 L20.7224995,12.5658127 Z M15.6599995,14.0905186 L15.6599995,15.1069892 L17.6849995,15.1069892 L17.6849995,14.0905186 L15.6599995,14.0905186 L15.6599995,14.0905186 Z M7.55999949,15.6152245 L13.6349995,15.6152245 L13.6349995,17.6481656 L9.07874949,17.6481656 L8.57249949,17.6481656 L8.57249949,18.1564009 L8.57249949,20.1893421 L8.57249949,20.6975774 L9.07874949,20.6975774 L13.6349995,20.6975774 L13.6349995,22.7305186 L12.6224995,22.7305186 L12.6224995,23.7469892 L13.6349995,23.7469892 L13.6349995,24.7634598 L8.12953074,24.7634598 C7.80025724,24.7634598 7.55999949,24.4904866 7.55999949,24.1599304 L7.55999949,15.6152245 L7.55999949,15.6152245 Z M20.7224995,15.6152245 L25.2787495,15.6152245 L30.8474995,15.6152245 L30.8474995,24.1599304 C30.8474995,24.4904866 30.6072413,24.7634598 30.2779682,24.7634598 L24.7408589,24.7634598 L20.7224995,24.7634598 L20.7224995,23.7469892 L23.7599995,23.7469892 L23.7599995,22.7305186 L20.7224995,22.7305186 L20.7224995,15.6152245 L20.7224995,15.6152245 Z M15.6599995,16.1234598 L15.6599995,17.1399304 L16.6724995,17.1399304 L16.6724995,16.1234598 L15.6599995,16.1234598 L15.6599995,16.1234598 Z M24.0764057,16.6316951 C22.7812198,16.7335454 21.7310335,17.8686381 21.7349995,19.1728715 C21.7350046,20.5456151 22.8988875,21.714048 24.2662495,21.714048 C24.8255423,21.714048 25.3794416,21.5183174 25.8166401,21.174048 C26.2426566,21.5004265 26.7431293,21.714048 27.3037495,21.714048 C28.6711156,21.714048 29.8349934,20.5456151 29.8349995,19.1728715 C29.8349934,17.800128 28.6711156,16.6316951 27.3037495,16.6316951 C26.7447543,16.6316951 26.2420015,16.847014 25.8166401,17.1716951 C25.3867772,16.8315555 24.8489007,16.6407843 24.2978901,16.6316951 C24.2884739,16.6312885 24.2756657,16.632 24.2662495,16.6316951 L24.0764057,16.6316951 L24.0764057,16.6316951 Z M24.139687,17.6481656 L24.2346089,17.6481656 L24.2662495,17.6481656 C24.5701564,17.6481656 24.841712,17.8089215 25.0889057,17.9975774 C24.9434662,18.2617439 24.8469537,18.5494427 24.8041401,18.8552245 C24.7752008,18.9596983 24.7730756,19.061815 24.7724995,19.1728715 C24.7730837,19.2839281 24.7751998,19.3860427 24.8041401,19.4905186 C24.8441288,19.7947604 24.9471689,20.0843529 25.0889057,20.3481656 C24.841712,20.5365024 24.5701564,20.6962174 24.2662495,20.6975774 C23.5130376,20.6975774 22.7475015,19.929024 22.7474995,19.1728715 C22.745272,18.4500593 23.4219136,17.7046814 24.139687,17.6481656 L24.139687,17.6481656 Z M27.3037495,17.6481656 C28.0569624,17.6481656 28.8224965,18.4167191 28.8224995,19.1728715 C28.8224965,19.929024 28.0569624,20.6975774 27.3037495,20.6975774 C26.7388403,20.6975774 26.162177,20.2797938 25.911562,19.7446362 C25.8891017,19.6914453 25.8645871,19.6411605 25.8482807,19.5858127 C25.834774,19.5459721 25.826349,19.4992196 25.8166401,19.4587539 C25.7978805,19.3666708 25.7854875,19.2670292 25.7849995,19.1728715 C25.7850025,18.4167191 26.5505366,17.6481656 27.3037495,17.6481656 L27.3037495,17.6481656 Z M15.6599995,18.1564009 L15.6599995,19.1728715 L18.6974995,19.1728715 L18.6974995,18.1564009 L15.6599995,18.1564009 L15.6599995,18.1564009 Z M9.58499949,18.6646362 L13.6349995,18.6646362 L13.6349995,19.6811068 L9.58499949,19.6811068 L9.58499949,18.6646362 L9.58499949,18.6646362 Z M15.6599995,20.1893421 L15.6599995,21.2058127 L17.6849995,21.2058127 L17.6849995,20.1893421 L15.6599995,20.1893421 L15.6599995,20.1893421 Z M8.57249949,22.7305186 L8.57249949,23.7469892 L11.6099995,23.7469892 L11.6099995,22.7305186 L8.57249949,22.7305186 L8.57249949,22.7305186 Z M9.58499949,25.7799304 L13.6349995,25.7799304 L13.6349995,26.8599304 C13.63368,26.8810861 13.63368,26.902304 13.6349995,26.9234598 L13.6349995,28.8293421 L8.79398387,28.8293421 C9.24058658,28.332286 9.50990085,27.6962885 9.55335887,26.9869892 C9.56536847,26.9665793 9.57594115,26.945351 9.58499949,26.9234598 C9.58541361,26.9131589 9.58468845,26.9020214 9.58499949,26.8916951 C9.58532913,26.8811094 9.58532913,26.870516 9.58499949,26.8599304 C9.58541563,26.8392279 9.58499949,26.817201 9.58499949,26.7964009 L9.58499949,25.7799304 L9.58499949,25.7799304 Z" transform="translate(10.8 10.368)"/>
  </g>
</svg>
