<?xml version="1.0" encoding="UTF-8" standalone="no"?>
<svg width="32px" height="43px" viewBox="0 0 32 43" version="1.1" xmlns="http://www.w3.org/2000/svg" xmlns:xlink="http://www.w3.org/1999/xlink" xmlns:sketch="http://www.bohemiancoding.com/sketch/ns">
    <!-- Generator: Sketch 3.2.2 (9983) - http://www.bohemiancoding.com/sketch -->
    <title>icon_file_pdf</title>
    <desc>Created with Sketch.</desc>
    <defs></defs>
    <g id="brandbook" stroke="none" stroke-width="1" fill="none" fill-rule="evenodd" sketch:type="MSPage">
        <g id="icon_file_pdf" sketch:type="MSLayerGroup">
            <path d="M1.76944344,0 L20.8795506,0 L31.3191489,10.7432019 L31.3191489,41.1790772 C31.3191489,42.1817987 30.5243149,43 29.5497055,43 L1.76944344,43 C0.795187883,43 0,42.1820415 0,41.1790772 L0,1.82080143 C0,0.817837139 0.794951957,0 1.76944344,0" id="Fill-1" fill="#EE2A24" sketch:type="MSShapeGroup"></path>
            <path d="M0,41.0229885 C0.0066818639,42.1131771 0.86992728,43 1.92733224,43 C0.870184275,43 0.0066818639,42.1131771 0,41.0229885 M31.3191489,41.0229885 C31.3191489,42.1074452 30.4546105,42.9931464 29.3918167,43 C30.4546105,42.9931464 31.3191489,42.1077088 31.3191489,41.0229885" id="Fill-2" fill="#CCCCCC" sketch:type="MSShapeGroup"></path>
            <path d="M31.3191489,40.0344828 C31.3191489,40.9418212 30.5243149,41.6819923 29.5497055,41.6819923 L1.76944344,41.6819923 C0.795187883,41.6819923 0,40.941931 0,40.0344828 L0,41.3524904 C0,41.3561149 0,41.3596296 0.000117962896,41.3631443 C0.0062520335,42.2657599 0.798962696,43 1.76944344,43 L29.5497055,43 L29.5611479,43 C30.530567,42.9942886 31.3191489,42.2562043 31.3191489,41.3524904 L31.3191489,40.0344828" id="Fill-3" fill="#BE221D" sketch:type="MSShapeGroup"></path>
            <path d="M20.7188216,0 L20.7188216,10.8735632 L31.3191489,10.8735632 L20.7188216,0" id="Fill-4" fill="#FF6D68" sketch:type="MSShapeGroup"></path>
            <path d="M31.3191489,10.8735632 L20.7188216,10.8735632 L31.3191489,21.7471264 L31.3191489,10.8735632" id="Fill-5" fill="#BE221D" sketch:type="MSShapeGroup"></path>
            <path d="M9.63666121,28.6666667 C9.93474208,27.7772522 9.89686373,27.9708962 10.4556296,27.4852734 C10.8724121,27.1228786 11.0915998,26.9029661 11.5639935,26.6896552 C11.1476935,27.402067 10.4886827,28.2890059 9.63666121,28.6666667 L9.63666121,28.6666667 Z M19.7551555,24.2224263 C20.7410956,24.1580855 24.5595619,24.8681001 23.3890833,25.9958889 C22.4558494,26.8951484 20.0793989,24.4777747 19.7551555,24.2224263 L19.7551555,24.2224263 Z M15.7777847,20.7586207 C16.1059696,21.058917 17.124147,22.6294545 17.3459902,23.0679844 L14.4549918,23.7241379 L15.7777847,20.7586207 L15.7777847,20.7586207 Z M15.1533495,17.7931034 C14.9739407,17.2942838 14.9321027,17.0575179 14.9372312,16.4116666 C14.948298,15.0398326 15.1985166,15.3959952 15.3296092,15.3218391 C15.5751491,15.9069785 15.2447634,17.1381826 15.1533495,17.7931034 L15.1533495,17.7931034 Z M18.140363,24.3304802 C18.7654758,24.9349128 22.1554324,28.7173905 23.7701976,26.538767 C24.7362159,25.2353878 23.2877256,24.1078261 22.5401447,23.7471841 C21.3083013,23.1530795 19.8388029,23.1982348 18.4213474,23.1781792 C18.0723251,22.5703839 17.5650253,22.0317627 17.104397,21.3970664 C16.7084644,20.8515999 16.0054065,20.0934471 16.1548511,19.2382583 C16.3725722,17.9925242 17.7330907,14.7206858 16.2725446,14.041795 C14.0386348,13.0037032 13.9726262,16.2000026 14.3878959,18.0214669 C14.7590006,19.6506608 15.3609566,19.749378 13.5334835,22.8547663 C11.8274043,25.7543136 12.4442809,24.2392088 9.93105781,25.8395802 C7.31315187,27.506844 8.00677997,29.6284229 9.67108156,29.069626 C11.1205267,28.5830055 12.0642238,26.8269923 12.9645915,25.7583968 C13.6980874,24.8877159 16.8764105,24.3536583 18.140363,24.3304802 L18.140363,24.3304802 Z" id="Fill-6" fill="#FFFFFF" sketch:type="MSShapeGroup"></path>
        </g>
    </g>
</svg>