<svg xmlns="http://www.w3.org/2000/svg" width="100" height="100" viewBox="0 0 100 100">
  <g fill="none" fill-rule="evenodd">
    <path fill="#FFFFFF" d="M99.6794872,50 C99.6794872,77.4371795 77.4378205,99.6794872 50,99.6794872 C22.5628205,99.6794872 0.320512821,77.4371795 0.320512821,50 C0.320512821,22.5621795 22.5628205,0.320512821 50,0.320512821 C77.4378205,0.320512821 99.6794872,22.5621795 99.6794872,50"/>
    <polygon fill="#63DDE8" points="23.552 71.043 76.402 71.043 76.402 40.406 23.552 40.406"/>
    <polygon fill="#06B2B8" points="23.552 69.633 76.402 69.633 76.402 38.997 23.552 38.997"/>
    <polygon fill="#63DDE8" points="23.552 68.222 76.402 68.222 76.402 37.587 23.552 37.587"/>
    <polygon fill="#06B2B8" points="23.552 66.812 76.402 66.812 76.402 36.174 23.552 36.174"/>
    <polygon fill="#63DDE8" points="23.552 65.406 76.402 65.406 76.402 34.766 23.552 34.766"/>
    <polygon fill="#06B2B8" points="23.552 63.988 76.402 63.988 76.402 33.354 23.552 33.354"/>
    <polygon fill="#63DDE8" points="23.552 62.579 76.402 62.579 76.402 31.942 23.552 31.942"/>
    <polygon fill="#06B2B8" points="23.552 61.169 76.402 61.169 76.402 30.533 23.552 30.533"/>
    <polyline fill="#63DDE8" points="76.403 28.957 76.403 59.589 33.719 59.589 23.551 49.422 23.551 28.957 76.403 28.957"/>
    <polyline fill="#06B2B8" points="74.81 30.549 74.81 58.003 32.133 58.003 25.144 51.014 25.144 30.549 74.81 30.549"/>
    <polyline fill="#63DDE8" points="73.163 32.197 73.163 56.356 30.486 56.356 26.792 52.662 26.792 32.197 73.163 32.197"/>
    <path fill="#06B2B8" d="M40.6967949,44.2717949 C40.6967949,39.1487179 44.8519231,34.9916667 49.9769231,34.9916667 C55.1057692,34.9916667 59.2589744,39.1487179 59.2589744,44.2717949 C59.2589744,49.3955128 55.1057692,53.5557692 49.9769231,53.5557692 C44.8519231,53.5557692 40.6967949,49.3955128 40.6967949,44.2717949"/>
    <path fill="#21D8DE" d="M49.0410256,43.6897436 L50.9141026,43.6897436 C51.6480769,43.6897436 52.3423077,43.975 52.8641026,44.4974359 C53.3878205,45.0179487 53.674359,45.7134615 53.674359,46.450641 C53.674359,47.1891026 53.3878205,47.8833333 52.8641026,48.4051282 C52.3423077,48.9288462 51.6480769,49.2141026 50.9141026,49.2141026 L47.4467949,49.2141026 C47.1262821,49.2141026 46.8615385,48.9538462 46.8615385,48.6282051 C46.8615385,48.3115385 47.1262821,48.0467949 47.4467949,48.0467949 L50.9141026,48.0467949 C51.3365385,48.0467949 51.7397436,47.8833333 52.0384615,47.5807692 C52.3423077,47.2788462 52.5064103,46.8762821 52.5064103,46.450641 C52.5064103,46.025641 52.3423077,45.6237179 52.0384615,45.325 C51.7397436,45.0230769 51.3365385,44.8564103 50.9141026,44.8564103 L49.0410256,44.8564103 C48.7224359,44.8564103 48.4634615,44.5948718 48.4634615,44.2717949 C48.4634615,43.9461538 48.7224359,43.6897436 49.0410256,43.6897436"/>
    <path fill="#21D8DE" d="M49.0410256,39.3314103 L52.5064103,39.3314103 C52.8301282,39.3314103 53.0923077,39.5929487 53.0923077,39.9166667 C53.0923077,40.2346154 52.8301282,40.4948718 52.5064103,40.4948718 L49.0410256,40.4948718 C48.6179487,40.4948718 48.2141026,40.6615385 47.9166667,40.9653846 C47.6128205,41.2666667 47.4467949,41.6660256 47.4467949,42.0942308 C47.4467949,42.5211538 47.6128205,42.9217949 47.9166667,43.2198718 C48.2141026,43.5230769 48.6179487,43.6897436 49.0410256,43.6897436 L50.9141026,43.6897436 C51.2320513,43.6897436 51.4916667,43.9461538 51.4916667,44.2717949 C51.4916667,44.5948718 51.2320513,44.8564103 50.9141026,44.8564103 L49.0410256,44.8564103 C48.3051282,44.8564103 47.6128205,44.5666667 47.0903846,44.0480769 C46.5692308,43.525641 46.2820513,42.8307692 46.2820513,42.0942308 C46.2820513,41.3576923 46.5692308,40.6615385 47.0903846,40.1423077 C47.6102564,39.6166667 48.3051282,39.3314103 49.0410256,39.3314103"/>
    <path fill="#21D8DE" d="M49.9769231,38.0865385 C50.2987179,38.0865385 50.5602564,38.3487179 50.5602564,38.6717949 L50.5602564,49.8730769 C50.5602564,50.1980769 50.2987179,50.4576923 49.9769231,50.4576923 C49.6551282,50.4576923 49.3948718,50.1980769 49.3948718,49.8730769 L49.3948718,38.6717949 C49.3948718,38.3487179 49.6551282,38.0865385 49.9769231,38.0865385"/>
    <path fill="#06B2B8" d="M74.8128205 38.0788462L74.8128205 30.55 67.2858974 30.55C67.9487179 34.3929487 70.9679487 37.4064103 74.8128205 38.0788462M25.1429487 38.0788462C28.9884615 37.4064103 32.0051282 34.3929487 32.6717949 30.55L25.1429487 30.55 25.1429487 38.0788462M67.2801282 58.0025641L74.8128205 58.0025641 74.8128205 50.4660256C70.9621795 51.1365385 67.9435897 54.1551282 67.2801282 58.0025641"/>
    <polyline fill="#04B7C1" points="43.888 59.589 33.719 59.589 32.133 58.003 42.302 58.003 43.888 59.589"/>
    <polyline fill="#0197A0" points="42.302 58.003 32.133 58.003 30.486 56.356 40.655 56.356 42.302 58.003"/>
    <polyline fill="#63DDE8" points="33.72 49.421 23.552 49.421 33.72 59.588 33.72 49.421"/>
    <polygon fill="#FFFFFF" points="45.49 59.589 54.465 59.589 54.465 28.957 45.49 28.957"/>
    <polygon fill="#D9D8D7" points="45.49 71.043 54.465 71.043 54.465 59.589 45.49 59.589"/>
    <polygon fill="#FFC640" points="69.14 71.043 84.449 71.043 84.449 67.844 69.14 67.844"/>
    <polygon fill="#FFD55C" points="69.14 70.724 84.449 70.724 84.449 67.524 69.14 67.524"/>
    <polygon fill="#FFB733" points="64.379 67.524 79.691 67.524 79.691 64.324 64.379 64.324"/>
    <polygon fill="#FFC640" points="64.379 67.204 79.691 67.204 79.691 64.007 64.379 64.007"/>
    <polygon fill="#FFC640" points="67.788 64.007 83.099 64.007 83.099 60.806 67.788 60.806"/>
    <polygon fill="#FFD55C" points="67.788 63.683 83.099 63.683 83.099 60.484 67.788 60.484"/>
    <polygon fill="#FFC640" points="68.267 60.484 83.579 60.484 83.579 57.285 68.267 57.285"/>
    <polygon fill="#FFB733" points="68.267 60.166 83.579 60.166 83.579 56.963 68.267 56.963"/>
    <polygon fill="#FFB733" points="66.894 56.963 82.207 56.963 82.207 53.765 66.894 53.765"/>
    <polygon fill="#FFC640" points="66.894 56.644 82.207 56.644 82.207 53.447 66.894 53.447"/>
    <polygon fill="#FFB733" points="67.422 53.447 82.734 53.447 82.734 50.247 67.422 50.247"/>
    <polygon fill="#FFC640" points="67.422 53.125 82.734 53.125 82.734 49.924 67.422 49.924"/>
    <polygon fill="#FFC640" points="66.553 49.924 81.862 49.924 81.862 46.728 66.553 46.728"/>
    <polygon fill="#FFD55C" points="66.553 49.606 81.862 49.606 81.862 46.407 66.553 46.407"/>
  </g>
</svg>
