<?xml version="1.0" encoding="UTF-8" standalone="no"?>
<svg width="33px" height="27px" viewBox="0 0 33 27" version="1.1" xmlns="http://www.w3.org/2000/svg" xmlns:xlink="http://www.w3.org/1999/xlink" xmlns:sketch="http://www.bohemiancoding.com/sketch/ns">
    <!-- Generator: Sketch 3.3 (11970) - http://www.bohemiancoding.com/sketch -->
    <title>Imported Layers</title>
    <desc>Created with Sketch.</desc>
    <defs></defs>
    <g id="Табы" stroke="none" stroke-width="1" fill="none" fill-rule="evenodd" sketch:type="MSPage">
        <g id="открытие-счета-1" sketch:type="MSArtboardGroup" transform="translate(-600.000000, -6.000000)">
            <g id="header" sketch:type="MSLayerGroup" transform="translate(137.000000, 0.000000)">
                <g id="chat" transform="translate(455.000000, 0.000000)" sketch:type="MSShapeGroup">
                    <g id="Imported-Layers" transform="translate(9.500000, 7.923913)">
                        <path d="M13.1164321,13.0691684 L12.294368,10.2160602 C13.5097084,9.15389619 14.2591594,7.71700666 14.2591594,6.12906087 C14.2591594,2.87260596 11.1246096,0.234686679 7.26127951,0.234686679 C3.39158919,0.234686679 0.25915942,2.87260596 0.25915942,6.12906087 C0.25915942,9.38392572 3.39158919,12.0197249 7.26127951,12.0197249 C7.99854005,12.0197249 8.7045293,11.9137205 9.37288699,11.731923 L13.1164321,13.0691684 Z" id="Fill-1" stroke="#FFFFFF" stroke-width="1.71428977"></path>
                        <rect id="Rectangle-39" fill="#FFFFFF" x="3" y="5" width="2" height="2"></rect>
                        <rect id="Rectangle-40" fill="#FFFFFF" x="6" y="5" width="2" height="2"></rect>
                        <rect id="Rectangle-41" fill="#FFFFFF" x="9" y="5" width="2" height="2"></rect>
                        <path d="M30.7173913,24.1277101 C30.7173913,20.9572174 27.5570725,18.3428986 23.4697971,17.9589275 L22.3717681,21.1294203 L21.2763768,17.9691014 C17.2448696,18.39 14.1406957,20.9851014 14.1406957,24.1277101 L24.8722899,24.1277101 C24.8707826,24.1115072 24.8692754,24.0968116 24.8692754,24.0806087 L24.8692754,22.0020217 L25.6025507,22.0020217 L25.9748406,22.0020217 L27.9014783,22.0020217 L27.9014783,24.0806087 C27.9014783,24.0968116 27.8988406,24.1115072 27.8988406,24.1277101 L30.7173913,24.1277101 Z" id="Fill-2" fill="#FFFFFF"></path>
                        <path d="M21.9124348,16.9328696 C22.0993333,16.9562319 22.2877391,16.9724348 22.4806667,16.9724348 C22.6042609,16.9724348 22.7248406,16.9637681 22.843913,16.9551014 C25.1933333,16.7693333 27.0404638,14.8072754 27.0404638,12.4126377 C27.0404638,9.89402899 24.9988986,7.85095652 22.4791594,7.85095652 C19.9605507,7.85095652 17.9204928,9.89402899 17.9204928,12.4126377 C17.922,14.7353043 19.6617391,16.6517681 21.9124348,16.9328696 L21.9124348,16.9328696 Z" id="Fill-3" fill="#FFFFFF"></path>
                    </g>
                </g>
            </g>
        </g>
    </g>
</svg>