<svg xmlns="http://www.w3.org/2000/svg" width="54" height="53" viewBox="0 0 54 53">
  <g fill="none" fill-rule="evenodd">
    <path fill="#F7F7F7" d="M26.7326733,53 C41.496721,53 53.4653465,41.1355459 53.4653465,26.5 C53.4653465,11.8644541 41.496721,0 26.7326733,0 C11.9686255,0 0,11.8644541 0,26.5 C0,41.1355459 11.9686255,53 26.7326733,53 Z"/>
    <path fill="#00417B" d="M26.7413793,12 L25.7068966,12.0323661 L25.7392241,13.0680804 L26.7737069,13.0357143 L26.7413793,12 L26.7413793,12 Z M27.8405172,12.0647321 L27.7435345,13.1004464 L28.1314655,13.1328125 L28.1637931,13.1328125 L28.7456897,13.2299107 L28.9073276,12.2265625 L28.2931034,12.0970982 L28.2607759,12.0970982 L27.8405172,12.0647321 L27.8405172,12.0647321 Z M24.6400862,12.1294643 L24.1228448,12.1941964 L24.0905172,12.1941964 L24.0581897,12.1941964 L23.5732759,12.3236607 L23.799569,13.3270089 L24.2521552,13.2299107 L24.2844828,13.2299107 L24.7693966,13.1651786 L24.6400862,12.1294643 L24.6400862,12.1294643 Z M29.9741379,12.4207589 L29.6831897,13.4241071 L30.6853448,13.7154018 L30.9762931,12.7120536 L29.9741379,12.4207589 L29.9741379,12.4207589 Z M22.5064655,12.5502232 L21.5366379,12.8738839 L21.8599138,13.8772321 L22.8297414,13.5535714 L22.5064655,12.5502232 L22.5064655,12.5502232 Z M16.6228448,13.0680804 C15.4945039,13.0680804 14.5538793,13.9829813 14.5538793,15.1071429 L14.5538793,16.7254464 C14.5538793,17.1054838 14.7622874,17.3566042 14.9418103,17.6316964 C14.580583,17.8068278 13.9027891,18.1500553 13.2931034,18.4732143 C12.905898,18.6778622 12.6195799,18.8730409 12.387931,19.1205357 C12.1562822,19.3680305 12,19.696021 12,20.0267857 L12,20.609375 C12,21.029934 12.3029885,21.3214286 12.7112069,21.3214286 L12.9698276,21.3214286 L12.8081897,21.7745536 L13.7780172,22.1305804 L14.0689655,21.3214286 L20.5668103,21.3214286 C20.6333483,21.3214286 20.7004272,21.3041518 20.7607759,21.2890625 L21.0193966,21.515625 L21.7306034,20.7712054 L21.2780172,20.3504464 L21.2780172,20.15625 C21.2780172,19.640791 21.0852207,19.0834296 20.5668103,18.7645089 C20.5565162,18.7532485 20.5457298,18.7424493 20.5344828,18.7321429 C19.7973478,18.331004 19.1721462,18.0116248 18.7241379,17.7935268 C18.7093872,17.7863182 18.7060345,17.8004868 18.6918103,17.7935268 C18.4965496,17.6979396 18.4449539,17.6536898 18.3362069,17.5993304 C18.5008703,17.3353523 18.6918103,17.0882331 18.6918103,16.7254464 L18.6918103,15.5279018 L19.2090517,15.171875 L18.6271552,14.3303571 L18.5625,14.3950893 C18.2629656,13.6266579 17.4958678,13.0680804 16.6228448,13.0680804 L16.6228448,13.0680804 Z M31.9784483,13.1004464 L31.6228448,14.0714286 L31.9461207,14.2008929 L32.0107759,14.2332589 L32.4956897,14.4598214 L32.9806034,13.5535714 L32.4310345,13.2622768 L32.3987069,13.2622768 L31.9784483,13.1004464 L31.9784483,13.1004464 Z M37.3448276,13.1328125 C36.2154455,13.1314454 35.2758621,14.0168821 35.2758621,15.1395089 L35.2758621,15.7868304 L35.0172414,16.1104911 L35.2758621,16.3046875 L35.2758621,16.7578125 C35.2758621,17.1192229 35.4661821,17.3666697 35.6314655,17.6316964 C35.5137331,17.6904887 35.4609776,17.7190413 35.2435345,17.8258929 C34.7998376,18.0433673 34.1789731,18.3569464 33.4331897,18.7645089 C33.4219426,18.7748154 33.4111562,18.7856146 33.4008621,18.796875 C33.0103955,19.0356474 32.799989,19.410926 32.7219828,19.8002232 L32.6896552,19.7678571 L31.9784483,20.5122768 L32.7219828,21.2243304 L32.8512931,21.0948661 C32.9704314,21.2486023 33.1354676,21.3537946 33.3685345,21.3537946 C33.3793077,21.3541318 33.3900888,21.3541318 33.4008621,21.3537946 L38.8965517,21.3537946 L39.0581897,21.7098214 L39.8663793,21.3537946 L41.2564655,21.3537946 C41.6604486,21.3537946 41.9676724,21.0623001 41.9676724,20.6417411 L41.9676724,20.0591518 C41.9676724,19.7275019 41.8114262,19.4000495 41.5797414,19.1529018 C41.3480566,18.905754 41.0605097,18.7101449 40.674569,18.5055804 C40.0633645,18.1825433 39.3864528,17.838618 39.0258621,17.6640625 C39.2056117,17.3888861 39.4137931,17.1382327 39.4137931,16.7578125 L39.4137931,15.1395089 C39.4137931,14.0162029 38.47416,13.1328125 37.3448276,13.1328125 L37.3448276,13.1328125 Z M20.5344828,13.2946429 L20.1465517,13.4564732 L20.1142241,13.4888393 L19.5646552,13.7801339 L20.049569,14.6863839 L20.5668103,14.3950893 L20.5991379,14.3950893 L20.9547414,14.2332589 L20.5344828,13.2946429 L20.5344828,13.2946429 Z M33.9181034,14.0714286 L33.3685345,14.9453125 L34.2413793,15.4955357 L34.7909483,14.6216518 L33.9181034,14.0714286 L33.9181034,14.0714286 Z M16.6228448,14.1037946 C17.2034694,14.1037946 17.6573276,14.561055 17.6573276,15.1071429 L17.6573276,16.7254464 C17.6573276,16.9196821 17.5679503,17.0849461 17.3987069,17.2756696 C17.3122423,17.3737372 17.2660454,17.5009298 17.2693966,17.6316964 L17.2693966,17.9229911 C17.2741214,18.1166189 17.3863635,18.2914255 17.5603448,18.3761161 C17.6557999,18.4239004 17.8425263,18.5382488 18.2392241,18.7321429 C18.2499974,18.7324801 18.2607785,18.7324801 18.2715517,18.7321429 C18.7136052,18.9473142 19.3055172,19.2520444 20.0172414,19.6383929 C20.1857274,19.7420436 20.2435345,19.903209 20.2435345,20.15625 L20.2435345,20.2857143 L13.0344828,20.2857143 L13.0344828,20.0267857 C13.0344828,19.9536218 13.0318241,19.9066838 13.1314655,19.8002232 C13.2311098,19.6937627 13.4421192,19.5569949 13.7780172,19.3794643 C14.481795,19.0064325 15.6119364,18.4750364 15.75,18.4084821 C15.9345697,18.3187438 16.0487178,18.1282704 16.0409483,17.9229911 L16.0409483,17.6964286 C16.0356129,17.5611641 15.9775925,17.4333674 15.8793103,17.3404018 C15.6921969,17.14526 15.5883621,16.9332424 15.5883621,16.7254464 L15.5883621,15.1071429 C15.5883621,14.5596616 16.0422203,14.1037946 16.6228448,14.1037946 L16.6228448,14.1037946 Z M37.3448276,14.1685268 C37.9285986,14.1685268 38.3793103,14.5911721 38.3793103,15.1395089 L38.3793103,16.7578125 C38.3793103,16.9671171 38.2747159,17.1791953 38.0883621,17.3727679 C37.9900799,17.4657334 37.9320595,17.5935302 37.9267241,17.7287946 L37.9267241,17.9553571 C37.9189546,18.1606364 38.0331027,18.3511098 38.2176724,18.4408482 C38.3576048,18.5083033 39.4835783,19.0386509 40.1896552,19.4118304 C40.524749,19.5894444 40.7360814,19.7581477 40.8362069,19.8649554 C40.9363345,19.971763 40.9331897,19.9868731 40.9331897,20.0591518 L40.9331897,20.3180804 L33.7241379,20.3180804 L33.7241379,20.1886161 C33.7241379,19.9355751 33.7800207,19.7749671 33.950431,19.6707589 C34.6579717,19.2851707 35.2545631,18.9809351 35.6961207,18.7645089 C36.0924621,18.5697477 36.3150507,18.453733 36.4073276,18.4084821 C36.5813089,18.3237916 36.693551,18.148985 36.6982759,17.9553571 L36.6982759,17.6640625 C36.701627,17.5332958 36.6554301,17.4061032 36.5689655,17.3080357 C36.3998534,17.1192159 36.3103448,16.9540381 36.3103448,16.7578125 L36.3103448,15.1395089 C36.3103448,14.5925644 36.7631752,14.1678226 37.3448276,14.1685268 L37.3448276,14.1685268 Z M31.2672414,21.2566964 L30.5560345,22.0334821 L31.299569,22.7455357 L32.0107759,21.96875 L31.2672414,21.2566964 L31.2672414,21.2566964 Z M26.9676724,21.3214286 C25.7462514,21.3214286 24.7393376,22.2510308 24.5431034,23.4252232 L23.9935345,22.9073661 L23.2823276,23.6517857 L24.0258621,24.3638393 L24.4784483,23.8783482 L24.4784483,25.8526786 C24.4784483,26.3720624 24.7658824,26.7526936 25.0280172,27.1149554 L25.0280172,27.1473214 C24.6456372,27.3376329 23.6446366,27.8040192 22.8297414,28.2477679 C22.3493514,28.5093147 22.0035683,28.7567935 21.7306034,29.0569196 C21.4576386,29.3570458 21.2780172,29.7387179 21.2780172,30.125 L21.2780172,30.9017857 C21.2780172,31.3381062 21.58005,31.6785714 22.0215517,31.6785714 L31.9461207,31.6785714 C32.3821738,31.6749464 32.6896552,31.3689591 32.6896552,30.9341518 L32.6896552,30.3191964 C32.6896552,29.6954665 32.458259,29.019868 31.8491379,28.6361607 C31.8388438,28.6249003 31.8280574,28.6141011 31.8168103,28.6037946 C30.8799269,28.0797729 30.0847634,27.6881911 29.5215517,27.40625 C29.1954031,27.242981 29.0898983,27.193041 28.9396552,27.1149554 L28.9396552,27.0502232 C29.1778283,26.7036328 29.424569,26.3444119 29.424569,25.8526786 L29.424569,23.8136161 L29.8771552,24.234375 L30.5883621,23.4899554 L29.8448276,22.7779018 L29.3599138,23.2957589 C29.1307034,22.1745444 28.1544041,21.3214286 26.9676724,21.3214286 L26.9676724,21.3214286 Z M22.4741379,21.4832589 L21.762931,22.2276786 L22.5387931,22.9397321 L23.25,22.1953125 L22.4741379,21.4832589 L22.4741379,21.4832589 Z M40.3512931,22.3247768 L39.3491379,22.6484375 L39.4784483,23.0044643 L39.4784483,23.0368304 L39.6077586,23.5870536 L40.6099138,23.3928571 L40.4806034,22.7779018 L40.4806034,22.7455357 L40.4806034,22.7131696 L40.3512931,22.3247768 L40.3512931,22.3247768 Z M26.9676724,22.3571429 C27.7610628,22.3571429 28.3900862,22.9820028 28.3900862,23.78125 L28.3900862,25.8526786 C28.3900862,26.1542226 28.2296048,26.4625755 28.0021552,26.7265625 C27.9345943,26.8205596 27.9004484,26.9345148 27.9051724,27.0502232 L27.9051724,27.4386161 C27.9035143,27.625284 28.0023209,27.7984015 28.1637931,27.8917411 C28.2854814,27.9551786 28.5688159,28.0944935 29.0689655,28.3448661 C29.6248645,28.623147 30.3661738,29.0070376 31.2672414,29.5100446 C31.5229479,29.6711231 31.6551724,29.9486406 31.6551724,30.3191964 L31.6551724,30.6428571 L22.3125,30.6428571 L22.3125,30.125 C22.3125,29.9882464 22.3309862,29.9263738 22.4741379,29.7689732 C22.6172938,29.6115726 22.8857348,29.3875424 23.3146552,29.1540179 C24.2039669,28.6697458 25.6183366,27.9846229 25.8038793,27.8917411 C25.9653515,27.7984015 26.0641582,27.625284 26.0625,27.4386161 L26.0625,27.1149554 C26.0658511,26.9841887 26.0196543,26.8569961 25.9331897,26.7589286 C25.681979,26.4890359 25.512931,26.1800793 25.512931,25.8526786 L25.512931,23.8136161 C25.512931,23.0133963 26.1716731,22.3571429 26.9676724,22.3571429 L26.9676724,22.3571429 Z M12.4849138,22.8102679 L12.3556034,23.2957589 L12.3556034,23.328125 L12.2586207,23.8783482 L13.2607759,24.0401786 L13.3577586,23.5546875 L13.3577586,23.5223214 L13.487069,23.1015625 L12.4849138,22.8102679 L12.4849138,22.8102679 Z M40.8038793,24.4285714 L39.7693966,24.5580357 L39.8987069,25.5290179 L39.8987069,25.5613839 L39.8987069,25.59375 L40.2543103,25.5613839 L40.4159483,25.5290179 L40.9331897,25.5290179 L40.9331897,25.4966518 L40.9331897,25.4642857 L40.8038793,24.4285714 L40.8038793,24.4285714 Z M12.0969828,24.9464286 L12,25.9821429 L13.0344828,26.046875 L13.1314655,25.0111607 L12.0969828,24.9464286 L12.0969828,24.9464286 Z M40.9655172,26.5647321 L39.9310345,26.5970982 L39.9310345,26.8236607 L39.9310345,26.8883929 L39.8663793,27.5680804 L40.9008621,27.6328125 L40.9655172,26.9207589 L40.9655172,26.8883929 L40.9655172,26.8560268 L40.9655172,26.5647321 L40.9655172,26.5647321 Z M12.0323276,27.0502232 L12.0323276,27.4709821 L12.0323276,27.5033482 L12.0323276,27.5357143 L12.0969828,28.1506696 L13.1314655,28.0212054 L13.0668103,27.4709821 L13.0668103,27.40625 L13.0668103,27.0502232 L12.0323276,27.0502232 L12.0323276,27.0502232 Z M39.7693966,28.5390625 L39.6077586,29.4453125 L39.6077586,29.4776786 L39.6077586,29.5100446 L40.5775862,29.8013393 L40.6099138,29.7042411 L40.6099138,29.671875 L40.7715517,28.7332589 L39.7693966,28.5390625 L39.7693966,28.5390625 Z M13.2931034,28.9921875 L12.2586207,29.21875 L12.4849138,30.2220982 L13.487069,29.9955357 L13.2931034,28.9921875 L13.2931034,28.9921875 Z M39.3168103,30.5133929 L39.2521552,30.7075893 L38.9935345,31.4196429 L39.9310345,31.8080357 L40.2219828,31.0959821 L40.2219828,31.0636161 L40.2543103,31.0636161 L40.3189655,30.7723214 L39.3168103,30.5133929 L39.3168103,30.5133929 Z M16.6228448,30.6752232 C15.4930963,30.6752232 14.5538793,31.5916584 14.5538793,32.7142857 L14.5538793,32.7790179 L13.6810345,33.2321429 L14.1336207,34.0736607 L14.1659483,34.1060268 L14.1982759,34.203125 L14.5538793,33.9765625 L14.5538793,34.3002232 C14.5538793,34.6806431 14.7620606,34.9312964 14.9418103,35.2064732 C14.5812192,35.3810284 13.9043078,35.7249539 13.2931034,36.0479911 C12.9071632,36.252556 12.6196162,36.4481652 12.387931,36.6953125 C12.1562459,36.9424598 12,37.2699123 12,37.6015625 L12,38.2165179 C12,38.6347103 12.3139482,38.8921464 12.7112069,38.8962054 L19.7909483,38.9285714 L19.6293103,39.2522321 L20.5344828,39.7377232 L20.5668103,39.7377232 L20.5991379,39.7377232 L20.8900862,38.9933036 L21.0193966,38.7991071 C21.2010538,38.6751332 21.3103448,38.4722585 21.3103448,38.2165179 L21.3103448,37.7633929 C21.3103448,37.2479334 21.0852207,36.658206 20.5668103,36.3392857 C20.5560371,36.3389485 20.545256,36.3389485 20.5344828,36.3392857 C19.9359867,36.0131341 19.4908526,35.8000421 19.0797414,35.5948661 L19.1767241,35.4977679 L18.5301724,34.8504464 C18.614603,34.6860713 18.6918103,34.5146534 18.6918103,34.3002232 L18.6918103,32.7142857 C18.6904138,31.5933653 17.7511858,30.6752232 16.6228448,30.6752232 L16.6228448,30.6752232 Z M37.3448276,30.6752232 C36.2150793,30.6752232 35.2758621,31.59098 35.2758621,32.7142857 L35.2758621,34.3002232 C35.2758621,34.5353324 35.3665883,34.7103858 35.4698276,34.8828125 L35.2758621,35.0770089 L35.5021552,35.3035714 C35.1340821,35.4848836 34.5713638,35.7539839 34.0150862,36.0479911 C33.6291455,36.252556 33.3415986,36.4481652 33.1099138,36.6953125 C32.878229,36.9424598 32.7219828,37.2699123 32.7219828,37.6015625 L32.7219828,38.2165179 C32.7219828,38.6370769 33.0292066,38.8962054 33.4331897,38.8962054 L41.2887931,38.9285714 C41.6970114,38.9285714 42,38.6370769 42,38.2165179 L42,37.7310268 C42,37.2174285 41.7778717,36.6581283 41.2564655,36.3392857 C40.5096134,35.9322873 39.8586372,35.6187061 39.4137931,35.4006696 C39.1922245,35.2923733 39.1440393,35.2653846 39.0258621,35.2064732 C39.1995662,34.9370901 39.4137931,34.6758126 39.4137931,34.3002232 L39.4137931,32.7142857 C39.4124483,31.5933653 38.4735859,30.6752232 37.3448276,30.6752232 L37.3448276,30.6752232 Z M13.8103448,30.9341518 L12.8081897,31.2578125 L12.9051724,31.5491071 L12.9051724,31.5814732 L12.9375,31.6138393 L13.2284483,32.2611607 L14.1659483,31.8727679 L13.9073276,31.2254464 L13.875,31.2254464 L13.875,31.1930804 L13.8103448,30.9341518 L13.8103448,30.9341518 Z M32.9806034,31.484375 L32.2693966,32.2287946 L33.012931,32.9408482 L33.7241379,32.1964286 L32.9806034,31.484375 L32.9806034,31.484375 Z M16.6228448,31.7109375 C17.2034694,31.7109375 17.6566511,32.1697776 17.6573276,32.7142857 L17.6573276,34.3002232 C17.6573276,34.4949416 17.5668921,34.6932809 17.3987069,34.8828125 C17.3195439,34.9724988 17.2738507,35.0868678 17.2693966,35.2064732 L17.2693966,35.4977679 C17.261627,35.7030472 17.3757751,35.8935206 17.5603448,35.9832589 C17.6612152,36.0348064 17.8748539,36.1453917 18.2715517,36.3392857 C18.7099508,36.5531711 19.3137702,36.8312883 20.0172414,37.2131696 C20.0329117,37.2216625 20.033789,37.2369393 20.049569,37.2455357 C20.193828,37.3505882 20.2758621,37.5282723 20.2758621,37.7633929 L20.2758621,37.8928571 L13.0344828,37.8604911 L13.0344828,37.6015625 C13.0344828,37.52928 13.0313379,37.5141689 13.1314655,37.4073661 C13.231591,37.300558 13.442923,37.1318547 13.7780172,36.9542411 C14.4840938,36.5810618 15.610068,36.050714 15.75,35.9832589 C15.9239813,35.8985684 16.0362234,35.7237617 16.0409483,35.5301339 L16.0409483,35.2712054 C16.0356129,35.1359409 15.9775925,35.0081441 15.8793103,34.9151786 C15.6929562,34.7216056 15.5883621,34.5095276 15.5883621,34.3002232 L15.5883621,32.7142857 C15.5883621,32.1673416 16.0394899,31.7109375 16.6228448,31.7109375 L16.6228448,31.7109375 Z M37.3448276,31.7109375 C37.9250348,31.7109375 38.3786338,32.1697776 38.3793103,32.7142857 L38.3793103,34.3002232 C38.3793103,34.494459 38.289931,34.6920888 38.1206897,34.8828125 C38.0296929,34.9677318 37.9723083,35.0826375 37.9590517,35.2064732 L37.9590517,35.4977679 C37.9512822,35.7030472 38.0654303,35.8935206 38.25,35.9832589 C38.3422759,36.0285093 38.5645086,36.1130256 38.9612069,36.3069196 C39.4080869,36.5259546 40.0150417,36.8508913 40.7392241,37.2455357 C40.8903197,37.3501574 40.9655172,37.4894972 40.9655172,37.7310268 L40.9655172,37.8928571 L33.7564655,37.8604911 L33.7564655,37.6015625 C33.7564655,37.52928 33.7533621,37.5141689 33.8534483,37.4073661 C33.9535759,37.300558 34.1649062,37.1318547 34.5,36.9542411 C35.2060769,36.5810618 36.2871962,36.0578573 36.4396552,35.9832589 C36.6136365,35.8985684 36.7258786,35.7237617 36.7306034,35.5301339 L36.7306034,35.2712054 C36.7323286,35.2049992 36.7213545,35.1390762 36.6982759,35.0770089 L36.7306034,35.0446429 L36.6659483,35.0122768 C36.6481191,34.9775754 36.6264297,34.9450026 36.6012931,34.9151786 C36.4159345,34.7210215 36.3103448,34.5095276 36.3103448,34.3002232 L36.3103448,32.7142857 C36.3103448,32.1659485 36.7614724,31.7109375 37.3448276,31.7109375 L37.3448276,31.7109375 Z M21.2780172,31.7756696 L20.5668103,32.5200893 L21.3103448,33.2321429 L22.0215517,32.4877232 L21.2780172,31.7756696 L21.2780172,31.7756696 Z M34.4676724,32.9084821 L33.7564655,33.6529018 L34.5,34.3649554 L35.2112069,33.6205357 L34.4676724,32.9084821 L34.4676724,32.9084821 Z M19.8556034,33.2645089 L19.1443966,34.0089286 L19.887931,34.7209821 L20.5991379,33.9765625 L19.8556034,33.2645089 L19.8556034,33.2645089 Z M32.5603448,38.5078125 L32.3987069,38.6049107 L32.3663793,38.6049107 L31.6551724,38.9285714 L32.0431034,39.8671875 L32.8189655,39.5435268 L32.8512931,39.5435268 L32.8512931,39.5111607 L33.0452586,39.4140625 L32.5603448,38.5078125 L32.5603448,38.5078125 Z M21.924569,39.1551339 L21.5689655,40.1261161 L21.8922414,40.2555804 L21.924569,40.2555804 L21.9568966,40.2555804 L22.6034483,40.4497768 L22.862069,39.4464286 L22.2801724,39.2845982 L21.924569,39.1551339 L21.924569,39.1551339 Z M30.7176724,39.2522321 L29.9741379,39.5111607 L29.9418103,39.5111607 L29.7801724,39.5435268 L30.0064655,40.546875 L30.200431,40.5145089 L30.2327586,40.5145089 L30.2650862,40.5145089 L31.0409483,40.2555804 L30.7176724,39.2522321 L30.7176724,39.2522321 Z M23.8318966,39.7053571 L23.637931,40.7087054 L24.6724138,40.9029018 L24.7047414,40.9029018 L24.737069,40.9029018 L24.7693966,40.3850446 L24.8340517,39.8671875 L24.8017241,39.8671875 L23.8318966,39.7053571 L23.8318966,39.7053571 Z M28.6810345,39.7700893 L27.8081897,39.8995536 L27.9051724,40.9029018 L28.8426724,40.8058036 L28.875,40.8058036 L28.9073276,40.8058036 L29.0043103,40.7734375 L28.7780172,39.7700893 L28.7133621,39.7700893 L28.6810345,39.7700893 L28.6810345,39.7700893 Z M25.8362069,39.9319196 L25.7392241,40.9676339 L26.0625,41 L26.0948276,41 L26.1271552,41 L26.8383621,40.9676339 L26.8060345,39.9319196 L26.1594828,39.9642857 L26.1271552,39.9642857 L26.0948276,39.9642857 L25.8362069,39.9319196 L25.8362069,39.9319196 Z"/>
  </g>
</svg>
