<?xml version="1.0" encoding="UTF-8" standalone="no"?>
<svg width="24px" height="24px" viewBox="0 0 24 24" version="1.1" xmlns="http://www.w3.org/2000/svg" xmlns:xlink="http://www.w3.org/1999/xlink" xmlns:sketch="http://www.bohemiancoding.com/sketch/ns">
    <!-- Generator: Sketch 3.2.2 (9983) - http://www.bohemiancoding.com/sketch -->
    <title>icon_search</title>
    <desc>Created with Sketch.</desc>
    <defs></defs>
    <g id="Открытие-счета" stroke="none" stroke-width="1" fill="none" fill-rule="evenodd" sketch:type="MSPage">
        <g id="открытие-счета-1" sketch:type="MSArtboardGroup" transform="translate(-149.000000, -8.000000)" fill="#2D4668">
            <g id="header" sketch:type="MSLayerGroup" transform="translate(137.000000, 0.000000)">
                <g id="search-2" sketch:type="MSShapeGroup">
                    <g id="icon_search" transform="translate(12.000000, 8.000000)">
                        <path d="M10.0064516,18.7045161 C4.87896774,18.7045161 0.707612903,14.5331613 0.707612903,9.40645161 C0.707612903,4.27974194 4.87896774,0.107612903 10.0064516,0.107612903 C15.1339355,0.107612903 19.3045161,4.27896774 19.3045161,9.40645161 C19.3045161,14.5339355 15.1331613,18.7045161 10.0064516,18.7045161 L10.0064516,18.7045161 Z M10.0064516,2.43019355 C6.15948387,2.43019355 3.03019355,5.55948387 3.03019355,9.40645161 C3.03019355,13.2526452 6.15948387,16.3819355 10.0064516,16.3819355 C13.8526452,16.3819355 16.9819355,13.2526452 16.9819355,9.40645161 C16.9819355,5.55948387 13.8526452,2.43019355 10.0064516,2.43019355 L10.0064516,2.43019355 Z" id="Shape"></path>
                        <path d="M22.6877419,23.4665806 C22.3904516,23.4665806 22.0931613,23.3535484 21.8663226,23.1267097 L14.8954839,16.155871 C14.4418065,15.7029677 14.4418065,14.9667097 14.8954839,14.5138065 C15.3491613,14.060129 16.083871,14.060129 16.5375484,14.5138065 L23.5083871,21.4846452 C23.9620645,21.9375484 23.9620645,22.6738065 23.5083871,23.1267097 C23.2815484,23.3535484 22.9842581,23.4665806 22.6877419,23.4665806 L22.6877419,23.4665806 Z" id="Shape"></path>
                    </g>
                </g>
            </g>
        </g>
    </g>
</svg>