<?xml version="1.0" encoding="UTF-8" standalone="no"?>
<svg width="32px" height="43px" viewBox="0 0 32 43" version="1.1" xmlns="http://www.w3.org/2000/svg" xmlns:xlink="http://www.w3.org/1999/xlink" xmlns:sketch="http://www.bohemiancoding.com/sketch/ns">
    <!-- Generator: Sketch 3.2.2 (9983) - http://www.bohemiancoding.com/sketch -->
    <title>icon_file_txt</title>
    <desc>Created with Sketch.</desc>
    <defs></defs>
    <g id="brandbook" stroke="none" stroke-width="1" fill="none" fill-rule="evenodd" sketch:type="MSPage">
        <g id="icon_file_txt" sketch:type="MSLayerGroup" transform="translate(0.000000, 0.146617)">
            <path d="M1.83458647,0.0162406015 L21.3233083,0.0162406015 L31.9699248,10.6628571 L31.9699248,40.8243008 C31.9699248,41.817985 31.159218,42.6289323 30.1654135,42.6289323 L1.83458647,42.6289323 C0.841022556,42.6289323 0.030075188,41.8182256 0.030075188,40.8243008 L0.030075188,1.82075188 C0.030075188,0.826827068 0.840781955,0.0162406015 1.83458647,0.0162406015" id="Fill-1" fill="#F3F2EF" sketch:type="MSShapeGroup"></path>
            <path d="M0.030075188,40.8301955 C0.0333233083,41.8214737 0.842706767,42.6289323 1.83458647,42.6289323 C0.842947368,42.6289323 0.0333233083,41.8214737 0.030075188,40.8301955 M31.9699248,40.8243008 C31.9699248,41.817985 31.159218,42.6289323 30.1654135,42.6289323 C31.1593383,42.6289323 31.9699248,41.8182256 31.9699248,40.8243008" id="Fill-2" fill="#E5E5E5" sketch:type="MSShapeGroup"></path>
            <path d="M31.9699248,39.3806917 C31.9699248,40.3744962 31.159218,41.185203 30.1654135,41.185203 L1.83458647,41.185203 C0.840902256,41.185203 0.030075188,40.3746165 0.030075188,39.3806917 L0.030075188,40.8243008 L0.030075188,40.8301955 C0.0333233083,41.8214737 0.842947368,42.6289323 1.83458647,42.6289323 L30.1654135,42.6289323 C31.159218,42.6289323 31.9699248,41.817985 31.9699248,40.8243008 L31.9699248,39.3806917" id="Fill-3" fill="#DAD9D7" sketch:type="MSShapeGroup"></path>
            <path d="M12.0487218,13.3099549 L12.4138346,13.3099549 L13.2366917,19.3039398 C13.2584662,19.4653835 13.3228271,19.5829173 13.4277293,19.6581053 C13.5327519,19.7317293 13.6957594,19.7692632 13.9166316,19.7692632 L14.1455639,19.7692632 L14.0546165,20.1079098 L11.3043008,20.1079098 L11.3952481,19.7692632 L11.6396992,19.7692632 C11.9030376,19.7692632 12.0738647,19.7411128 12.1553083,19.6863759 C12.2367519,19.6299549 12.2775338,19.5436992 12.2775338,19.4246015 C12.2775338,19.3791278 12.2728421,19.3242707 12.2634586,19.2631579 L12.0754286,17.8888421 L9.62129323,17.8888421 L9.02123308,18.8352481 C8.91308271,19.0046316 8.85978947,19.1738947 8.85978947,19.3430376 C8.85978947,19.4794586 8.90983459,19.5843609 9.0086015,19.6581053 C9.10881203,19.7317293 9.27025564,19.7692632 9.49437594,19.7692632 L9.71861654,19.7692632 L9.62297744,20.1079098 L7.20806015,20.1079098 L7.29888722,19.7692632 C7.54345865,19.7504962 7.75494737,19.6815639 7.93203008,19.5609023 C8.11067669,19.4403609 8.29088722,19.2350075 8.47422556,18.9449624 L12.0487218,13.3099549 L12.0487218,13.3099549 Z M11.6382556,14.7077293 L9.87681203,17.4845113 L12.0190075,17.4845113 L11.6382556,14.7077293 L11.6382556,14.7077293 Z" id="Fill-4" fill="#3B6385" sketch:type="MSShapeGroup"></path>
            <path d="M16,13.4539549 L26.6466165,13.4539549 L26.6466165,15.5661955 L16,15.5661955 L16,13.4539549 Z" id="Fill-5" fill="#3B6385" sketch:type="MSShapeGroup"></path>
            <path d="M16,17.9955489 L26.6466165,17.9955489 L26.6466165,20.1079098 L16,20.1079098 L16,17.9955489 Z" id="Fill-6" fill="#3B6385" sketch:type="MSShapeGroup"></path>
            <path d="M5.35338346,22.5372632 L26.6466165,22.5372632 L26.6466165,24.6496241 L5.35338346,24.6496241 L5.35338346,22.5372632 Z" id="Fill-7" fill="#3B6385" sketch:type="MSShapeGroup"></path>
            <path d="M5.35338346,27.0789774 L16,27.0789774 L16,29.191218 L5.35338346,29.191218 L5.35338346,27.0789774 Z" id="Fill-8" fill="#3B6385" sketch:type="MSShapeGroup"></path>
            <path d="M21.3233083,0.0162406015 L21.3233083,10.6628571 L31.9699248,10.6628571 L21.3233083,0.0162406015" id="Fill-9" fill="#F8F7F4" sketch:type="MSShapeGroup"></path>
            <path d="M31.9699248,10.6628571 L21.3233083,10.6628571 L24.1145263,13.4539549 L26.6466165,13.4539549 L26.6466165,15.5661955 L26.2266466,15.5661955 L31.9699248,21.3094737 L31.9699248,10.6628571" id="Fill-10" fill="#DAD9D7" sketch:type="MSShapeGroup"></path>
            <path d="M26.6466165,13.4539549 L24.1145263,13.4539549 L26.2266466,15.5661955 L26.6466165,15.5661955 L26.6466165,13.4539549" id="Fill-11" fill="#355977" sketch:type="MSShapeGroup"></path>
        </g>
    </g>
</svg>