<?xml version="1.0" encoding="UTF-8" standalone="no"?>
<svg width="16px" height="16px" viewBox="0 0 16 16" version="1.1" xmlns="http://www.w3.org/2000/svg" xmlns:xlink="http://www.w3.org/1999/xlink" xmlns:sketch="http://www.bohemiancoding.com/sketch/ns">
    <!-- Generator: Sketch 3.3.2 (12043) - http://www.bohemiancoding.com/sketch -->
    <title>Shape</title>
    <desc>Created with Sketch.</desc>
    <defs></defs>
    <g id="Транзакции" stroke="none" stroke-width="1" fill="none" fill-rule="evenodd" sketch:type="MSPage">
        <g id="транзакции-6" sketch:type="MSArtboardGroup" transform="translate(-881.000000, -674.000000)" fill="#6690B0">
            <path d="M895.65625,675.5 L893.5,675.5 L893.5,674.5 C893.5,674.21875 893.28125,674 893,674 C892.71875,674 892.5,674.21875 892.5,674.5 L892.5,675.5 L889.5,675.5 L889.5,674.5 C889.5,674.21875 889.28125,674 889,674 C888.71875,674 888.5,674.21875 888.5,674.5 L888.5,675.5 L885.5,675.5 L885.5,674.5 C885.5,674.21875 885.28125,674 885,674 C884.71875,674 884.5,674.21875 884.5,674.5 L884.5,675.5 L882.34375,675.5 C881.59375,675.5 881,676.09375 881,676.84375 L881,688.65625 C881,689.40625 881.59375,690 882.34375,690 L895.65625,690 C896.40625,690 897,689.40625 897,688.65625 L897,676.84375 C897,676.09375 896.40625,675.5 895.65625,675.5 L895.65625,675.5 Z M896,688.65625 C896,688.84375 895.84375,689 895.65625,689 L882.34375,689 C882.15625,689 882,688.84375 882,688.65625 L882,676.84375 C882,676.65625 882.15625,676.5 882.34375,676.5 L884.5,676.5 L884.5,677.5 C884.5,677.78125 884.71875,678 885,678 C885.28125,678 885.5,677.78125 885.5,677.5 L885.5,676.5 L888.5,676.5 L888.5,677.5 C888.5,677.78125 888.71875,678 889,678 C889.28125,678 889.5,677.78125 889.5,677.5 L889.5,676.5 L892.5,676.5 L892.5,677.5 C892.5,677.78125 892.71875,678 893,678 C893.28125,678 893.5,677.78125 893.5,677.5 L893.5,676.5 L895.65625,676.5 C895.84375,676.5 896,676.65625 896,676.84375 L896,688.65625 Z M882,679 L896,679 L896,680 L882,680 L882,679 Z M891,687 L891,682 L894,684.5 L891,687 Z M885,684 L891,684 L891,685 L885,685 L885,684 Z" id="Shape" sketch:type="MSShapeGroup"></path>
        </g>
    </g>
</svg>