<?xml version="1.0" encoding="UTF-8" standalone="no"?>
<svg width="110px" height="21px" viewBox="0 0 110 21" version="1.1" xmlns="http://www.w3.org/2000/svg" xmlns:xlink="http://www.w3.org/1999/xlink" xmlns:sketch="http://www.bohemiancoding.com/sketch/ns">
    <!-- Generator: Sketch 3.2.2 (9983) - http://www.bohemiancoding.com/sketch -->
    <title>logo</title>
    <desc>Created with Sketch.</desc>
    <defs></defs>
    <g id="Открытие-счета" stroke="none" stroke-width="1" fill="none" fill-rule="evenodd" sketch:type="MSPage">
        <g id="открытие-счета-1" sketch:type="MSArtboardGroup" transform="translate(-13.000000, -17.000000)" fill="#FFFFFF">
            <g id="aside" sketch:type="MSLayerGroup">
                <g id="logo" transform="translate(13.000000, 17.000000)" sketch:type="MSShapeGroup">
                    <path d="M16.3470833,8.17979167 L16.3470833,4.1375 L20.389375,4.1375 L20.3889583,8.17979167 L16.3470833,8.17979167 Z M16.3470833,12.2214583 L20.38875,12.2214583 L20.38875,16.264375 L16.3470833,16.264375 L16.3470833,12.2214583 Z M16.3470833,16.264375 L20.38875,16.264375 L20.38875,20.306875 L16.3470833,20.306875 L16.3470833,16.264375 Z M12.305,0.0954166667 L16.3470833,0.0954166667 L16.3470833,4.1375 L12.305,4.1375 L12.305,0.0954166667 Z M12.305,4.1375 L16.3470833,4.1375 L16.3470833,8.17958333 L12.305,8.17958333 L12.305,4.1375 Z M12.305,8.17979167 L16.3470833,8.17979167 L16.3470833,12.2235417 L12.305,12.2235417 L12.305,8.17979167 Z M8.26333333,0.0954166667 L12.305,0.0954166667 L12.305,4.1375 L8.26333333,4.1375 L8.26333333,0.0954166667 Z M8.26333333,8.17979167 L12.305,8.17979167 L12.305,12.2214583 L8.26333333,12.2214583 L8.26333333,8.17979167 Z M8.26333333,20.3070833 L8.26333333,16.2647917 L12.305,16.264375 L12.305,20.3070833 L8.26333333,20.3070833 Z M4.220625,4.1375 L8.263125,4.1375 L8.263125,8.17958333 L4.220625,8.17958333 L4.220625,4.1375 Z M4.21979167,12.2214583 L4.220625,8.17979167 L8.26333333,8.17979167 L8.26333333,12.2214583 L4.21979167,12.2214583 Z M4.21979167,12.2214583 L8.263125,12.2214583 L8.263125,16.2647917 L4.21979167,16.2647917 L4.21979167,12.2214583 Z M0.178125,4.1375 L0.177708333,0.0954166667 L4.21979167,0.0954166667 L4.220625,4.1375 L0.178125,4.1375 Z M0.177708333,8.17979167 L0.178125,4.1375 L4.220625,4.1375 L4.220625,8.17979167 L0.177708333,8.17979167 Z M0.177708333,12.2214583 L4.21979167,12.2214583 L4.21979167,16.2647917 L0.177708333,16.2647917 L0.177708333,12.2214583 Z M0.177708333,16.2647917 L4.21979167,16.2647917 L4.21979167,20.306875 L0.177708333,20.306875 L0.177708333,16.2647917 Z" id="Fill-1"></path>
                    <path d="M46.1516667,16.44625 C43.5283333,16.44625 42.0741667,14.4245833 42.0741667,11.7333333 C42.0741667,9.043125 43.5283333,7.03770833 46.1516667,7.03770833 C48.775625,7.03770833 50.2291667,9.043125 50.2291667,11.7333333 C50.2291667,14.4245833 48.775625,16.44625 46.1516667,16.44625 L46.1516667,16.44625 Z M46.1516667,8.82625 C44.9485417,8.82625 44.3470833,9.911875 44.3470833,11.716875 C44.3470833,13.5214583 44.9485417,14.59125 46.1516667,14.59125 C47.3547917,14.59125 47.9564583,13.5214583 47.9564583,11.716875 C47.9564583,9.911875 47.3547917,8.82625 46.1516667,8.82625 L46.1516667,8.82625 Z" id="Fill-17"></path>
                    <path d="M56.034375,16.44625 C53.1264583,16.44625 51.53875,14.7252083 51.53875,11.8002083 C51.53875,9.026875 52.9927083,7.15479167 55.75,7.15479167 C56.235,7.15479167 56.7520833,7.23854167 57.0372917,7.33916667 L57.0372917,3.128125 L59.32625,3.128125 L59.32625,15.794375 C58.674375,16.1452083 57.404375,16.44625 56.034375,16.44625 L56.034375,16.44625 Z M57.0372917,9.043125 C56.8533333,8.95979167 56.385,8.87645833 55.9839583,8.87645833 C54.5639583,8.87645833 53.8110417,10.0622917 53.8110417,11.7675 C53.8110417,13.58875 54.5804167,14.6583333 55.9839583,14.6583333 C56.385,14.6583333 56.8533333,14.575 57.0372917,14.4741667 L57.0372917,9.043125 L57.0372917,9.043125 Z" id="Fill-18"></path>
                    <path d="M65.13875,16.44625 C62.6489583,16.44625 61.3460417,15.4439583 61.3460417,13.1039583 L61.3460417,7.23854167 L63.6185417,7.23854167 L63.6185417,13.1547917 C63.6185417,14.1233333 64.1358333,14.575 65.13875,14.575 C65.7239583,14.575 66.208125,14.4741667 66.45875,14.374375 L66.45875,7.23854167 L68.7320833,7.23854167 L68.7320833,15.794375 C67.9464583,16.1791667 66.5425,16.44625 65.13875,16.44625" id="Fill-19"></path>
                    <path d="M70.7766667,3.128125 L73.04875,3.128125 L73.04875,16.2460417 L70.7766667,16.2460417 L70.7766667,3.128125 Z" id="Fill-20"></path>
                    <path d="M78.78125,16.4122917 C77.76125,16.4122917 76.7585417,16.1452083 76.09,15.794375 L76.09,3.128125 L77.0764583,3.128125 L77.0764583,7.52208333 C77.578125,7.27229167 78.34625,7.10479167 79.0983333,7.10479167 C81.42125,7.10479167 82.9927083,8.82625 82.9927083,11.5997917 C82.9927083,15.00875 81.1535417,16.4122917 78.78125,16.4122917 L78.78125,16.4122917 Z M78.998125,7.923125 C78.3133333,7.923125 77.544375,8.09104167 77.0764583,8.32395833 L77.0764583,15.2433333 C77.4270833,15.4095833 78.095625,15.5939583 78.814375,15.5939583 C80.5685417,15.5939583 82.0064583,14.5245833 82.0064583,11.6497917 C82.0064583,9.32708333 80.786875,7.923125 78.998125,7.923125 L78.998125,7.923125 Z" id="Fill-21"></path>
                    <path d="M88.2522917,16.4122917 C85.8952083,16.4122917 84.691875,15.3604167 84.691875,13.7222917 C84.691875,11.09875 87.5666667,10.7645833 90.2904167,10.6145833 L90.2904167,9.82916667 C90.2904167,8.30770833 89.2716667,7.85666667 87.9345833,7.85666667 C87.0983333,7.85666667 86.0958333,8.12375 85.528125,8.42520833 L85.2270833,7.68979167 C85.8789583,7.37229167 86.9825,7.071875 88.0016667,7.071875 C89.8897917,7.071875 91.2427083,7.82375 91.2427083,9.89541667 L91.2427083,15.794375 C90.625,16.1452083 89.37125,16.4122917 88.2522917,16.4122917 L88.2522917,16.4122917 Z M90.2904167,11.3666667 C88.1352083,11.4835417 85.6454167,11.5997917 85.6454167,13.705625 C85.6454167,14.8585417 86.4804167,15.6283333 88.2352083,15.6283333 C89.0039583,15.6283333 89.9235417,15.4766667 90.2904167,15.29375 L90.2904167,11.3666667 L90.2904167,11.3666667 Z" id="Fill-22"></path>
                    <path d="M99.445,16.2460417 L99.445,10.0960417 C99.445,8.75958333 98.6254167,7.89020833 96.988125,7.89020833 C96.085625,7.89020833 95.299375,8.05708333 94.7985417,8.2575 L94.7985417,16.2460417 L93.8127083,16.2460417 L93.8127083,7.68979167 C94.6320833,7.32166667 95.75125,7.071875 96.988125,7.071875 C99.2272917,7.071875 100.430417,8.190625 100.430417,10.0458333 L100.430417,16.2460417 L99.445,16.2460417" id="Fill-23"></path>
                    <path d="M108.563333,16.2460417 L104.018125,11.5833333 L103.983958,11.5833333 L103.983958,16.2460417 L103.031875,16.2460417 L103.031875,3.128125 L103.983958,3.128125 L103.983958,11.4495833 L104.018125,11.4495833 L108.345625,7.23854167 L109.5825,7.23854167 L105.170417,11.5327083 L109.799375,16.2460417 L108.563333,16.2460417" id="Fill-24"></path>
                    <path d="M39.351875,4.14708333 L36.6783333,4.14708333 L34.2379167,12.77 L34.205,12.77 C34.205,12.77 34.205,12.77 31.748125,4.14708333 L28.4727083,4.14708333 L28.4727083,16.2460417 L30.7622917,16.2460417 L30.7622917,6.90416667 C30.7622917,6.90416667 30.7622917,6.90416667 33.47,16.2460417 L34.973125,16.2460417 L37.6635417,6.90416667 L37.6635417,16.2460417 L39.9527083,16.2460417 L39.9527083,4.14708333 L39.351875,4.14708333" id="Fill-25"></path>
                </g>
            </g>
        </g>
    </g>
</svg>