<?xml version="1.0" encoding="UTF-8" standalone="no"?>
<svg width="14px" height="14px" viewBox="0 0 14 14" version="1.1" xmlns="http://www.w3.org/2000/svg" xmlns:xlink="http://www.w3.org/1999/xlink" xmlns:sketch="http://www.bohemiancoding.com/sketch/ns">
    <!-- Generator: Sketch 3.3.2 (12043) - http://www.bohemiancoding.com/sketch -->
    <title>logo 5 copy</title>
    <desc>Created with Sketch.</desc>
    <defs></defs>
    <g id="Поставщики" stroke="none" stroke-width="1" fill="none" fill-rule="evenodd" sketch:type="MSPage">
        <g id="поставщики" sketch:type="MSArtboardGroup" transform="translate(-366.000000, -559.000000)">
            <g id="Group" sketch:type="MSLayerGroup" transform="translate(163.000000, 338.000000)">
                <g id="logo-5-copy" transform="translate(203.000000, 221.000000)" sketch:type="MSShapeGroup">
                    <path d="M11.2094286,5.609 L11.2094286,2.83714286 L13.9812857,2.83714286 L13.981,5.609 L11.2094286,5.609" id="Fill-1" fill="#8DC540"></path>
                    <path d="M11.2094286,8.38042857 L13.9808571,8.38042857 L13.9808571,11.1527143 L11.2094286,11.1527143 L11.2094286,8.38042857 Z" id="Fill-2" fill="#D6DF26"></path>
                    <path d="M11.2094286,11.1527143 L13.9808571,11.1527143 L13.9808571,13.9247143 L11.2094286,13.9247143 L11.2094286,11.1527143 Z" id="Fill-3" fill="#00AEF0"></path>
                    <path d="M8.43771429,0.0654285714 L11.2094286,0.0654285714 L11.2094286,2.83714286 L8.43771429,2.83714286 L8.43771429,0.0654285714 Z" id="Fill-4" fill="#7ED2F7"></path>
                    <path d="M8.43771429,2.83714286 L11.2094286,2.83714286 L11.2094286,5.60885714 L8.43771429,5.60885714 L8.43771429,2.83714286 Z" id="Fill-5" fill="#00AEF0"></path>
                    <path d="M8.43771429,5.609 L11.2094286,5.609 L11.2094286,8.38185714 L8.43771429,8.38185714 L8.43771429,5.609 Z" id="Fill-6" fill="#7ED2F7"></path>
                    <path d="M5.66628571,0.0654285714 L8.43771429,0.0654285714 L8.43771429,2.83714286 L5.66628571,2.83714286 L5.66628571,0.0654285714 Z" id="Fill-7" fill="#1B476A"></path>
                    <path d="M5.66628571,5.609 L8.43771429,5.609 L8.43771429,8.38042857 L5.66628571,8.38042857 L5.66628571,5.609 Z" id="Fill-8" fill="#D6DF26"></path>
                    <path d="M5.66628571,13.9248571 L5.66628571,11.153 L8.43771429,11.1527143 L8.43771429,13.9248571 L5.66628571,13.9248571" id="Fill-9" fill="#8DC540"></path>
                    <path d="M2.89414286,2.83714286 L5.66614286,2.83714286 L5.66614286,5.60885714 L2.89414286,5.60885714 L2.89414286,2.83714286 Z" id="Fill-10" fill="#8DC540"></path>
                    <path d="M2.89357143,8.38042857 L2.89414286,5.609 L5.66628571,5.609 L5.66628571,8.38042857 L2.89357143,8.38042857" id="Fill-11" fill="#7ED2F7"></path>
                    <path d="M2.89357143,8.38042857 L5.66614286,8.38042857 L5.66614286,11.153 L2.89357143,11.153 L2.89357143,8.38042857 Z" id="Fill-12" fill="#00AEF0"></path>
                    <path d="M0.122142857,2.83714286 L0.121857143,0.0654285714 L2.89357143,0.0654285714 L2.89414286,2.83714286 L0.122142857,2.83714286" id="Fill-13" fill="#7ED2F7"></path>
                    <path d="M0.121857143,5.609 L0.122142857,2.83714286 L2.89414286,2.83714286 L2.89414286,5.609 L0.121857143,5.609" id="Fill-14" fill="#D6DF26"></path>
                    <path d="M0.121857143,8.38042857 L2.89357143,8.38042857 L2.89357143,11.153 L0.121857143,11.153 L0.121857143,8.38042857 Z" id="Fill-15" fill="#1B476A"></path>
                    <path d="M0.121857143,11.153 L2.89357143,11.153 L2.89357143,13.9247143 L0.121857143,13.9247143 L0.121857143,11.153 Z" id="Fill-16" fill="#7ED2F7"></path>
                </g>
            </g>
        </g>
    </g>
</svg>