<svg xmlns="http://www.w3.org/2000/svg" width="73" height="19" viewBox="0 0 73 19" xmlns:xlink="http://www.w3.org/1999/xlink">
  <defs>
    <rect id="a" width="69" height="15" rx="7.5"/>
    <mask id="b" width="73" height="19" x="-2" y="-2">
      <rect width="73" height="19" x="-2" y="-2" fill="white"/>
      <use fill="black" xlink:href="#a"/>
    </mask>
  </defs>
  <g fill="none" fill-rule="evenodd" transform="translate(2 2)">
    <use fill="#8DC540" xlink:href="#a"/>
    <use stroke="#FFFFFF" stroke-width="4" mask="url(#b)" stroke-linecap="square" xlink:href="#a"/>
    <polygon fill="#FFFFFF" points="4.858 6.216 7.286 8.433 12.142 4 13 4.784 7.286 10 4 7"/>
    <path fill="#FFFFFF" d="M19.6630859,10 L18.6342773,10 L18.6342773,5.85400391 L16.6416016,5.85400391 L16.6416016,10 L15.6162109,10 L15.6162109,5.0234375 L19.6630859,5.0234375 L19.6630859,10 Z M24.6499023,7.62451172 C24.6499023,8.11442302 24.5633147,8.54394347 24.3901367,8.91308594 C24.2169588,9.28222841 23.9691585,9.56705629 23.6467285,9.76757812 C23.3242985,9.96809996 22.9545919,10.0683594 22.5375977,10.0683594 C22.1251607,10.0683594 21.7571631,9.96923927 21.4335938,9.77099609 C21.1100244,9.57275292 20.8593759,9.289634 20.6816406,8.92163086 C20.5039054,8.55362772 20.4138998,8.13037349 20.4116211,7.65185547 L20.4116211,7.40576172 C20.4116211,6.91585042 20.4999177,6.484621 20.6765137,6.11206055 C20.8531096,5.73950009 21.1026188,5.4535329 21.4250488,5.25415039 C21.7474788,5.05476788 22.1160461,4.95507812 22.5307617,4.95507812 C22.9454773,4.95507812 23.3140446,5.05476788 23.6364746,5.25415039 C23.9589046,5.4535329 24.2084138,5.73950009 24.3850098,6.11206055 C24.5616057,6.484621 24.6499023,6.9147111 24.6499023,7.40234375 L24.6499023,7.62451172 Z M23.6108398,7.39892578 C23.6108398,6.87711328 23.5174163,6.48063287 23.3305664,6.20947266 C23.1437165,5.93831245 22.8771176,5.80273438 22.5307617,5.80273438 C22.1866845,5.80273438 21.9212249,5.93660348 21.734375,6.2043457 C21.5475251,6.47208793 21.4529623,6.86458075 21.4506836,7.38183594 L21.4506836,7.62451172 C21.4506836,8.13265228 21.5441071,8.52685407 21.730957,8.80712891 C21.9178069,9.08740375 22.1866844,9.22753906 22.5375977,9.22753906 C22.8816749,9.22753906 23.1459952,9.09253065 23.3305664,8.82250977 C23.5151376,8.55248888 23.6085612,8.15885675 23.6108398,7.64160156 L23.6108398,7.39892578 Z M30.0092773,11.2236328 L29.0625,11.2236328 L29.0625,10 L26.0615234,10 L26.0615234,11.2202148 L25.0908203,11.2202148 L25.0361328,9.17626953 L25.4121094,9.17626953 C25.6149099,9.0076489 25.7715652,8.75984864 25.8820801,8.43286133 C25.992595,8.10587402 26.0672199,7.70084877 26.105957,7.21777344 L26.2495117,5.0234375 L29.5102539,5.0234375 L29.5102539,9.17626953 L30.0913086,9.17626953 L30.0092773,11.2236328 Z M26.5878906,9.17626953 L28.4848633,9.17626953 L28.4848633,5.85400391 L27.2236328,5.85400391 L27.1381836,7.16308594 C27.0698239,8.04036897 26.8863947,8.71142346 26.5878906,9.17626953 Z M32.2514648,7.96630859 L31.6601562,7.96630859 L31.6601562,10 L30.6347656,10 L30.6347656,5.0234375 L31.6601562,5.0234375 L31.6601562,7.01611328 L32.128418,7.01611328 L33.3452148,5.0234375 L34.5961914,5.0234375 L33.0615234,7.37841797 L34.7568359,10 L33.5332031,10 L32.2514648,7.96630859 Z M39.1967773,5.0234375 L39.1967773,10 L38.1679688,10 L38.1679688,5.85400391 L36.8417969,5.85400391 L36.7597656,7.61083984 C36.7255858,8.20329072 36.6503912,8.66983879 36.5341797,9.01049805 C36.4179682,9.3511573 36.2482108,9.60066653 36.0249023,9.7590332 C35.8015939,9.91739988 35.4962584,9.99772134 35.1088867,10 L34.8422852,10 L34.8422852,9.17626953 L35.0131836,9.15917969 C35.2706719,9.12499983 35.4546707,8.97631968 35.5651855,8.71313477 C35.6757004,8.44994986 35.7457681,7.98112316 35.7753906,7.30664062 L35.8608398,5.0234375 L39.1967773,5.0234375 Z M45.9472656,7.62451172 C45.9472656,8.11442302 45.8606779,8.54394347 45.6875,8.91308594 C45.5143221,9.28222841 45.2665218,9.56705629 44.9440918,9.76757812 C44.6216618,9.96809996 44.2519552,10.0683594 43.8349609,10.0683594 C43.4544252,10.0683594 43.1132014,9.98575929 42.8112793,9.82055664 C42.5093572,9.65535399 42.2644052,9.41780754 42.076416,9.10791016 C41.8884268,8.79801277 41.7727867,8.43571171 41.7294922,8.02099609 L41.1586914,8.02099609 L41.1586914,10 L40.1333008,10 L40.1333008,5.0234375 L41.1586914,5.0234375 L41.1586914,7.22460938 L41.7124023,7.22460938 C41.7329103,6.7757139 41.8326,6.37923349 42.0114746,6.03515625 C42.1903492,5.69107901 42.4375798,5.42504977 42.7531738,5.23706055 C43.0687679,5.04907133 43.4270813,4.95507812 43.828125,4.95507812 C44.2428406,4.95507812 44.6114079,5.05476788 44.9338379,5.25415039 C45.2562679,5.4535329 45.5057771,5.73950009 45.682373,6.11206055 C45.858969,6.484621 45.9472656,6.9147111 45.9472656,7.40234375 L45.9472656,7.62451172 Z M44.9082031,7.39892578 C44.9082031,6.87711328 44.8147796,6.48063287 44.6279297,6.20947266 C44.4410798,5.93831245 44.1744809,5.80273438 43.828125,5.80273438 C43.4840478,5.80273438 43.2185882,5.93660348 43.0317383,6.2043457 C42.8448884,6.47208793 42.7503255,6.86458075 42.7480469,7.38183594 L42.7480469,7.62451172 C42.7480469,8.13265228 42.8414704,8.52685407 43.0283203,8.80712891 C43.2151702,9.08740375 43.4840477,9.22753906 43.8349609,9.22753906 C44.1790382,9.22753906 44.4433585,9.09253065 44.6279297,8.82250977 C44.8125009,8.55248888 44.9059245,8.15885675 44.9082031,7.64160156 L44.9082031,7.39892578 Z M50.6674805,5.0234375 L50.6674805,10 L49.6386719,10 L49.6386719,8.11328125 C49.3264958,8.17936231 49.0006527,8.21240234 48.6611328,8.21240234 C48.0299448,8.21240234 47.5508643,8.07454565 47.223877,7.79882812 C46.8968896,7.5231106 46.7288412,7.12435157 46.7197266,6.60253906 L46.7197266,5.0234375 L47.7485352,5.0234375 L47.7485352,6.58203125 C47.7508138,6.8668634 47.8197422,7.07193948 47.9553223,7.19726562 C48.0909024,7.32259177 48.3261702,7.38525391 48.6611328,7.38525391 C49.0006527,7.38525391 49.3264958,7.35221387 49.6386719,7.28613281 L49.6386719,5.0234375 L50.6674805,5.0234375 Z M54.5571289,7.84326172 L52.5883789,7.84326172 L52.5883789,9.17626953 L54.8989258,9.17626953 L54.8989258,10 L51.5629883,10 L51.5629883,5.0234375 L54.8920898,5.0234375 L54.8920898,5.85400391 L52.5883789,5.85400391 L52.5883789,7.04003906 L54.5571289,7.04003906 L54.5571289,7.84326172 Z M59.5507812,10 L58.5253906,10 L58.5253906,7.8671875 L56.5258789,7.8671875 L56.5258789,10 L55.5004883,10 L55.5004883,5.0234375 L56.5258789,5.0234375 L56.5258789,7.04003906 L58.5253906,7.04003906 L58.5253906,5.0234375 L59.5507812,5.0234375 L59.5507812,10 Z M64.5341797,7.62451172 C64.5341797,8.11442302 64.447592,8.54394347 64.2744141,8.91308594 C64.1012361,9.28222841 63.8534359,9.56705629 63.5310059,9.76757812 C63.2085759,9.96809996 62.8388693,10.0683594 62.421875,10.0683594 C62.009438,10.0683594 61.6414404,9.96923927 61.3178711,9.77099609 C60.9943018,9.57275292 60.7436532,9.289634 60.565918,8.92163086 C60.3881827,8.55362772 60.2981771,8.13037349 60.2958984,7.65185547 L60.2958984,7.40576172 C60.2958984,6.91585042 60.3841951,6.484621 60.560791,6.11206055 C60.737387,5.73950009 60.9868962,5.4535329 61.3093262,5.25415039 C61.6317562,5.05476788 62.0003234,4.95507812 62.4150391,4.95507812 C62.8297547,4.95507812 63.198322,5.05476788 63.520752,5.25415039 C63.843182,5.4535329 64.0926912,5.73950009 64.2692871,6.11206055 C64.445883,6.484621 64.5341797,6.9147111 64.5341797,7.40234375 L64.5341797,7.62451172 Z M63.4951172,7.39892578 C63.4951172,6.87711328 63.4016936,6.48063287 63.2148438,6.20947266 C63.0279939,5.93831245 62.761395,5.80273438 62.4150391,5.80273438 C62.0709618,5.80273438 61.8055022,5.93660348 61.6186523,6.2043457 C61.4318025,6.47208793 61.3372396,6.86458075 61.3349609,7.38183594 L61.3349609,7.62451172 C61.3349609,8.13265228 61.4283845,8.52685407 61.6152344,8.80712891 C61.8020843,9.08740375 62.0709618,9.22753906 62.421875,9.22753906 C62.7659522,9.22753906 63.0302725,9.09253065 63.2148438,8.82250977 C63.399415,8.55248888 63.4928385,8.15885675 63.4951172,7.64160156 L63.4951172,7.39892578 Z"/>
  </g>
</svg>
