<?xml version="1.0" encoding="UTF-8" standalone="no"?>
<svg width="36px" height="23px" viewBox="0 0 36 23" version="1.1" xmlns="http://www.w3.org/2000/svg" xmlns:xlink="http://www.w3.org/1999/xlink">
    <!-- Generator: Sketch 39.1 (31720) - http://www.bohemiancoding.com/sketch -->
    <title>icon-menu-payment</title>
    <desc>Created with Sketch.</desc>
    <defs></defs>
    <g id="Письма" stroke="none" stroke-width="1" fill="none" fill-rule="evenodd">
        <g id="письмо-приглашения-по-ПДБ" transform="translate(-431.000000, -405.000000)" fill="#2B2B2B">
            <g id="Group-3" transform="translate(356.000000, 379.000000)">
                <path d="M75,26 L75,27.4241486 L108.519685,27.4241486 C108.874016,27.4241486 109.299213,27.7801858 109.440945,28.1362229 L109.440945,28.2786378 L109.440945,30.2724458 L76.8425197,30.2724458 L76.8425197,31.9009288 L109.370079,31.9009288 L109.440945,46.5789474 C109.440945,46.9349845 108.944882,47.2198142 108.519685,47.2198142 L82.0866142,47.2198142 L82.0866142,49 L108.519685,49 C109.866142,49 111,47.9318885 111,46.7213622 L111,28.2786378 C111,26.996904 109.866142,26 108.519685,26 L75,26 Z M80.3858268,42.377709 L88.3228346,42.377709 L88.3228346,44.1578947 L80.3858268,44.1578947 L80.3858268,42.377709 Z M78.7559055,37.4643963 L86.4094488,37.4643963 L86.4094488,39.244582 L78.7559055,39.244582 L78.7559055,37.4643963 Z M99.3070866,41.2383901 C99.3070866,41.9504644 99.8740157,42.5201238 100.582677,42.5201238 L104.551181,42.5201238 C105.188976,42.5201238 105.755906,41.9504644 105.755906,41.2383901 L105.755906,39.1021672 C105.755906,38.3900929 105.188976,37.8204334 104.551181,37.8204334 L100.582677,37.8204334 C99.8740157,37.8204334 99.3070866,38.3900929 99.3070866,39.1021672 L99.3070866,41.2383901 Z" id="icon-menu-payment"></path>
            </g>
        </g>
    </g>
</svg>