<?xml version="1.0" encoding="UTF-8" standalone="no"?>
<svg width="36px" height="37px" viewBox="0 0 36 37" version="1.1" xmlns="http://www.w3.org/2000/svg" xmlns:xlink="http://www.w3.org/1999/xlink">
    <!-- Generator: Sketch 39.1 (31720) - http://www.bohemiancoding.com/sketch -->
    <title>Shape</title>
    <desc>Created with Sketch.</desc>
    <defs></defs>
    <g id="Письма" stroke="none" stroke-width="1" fill="none" fill-rule="evenodd">
        <g id="письмо-приглашения-по-ПДБ" transform="translate(-630.000000, -397.000000)" fill="#2B2B2B">
            <g id="Group-4" transform="translate(554.000000, 379.000000)">
                <g id="Group-2" transform="translate(14.000000, 18.000000)">
                    <path d="M66.6222826,0.762632979 C66.5891821,0.76870964 66.5565056,0.776927044 66.5244565,0.787234043 C66.1600516,0.869325441 65.9040544,1.19893853 65.9130435,1.57446809 L65.9130435,7.87234043 L65.9130435,8.65957447 L66.6956522,8.65957447 L72.9565217,8.65957447 C73.2387585,8.66358959 73.5012811,8.51442796 73.6435643,8.26920648 C73.7858475,8.023985 73.7858475,7.72069585 73.6435643,7.47547437 C73.5012811,7.23025289 73.2387585,7.08109126 72.9565217,7.08510638 L68.5054348,7.08510638 C71.4695175,4.16800088 75.5205263,2.36170213 80,2.36170213 C89.0857223,2.36170213 96.4347826,9.75419664 96.4347826,18.893617 C96.4347826,28.0330374 89.0857223,35.4255319 80,35.4255319 C70.9142777,35.4255319 63.5652174,28.0330374 63.5652174,18.893617 C63.5652174,16.1608647 64.2342743,13.5854939 65.3994565,11.3164894 L64.0054348,10.6030585 C62.7288778,13.0889476 62,15.9063268 62,18.893617 C62,28.8839839 70.068331,37 80,37 C89.931669,37 98,28.8839839 98,18.893617 C98,8.90325017 89.931669,0.787234043 80,0.787234043 C75.1258637,0.787234043 70.7186937,2.75819846 67.4782609,5.92885638 L67.4782609,1.57446809 C67.4862807,1.3480078 67.3969093,1.12905203 67.2330034,0.973598813 C67.0690975,0.818145599 66.8465518,0.741269997 66.6222826,0.762632979 L66.6222826,0.762632979 Z M80,3.14893617 C79.567777,3.14893617 79.2173913,3.5013929 79.2173913,3.93617021 C79.2173913,4.37094753 79.567777,4.72340426 80,4.72340426 C80.432223,4.72340426 80.7826087,4.37094753 80.7826087,3.93617021 C80.7826087,3.5013929 80.432223,3.14893617 80,3.14893617 L80,3.14893617 Z M87.4347826,5.14162234 C87.0025596,5.14162234 86.6521739,5.49407907 86.6521739,5.92885638 C86.6521739,6.36363378 87.0025596,6.71609043 87.4347826,6.71609043 C87.8670057,6.71609043 88.2173913,6.36363378 88.2173913,5.92885638 C88.2173913,5.49407907 87.8670057,5.14162234 87.4347826,5.14162234 L87.4347826,5.14162234 Z M92.888587,10.6276596 C92.4563639,10.6276596 92.1059783,10.9801161 92.1059783,11.4148936 C92.1059783,11.8496712 92.4563639,12.2021277 92.888587,12.2021277 C93.3208092,12.2021277 93.6711957,11.8496712 93.6711957,11.4148936 C93.6711957,10.9801161 93.3208092,10.6276596 92.888587,10.6276596 L92.888587,10.6276596 Z M74.8152174,12.5219415 C72.6450435,12.5219415 71.0986087,13.9454574 71.0978261,15.9906915 L71.0978261,16.0152926 L72.7119565,16.0152926 L72.7119565,15.9906915 C72.7119565,14.8066915 73.5264565,14.0226064 74.7418478,14.0226064 C75.8805435,14.0226064 76.7472826,14.7791383 76.7472826,15.793883 C76.7472826,16.6086702 76.3882609,17.2006702 74.9130435,18.7460106 L71.1956522,22.6329787 L71.1956522,23.887633 L78.6304348,23.887633 L78.6304348,22.337766 L73.5679348,22.337766 L73.5679348,22.2147606 L76.0380435,19.7054521 C77.8873478,17.8223883 78.4347826,16.8716064 78.4347826,15.6954787 C78.4347826,13.8659468 76.9094783,12.5219415 74.8152174,12.5219415 L74.8152174,12.5219415 Z M85.1603261,12.7925532 C83.1959783,15.7525532 81.548587,18.3336968 80.5625,20.1482713 L80.5625,21.7473404 L85.9429348,21.7473404 L85.9429348,23.887633 L87.5815217,23.887633 L87.5815217,21.7473404 L89.1222826,21.7473404 L89.1222826,20.1974734 L87.5815217,20.1974734 L87.5815217,12.7925532 L85.1603261,12.7925532 L85.1603261,12.7925532 Z M85.8695652,14.3178191 L85.9673913,14.3178191 L85.9673913,20.2466755 L82.201087,20.2466755 L82.201087,20.1236702 C83.5002174,17.8556489 84.7770435,15.9088191 85.8695652,14.3178191 L85.8695652,14.3178191 Z M65.1304348,18.106383 C64.698212,18.106383 64.3478261,18.4588395 64.3478261,18.893617 C64.3478261,19.3283946 64.698212,19.6808511 65.1304348,19.6808511 C65.5626576,19.6808511 65.9130435,19.3283946 65.9130435,18.893617 C65.9130435,18.4588395 65.5626576,18.106383 65.1304348,18.106383 L65.1304348,18.106383 Z M94.8695652,18.106383 C94.4373422,18.106383 94.0869565,18.4588395 94.0869565,18.893617 C94.0869565,19.3283946 94.4373422,19.6808511 94.8695652,19.6808511 C95.3017883,19.6808511 95.6521739,19.3283946 95.6521739,18.893617 C95.6521739,18.4588395 95.3017883,18.106383 94.8695652,18.106383 L94.8695652,18.106383 Z M67.111413,25.5851064 C66.6791902,25.5851064 66.3288043,25.9375629 66.3288043,26.3723404 C66.3288043,26.807118 66.6791902,27.1595745 67.111413,27.1595745 C67.5436359,27.1595745 67.8940217,26.807118 67.8940217,26.3723404 C67.8940217,25.9375629 67.5436359,25.5851064 67.111413,25.5851064 L67.111413,25.5851064 Z M92.888587,25.5851064 C92.4563639,25.5851064 92.1059783,25.9375629 92.1059783,26.3723404 C92.1059783,26.807118 92.4563639,27.1595745 92.888587,27.1595745 C93.3208092,27.1595745 93.6711957,26.807118 93.6711957,26.3723404 C93.6711957,25.9375629 93.3208092,25.5851064 92.888587,25.5851064 L92.888587,25.5851064 Z M72.5652174,31.0711436 C72.1329943,31.0711436 71.7826087,31.4236001 71.7826087,31.8583777 C71.7826087,32.2931544 72.1329943,32.6456117 72.5652174,32.6456117 C72.9974404,32.6456117 73.3478261,32.2931544 73.3478261,31.8583777 C73.3478261,31.4236001 72.9974404,31.0711436 72.5652174,31.0711436 L72.5652174,31.0711436 Z M87.4347826,31.0711436 C87.0025596,31.0711436 86.6521739,31.4236001 86.6521739,31.8583777 C86.6521739,32.2931544 87.0025596,32.6456117 87.4347826,32.6456117 C87.8670057,32.6456117 88.2173913,32.2931544 88.2173913,31.8583777 C88.2173913,31.4236001 87.8670057,31.0711436 87.4347826,31.0711436 L87.4347826,31.0711436 Z M80,33.0638298 C79.567777,33.0638298 79.2173913,33.4162863 79.2173913,33.8510638 C79.2173913,34.2858414 79.567777,34.6382979 80,34.6382979 C80.432223,34.6382979 80.7826087,34.2858414 80.7826087,33.8510638 C80.7826087,33.4162863 80.432223,33.0638298 80,33.0638298 L80,33.0638298 Z" id="Shape"></path>
                </g>
            </g>
        </g>
    </g>
</svg>