<?xml version="1.0" encoding="UTF-8" standalone="no"?>
<svg width="36px" height="36px" viewBox="0 0 36 36" version="1.1" xmlns="http://www.w3.org/2000/svg" xmlns:xlink="http://www.w3.org/1999/xlink">
    <!-- Generator: Sketch 39.1 (31720) - http://www.bohemiancoding.com/sketch -->
    <title>Shape</title>
    <desc>Created with Sketch.</desc>
    <defs></defs>
    <g id="Письма" stroke="none" stroke-width="1" fill="none" fill-rule="evenodd">
        <g id="письмо-приглашения-по-ПДБ" transform="translate(-234.000000, -398.000000)" fill="#2B2B2B">
            <g id="Group" transform="translate(158.000000, 379.000000)">
                <path d="M94,19 C84.0681447,19 76,27.0681447 76,37 C76,46.9318553 84.0681447,55 94,55 C103.931855,55 112,46.9318553 112,37 C112,27.0681447 103.931855,19 94,19 L94,19 Z M94,20.5652174 C103.085949,20.5652174 110.434783,27.9140508 110.434783,37 C110.434783,46.0859492 103.085949,53.4347826 94,53.4347826 C84.9140508,53.4347826 77.5652174,46.0859492 77.5652174,37 C77.5652174,33.1571448 78.8823717,29.6228957 81.0869565,26.826087 L94,26.826087 L94,25.2608696 L82.5054348,25.2608696 C83.0857618,24.6925848 83.7048053,24.1733877 84.3641304,23.6956522 L94,23.6956522 L94,22.1304348 L87.0298913,22.1304348 C89.1475522,21.1373943 91.5037185,20.5652174 94,20.5652174 L94,20.5652174 Z M82.1875,28.3913043 L84.2173913,29.8831522 L83.7527174,30.5190217 L92.4347826,36.8532609 C92.430274,36.9016613 92.4347826,36.9504217 92.4347826,37 C92.4347826,37.8644453 93.1355547,38.5652174 94,38.5652174 C94.7646525,38.5652174 95.4039742,38.0183727 95.5407609,37.2934783 L102.92663,34.8478261 L102.4375,33.3559783 L95.0271739,35.8505435 C94.7504325,35.60347 94.4001783,35.4347826 94,35.4347826 L94,34.6521739 L92.0923913,34.6521739 L89.9402174,33.0869565 L94,33.0869565 L94,31.5217391 L87.7880435,31.5217391 L85.6603261,29.9565217 L94,29.9565217 L94,28.3913043 L82.1875,28.3913043 L82.1875,28.3913043 Z" id="Shape"></path>
            </g>
        </g>
    </g>
</svg>