<?xml version="1.0" encoding="UTF-8" standalone="no"?>
<svg width="10px" height="15px" viewBox="0 0 10 15" version="1.1" xmlns="http://www.w3.org/2000/svg" xmlns:xlink="http://www.w3.org/1999/xlink" xmlns:sketch="http://www.bohemiancoding.com/sketch/ns">
    <!-- Generator: Sketch 3.3 (11970) - http://www.bohemiancoding.com/sketch -->
    <title>Shape 5</title>
    <desc>Created with Sketch.</desc>
    <defs></defs>
    <g id="Мессенджер" stroke="none" stroke-width="1" fill="none" fill-rule="evenodd" sketch:type="MSPage">
        <g id="месенджер---первый-вход" sketch:type="MSArtboardGroup" transform="translate(-1048.000000, -397.000000)" fill="#576B87">
            <path d="M1058.51497,405.385965 C1058.51497,405.845262 1058.13915,406.220888 1057.68005,406.220888 C1057.21877,406.220888 1056.84513,405.845064 1056.84513,405.385965 L1056.8475,402.41585 L1048.78298,410.433491 L1047.60131,409.252018 L1055.66563,401.236355 L1052.71091,401.236355 C1052.24964,401.236355 1051.87599,400.862707 1051.87599,400.401432 C1051.87599,399.940158 1052.24964,399.566509 1052.71091,399.566509 L1057.68005,399.566509 C1057.76768,399.566509 1057.85332,399.578971 1057.9368,399.606267 C1057.95974,399.614575 1057.98269,399.622883 1058.00563,399.633366 C1058.0266,399.641674 1058.04737,399.649982 1058.06834,399.662641 C1058.09346,399.675103 1058.1164,399.687762 1058.13935,399.704377 C1058.16229,399.719015 1058.18524,399.73563 1058.20818,399.754421 C1058.22915,399.771037 1058.24992,399.789828 1058.27088,399.810795 C1058.28968,399.829586 1058.30847,399.850553 1058.32726,399.871322 C1058.38363,399.942333 1058.42952,400.019476 1058.46077,400.102949 C1058.46908,400.123916 1058.47739,400.144685 1058.48174,400.163476 C1058.50469,400.242795 1058.51735,400.322114 1058.51735,400.401432 L1058.51497,405.385965 Z" id="Shape-5" sketch:type="MSShapeGroup" transform="translate(1053.059326, 405.000000) rotate(-45.000000) translate(-1053.059326, -405.000000) "></path>
        </g>
    </g>
</svg>