<?xml version="1.0" encoding="UTF-8" standalone="no"?>
<svg width="22px" height="24px" viewBox="0 0 22 24" version="1.1" xmlns="http://www.w3.org/2000/svg" xmlns:xlink="http://www.w3.org/1999/xlink">
    <!-- Generator: Sketch 39 (31667) - http://www.bohemiancoding.com/sketch -->
    <title>Shape</title>
    <desc>Created with Sketch.</desc>
    <defs></defs>
    <g id="Page-1" stroke="none" stroke-width="1" fill="none" fill-rule="evenodd">
        <path d="M16,0 C14.610233,0 13.242073,0.5391769 12.1875,1.59375 L2.8125,10.96875 C-0.1597199,13.94097 -0.1594986,18.776854 2.8125,21.75 C5.78472,24.72222 10.620604,24.721999 13.59375,21.75 L19.84375,15.5 L18.4375,14.09375 L12.1875,20.34375 C9.978646,22.551751 6.42653,22.55153 4.21875,20.34375 C2.0107486,18.134896 2.0109699,14.58278 4.21875,12.375 L13.59375,3 C14.938604,1.6551461 17.092646,1.6551461 18.4375,3 C19.782354,4.3448539 19.782354,6.498896 18.4375,7.84375 L9.0625,17.21875 C8.580646,17.700047 7.824382,17.699382 7.34375,17.21875 C6.862453,16.736896 6.863118,15.980632 7.34375,15.5 L15.9375,6.90625 L14.53125,5.5 L5.9375,14.09375 C4.6921325,15.339118 4.6927965,17.378854 5.9375,18.625 C7.182868,19.870368 9.222604,19.869703 10.46875,18.625 L19.84375,9.25 C21.952896,7.140854 21.952896,3.7028961 19.84375,1.59375 C18.789177,0.5391769 17.389767,0 16,0 L16,0 Z" id="Shape" fill="#000000"></path>
    </g>
</svg>