<?xml version="1.0" encoding="UTF-8" standalone="no"?>
<svg width="15px" height="19px" viewBox="0 0 15 19" version="1.1" xmlns="http://www.w3.org/2000/svg" xmlns:xlink="http://www.w3.org/1999/xlink">
    <!-- Generator: Sketch 39 (31667) - http://www.bohemiancoding.com/sketch -->
    <title>Shape</title>
    <desc>Created with Sketch.</desc>
    <defs></defs>
    <g id="Symbols" stroke="none" stroke-width="1" fill="none" fill-rule="evenodd">
        <g id="header" transform="translate(-974.000000, -21.000000)" fill="#FFFFFF">
            <g id="icon_bell">
                <g transform="translate(974.000000, 16.000000)">
                    <path d="M7.5,5 C6.67157325,5 6,5.65435306 6,6.46153846 C6,6.52385795 6.01566825,6.58396408 6.0234375,6.64423077 C3.43045725,7.28996623 1.5,9.58473142 1.5,12.3076923 L1.5,18.8846154 C1.5,19.2975219 1.17377265,19.6153846 0.75,19.6153846 L0,19.6153846 L0,21.0769231 L5.390625,21.0769231 C5.30492925,21.3076715 5.25,21.5497366 5.25,21.8076923 C5.25,23.009815 6.2662425,24 7.5,24 C8.7337575,24 9.75,23.009815 9.75,21.8076923 C9.75,21.5497366 9.69507075,21.3076715 9.609375,21.0769231 L15,21.0769231 L15,19.6153846 L14.25,19.6153846 C13.8262275,19.6153846 13.5,19.2975219 13.5,18.8846154 L13.5,12.5132212 C13.5,9.76661506 11.6175818,7.31910792 8.9765625,6.64423077 C8.98433175,6.58396408 9,6.52385795 9,6.46153846 C9,5.65435306 8.32842675,5 7.5,5 L7.5,5 Z M7.171875,7.92307692 C7.2809925,7.91536212 7.38879525,7.92315402 7.5,7.92307692 C7.5476595,7.92304389 7.5926175,7.92167268 7.640625,7.92307692 C10.0906965,7.99471935 12,10.087513 12,12.5132212 L12,18.8846154 C12,19.1425645 12.054927,19.3846384 12.140625,19.6153846 L2.859375,19.6153846 C2.9450727,19.3846384 3,19.1425645 3,18.8846154 L3,12.3076923 C3,9.98683595 4.8336375,8.08839402 7.171875,7.92307692 L7.171875,7.92307692 Z M7.5,21.0769231 C7.923096,21.0769231 8.25,21.3954449 8.25,21.8076923 C8.25,22.2199397 7.923096,22.5384615 7.5,22.5384615 C7.076904,22.5384615 6.75,22.2199397 6.75,21.8076923 C6.75,21.3954449 7.076904,21.0769231 7.5,21.0769231 L7.5,21.0769231 Z" id="Shape"></path>
                </g>
            </g>
        </g>
    </g>
</svg>