<svg xmlns="http://www.w3.org/2000/svg" width="26" height="29" viewBox="0 0 26 29">
  <path fill="#000000" d="M0,0 L0,1 L0,25 L0,26 L1,26 L11.78125,26 C13.2495,27.828363 15.481724,29 18,29 C22.406433,29 26,25.406433 26,21 C26,17.28861 23.437134,14.177817 20,13.28125 L20,7 L20,6.59375 L19.71875,6.28125 L13.71875,0.28125 L13.40625,0 L13,0 L1,0 L0,0 Z M2,2 L12,2 L12,7 L12,8 L13,8 L18,8 L18,13 C13.593567,13 10,16.593567 10,21 C10,22.065848 10.212597,23.068624 10.59375,24 L2,24 L2,2 Z M14,3.4375 L16.5625,6 L14,6 L14,3.4375 Z M18,15 C19.296258,15 20.490169,15.432147 21.46875,16.125 L13.125,24.46875 C12.432147,23.490169 12,22.296258 12,21 C12,17.674447 14.674447,15 18,15 Z M22.875,17.53125 C23.567853,18.509831 24,19.703742 24,21 C24,24.325553 21.325553,27 18,27 C16.703742,27 15.509831,26.567853 14.53125,25.875 L22.875,17.53125 Z"/>
</svg>
