<?xml version="1.0" encoding="UTF-8" standalone="no"?>
<svg width="20px" height="20px" viewBox="0 0 20 20" version="1.1" xmlns="http://www.w3.org/2000/svg" xmlns:xlink="http://www.w3.org/1999/xlink">
    <!-- Generator: Sketch 39 (31667) - http://www.bohemiancoding.com/sketch -->
    <title>Shape</title>
    <desc>Created with Sketch.</desc>
    <defs></defs>
    <g id="Symbols" stroke="none" stroke-width="1" fill="none" fill-rule="evenodd">
        <g id="header" transform="translate(-509.000000, -71.000000)" fill="#FFFFFF">
            <g id="submenu">
                <g transform="translate(443.000000, 8.000000)">
                    <g id="между-счетами" transform="translate(54.000000, 52.000000)">
                        <g id="Group-8" transform="translate(1.000000, 0.000000)">
                            <g id="Group-6">
                                <path d="M21,11 C15.4871113,11 11,15.4871113 11,21 C11,23.5589767 11.9640714,25.8966225 13.5520833,27.6666667 L11.8333333,27.6666667 L11.8333333,29.3333333 L16,29.3333333 L16.8333333,29.3333333 L16.8333333,28.5 L16.8333333,24.3333333 L15.1666667,24.3333333 L15.1666667,26.9375 C13.6304033,25.4268117 12.6666667,23.3290908 12.6666667,21 C12.6666667,16.3878883 16.3878883,12.6666667 21,12.6666667 L21,11 L21,11 Z M22.875,11.1822917 L22.40625,12.796875 C22.9570833,12.8910417 23.5025,13.0379167 24.0208333,13.2395833 L24.4635417,11.625 C23.9427083,11.4316667 23.4233333,11.285625 22.875,11.1822917 L22.875,11.1822917 Z M25.1666667,12.6666667 L25.1666667,13.5 L25.1666667,17.6666667 L26.8333333,17.6666667 L26.8333333,15.0625 C28.3721575,16.5707892 29.3333333,18.6676292 29.3333333,21 C29.3333333,25.6121117 25.6121117,29.3333333 21,29.3333333 L21,31 C26.5128883,31 31,26.5128883 31,21 C31,18.43544 30.0157967,16.1023475 28.421875,14.3333333 L30.1666667,14.3333333 L30.1666667,12.6666667 L26,12.6666667 L25.1666667,12.6666667 L25.1666667,12.6666667 Z M17.9791667,28.7604167 L17.5364583,30.375 C18.058125,30.5683333 18.5766667,30.714375 19.125,30.8177083 L19.59375,29.203125 C19.0429167,29.1089583 18.4975,28.9629167 17.9791667,28.7604167 L17.9791667,28.7604167 Z" id="Shape"></path>
                            </g>
                        </g>
                    </g>
                </g>
            </g>
        </g>
    </g>
</svg>