<?xml version="1.0" encoding="UTF-8" standalone="no"?>
<svg width="16px" height="12px" viewBox="0 0 16 12" version="1.1" xmlns="http://www.w3.org/2000/svg" xmlns:xlink="http://www.w3.org/1999/xlink" xmlns:sketch="http://www.bohemiancoding.com/sketch/ns">
    <!-- Generator: Sketch 3.3.2 (12043) - http://www.bohemiancoding.com/sketch -->
    <title>Shape</title>
    <desc>Created with Sketch.</desc>
    <defs></defs>
    <g id="Транзакции" stroke="none" stroke-width="1" fill="none" fill-rule="evenodd" sketch:type="MSPage">
        <g id="просмотр-счета" sketch:type="MSArtboardGroup" transform="translate(-260.000000, -273.000000)" fill="#105A90">
            <g id="Group" sketch:type="MSLayerGroup" transform="translate(260.000000, 268.000000)">
                <path d="M13,11 L10,14 L12,14 C12,14.5625 11.5625,15 11,15 L5,15 C4.4375,15 4,14.5625 4,14 L4,13 L2,13 L2,14 C2,15.65625 3.34375,17 5,17 L11,17 C12.65625,17 14,15.65625 14,14 L16,14 L13,11 Z M11,5 L5,5 C3.34375,5 2,6.34375 2,8 L2,8.03125 L0,8.03125 L3,11 L6,8.03125 L4,8.03125 L4,8 C4,7.4375 4.4375,7 5,7 L11,7 C11.5625,7 12,7.4375 12,8 L12,9 L14,9 L14,8 C14,6.34375 12.65625,5 11,5 L11,5 Z" id="Shape" sketch:type="MSShapeGroup"></path>
            </g>
        </g>
    </g>
</svg>