<?xml version="1.0" encoding="UTF-8" standalone="no"?>
<svg width="24px" height="24px" viewBox="0 0 24 24" version="1.1" xmlns="http://www.w3.org/2000/svg" xmlns:xlink="http://www.w3.org/1999/xlink" xmlns:sketch="http://www.bohemiancoding.com/sketch/ns">
    <!-- Generator: Sketch 3.3.3 (12072) - http://www.bohemiancoding.com/sketch -->
    <title>Group</title>
    <desc>Created with Sketch.</desc>
    <defs></defs>
    <g id="Page-1" stroke="none" stroke-width="1" fill="none" fill-rule="evenodd" sketch:type="MSPage">
        <g id="Group" sketch:type="MSLayerGroup" fill="#000000">
            <path d="M14.25,0 L9.75,0 C4.359375,0 0,4.359375 0,9.75 C0,13.21875 1.828125,16.265625 4.59375,18 L4.5,18 L4.5,24 L11.25,19.5 L14.25,19.5 C19.640625,19.5 24,15.140625 24,9.75 C24,4.359375 19.640625,0 14.25,0 L14.25,0 Z M14.25,16.5 L11.25,16.5 L7.5,18.75 L7.5,16.078125 C4.875,15.140625 3,12.703125 3,9.75 C3,6 6,3 9.75,3 L14.25,3 C18,3 21,6 21,9.75 C21,13.5 18,16.5 14.25,16.5 L14.25,16.5 Z" id="Shape" sketch:type="MSShapeGroup" transform="translate(12.000000, 12.000000) scale(-1, 1) translate(-12.000000, -12.000000) "></path>
            <circle id="Oval-1" sketch:type="MSShapeGroup" cx="8.5" cy="9.5" r="1.5"></circle>
            <circle id="Oval-1-Copy" sketch:type="MSShapeGroup" cx="12.5" cy="9.5" r="1.5"></circle>
            <circle id="Oval-1-Copy-2" sketch:type="MSShapeGroup" cx="16.5" cy="9.5" r="1.5"></circle>
        </g>
    </g>
</svg>