<?xml version="1.0" encoding="UTF-8" standalone="no"?>
<svg width="24px" height="24px" viewBox="0 0 24 24" version="1.1" xmlns="http://www.w3.org/2000/svg" xmlns:xlink="http://www.w3.org/1999/xlink">
    <!-- Generator: Sketch 39 (31667) - http://www.bohemiancoding.com/sketch -->
    <title>Shape</title>
    <desc>Created with Sketch.</desc>
    <defs></defs>
    <g id="Page-1" stroke="none" stroke-width="1" fill="none" fill-rule="evenodd">
        <path d="M12,0 C5.3844277,0 0,5.3844277 0,12 C0,18.615572 5.3844277,24 12,24 C18.615572,24 24,18.615572 24,12 C24,5.3844277 18.615572,0 12,0 L12,0 Z M12,2 C17.534692,2 22,6.465308 22,12 C22,17.534692 17.534692,22 12,22 C6.465308,22 2,17.534692 2,12 C2,6.465308 6.465308,2 12,2 L12,2 Z M11,4 L11,12 L11,13 L12,13 L18,13 L18,11 L13,11 L13,4 L11,4 L11,4 Z" id="Shape" fill="#000000"></path>
    </g>
</svg>