<?xml version="1.0" encoding="UTF-8" standalone="no"?>
<svg width="16px" height="16px" viewBox="0 0 16 16" version="1.1" xmlns="http://www.w3.org/2000/svg" xmlns:xlink="http://www.w3.org/1999/xlink">
    <!-- Generator: Sketch 39 (31667) - http://www.bohemiancoding.com/sketch -->
    <title>Shape</title>
    <desc>Created with Sketch.</desc>
    <defs></defs>
    <g id="Контакты" stroke="none" stroke-width="1" fill="none" fill-rule="evenodd">
        <g id="Контакты-просмотр" transform="translate(-412.000000, -82.000000)" fill="#000000">
            <g id="close" transform="translate(411.000000, 81.000000)">
                <path d="M1.35050068,1.10404478 C0.95766267,1.49688278 0.957190778,2.13332714 1.34118139,2.51731775 L7.82386364,9 L1.34118139,15.4826822 C0.953490283,15.8703734 0.960588975,16.5060435 1.35050068,16.8959552 L1.10404478,16.6494993 C1.49688278,17.0423373 2.13332714,17.0428092 2.51731775,16.6588186 L9,10.1761364 L15.4826822,16.6588186 C15.8703734,17.0465097 16.5060435,17.039411 16.8959552,16.6494993 L16.6494993,16.8959552 C17.0423373,16.5031172 17.0428092,15.8666729 16.6588186,15.4826822 L10.1761364,9 L16.6588186,2.51731775 C17.0465097,2.12962665 17.039411,1.49395648 16.6494993,1.10404478 L16.8959552,1.35050068 C16.5031172,0.95766267 15.8666729,0.957190778 15.4826822,1.34118139 L9,7.82386364 L2.51731775,1.34118139 C2.12962665,0.953490283 1.49395648,0.960588975 1.10404478,1.35050068 L1.35050068,1.10404478 Z" id="Shape"></path>
            </g>
        </g>
    </g>
</svg>