<?xml version="1.0" encoding="UTF-8" standalone="no"?>
<svg width="22px" height="22px" viewBox="0 0 22 22" version="1.1" xmlns="http://www.w3.org/2000/svg" xmlns:xlink="http://www.w3.org/1999/xlink" xmlns:sketch="http://www.bohemiancoding.com/sketch/ns">
    <!-- Generator: Sketch 3.3.2 (12043) - http://www.bohemiancoding.com/sketch -->
    <title>Shape Copy 9</title>
    <desc>Created with Sketch.</desc>
    <defs></defs>
    <g id="Платежки" stroke="none" stroke-width="1" fill="none" fill-rule="evenodd" sketch:type="MSPage">
        <g id="создание-платежки-copy-7" sketch:type="MSArtboardGroup" transform="translate(-488.000000, -561.000000)" fill="#FFFFFF">
            <path d="M499,561 C492.907692,561 488,565.907692 488,572 C488,574.556249 488.888266,576.917707 490.326923,578.769231 L488,578.769231 L488,580.461538 L492.230769,580.461538 L493.076923,580.461538 L493.076923,579.615385 L493.076923,575.384615 L491.384615,575.384615 L491.384615,577.314904 C490.302637,575.797307 489.692308,573.983249 489.692308,572 C489.692308,566.838462 493.838462,562.692308 499,562.692308 C500.523077,562.692308 501.961538,563.020192 503.230769,563.697115 L503.230769,561.846154 C501.961538,561.338462 500.523077,561 499,561 L499,561 Z M504.923077,563.538462 L504.923077,564.384615 L504.923077,568.615385 L506.615385,568.615385 L506.615385,566.685096 C507.697363,568.202693 508.307692,570.016751 508.307692,572 C508.307692,577.161538 504.161538,581.307692 499,581.307692 C497.476923,581.307692 496.038462,580.979808 494.769231,580.302885 L494.769231,582.153846 C496.038462,582.661538 497.476923,583 499,583 C505.092308,583 510,578.092308 510,572 C510,569.443751 509.111734,567.082293 507.673077,565.230769 L510,565.230769 L510,563.538462 L505.769231,563.538462 L504.923077,563.538462 L504.923077,563.538462 Z M498.153846,565.230769 L498.153846,566.949519 C496.729892,567.161685 495.615385,568.404383 495.615385,569.884615 C495.615385,571.512455 496.949084,572.846154 498.576923,572.846154 L499.423077,572.846154 C500.164468,572.846154 500.692308,573.373993 500.692308,574.115385 C500.692308,574.856776 500.164468,575.384615 499.423077,575.384615 L496.461538,575.384615 L496.461538,577.076923 L498.153846,577.076923 L498.153846,578.769231 L499.846154,578.769231 L499.846154,577.050481 C501.270108,576.838315 502.384615,575.595617 502.384615,574.115385 C502.384615,572.487545 501.050916,571.153846 499.423077,571.153846 L498.576923,571.153846 C497.835532,571.153846 497.307692,570.626007 497.307692,569.884615 C497.307692,569.143224 497.835532,568.615385 498.576923,568.615385 L501.538462,568.615385 L501.538462,566.923077 L499.846154,566.923077 L499.846154,565.230769 L498.153846,565.230769 L498.153846,565.230769 Z" id="Shape-Copy-9" sketch:type="MSShapeGroup"></path>
        </g>
    </g>
</svg>