<?xml version="1.0" encoding="UTF-8" standalone="no"?>
<svg width="24px" height="24px" viewBox="0 0 24 24" version="1.1" xmlns="http://www.w3.org/2000/svg" xmlns:xlink="http://www.w3.org/1999/xlink" xmlns:sketch="http://www.bohemiancoding.com/sketch/ns">
    <!-- Generator: Sketch 3.3.2 (12043) - http://www.bohemiancoding.com/sketch -->
    <title>Shape</title>
    <desc>Created with Sketch.</desc>
    <defs></defs>
    <g id="Платежки" stroke="none" stroke-width="1" fill="none" fill-rule="evenodd" sketch:type="MSPage">
        <g id="создание-платежки-copy-7" sketch:type="MSArtboardGroup" transform="translate(-483.000000, -491.000000)" fill="#FFFFFF">
            <path d="M496.975928,491.00699 C496.216,490.911999 495.674014,491.805817 496.091186,492.431575 C496.108623,492.45851 496.128718,492.483629 496.151169,492.506553 L497.650732,493.901147 L496.091186,495.460693 C495.94912,495.598076 495.905799,495.808501 495.982045,495.990828 C496.058292,496.173156 496.238512,496.2901 496.436086,496.285452 L497.875666,496.285452 C497.875666,498.130733 499.389407,499.644474 501.234687,499.644474 C503.079968,499.644474 504.593709,498.130733 504.593709,496.285452 L504.593709,495.88057 C504.595664,495.855616 504.595664,495.830547 504.593709,495.805592 C504.594412,495.790605 504.594412,495.775593 504.593709,495.760605 L504.593709,493.961129 C504.595664,493.936175 504.595664,493.911106 504.593709,493.886151 C504.594412,493.871164 504.594412,493.856152 504.593709,493.841164 L504.593709,492.356597 C504.595594,492.113346 504.41518,491.907158 504.173831,491.876737 L496.975928,491.00699 L496.975928,491.00699 Z M497.00592,491.981706 L503.633988,492.776475 L503.633988,493.406291 L498.55047,493.406291 L497.00592,491.981706 L497.00592,491.981706 Z M498.565465,494.366012 L503.633988,494.366012 L503.633988,495.325732 L497.605745,495.325732 L498.565465,494.366012 L498.565465,494.366012 Z M498.835387,496.285452 L503.633988,496.285452 C503.633988,497.607249 502.556484,498.684753 501.234687,498.684753 C499.912891,498.684753 498.835387,497.607249 498.835387,496.285452 L498.835387,496.285452 Z M500.274967,500.124334 C499.068138,500.124334 498.028145,500.783416 497.455788,501.713871 L497.440793,501.698875 L489.867999,511.640979 L485.879161,511.640979 L485.879161,503.483355 L485.879161,503.003495 L485.399301,503.003495 L484.439581,503.003495 C483.649992,503.003495 483,503.653487 483,504.443076 L483,511.161118 C483,511.950707 483.649992,512.600699 484.439581,512.600699 L484.919441,512.600699 L484.919441,513.560419 C484.919441,514.350008 485.569433,515 486.359021,515 L494.036785,515 C494.826373,515 495.476365,514.350008 495.476365,513.560419 L495.476365,512.120839 L495.476365,511.640979 L494.996505,511.640979 L494.426671,511.640979 L496.915946,508.356935 L496.915946,514.52014 C496.915972,514.785148 497.130797,514.999974 497.395806,515 L506.51315,515 C506.778158,514.999974 506.992983,514.785148 506.99301,514.52014 L506.99301,502.043775 C506.99301,500.983378 506.133966,500.124334 505.073569,500.124334 L500.274967,500.124334 L500.274967,500.124334 Z M500.274967,501.084054 L503.918905,501.084054 L497.875666,508.386927 L497.875666,506.93235 C497.869592,506.731194 497.738658,506.555194 497.547737,506.491553 C497.356816,506.427913 497.146468,506.490153 497.020915,506.647433 L493.22702,511.640979 L491.082645,511.640979 L498.20557,502.283705 C498.216405,502.269285 498.226418,502.254265 498.235561,502.238718 C498.630777,501.56685 499.393769,501.084054 500.274967,501.084054 L500.274967,501.084054 Z M506.033289,503.153451 L506.033289,512.120839 L498.430504,512.120839 L506.033289,503.153451 L506.033289,503.153451 Z M484.439581,503.963215 L484.919441,503.963215 L484.919441,511.640979 L484.439581,511.640979 C484.173476,511.640979 483.95972,511.427222 483.95972,511.161118 L483.95972,504.443076 C483.95972,504.176972 484.173476,503.963215 484.439581,503.963215 L484.439581,503.963215 Z M485.879161,512.600699 L494.516645,512.600699 L494.516645,513.560419 C494.516645,513.826523 494.302889,514.04028 494.036785,514.04028 L486.359021,514.04028 C486.092917,514.04028 485.879161,513.826523 485.879161,513.560419 L485.879161,512.600699 L485.879161,512.600699 Z M497.875666,513.080559 L506.033289,513.080559 L506.033289,514.04028 L497.875666,514.04028 L497.875666,513.080559 L497.875666,513.080559 Z" id="Shape" sketch:type="MSShapeGroup"></path>
        </g>
    </g>
</svg>