<?xml version="1.0" encoding="UTF-8" standalone="no"?>
<svg width="15px" height="16px" viewBox="0 0 15 16" version="1.1" xmlns="http://www.w3.org/2000/svg" xmlns:xlink="http://www.w3.org/1999/xlink">
    <!-- Generator: Sketch 39 (31667) - http://www.bohemiancoding.com/sketch -->
    <title>Shape</title>
    <desc>Created with Sketch.</desc>
    <defs></defs>
    <g id="Главная" stroke="none" stroke-width="1" fill="none" fill-rule="evenodd">
        <g id="Деньги---фильтры" transform="translate(-685.000000, -95.000000)" fill="#2B2B2B">
            <g id="фильтр-даты" transform="translate(665.000000, 85.000000)">
                <g id="icon_cal" transform="translate(20.000000, 10.000000)">
                    <path d="M2.72727273,0 L2.72727273,0.695652174 L0.681818182,0.695652174 L0,0.695652174 L0,1.39130435 L0,15.3043478 L0,16 L0.681818182,16 L14.3181818,16 L15,16 L15,15.3043478 L15,1.39130435 L15,0.695652174 L14.3181818,0.695652174 L12.2727273,0.695652174 L12.2727273,0 L10.9090909,0 L10.9090909,0.695652174 L4.09090909,0.695652174 L4.09090909,0 L2.72727273,0 L2.72727273,0 Z M1.36363636,2.08695652 L2.72727273,2.08695652 L2.72727273,2.7826087 L4.09090909,2.7826087 L4.09090909,2.08695652 L10.9090909,2.08695652 L10.9090909,2.7826087 L12.2727273,2.7826087 L12.2727273,2.08695652 L13.6363636,2.08695652 L13.6363636,3.47826087 L1.36363636,3.47826087 L1.36363636,2.08695652 L1.36363636,2.08695652 Z M1.36363636,4.86956522 L13.6363636,4.86956522 L13.6363636,14.6086957 L1.36363636,14.6086957 L1.36363636,4.86956522 L1.36363636,4.86956522 Z M5.45454545,6.26086957 L5.45454545,7.65217391 L6.81818182,7.65217391 L6.81818182,6.26086957 L5.45454545,6.26086957 L5.45454545,6.26086957 Z M8.18181818,6.26086957 L8.18181818,7.65217391 L9.54545455,7.65217391 L9.54545455,6.26086957 L8.18181818,6.26086957 L8.18181818,6.26086957 Z M10.9090909,6.26086957 L10.9090909,7.65217391 L12.2727273,7.65217391 L12.2727273,6.26086957 L10.9090909,6.26086957 L10.9090909,6.26086957 Z M2.72727273,9.04347826 L2.72727273,10.4347826 L4.09090909,10.4347826 L4.09090909,9.04347826 L2.72727273,9.04347826 L2.72727273,9.04347826 Z M5.45454545,9.04347826 L5.45454545,10.4347826 L6.81818182,10.4347826 L6.81818182,9.04347826 L5.45454545,9.04347826 L5.45454545,9.04347826 Z M8.18181818,9.04347826 L8.18181818,10.4347826 L9.54545455,10.4347826 L9.54545455,9.04347826 L8.18181818,9.04347826 L8.18181818,9.04347826 Z M10.9090909,9.04347826 L10.9090909,10.4347826 L12.2727273,10.4347826 L12.2727273,9.04347826 L10.9090909,9.04347826 L10.9090909,9.04347826 Z M2.72727273,11.826087 L2.72727273,13.2173913 L4.09090909,13.2173913 L4.09090909,11.826087 L2.72727273,11.826087 L2.72727273,11.826087 Z M5.45454545,11.826087 L5.45454545,13.2173913 L6.81818182,13.2173913 L6.81818182,11.826087 L5.45454545,11.826087 L5.45454545,11.826087 Z M8.18181818,11.826087 L8.18181818,13.2173913 L9.54545455,13.2173913 L9.54545455,11.826087 L8.18181818,11.826087 L8.18181818,11.826087 Z" id="Shape"></path>
                </g>
            </g>
        </g>
    </g>
</svg>