<?xml version="1.0" encoding="UTF-8" standalone="no"?>
<svg width="16px" height="16px" viewBox="0 0 16 16" version="1.1" xmlns="http://www.w3.org/2000/svg" xmlns:xlink="http://www.w3.org/1999/xlink" xmlns:sketch="http://www.bohemiancoding.com/sketch/ns">
    <!-- Generator: Sketch 3.3.2 (12043) - http://www.bohemiancoding.com/sketch -->
    <title>Shape Copy</title>
    <desc>Created with Sketch.</desc>
    <defs></defs>
    <g id="Транзакции" stroke="none" stroke-width="1" fill="none" fill-rule="evenodd" sketch:type="MSPage">
        <g id="транзакции-6" sketch:type="MSArtboardGroup" transform="translate(-986.000000, -674.000000)" fill="#6690B0">
            <path d="M1000.65625,675.5 L998.5,675.5 L998.5,674.5 C998.5,674.21875 998.28125,674 998,674 C997.71875,674 997.5,674.21875 997.5,674.5 L997.5,675.5 L994.5,675.5 L994.5,674.5 C994.5,674.21875 994.28125,674 994,674 C993.71875,674 993.5,674.21875 993.5,674.5 L993.5,675.5 L990.5,675.5 L990.5,674.5 C990.5,674.21875 990.28125,674 990,674 C989.71875,674 989.5,674.21875 989.5,674.5 L989.5,675.5 L987.34375,675.5 C986.59375,675.5 986,676.09375 986,676.84375 L986,688.65625 C986,689.40625 986.59375,690 987.34375,690 L1000.65625,690 C1001.40625,690 1002,689.40625 1002,688.65625 L1002,676.84375 C1002,676.09375 1001.40625,675.5 1000.65625,675.5 L1000.65625,675.5 Z M1001,688.65625 C1001,688.84375 1000.84375,689 1000.65625,689 L987.34375,689 C987.15625,689 987,688.84375 987,688.65625 L987,676.84375 C987,676.65625 987.15625,676.5 987.34375,676.5 L989.5,676.5 L989.5,677.5 C989.5,677.78125 989.71875,678 990,678 C990.28125,678 990.5,677.78125 990.5,677.5 L990.5,676.5 L993.5,676.5 L993.5,677.5 C993.5,677.78125 993.71875,678 994,678 C994.28125,678 994.5,677.78125 994.5,677.5 L994.5,676.5 L997.5,676.5 L997.5,677.5 C997.5,677.78125 997.71875,678 998,678 C998.28125,678 998.5,677.78125 998.5,677.5 L998.5,676.5 L1000.65625,676.5 C1000.84375,676.5 1001,676.65625 1001,676.84375 L1001,688.65625 Z M987,679 L1001,679 L1001,680 L987,680 L987,679 Z M993,687 L993,682 L990,684.5 L993,687 Z M993,684 L999,684 L999,685 L993,685 L993,684 Z" id="Shape-Copy" sketch:type="MSShapeGroup"></path>
        </g>
    </g>
</svg>