<?xml version="1.0" encoding="UTF-8" standalone="no"?>
<svg width="26px" height="26px" viewBox="0 0 26 26" version="1.1" xmlns="http://www.w3.org/2000/svg" xmlns:xlink="http://www.w3.org/1999/xlink">
    <!-- Generator: Sketch 39 (31667) - http://www.bohemiancoding.com/sketch -->
    <title>Shape</title>
    <desc>Created with Sketch.</desc>
    <defs></defs>
    <g id="Page-1" stroke="none" stroke-width="1" fill="none" fill-rule="evenodd">
        <path d="M13,0 C5.8321429,0 0,5.8321429 0,13 C0,20.167857 5.8321429,26 13,26 C20.167857,26 26,20.167857 26,13 C26,5.8321429 20.167857,0 13,0 L13,0 Z M13,2 C19.086977,2 24,6.9130231 24,13 C24,19.086977 19.086977,24 13,24 C6.9130231,24 2,19.086977 2,13 C2,6.9130231 6.9130231,2 13,2 L13,2 Z M9.21875,7.78125 L7.78125,9.21875 L11.5625,13 L7.78125,16.78125 L9.21875,18.21875 L13,14.4375 L16.78125,18.21875 L18.21875,16.78125 L14.4375,13 L18.21875,9.21875 L16.78125,7.78125 L13,11.5625 L9.21875,7.78125 L9.21875,7.78125 Z" id="Shape" fill="#000000"></path>
    </g>
</svg>