<?xml version="1.0" encoding="UTF-8" standalone="no"?>
<svg width="22px" height="23px" viewBox="0 0 22 23" version="1.1" xmlns="http://www.w3.org/2000/svg" xmlns:xlink="http://www.w3.org/1999/xlink">
    <!-- Generator: Sketch 39 (31667) - http://www.bohemiancoding.com/sketch -->
    <title>Shape</title>
    <desc>Created with Sketch.</desc>
    <defs></defs>
    <g id="Акция-ПДБ" stroke="none" stroke-width="1" fill="none" fill-rule="evenodd">
        <g id="Деньги---действия" transform="translate(-836.000000, -730.000000)" fill="#3A579A">
            <g id="выпадушка" transform="translate(380.000000, 60.000000)">
                <g id="Group-2" transform="translate(90.000000, 659.000000)">
                    <g id="Group-9" transform="translate(257.000000, 0.695740)">
                        <g id="icon_facebook" transform="translate(109.000000, 11.011156)">
                            <path d="M2,0 C0.9069372,0 0,0.9069372 0,2 L0,20 C0,21.093063 0.9069372,22 2,22 L20,22 C21.093063,22 22,21.093063 22,20 L22,2 C22,0.9069372 21.093063,0 20,0 L2,0 L2,0 Z M2,2 L20,2 L20,20 L14.8125,20 L14.8125,13.25 L17.40625,13.25 L17.78125,10.25 L14.8125,10.25 L14.8125,8.3125 C14.8125,7.4385 15.02825,6.84375 16.28125,6.84375 L17.90625,6.84375 L17.90625,4.125 C17.62925,4.088 16.6665,4.03125 15.5625,4.03125 C13.2585,4.03125 11.6875,5.417 11.6875,8 L11.6875,10.25 L9.0625,10.25 L9.0625,13.25 L11.6875,13.25 L11.6875,20 L2,20 L2,2 L2,2 Z" id="Shape"></path>
                        </g>
                    </g>
                </g>
            </g>
        </g>
    </g>
</svg>