<?xml version="1.0" encoding="UTF-8" standalone="no"?>
<svg width="20px" height="26px" viewBox="0 0 20 26" version="1.1" xmlns="http://www.w3.org/2000/svg" xmlns:xlink="http://www.w3.org/1999/xlink">
    <!-- Generator: Sketch 39 (31667) - http://www.bohemiancoding.com/sketch -->
    <title>file</title>
    <desc>Created with Sketch.</desc>
    <defs></defs>
    <g id="Page-1" stroke="none" stroke-width="1" fill="none" fill-rule="evenodd">
        <g id="file" fill="#000000">
            <path d="M0,0 L0,1 L0,25 L0,26 L1,26 L19,26 L20,26 L20,25 L20,7 L20,6.59375 L19.71875,6.28125 L13.71875,0.28125 L13.40625,0 L13,0 L1,0 L0,0 L0,0 Z M2,2 L12,2 L12,7 L12,8 L13,8 L18,8 L18,24 L2,24 L2,2 L2,2 Z M14,3.4375 L16.5625,6 L14,6 L14,3.4375 L14,3.4375 Z" id="Shape"></path>
        </g>
    </g>
</svg>