<?xml version="1.0" encoding="UTF-8" standalone="no"?>
<svg width="15px" height="16px" viewBox="0 0 15 16" version="1.1" xmlns="http://www.w3.org/2000/svg" xmlns:xlink="http://www.w3.org/1999/xlink">
    <!-- Generator: Sketch 39 (31667) - http://www.bohemiancoding.com/sketch -->
    <title>icon_filter</title>
    <desc>Created with Sketch.</desc>
    <defs></defs>
    <g id="Главная" stroke="none" stroke-width="1" fill="none" fill-rule="evenodd">
        <g id="Деньги" transform="translate(-881.000000, -97.000000)" fill="#2B2B2B">
            <g id="фильтр-статусов" transform="translate(862.000000, 85.000000)">
                <g id="icon_filter" transform="translate(19.000000, 12.000000)">
                    <path d="M0,0 L0,0.666666667 L0,1.33333333 L0,1.5625 L0.149147727,1.75 L5.45454545,8.22916667 L5.45454545,14.6666667 L5.45454545,16 L6.54119318,15.2083333 L9.26846591,13.2083333 L9.54545455,13 L9.54545455,12.6666667 L9.54545455,8.22916667 L14.8508523,1.75 L15,1.5625 L15,1.33333333 L15,0.666666667 L15,0 L14.3181818,0 L0.681818182,0 L0,0 L0,0 Z M1.55539773,1.33333333 L13.4446023,1.33333333 L8.54403409,7.33333333 L6.45596591,7.33333333 L1.55539773,1.33333333 L1.55539773,1.33333333 Z M6.81818182,8.66666667 L8.18181818,8.66666667 L8.18181818,12.3333333 L6.81818182,13.3333333 L6.81818182,8.66666667 L6.81818182,8.66666667 Z" id="Shape"></path>
                </g>
            </g>
        </g>
    </g>
</svg>