<?xml version="1.0" encoding="UTF-8" standalone="no"?>
<svg width="24px" height="24px" viewBox="0 0 24 24" version="1.1" xmlns="http://www.w3.org/2000/svg" xmlns:xlink="http://www.w3.org/1999/xlink" xmlns:sketch="http://www.bohemiancoding.com/sketch/ns">
    <!-- Generator: Sketch 3.3.2 (12043) - http://www.bohemiancoding.com/sketch -->
    <title>Group Copy 2</title>
    <desc>Created with Sketch.</desc>
    <defs></defs>
    <g id="Платежки" stroke="none" stroke-width="1" fill="none" fill-rule="evenodd" sketch:type="MSPage">
        <g id="создание-платежки-copy-7" sketch:type="MSArtboardGroup" transform="translate(-486.000000, -422.000000)" fill="#FFFFFF">
            <g id="Group-Copy-2" sketch:type="MSLayerGroup" transform="translate(486.000000, 422.000000)">
                <path d="M23.2333333,21.5333333 L0.766666667,21.5333333 L0.766666667,11.5333333 L23.2,11.5333333 L23.2,21.5333333 L23.2333333,21.5333333 Z M1.86666667,20.4666667 L22.1333333,20.4666667 L22.1333333,12.6 L1.86666667,12.6 L1.86666667,20.4666667 L1.86666667,20.4666667 Z" id="Shape" sketch:type="MSShapeGroup"></path>
                <path d="M1.86666667,12.6 L0.766666667,12.6 L0.766666667,9.1 L8.76666667,9.1 L8.76666667,10.1666667 L1.86666667,10.1666667 L1.86666667,12.6 Z" id="Shape" sketch:type="MSShapeGroup"></path>
                <path d="M23.2333333,12.6 L22.1333333,12.6 L22.1333333,10.1666667 L15.2333333,10.1666667 L15.2333333,9.1 L23.2333333,9.1 L23.2333333,12.6 Z" id="Shape" sketch:type="MSShapeGroup"></path>
                <rect id="Rectangle-path" sketch:type="MSShapeGroup" x="0.233333333" y="22.0666667" width="23.5333333" height="1.06666667"></rect>
                <rect id="Rectangle-path" sketch:type="MSShapeGroup" x="16.1" y="11.8" width="1.06666667" height="9.46666667"></rect>
                <rect id="Rectangle-path" sketch:type="MSShapeGroup" x="13" y="11.8" width="1.06666667" height="9.46666667"></rect>
                <rect id="Rectangle-path" sketch:type="MSShapeGroup" x="9.93333333" y="11.8" width="1.06666667" height="9.46666667"></rect>
                <rect id="Rectangle-path" sketch:type="MSShapeGroup" x="6.83333333" y="11.8" width="1.06666667" height="9.46666667"></rect>
                <rect id="Rectangle-path" sketch:type="MSShapeGroup" x="3.76666667" y="11.8" width="1.06666667" height="9.46666667"></rect>
                <rect id="Rectangle-path" sketch:type="MSShapeGroup" x="19.1666667" y="12.0666667" width="1.06666667" height="9.46666667"></rect>
                <rect id="Rectangle-path" sketch:type="MSShapeGroup" x="11.4666667" y="0.433333333" width="1.06666667" height="6.23333333"></rect>
                <path d="M17.4,3.96666667 L11.4666667,3.96666667 L11.4666667,0.166666667 L17.4,0.166666667 L17.4,3.96666667 L17.4,3.96666667 Z M12.5333333,2.86666667 L16.3333333,2.86666667 L16.3333333,1.23333333 L12.5333333,1.23333333 L12.5333333,2.86666667 L12.5333333,2.86666667 Z" id="Shape" sketch:type="MSShapeGroup"></path>
                <path d="M17.7333333,12.4666667 L12,7.33333333 L6.26666667,12.4666667 L5.53333333,11.6666667 L12,5.86666667 L18.4666667,11.6666667 L17.7333333,12.4666667 Z" id="Shape" sketch:type="MSShapeGroup"></path>
            </g>
        </g>
    </g>
</svg>