<?xml version="1.0" encoding="UTF-8" standalone="no"?>
<svg width="24px" height="24px" viewBox="0 0 24 24" version="1.1" xmlns="http://www.w3.org/2000/svg" xmlns:xlink="http://www.w3.org/1999/xlink">
    <!-- Generator: Sketch 39 (31667) - http://www.bohemiancoding.com/sketch -->
    <title>help</title>
    <desc>Created with Sketch.</desc>
    <defs></defs>
    <g id="Page-1" stroke="none" stroke-width="1" fill="none" fill-rule="evenodd">
        <g id="help" fill="#000000">
            <path d="M12,0 C5.3844277,0 0,5.3844277 0,12 C0,18.615572 5.3844277,24 12,24 C18.615572,24 24,18.615572 24,12 C24,5.3844277 18.615572,0 12,0 L12,0 Z M12,2 C17.534692,2 22,6.465308 22,12 C22,17.534692 17.534692,22 12,22 C6.465308,22 2,17.534692 2,12 C2,6.465308 6.465308,2 12,2 L12,2 Z M12,6 C9.802666,6 8,7.802666 8,10 L10,10 C10,8.883334 10.883334,8 12,8 C13.116666,8 14,8.883334 14,10 C14,10.767423 13.508714,11.44544 12.78125,11.6875 L12.375,11.8125 C11.559939,12.083523 11,12.862393 11,13.71875 L11,15 L13,15 L13,13.71875 L13.40625,13.59375 C14.944786,13.08181 16,11.620577 16,10 C16,7.802666 14.197334,6 12,6 L12,6 Z M11,16 L11,18 L13,18 L13,16 L11,16 L11,16 Z" id="Shape"></path>
        </g>
    </g>
</svg>