<?xml version="1.0" encoding="UTF-8" standalone="no"?>
<svg width="28px" height="26px" viewBox="0 0 28 26" version="1.1" xmlns="http://www.w3.org/2000/svg" xmlns:xlink="http://www.w3.org/1999/xlink">
    <!-- Generator: Sketch 39 (31667) - http://www.bohemiancoding.com/sketch -->
    <title>home</title>
    <desc>Created with Sketch.</desc>
    <defs></defs>
    <g id="icons" stroke="none" stroke-width="1" fill="none" fill-rule="evenodd">
        <g id="home" fill="#000000">
            <path d="M14,0.59375 L13.28125,1.28125 L0.28125,14.28125 L1.71875,15.71875 L3,14.4375 L3,25 L3,26 L4,26 L11,26 L12,26 L12,25 L12,16 L16,16 L16,25 L16,26 L17,26 L24,26 L25,26 L25,25 L25,14.4375 L26.28125,15.71875 L27.71875,14.28125 L14.71875,1.28125 L14,0.59375 L14,0.59375 Z M14,3.4375 L23,12.4375 L23,24 L18,24 L18,15 L18,14 L17,14 L11,14 L10,14 L10,15 L10,24 L5,24 L5,12.4375 L14,3.4375 L14,3.4375 Z" id="Shape"></path>
        </g>
    </g>
</svg>