<?xml version="1.0" encoding="UTF-8" standalone="no"?>
<svg width="17px" height="18px" viewBox="0 0 17 18" version="1.1" xmlns="http://www.w3.org/2000/svg" xmlns:xlink="http://www.w3.org/1999/xlink" xmlns:sketch="http://www.bohemiancoding.com/sketch/ns">
    <!-- Generator: Sketch 3.2.2 (9983) - http://www.bohemiancoding.com/sketch -->
    <title>org</title>
    <desc>Created with Sketch.</desc>
    <defs></defs>
    <g id="Открытие-счета" stroke="none" stroke-width="1" fill="none" fill-rule="evenodd" sketch:type="MSPage">
        <g id="открытие-счета-1" sketch:type="MSArtboardGroup" transform="translate(-800.000000, -10.000000)" fill="#2D4668">
            <g id="header" sketch:type="MSLayerGroup" transform="translate(137.000000, 0.000000)">
                <g id="профиль" transform="translate(603.000000, 10.000000)" sketch:type="MSShapeGroup">
                    <g id="org" transform="translate(60.000000, 0.000000)">
                        <path d="M14.875,1.38461538 C15.2652917,1.38461538 15.5833333,1.69476923 15.5833333,2.07692308 L15.5833333,16.6153846 L1.41666667,16.6153846 L1.41666667,2.07692308 C1.41666667,1.69476923 1.73470833,1.38461538 2.125,1.38461538 L14.875,1.38461538 L14.875,1.38461538 Z M14.875,0 L2.125,0 C0.951291667,0 0,0.929769231 0,2.07692308 L0,18 L17,18 L17,2.07692308 C17,0.929769231 16.0487083,0 14.875,0 L14.875,0 L14.875,0 Z" id="Shape"></path>
                        <rect id="Rectangle-path" x="7.08333333" y="13.1538462" width="2.83333333" height="4.84615385"></rect>
                        <rect id="Rectangle-path" x="7.08333333" y="6.23076923" width="2.83333333" height="2.07692308"></rect>
                        <rect id="Rectangle-path" x="7.08333333" y="9.69230769" width="2.83333333" height="2.07692308"></rect>
                        <rect id="Rectangle-path" x="11.3333333" y="6.23076923" width="2.83333333" height="2.07692308"></rect>
                        <rect id="Rectangle-path" x="2.83333333" y="6.23076923" width="2.83333333" height="2.07692308"></rect>
                        <rect id="Rectangle-path" x="7.08333333" y="2.76923077" width="2.83333333" height="2.07692308"></rect>
                        <rect id="Rectangle-path" x="11.3333333" y="2.76923077" width="2.83333333" height="2.07692308"></rect>
                        <rect id="Rectangle-path" x="2.83333333" y="2.76923077" width="2.83333333" height="2.07692308"></rect>
                        <rect id="Rectangle-path" x="11.3333333" y="9.69230769" width="2.83333333" height="2.07692308"></rect>
                        <rect id="Rectangle-path" x="2.83333333" y="9.69230769" width="2.83333333" height="2.07692308"></rect>
                        <rect id="Rectangle-path" x="11.3333333" y="13.1538462" width="2.83333333" height="2.07692308"></rect>
                        <rect id="Rectangle-path" x="2.83333333" y="13.1538462" width="2.83333333" height="2.07692308"></rect>
                    </g>
                </g>
            </g>
        </g>
    </g>
</svg>