<?xml version="1.0" encoding="UTF-8" standalone="no"?>
<svg width="16px" height="18px" viewBox="0 0 16 18" version="1.1" xmlns="http://www.w3.org/2000/svg" xmlns:xlink="http://www.w3.org/1999/xlink" xmlns:sketch="http://www.bohemiancoding.com/sketch/ns">
    <!-- Generator: Sketch 3.2.2 (9983) - http://www.bohemiancoding.com/sketch -->
    <title>noun_4090_cc</title>
    <desc>Created with Sketch.</desc>
    <defs></defs>
    <g id="Открытие-счета" stroke="none" stroke-width="1" fill="none" fill-rule="evenodd" sketch:type="MSPage">
        <g id="открытие-счета-1" sketch:type="MSArtboardGroup" transform="translate(-14.000000, -318.000000)" fill="#FFFFFF">
            <g id="aside" sketch:type="MSLayerGroup">
                <g id="меню" transform="translate(0.000000, 43.000000)" sketch:type="MSShapeGroup">
                    <g id="noun_4090_cc" transform="translate(14.000000, 275.000000)">
                        <rect id="Rectangle-path" x="2.96123077" y="10.0053685" width="6.66285714" height="1.11155116"></rect>
                        <rect id="Rectangle-path" x="2.96123077" y="6.67018702" width="6.66285714" height="1.11155116"></rect>
                        <rect id="Rectangle-path" x="2.96123077" y="3.33518152" width="6.66285714" height="1.11155116"></rect>
                        <path d="M15.1764396,2.59414741 L12.5854945,2.59414741 L12.5854945,0.741034103 C12.5854945,0.277755776 12.308044,0 11.8450989,0 L0.74021978,0 C0.277450549,0 0,0.277755776 0,0.741034103 L0,14.4519252 C0,14.9155556 0.277450549,15.1934873 0.74021978,15.1934873 L3.33134066,15.1934873 L3.33134066,16.8610781 C3.33134066,17.3243564 3.60896703,17.6021122 4.07173626,17.6021122 L15.1764396,17.6021122 C15.6393846,17.6021122 15.9168352,17.3243564 15.9168352,16.8610781 L15.9168352,3.33518152 C15.9168352,2.87172717 15.6393846,2.59414741 15.1764396,2.59414741 L15.1764396,2.59414741 Z M1.11050549,13.7110671 L1.11050549,1.48224422 C1.11050549,1.25060506 1.24923077,1.11155116 1.48061538,1.11155116 L11.1047033,1.11155116 C11.3360879,1.11155116 11.4748132,1.25060506 11.4748132,1.48224422 L11.4748132,13.7110671 C11.4748132,13.9425303 11.3360879,14.0814081 11.1047033,14.0814081 L1.48061538,14.0814081 C1.24923077,14.0814081 1.11050549,13.9425303 1.11050549,13.7110671 L1.11050549,13.7110671 Z M14.8061538,16.119516 C14.8061538,16.3511551 14.6674286,16.489857 14.4362198,16.489857 L4.9970989,16.489857 C4.76571429,16.489857 4.62698901,16.3513311 4.62698901,16.119516 L4.62698901,15.1929593 L11.8450989,15.1929593 C12.308044,15.1929593 12.5854945,14.9152035 12.5854945,14.4517492 L12.5854945,3.8910451 L14.4362198,3.8910451 C14.6674286,3.8910451 14.8061538,4.02974697 14.8061538,4.26138614 L14.8061538,16.119516 L14.8061538,16.119516 Z" id="Shape"></path>
                    </g>
                </g>
            </g>
        </g>
    </g>
</svg>