<?xml version="1.0" encoding="UTF-8" standalone="no"?>
<svg width="18px" height="18px" viewBox="0 0 18 18" version="1.1" xmlns="http://www.w3.org/2000/svg" xmlns:xlink="http://www.w3.org/1999/xlink" xmlns:sketch="http://www.bohemiancoding.com/sketch/ns">
    <!-- Generator: Sketch 3.2.2 (9983) - http://www.bohemiancoding.com/sketch -->
    <title>fullsize</title>
    <desc>Created with Sketch.</desc>
    <defs></defs>
    <g id="Открытие-счета" stroke="none" stroke-width="1" fill="none" fill-rule="evenodd" sketch:type="MSPage">
        <g id="открытие-счета-1" sketch:type="MSArtboardGroup" transform="translate(-317.000000, -97.000000)" fill="#576B87">
            <g id="fullsize" sketch:type="MSLayerGroup" transform="translate(326.000000, 106.000000) scale(-1, 1) translate(-326.000000, -106.000000) translate(317.000000, 97.000000)">
                <path d="M14.456967,17.9638022 L0.88832967,17.9638022 C0.427252747,17.9638022 0.0534065934,17.589956 0.0534065934,17.1288791 L0.0534065934,3.56004396 C0.0534065934,3.09896703 0.427252747,2.72512088 0.88832967,2.72512088 L7.67274725,2.72512088 C8.13382418,2.72512088 8.50767033,3.09896703 8.50767033,3.56004396 C8.50767033,4.02112088 8.13382418,4.39496703 7.67274725,4.39496703 L1.72325275,4.39496703 L1.72325275,16.2935604 L13.6218462,16.2935604 L13.6218462,10.3444615 C13.6218462,9.88338462 13.9956923,9.50953846 14.4567692,9.50953846 C14.9178462,9.50953846 15.2916923,9.88338462 15.2916923,10.3444615 L15.2916923,17.1288791 C15.2918901,17.5897582 14.918044,17.9638022 14.456967,17.9638022 L14.456967,17.9638022 Z" id="Shape" sketch:type="MSShapeGroup"></path>
                <path d="M17.8556044,0.997318681 L17.8556044,5.31632967 C17.8556044,5.77562637 17.4797802,6.15125275 17.0206813,6.15125275 C16.5594066,6.15125275 16.1857582,5.77542857 16.1857582,5.31632967 L16.1857582,3.01173626 L10.3531648,8.84610989 C10.1903736,9.0089011 9.97536264,9.0903956 9.76232967,9.0903956 C9.54731868,9.0903956 9.33448352,9.0089011 9.17149451,8.84610989 C8.84591209,8.51835165 8.84591209,7.99021978 9.17149451,7.66463736 L15.0038901,1.83224176 L12.7014725,1.83224176 C12.2401978,1.83224176 11.8665495,1.45859341 11.8665495,0.997318681 C11.8665495,0.536043956 12.2401978,0.162395604 12.7014725,0.162395604 L17.0183077,0.162395604 C17.1059341,0.162395604 17.1915824,0.174857143 17.2750549,0.202153846 C17.298,0.210461538 17.3209451,0.218769231 17.3438901,0.229252747 C17.3648571,0.23756044 17.3856264,0.245868132 17.4065934,0.258527473 C17.4317143,0.270989011 17.4546593,0.283648352 17.4776044,0.300263736 C17.5005495,0.314901099 17.5234945,0.331516484 17.5464396,0.350307692 C17.5674066,0.366923077 17.5881758,0.385714286 17.6091429,0.406681319 C17.6279341,0.425472527 17.6467253,0.44643956 17.6655165,0.467208791 C17.7218901,0.53821978 17.7677802,0.615362637 17.799033,0.698835165 C17.8073407,0.719802198 17.8156484,0.740571429 17.82,0.759362637 C17.8429451,0.838681319 17.8556044,0.918 17.8556044,0.997318681 L17.8556044,0.997318681 Z" id="Shape" sketch:type="MSShapeGroup"></path>
            </g>
        </g>
    </g>
</svg>