<?xml version="1.0" encoding="UTF-8" standalone="no"?>
<svg width="16px" height="21px" viewBox="0 0 16 21" version="1.1" xmlns="http://www.w3.org/2000/svg" xmlns:xlink="http://www.w3.org/1999/xlink" xmlns:sketch="http://www.bohemiancoding.com/sketch/ns">
    <!-- Generator: Sketch 3.2.2 (9983) - http://www.bohemiancoding.com/sketch -->
    <title>Shape + Shape</title>
    <desc>Created with Sketch.</desc>
    <defs></defs>
    <g id="Открытие-счета" stroke="none" stroke-width="1" fill="none" fill-rule="evenodd" sketch:type="MSPage">
        <g id="открытие-счета-1" sketch:type="MSArtboardGroup" transform="translate(-14.000000, -154.000000)" fill="#FFFFFF">
            <g id="aside" sketch:type="MSLayerGroup">
                <g id="меню" transform="translate(0.000000, 43.000000)" sketch:type="MSShapeGroup">
                    <g id="Shape-+-Shape" transform="translate(14.000000, 111.000000)">
                        <path d="M9.49075391,19.2229306 C9.49075391,19.2229306 8.64864865,20.4329692 7.80654339,20.4329692 C6.96443812,20.4329692 6.12233286,19.2229306 6.12233286,19.2229306 C6.12233286,19.2229306 1.49075391,13.1295217 0.649911807,9.85475381 C0.380859175,9.1101767 0.227596017,8.31437462 0.227596017,7.48267473 C0.227596017,3.47301003 3.62085917,0.2224429 7.80654339,0.2224429 C11.9922276,0.2224429 15.3854908,3.47301003 15.3854908,7.48267473 C15.3854908,8.31437462 15.2322276,9.1101767 14.963596,9.85475381 C14.1223329,13.1295217 9.49075391,19.2229306 9.49075391,19.2229306 Z M9.21211393,17.8215737 C9.21211393,17.8215737 8.50932866,18.8729187 7.80654339,18.8729187 C7.10375811,18.8729187 6.40097284,17.8215737 6.40097284,17.8215737 C6.40097284,17.8215737 2.53565384,12.5273004 1.83392274,9.68201023 C1.60938285,9.03508258 1.48147593,8.34364799 1.48147593,7.62102349 C1.48147593,4.13721645 4.31334919,1.31295321 7.80654339,1.31295321 C11.2997376,1.31295321 14.1316108,4.13721645 14.1316108,7.62102349 C14.1316108,8.34364799 14.0037039,9.03508258 13.7795154,9.68201023 C13.0774329,12.5273004 9.21211393,17.8215737 9.21211393,17.8215737 Z" id="Shape"></path>
                        <path d="M7.57894737,4.21052632 C6.74434622,4.21052632 5.89473684,5.24918421 5.89473684,6.52631579 L5.05263158,6.52631579 L4.40511924,11.8998766 L10.7829975,11.8998766 L10.1052632,6.52631579 L9.26315789,6.52631579 C9.26315789,5.24918421 8.41354852,4.21052632 7.57894737,4.21052632 Z M8.57651453,6.73684211 L6.61160225,6.73684211 C6.61160225,5.69202632 7.05230546,4.84210526 7.59405839,4.84210526 C8.13582155,4.84210526 8.57651453,5.69202632 8.57651453,6.73684211 Z" id="Shape"></path>
                    </g>
                </g>
            </g>
        </g>
    </g>
</svg>