<?xml version="1.0" encoding="UTF-8" standalone="no"?>
<svg width="18px" height="18px" viewBox="0 0 18 18" version="1.1" xmlns="http://www.w3.org/2000/svg" xmlns:xlink="http://www.w3.org/1999/xlink" xmlns:sketch="http://www.bohemiancoding.com/sketch/ns">
    <!-- Generator: Sketch 3.2.2 (9983) - http://www.bohemiancoding.com/sketch -->
    <title>transition</title>
    <desc>Created with Sketch.</desc>
    <defs></defs>
    <g id="Открытие-счета" stroke="none" stroke-width="1" fill="none" fill-rule="evenodd" sketch:type="MSPage">
        <g id="открытие-счета-1" sketch:type="MSArtboardGroup" transform="translate(-13.000000, -197.000000)" fill="#FFFFFF">
            <g id="aside" sketch:type="MSLayerGroup">
                <g id="меню" transform="translate(0.000000, 43.000000)" sketch:type="MSShapeGroup">
                    <g id="transition" transform="translate(13.000000, 154.000000)">
                        <g id="Group">
                            <path d="M12.2120426,15.4412911 C9.25503451,16.9157867 5.69712195,16.1819913 3.56448425,13.7218913 L2.35551575,14.7699348 C4.9637304,17.7786356 9.31175853,18.6753871 12.9260377,16.8731469 C16.5727622,15.0546862 18.470907,10.9874888 17.5852122,7.06618098 L16.0245269,7.41868858 C16.7487918,10.6252848 15.1954912,13.9535769 12.2120426,15.4412911 Z" id="Shape"></path>
                            <path d="M5.78731879,2.55833257 C8.83686308,1.03757624 12.5166928,1.87022699 14.6173109,4.49687219 L15.866863,3.49756259 C13.2977282,0.285076984 8.80095077,-0.732428011 5.0732444,1.12651632 C1.43779801,2.939715 -0.461125945,6.9887102 0.407916265,10.8997888 L1.96982287,10.5527329 C1.25927703,7.35495888 2.81314133,4.04171977 5.78731879,2.55833257 Z" id="Shape"></path>
                            <path d="M15.3011847,4.58849017 L15.8260503,3.93582597 L13.0187459,3.95947814 L13.0278628,5.04156534 L15.8351671,5.01791316 L16.4964619,5.01234161 L16.3600327,4.36524896 L15.745424,1.45011853 L14.686576,1.67335973 L15.3011847,4.58849017 Z" id="Shape"></path>
                            <path d="M2.90506344,13.6458841 L2.38027705,14.2986083 L5.18792922,14.2746083 L5.17867948,13.1925222 L2.3710273,13.2165222 L1.70973903,13.2221749 L1.8462409,13.8692463 L2.46119743,16.7843767 L3.52001997,16.5610146 L2.90506344,13.6458841 Z" id="Shape"></path>
                        </g>
                        <path d="M9.9132394,9.67671111 C10.5736079,9.67671111 11.0705678,9.49244444 11.404038,9.124 C11.7372649,8.75537778 11.904,8.23937778 11.904,7.5752 C11.904,6.91137778 11.7372649,6.39502222 11.4039569,6.02666667 C11.0705678,5.65813333 10.5735267,5.47377778 9.91315826,5.47377778 L7.42292251,5.47377778 L7.42292251,8.88 L6.57066667,8.88 L6.57066667,9.67671111 L7.42292251,9.67671111 L7.42292251,10.4361778 L6.57066667,10.4361778 L6.57066667,11.2328 L7.42292251,11.2328 L7.42292251,12.5848889 L8.28653744,12.5848889 L8.28653744,11.2328 L10.6188819,11.2328 L10.6188819,10.4361778 L8.28653744,10.4361778 L8.28653744,9.67671111 L9.9132394,9.67671111 L9.9132394,9.67671111 Z M8.28653744,6.27066667 L9.62220344,6.27066667 C10.1130781,6.27066667 10.4722686,6.38186667 10.6994503,6.60435556 C10.9268754,6.82684444 11.0404662,7.15057778 11.0404662,7.5752 C11.0404662,8.00026667 10.9268754,8.324 10.6994503,8.54631111 C10.4722686,8.7688 10.1130781,8.88 9.62220344,8.88 L8.28653744,8.88 L8.28653744,6.27066667 L8.28653744,6.27066667 Z" id="Shape"></path>
                    </g>
                </g>
            </g>
        </g>
    </g>
</svg>