<?xml version="1.0" encoding="UTF-8" standalone="no"?>
<svg width="20px" height="20px" viewBox="0 0 20 20" version="1.1" xmlns="http://www.w3.org/2000/svg" xmlns:xlink="http://www.w3.org/1999/xlink" xmlns:sketch="http://www.bohemiancoding.com/sketch/ns">
    <!-- Generator: Sketch 3.2.2 (9983) - http://www.bohemiancoding.com/sketch -->
    <title>gear</title>
    <desc>Created with Sketch.</desc>
    <defs></defs>
    <g id="Открытие-счета" stroke="none" stroke-width="1" fill="none" fill-rule="evenodd" sketch:type="MSPage">
        <g id="открытие-счета-1" sketch:type="MSArtboardGroup" transform="translate(-986.000000, -10.000000)" fill="#2D4668">
            <g id="header" sketch:type="MSLayerGroup" transform="translate(137.000000, 0.000000)">
                <g id="gear" transform="translate(849.000000, 10.000000)" sketch:type="MSShapeGroup">
                    <path d="M19.2576923,11.1392308 L19.2576923,8.82461538 L16.5030769,8.37461538 C16.34,7.72153846 16.0838462,7.10846154 15.7469231,6.54692308 L17.3523077,4.25846154 L15.7153846,2.62307692 L13.4561538,4.24692308 C12.8930769,3.90615385 12.2761538,3.64615385 11.6184615,3.48230769 L11.1384615,0.741538462 L8.82384615,0.741538462 L8.37769231,3.47384615 C7.72076923,3.63538462 7.1,3.89153846 6.53538462,4.23076923 L4.28307692,2.62153846 L2.64615385,4.25769231 L4.23076923,6.52307692 C3.88846154,7.09 3.62769231,7.71 3.46230769,8.37153846 L0.742307692,8.82461538 L0.742307692,11.1392308 L3.45923077,11.6207692 C3.62307692,12.2807692 3.88384615,12.9007692 4.22769231,13.4684615 L2.62153846,15.7146154 L4.25769231,17.3523077 L6.52615385,15.7638462 C7.09230769,16.1038462 7.71153846,16.3623077 8.36923077,16.5246154 L8.82461538,19.2584615 L11.1392308,19.2584615 L11.6253846,16.5176923 C12.28,16.3523077 12.8969231,16.0915385 13.4584615,15.75 L15.7430769,17.3530769 L17.3792308,15.7153846 L15.7492308,13.4515385 C16.0861538,12.89 16.3423077,12.2761538 16.5038462,11.6230769 L19.2576923,11.1392308 L19.2576923,11.1392308 Z M10,15.0192308 C7.22769231,15.0192308 4.98076923,12.7715385 4.98076923,10 C4.98076923,7.22846154 7.22769231,4.98076923 10,4.98076923 C12.7723077,4.98076923 15.0192308,7.22769231 15.0192308,10 C15.0192308,12.7723077 12.7723077,15.0192308 10,15.0192308 L10,15.0192308 Z" id="Shape"></path>
                    <path d="M7.10384615,10 C7.10384615,11.5967031 8.40329693,12.8961538 10,12.8961538 C11.5967031,12.8961538 12.8961538,11.5967031 12.8961538,10 C12.8961538,8.40329693 11.5967031,7.10384615 10,7.10384615 C8.40329693,7.10384615 7.10384615,8.40329693 7.10384615,10 Z M11.8961538,10 C11.8961538,11.0412955 11.0412955,11.8961538 10,11.8961538 C8.9587045,11.8961538 8.10384615,11.0412955 8.10384615,10 C8.10384615,8.9587045 8.9587045,8.10384615 10,8.10384615 C11.0412955,8.10384615 11.8961538,8.9587045 11.8961538,10 Z" id="Shape"></path>
                </g>
            </g>
        </g>
    </g>
</svg>