<?xml version="1.0" encoding="UTF-8" standalone="no"?>
<svg width="14px" height="14px" viewBox="0 0 14 14" version="1.1" xmlns="http://www.w3.org/2000/svg" xmlns:xlink="http://www.w3.org/1999/xlink" xmlns:sketch="http://www.bohemiancoding.com/sketch/ns">
    <!-- Generator: Sketch 3.2.2 (9983) - http://www.bohemiancoding.com/sketch -->
    <title>Shape</title>
    <desc>Created with Sketch.</desc>
    <defs></defs>
    <g id="Открытие-счета" stroke="none" stroke-width="1" fill="none" fill-rule="evenodd" sketch:type="MSPage">
        <g id="открытие-счета-1" sketch:type="MSArtboardGroup" transform="translate(-1073.000000, -12.000000)" fill="#2D4668">
            <g id="header" sketch:type="MSLayerGroup" transform="translate(137.000000, 0.000000)">
                <path d="M936.000085,12.5390306 L936.000085,25.4615612 C936.000115,25.7589204 936.241463,25.9999703 936.539191,26 L944.625785,26 C944.923512,25.9999703 945.164861,25.7589204 945.164891,25.4615612 L945.164891,22.7693673 L943.211678,22.7693673 L943.211678,24.0481224 L937.953297,24.0481224 L937.953297,13.9524694 L943.211678,13.9524694 L943.211678,15.2312245 L945.164891,15.2312245 L945.164891,12.5390306 C945.164861,12.2416714 944.923512,12.0006215 944.625785,12.0005918 L936.539191,12.0005918 C936.522353,11.9998027 936.505488,11.9998027 936.48865,12.0005918 C936.471812,11.9998027 936.454946,11.9998027 936.438109,12.0005918 C936.180372,12.049709 935.995461,12.2770093 936.000085,12.5390306 Z M947.135998,16.3417544 C947.077572,16.3388603 947.020899,16.3468696 946.967527,16.3754069 C946.860784,16.4324814 946.799057,16.5403037 946.799057,16.6614525 L946.799057,17.9065921 C946.799057,17.9065921 941.272274,18.1091797 941.155288,18.1926377 C940.982235,18.3148633 940.868888,18.6696945 940.868888,19.0002959 C940.868888,19.3319742 940.982235,19.7356687 941.155288,19.8584327 C941.272274,19.9418907 946.799057,20.0939997 946.799057,20.0939997 L946.799057,21.3391393 C946.799057,21.4613649 946.860784,21.5681104 946.967527,21.6251849 C947.07427,21.6827979 947.203656,21.676202 947.304469,21.6083587 C948.609106,20.7280113 949.869941,19.2603618 949.915765,19.2022104 C949.963206,19.1429822 950,19.0729851 950,19.0002959 C950,18.9276067 949.963206,18.8586865 949.915765,18.7983814 C949.869941,18.7396915 948.609106,17.2725805 947.304469,16.3922331 C947.254062,16.3580422 947.194424,16.3446486 947.135998,16.3417544 L947.135998,16.3417544 Z" id="Shape" sketch:type="MSShapeGroup"></path>
            </g>
        </g>
    </g>
</svg>