<?xml version="1.0" encoding="UTF-8" standalone="no"?>
<svg width="16px" height="16px" viewBox="0 0 16 16" version="1.1" xmlns="http://www.w3.org/2000/svg" xmlns:xlink="http://www.w3.org/1999/xlink" xmlns:sketch="http://www.bohemiancoding.com/sketch/ns">
    <!-- Generator: Sketch 3.2.2 (9983) - http://www.bohemiancoding.com/sketch -->
    <title>Shape</title>
    <desc>Created with Sketch.</desc>
    <defs></defs>
    <g id="Открытие-счета" stroke="none" stroke-width="1" fill="none" fill-rule="evenodd" sketch:type="MSPage">
        <g id="открытие-счета-1" sketch:type="MSArtboardGroup" transform="translate(-14.000000, -363.000000)" fill="#FFFFFF">
            <g id="aside" sketch:type="MSLayerGroup">
                <g id="меню" transform="translate(0.000000, 43.000000)" sketch:type="MSShapeGroup">
                    <path d="M15.1473509,329.489675 L21.9872923,329.489675 C22.2494268,329.489675 22.5086191,329.420221 22.7384837,329.288168 L28.6658529,325.86574 C28.8869222,326.55139 28.9984115,327.260546 28.9984115,327.987261 C28.9984115,331.852766 25.8527978,334.99838 21.9872923,334.99838 C18.6607354,334.998412 15.8398554,332.651909 15.1473509,329.489675 L15.1473509,329.489675 Z M14,328.488087 C14.2601939,332.679296 17.7315117,336 21.9872923,336 C26.4122788,336 30,332.412279 30,327.987292 C30,326.705948 29.6918864,325.499941 29.1568503,324.425988 L22.2376895,328.420605 C22.1594404,328.465613 22.0733664,328.488087 21.9872923,328.488087 L14,328.488087 L14,328.488087 Z M14,327.486498 L21.4864981,327.486498 L21.4864981,320 C17.4625226,320.249427 14.2494268,323.462523 14,327.486498 L14,327.486498 Z M15.1483212,326.48491 C15.7303067,323.825411 17.8254106,321.730307 20.4849097,321.148321 L20.4849097,326.48491 L15.1483212,326.48491 L15.1483212,326.48491 Z M23.489675,321.145379 C24.911868,321.452522 26.1882986,322.187062 27.1664124,323.262987 L23.489675,325.38551 L23.489675,321.145379 L23.489675,321.145379 Z M22.4880866,320 L22.4880866,327.119698 L28.6609701,323.556422 C27.3121435,321.5288 25.0644225,320.15944 22.4880866,320 L22.4880866,320 L22.4880866,320 Z" id="Shape"></path>
                </g>
            </g>
        </g>
    </g>
</svg>