<?xml version="1.0" encoding="UTF-8" standalone="no"?>
<svg width="16px" height="16px" viewBox="0 0 16 16" version="1.1" xmlns="http://www.w3.org/2000/svg" xmlns:xlink="http://www.w3.org/1999/xlink" xmlns:sketch="http://www.bohemiancoding.com/sketch/ns">
    <!-- Generator: Sketch 3.2.2 (9983) - http://www.bohemiancoding.com/sketch -->
    <title>dashboard</title>
    <desc>Created with Sketch.</desc>
    <defs></defs>
    <g id="Открытие-счета" stroke="none" stroke-width="1" fill="none" fill-rule="evenodd" sketch:type="MSPage">
        <g id="открытие-счета-1" sketch:type="MSArtboardGroup" transform="translate(-14.000000, -73.000000)" fill="#D6DF26">
            <g id="aside" sketch:type="MSLayerGroup">
                <g id="меню" transform="translate(0.000000, 43.000000)" sketch:type="MSShapeGroup">
                    <g id="dashboard" transform="translate(14.000000, 30.000000)">
                        <ellipse id="Oval-3" cx="1.05660377" cy="8.54680135" rx="1.05660377" ry="1.07474747"></ellipse>
                        <ellipse id="Oval-4" cx="5.28301887" cy="6.44848485" rx="1.05660377" ry="1.07474747"></ellipse>
                        <ellipse id="Oval-5" cx="8.75471698" cy="3.73602694" rx="1.05660377" ry="1.07474747"></ellipse>
                        <ellipse id="Oval-6" cx="11.8742138" cy="5.62962963" rx="1.05660377" ry="1.07474747"></ellipse>
                        <ellipse id="Oval-11" cx="11.8742138" cy="14.1252525" rx="1.05660377" ry="1.07474747"></ellipse>
                        <ellipse id="Oval-7" cx="14.9433962" cy="1.07474747" rx="1.05660377" ry="1.07474747"></ellipse>
                        <ellipse id="Oval-12" cx="14.9433962" cy="10.3380471" rx="1.05660377" ry="1.07474747"></ellipse>
                        <ellipse id="Oval-8" cx="1.05660377" cy="13.2040404" rx="1.05660377" ry="1.07474747"></ellipse>
                        <ellipse id="Oval-9" cx="5.28301887" cy="14.1252525" rx="1.05660377" ry="1.07474747"></ellipse>
                        <ellipse id="Oval-10" cx="8.75471698" cy="11.4639731" rx="1.05660377" ry="1.07474747"></ellipse>
                        <path d="M5.36486057,6.90962215 L5.72364097,6.72715151 L5.3586997,6.00959072 L4.9999193,6.19206135 L0.974762068,8.2391994 L0.615981669,8.42167004 L0.980922943,9.13923083 L1.33970334,8.9567602 L5.36486057,6.90962215 Z" id="Line"></path>
                        <path d="M8.96892125,3.78353005 L9.27231661,3.51901132 L8.74327915,2.91222058 L8.43988378,3.17673931 L4.91787121,6.24744638 L4.61447584,6.51196512 L5.1435133,7.11875585 L5.44690867,6.85423712 L8.96892125,3.78353005 Z" id="Line"></path>
                        <path d="M11.9898204,6.36469795 L12.3154611,6.60129261 L12.7886505,5.95001119 L12.4630098,5.71341653 L8.94099718,3.15449397 L8.61535646,2.91789931 L8.14216714,3.56918073 L8.46780786,3.80577539 L11.9898204,6.36469795 Z" id="Line"></path>
                        <path d="M15.0787901,1.65364228 L15.2994358,1.31699051 L14.6261322,0.87569923 L14.4054866,1.21235099 L11.3866187,5.8184116 L11.165973,6.15506336 L11.8392766,6.59635464 L12.0599222,6.25970288 L15.0787901,1.65364228 Z" id="Line"></path>
                        <path d="M5.08319017,14.6177098 L5.47329056,14.7169096 L5.6716901,13.9367088 L5.28158971,13.837509 L1.25643247,12.81394 L0.866332086,12.7147402 L0.667932546,13.494941 L1.05803293,13.5941408 L5.08319017,14.6177098 Z" id="Line"></path>
                        <path d="M8.96892125,11.4602977 L9.27231661,11.195779 L8.74327915,10.5889883 L8.43988378,10.853507 L4.91787121,13.9242141 L4.61447584,14.1887328 L5.1435133,14.7955235 L5.44690867,14.5310048 L8.96892125,11.4602977 Z" id="Line"></path>
                        <path d="M11.939381,15.0215824 L12.2215694,15.3086165 L12.7956377,14.7442396 L12.5134492,14.4572055 L8.99143663,10.8747139 L8.70924818,10.5876798 L8.13517995,11.1520567 L8.4173684,11.4390908 L11.939381,15.0215824 Z" id="Line"></path>
                        <path d="M15.0661092,10.883994 L15.3049853,10.5600232 L14.6570438,10.0822709 L14.4181676,10.4062417 L11.3992996,14.5005178 L11.1604235,14.8244886 L11.8083651,15.3022409 L12.0472412,14.9782701 L15.0661092,10.883994 Z" id="Line"></path>
                    </g>
                </g>
            </g>
        </g>
    </g>
</svg>