<?xml version="1.0" encoding="UTF-8" standalone="no"?>
<svg width="17px" height="15px" viewBox="0 0 17 15" version="1.1" xmlns="http://www.w3.org/2000/svg" xmlns:xlink="http://www.w3.org/1999/xlink" xmlns:sketch="http://www.bohemiancoding.com/sketch/ns">
    <!-- Generator: Sketch 3.2.2 (9983) - http://www.bohemiancoding.com/sketch -->
    <title>noun_106635_cc</title>
    <desc>Created with Sketch.</desc>
    <defs></defs>
    <g id="Открытие-счета" stroke="none" stroke-width="1" fill="none" fill-rule="evenodd" sketch:type="MSPage">
        <g id="открытие-счета-1" sketch:type="MSArtboardGroup" transform="translate(-14.000000, -116.000000)" fill="#FFFFFF">
            <g id="aside" sketch:type="MSLayerGroup">
                <g id="меню" transform="translate(0.000000, 43.000000)" sketch:type="MSShapeGroup">
                    <g id="noun_106635_cc" transform="translate(14.000000, 73.000000)">
                        <g id="Group" transform="translate(0.000000, 1.888889)">
                            <path d="M5.19444444,5.66666667 C3.63611111,5.66666667 2.36111111,4.39166667 2.36111111,2.83333333 C2.36111111,1.275 3.63611111,0 5.19444444,0 C6.75277778,0 8.02777778,1.275 8.02777778,2.83333333 C8.02777778,4.39166667 6.75277778,5.66666667 5.19444444,5.66666667 L5.19444444,5.66666667 Z M5.19444444,0.972222222 C4.17083333,0.972222222 3.33333333,1.80972222 3.33333333,2.83333333 C3.33333333,3.85694444 4.17083333,4.69444444 5.19444444,4.69444444 C6.21805556,4.69444444 7.05555556,3.85694444 7.05555556,2.83333333 C7.05555556,1.80972222 6.21805556,0.972222222 5.19444444,0.972222222 L5.19444444,0.972222222 Z" id="Shape"></path>
                            <path d="M10.3888889,12.2777778 L0,12.2777778 L0,10.2944444 C0,7.98055556 1.84166667,6.13888889 4.15555556,6.13888889 L6.23333333,6.13888889 C8.54722222,6.13888889 10.3888889,7.98055556 10.3888889,10.2944444 L10.3888889,12.2777778 L10.3888889,12.2777778 Z M1.16666667,11.2222222 L9.22222222,11.2222222 L9.22222222,10.2376543 C9.22222222,8.53703704 7.83487654,7.19444444 6.17901235,7.19444444 L4.20987654,7.19444444 C2.50925926,7.19444444 1.16666667,8.58179012 1.16666667,10.2376543 L1.16666667,11.2222222 L1.16666667,11.2222222 Z" id="Shape"></path>
                        </g>
                        <g id="Group" transform="translate(8.500000, 0.000000)">
                            <path d="M3.30555556,5.66666667 C1.74722222,5.66666667 0.472222222,4.39166667 0.472222222,2.83333333 C0.472222222,1.275 1.74722222,0 3.30555556,0 C4.86388889,0 6.13888889,1.275 6.13888889,2.83333333 C6.13888889,4.39166667 4.86388889,5.66666667 3.30555556,5.66666667 L3.30555556,5.66666667 Z M3.30555556,0.972222222 C2.28194444,0.972222222 1.44444444,1.80972222 1.44444444,2.83333333 C1.44444444,3.85694444 2.28194444,4.69444444 3.30555556,4.69444444 C4.32916667,4.69444444 5.16666667,3.85694444 5.16666667,2.83333333 C5.16666667,1.80972222 4.32916667,0.972222222 3.30555556,0.972222222 L3.30555556,0.972222222 Z" id="Shape"></path>
                            <path d="M2.83333333,12.2777778 L2.83333333,11.3333333 L7.55555556,11.3333333 L7.55555556,10.2944444 C7.55555556,8.5 6.09166667,7.08333333 4.34444444,7.08333333 L2.26666667,7.08333333 C1.7,7.08333333 1.18055556,7.225 0.708333333,7.50833333 L0.236111111,6.70555556 C0.85,6.375 1.55833333,6.18611111 2.26666667,6.18611111 L4.34444444,6.18611111 C6.65833333,6.18611111 8.5,8.02777778 8.5,10.3416667 L8.5,12.2777778 L2.83333333,12.2777778 Z" id="Shape"></path>
                        </g>
                    </g>
                </g>
            </g>
        </g>
    </g>
</svg>