<?xml version="1.0" encoding="UTF-8" standalone="no"?>
<svg width="16px" height="16px" viewBox="0 0 16 16" version="1.1" xmlns="http://www.w3.org/2000/svg" xmlns:xlink="http://www.w3.org/1999/xlink" xmlns:sketch="http://www.bohemiancoding.com/sketch/ns">
    <!-- Generator: Sketch 3.2.2 (9983) - http://www.bohemiancoding.com/sketch -->
    <title>info</title>
    <desc>Created with Sketch.</desc>
    <defs></defs>
    <g id="Открытие-счета" stroke="none" stroke-width="1" fill="none" fill-rule="evenodd" sketch:type="MSPage">
        <g id="открытие-счета-5" sketch:type="MSArtboardGroup" transform="translate(-653.000000, -670.000000)">
            <g id="Group" sketch:type="MSLayerGroup" transform="translate(287.000000, 644.000000)">
                <g id="info" transform="translate(366.000000, 26.000000)" sketch:type="MSShapeGroup">
                    <path d="M8.626,4.03533333 C8.54533333,3.97333333 8.45266667,3.92933333 8.34466667,3.90466667 C8.23866667,3.88 8.124,3.86733333 8.00333333,3.86733333 C7.882,3.86733333 7.76733333,3.88 7.65866667,3.90466667 C7.55,3.92933333 7.45533333,3.97333333 7.37466667,4.03533333 C7.29466667,4.09733333 7.23133333,4.18 7.18466667,4.28133333 C7.138,4.38333333 7.11533333,4.51066667 7.11533333,4.664 C7.11533333,4.814 7.13866667,4.94 7.18466667,5.04333333 C7.23133333,5.14666667 7.294,5.23066667 7.37466667,5.29266667 C7.45533333,5.35466667 7.55,5.4 7.65866667,5.426 C7.76733333,5.45266667 7.882,5.466 8.00333333,5.466 C8.124,5.466 8.23866667,5.45266667 8.34466667,5.426 C8.45266667,5.4 8.54533333,5.354 8.626,5.29266667 C8.706,5.23066667 8.77066667,5.14733333 8.81866667,5.04333333 C8.86666667,4.94066667 8.89066667,4.814 8.89066667,4.664 C8.89066667,4.51066667 8.86666667,4.38266667 8.81866667,4.28133333 C8.77066667,4.18 8.706,4.09733333 8.626,4.03533333 L8.626,4.03533333 Z" id="Shape" fill="#8697AB"></path>
                    <rect id="Rectangle-path" fill="#8697AB" x="7.18466667" y="7" width="1.63133333" height="5.084"></rect>
                    <rect id="Rectangle-path" x="0" y="0" width="16" height="16"></rect>
                    <path d="M8,0 C3.582,0 0,3.582 0,8 C0,12.418 3.582,16 8,16 C12.418,16 16,12.418 16,8 C16,3.582 12.418,0 8,0 L8,0 Z M8,14.6666667 C4.318,14.6666667 1.33333333,11.682 1.33333333,8 C1.33333333,4.318 4.318,1.33333333 8,1.33333333 C11.682,1.33333333 14.6666667,4.318 14.6666667,8 C14.6666667,11.682 11.682,14.6666667 8,14.6666667 L8,14.6666667 Z" id="Shape" fill="#8697AB"></path>
                </g>
            </g>
        </g>
    </g>
</svg>