<?xml version="1.0" encoding="UTF-8" standalone="no"?>
<svg width="19px" height="26px" viewBox="0 0 19 26" version="1.1" xmlns="http://www.w3.org/2000/svg" xmlns:xlink="http://www.w3.org/1999/xlink" xmlns:sketch="http://www.bohemiancoding.com/sketch/ns">
    <!-- Generator: Sketch 3.3.2 (12043) - http://www.bohemiancoding.com/sketch -->
    <title>Group Copy</title>
    <desc>Created with Sketch.</desc>
    <defs></defs>
    <g id="Платежки" stroke="none" stroke-width="1" fill="none" fill-rule="evenodd" sketch:type="MSPage">
        <g id="создание-платежки-copy-7" sketch:type="MSArtboardGroup" transform="translate(-488.000000, -353.000000)" fill="#FFFFFF">
            <g id="Group-Copy" sketch:type="MSLayerGroup" transform="translate(488.000000, 353.000000)">
                <g id="Shape-+-Shape-+-Shape" transform="translate(4.000000, 11.000000)" sketch:type="MSShapeGroup">
                    <path d="M4.06989247,9.66397849 C4.03494624,9.66397849 3.96505376,9.66397849 3.93010753,9.62903226 C3.65053763,9.55913978 3.47580645,9.27956989 3.54569892,9 L5.78225806,0.612903226 C5.85215054,0.333333333 6.13172043,0.158602151 6.41129032,0.228494624 C6.69086022,0.298387097 6.8655914,0.577956989 6.79569892,0.857526882 L4.55913978,9.24462366 C4.52419355,9.52419355 4.27956989,9.66397849 4.06989247,9.66397849 L4.06989247,9.66397849 Z" id="Shape"></path>
                    <path d="M7.6344086,9.66397849 C6.58602151,9.66397849 5.71236559,8.86021505 5.71236559,7.84677419 L5.71236559,6.72849462 C5.71236559,5.75 6.58602151,4.91129032 7.6344086,4.91129032 C8.6827957,4.91129032 9.55645161,5.71505376 9.55645161,6.72849462 L9.55645161,7.84677419 C9.55645161,8.86021505 8.6827957,9.66397849 7.6344086,9.66397849 L7.6344086,9.66397849 Z M7.6344086,5.99462366 C7.14516129,5.99462366 6.76075269,6.34408602 6.76075269,6.76344086 L6.76075269,7.88172043 C6.76075269,8.30107527 7.14516129,8.65053763 7.6344086,8.65053763 C8.12365591,8.65053763 8.50806452,8.30107527 8.50806452,7.88172043 L8.50806452,6.76344086 C8.50806452,6.34408602 8.12365591,5.99462366 7.6344086,5.99462366 L7.6344086,5.99462366 Z" id="Shape"></path>
                    <path d="M2.74193548,4.94623656 C1.69354839,4.94623656 0.819892473,4.14247312 0.819892473,3.12903226 L0.819892473,2.01075269 C0.819892473,1.03225806 1.69354839,0.193548387 2.74193548,0.193548387 C3.79032258,0.193548387 4.66397849,0.997311828 4.66397849,2.01075269 L4.66397849,3.12903226 C4.66397849,4.14247312 3.79032258,4.94623656 2.74193548,4.94623656 L2.74193548,4.94623656 Z M2.74193548,1.27688172 C2.25268817,1.27688172 1.86827957,1.62634409 1.86827957,2.04569892 L1.86827957,3.16397849 C1.86827957,3.58333333 2.25268817,3.9327957 2.74193548,3.9327957 C3.2311828,3.9327957 3.6155914,3.58333333 3.6155914,3.16397849 L3.6155914,2.04569892 C3.6155914,1.62634409 3.2311828,1.27688172 2.74193548,1.27688172 L2.74193548,1.27688172 Z" id="Shape"></path>
                </g>
                <path d="M10.9451613,4.36129032 C10.8193548,4.36129032 10.6935484,4.31935484 10.5677419,4.23548387 C10.2741935,4.02580645 10.2322581,3.6483871 10.4419355,3.35483871 L11.616129,1.80322581 L9.30967742,2.05483871 L9.18387097,2.05483871 L6.87741935,1.80322581 L8.0516129,3.35483871 C8.26129032,3.6483871 8.21935484,4.02580645 7.92580645,4.23548387 C7.63225806,4.44516129 7.25483871,4.40322581 7.04516129,4.10967742 L4.99032258,1.38387097 C4.82258065,1.17419355 4.82258065,0.922580645 4.9483871,0.712903226 C5.07419355,0.503225806 5.32580645,0.377419355 5.57741935,0.377419355 L9.26774194,0.796774194 L12.9580645,0.377419355 C13.2096774,0.335483871 13.4612903,0.461290323 13.5870968,0.712903226 C13.7129032,0.964516129 13.7129032,1.21612903 13.5451613,1.38387097 L11.4903226,4.10967742 C11.3225806,4.27741935 11.1129032,4.36129032 10.9451613,4.36129032 L10.9451613,4.36129032 Z" id="Shape" sketch:type="MSShapeGroup"></path>
                <path d="M9.22580645,26 C4.9483871,26 0.125806452,26 0.125806452,19.7516129 C0.125806452,13.9225806 4.19354839,5.03225806 9.22580645,5.03225806 C14.2580645,5.03225806 18.3258065,13.9225806 18.3258065,19.7516129 C18.3258065,26 13.5032258,26 9.22580645,26 L9.22580645,26 Z M9.22580645,6.29032258 C7.38064516,6.29032258 5.40967742,8.00967742 3.81612903,10.9451613 C2.3483871,13.6709677 1.42580645,17.1096774 1.42580645,19.7096774 C1.38387097,24.4903226 4.36129032,24.7419355 9.22580645,24.7419355 C14.0903226,24.7419355 17.0677419,24.4903226 17.0677419,19.7516129 C17.0677419,17.1096774 16.1451613,13.6709677 14.6774194,10.9870968 C13.0419355,8.00967742 11.0709677,6.29032258 9.22580645,6.29032258 L9.22580645,6.29032258 Z" id="Shape" sketch:type="MSShapeGroup"></path>
            </g>
        </g>
    </g>
</svg>