<?xml version="1.0" encoding="UTF-8" standalone="no"?>
<svg width="23px" height="26px" viewBox="0 0 23 26" version="1.1" xmlns="http://www.w3.org/2000/svg" xmlns:xlink="http://www.w3.org/1999/xlink">
    <!-- Generator: Sketch 39 (31667) - http://www.bohemiancoding.com/sketch -->
    <title>Shape</title>
    <desc>Created with Sketch.</desc>
    <defs></defs>
    <g id="Page-1" stroke="none" stroke-width="1" fill="none" fill-rule="evenodd">
        <path d="M0,0 L0,1 L0,25 L0,26 L1,26 L17,26 L18,26 L18,25 L18,22 L18,21.03125 L18,20.1875 L16.90625,19.125 L16.0625,18.25 L16,18.25 L16,21.03125 L16,22 L16,24 L2,24 L2,2 L16,2 L16,5.03125 L16,7.8125 L16.90625,6.875 L18,5.8125 L18,3.875 L18,1 L18,0 L17,0 L1,0 L0,0 L0,0 Z M18.34375,8.28125 L16.90625,9.71875 L19.1875,12 L7,12 L7,14 L19.1875,14 L16.90625,16.28125 L18.34375,17.71875 L22.34375,13.71875 L23.03125,13 L22.34375,12.28125 L18.34375,8.28125 L18.34375,8.28125 Z" id="Shape" fill="#000000"></path>
    </g>
</svg>