<?xml version="1.0" encoding="UTF-8" standalone="no"?>
<svg width="16px" height="17px" viewBox="0 0 16 17" version="1.1" xmlns="http://www.w3.org/2000/svg" xmlns:xlink="http://www.w3.org/1999/xlink">
    <!-- Generator: Sketch 39 (31667) - http://www.bohemiancoding.com/sketch -->
    <title>icon_mail_send</title>
    <desc>Created with Sketch.</desc>
    <defs></defs>
    <g id="Настройки" stroke="none" stroke-width="1" fill="none" fill-rule="evenodd">
        <g id="Настройки---реквизиты" transform="translate(-1030.000000, -637.000000)" fill="#000000">
            <g id="Group-12" transform="translate(738.000000, 628.000000)">
                <g id="фильтр-даты" transform="translate(272.000000, 0.000000)">
                    <g id="icon_mail_send" transform="translate(20.000000, 9.000000)">
                        <path d="M8,0.493303571 L7.65384615,0.702008929 L0.269230769,5.55915179 L0,5.74888393 L0,6.07142857 L0,15.7857143 L0,16.3928571 L0.615384615,16.3928571 L15.3846154,16.3928571 L16,16.3928571 L16,15.7857143 L16,6.07142857 L16,5.74888393 L15.7307692,5.55915179 L8.34615385,0.702008929 L8,0.493303571 L8,0.493303571 Z M8,1.95424107 L14.3076923,6.109375 L8.61538462,10.3214286 L8.61538462,6.03348214 L10.0192308,7.41852679 L10.9038462,6.54575893 L8.44230769,4.1171875 L8,3.69977679 L7.55769231,4.1171875 L5.09615385,6.54575893 L5.98076923,7.41852679 L7.38461538,6.03348214 L7.38461538,10.3214286 L1.69230769,6.109375 L8,1.95424107 L8,1.95424107 Z M1.23076923,7.28571429 L7.63461538,12.0290179 L8,12.2946429 L8.36538462,12.0290179 L14.7692308,7.28571429 L14.7692308,15.1785714 L1.23076923,15.1785714 L1.23076923,7.28571429 L1.23076923,7.28571429 Z" id="Shape"></path>
                    </g>
                </g>
            </g>
        </g>
    </g>
</svg>