<?xml version="1.0" encoding="UTF-8" standalone="no"?>
<svg width="24px" height="24px" viewBox="0 0 24 24" version="1.1" xmlns="http://www.w3.org/2000/svg" xmlns:xlink="http://www.w3.org/1999/xlink">
    <!-- Generator: Sketch 39 (31667) - http://www.bohemiancoding.com/sketch -->
    <title>mail</title>
    <desc>Created with Sketch.</desc>
    <defs></defs>
    <g id="Page-1" stroke="none" stroke-width="1" fill="none" fill-rule="evenodd">
        <path d="M12.1875,-1.50990331e-14 C4.8227525,-0.1077768 -1.0853881,6.485994 0.15625,14.03125 C0.9981586,19.151675 5.2050458,23.181379 10.34375,23.875 C13.808627,24.342845 17.04781,23.343076 19.5,21.375 L18.25,19.8125 C16.20419,21.454424 13.512873,22.300405 10.59375,21.90625 C6.338454,21.331871 2.8523414,17.952325 2.15625,13.71875 C1.1078881,7.348006 5.9909975,1.9097768 12.15625,2 C17.411045,2.077063 21.840449,6.43502 22,11.6875 C22.0035,11.80006 22,11.909499 22,12.03125 C21.992,14.234184 20.20805,16.000804 18,16 C16.883008,15.999326 16,15.115742 16,14 L16,13.5 L16,10.5 L16,6 L14,6 L14,6.78125 C13.281448,6.294583 12.427539,6 11.5,6 C9.026562,6 7,8.026562 7,10.5 L7,13.5 C7,15.973438 9.026562,18 11.5,18 C12.847912,18 14.048165,17.385525 14.875,16.4375 C15.60945,17.371627 16.728798,17.999233 18,18 C21.28395,18.0012 23.988022,15.320316 24,12.03125 C24,11.899001 24.0045,11.76844 24,11.625 C23.807551,5.2894804 18.524705,0.0929369 12.1875,-1.50990331e-14 L12.1875,-1.50990331e-14 Z M11.5,8 C12.892562,8 14,9.107438 14,10.5 L14,13.5 C14,14.892562 12.892562,16 11.5,16 C10.107438,16 9,14.892562 9,13.5 L9,10.5 C9,9.107438 10.107438,8 11.5,8 L11.5,8 Z" id="mail" fill="#000000"></path>
    </g>
</svg>