<?xml version="1.0" encoding="UTF-8" standalone="no"?>
<svg width="30px" height="22px" viewBox="0 0 30 22" version="1.1" xmlns="http://www.w3.org/2000/svg" xmlns:xlink="http://www.w3.org/1999/xlink" xmlns:sketch="http://www.bohemiancoding.com/sketch/ns">
    <!-- Generator: Sketch 3.2.2 (9983) - http://www.bohemiancoding.com/sketch -->
    <title>Imported Layers</title>
    <desc>Created with Sketch.</desc>
    <defs></defs>
    <g id="Открытие-счета" stroke="none" stroke-width="1" fill="none" fill-rule="evenodd" sketch:type="MSPage">
        <g id="реквизиты-счета" sketch:type="MSArtboardGroup" transform="translate(-1040.000000, -99.000000)" fill="#8697AB">
            <g id="Imported-Layers" sketch:type="MSLayerGroup" transform="translate(1040.500000, 99.705975)">
                <path d="M2.16075472,15.4484945 L2.16075472,3.85497536 L11.7298868,14.760991 L21.2826415,3.87721438 L21.2826415,10.0126424 L23.2970566,11.4124299 L23.2970566,2.84217094e-14 L0.146339623,2.84217094e-14 L0.146339623,17.8706415 L14.9969057,17.8706415 C15.4486038,17.0045905 15.9975094,16.1830176 16.6457358,15.4484945 L2.16075472,15.4484945 Z M19.6338113,2.42278244 L11.7298868,11.4276796 L3.82807547,2.42278244 L19.6338113,2.42278244 Z" id="Fill-1" sketch:type="MSShapeGroup"></path>
                <path d="M28.9255094,16.2166038 L22.150566,12.3082264 L22.150566,14.5101887 C17.2722264,15.1621132 16.0877736,21.2708679 16.0877736,21.2708679 C16.0877736,21.2708679 17.5279245,18.3916226 22.150566,18.0535094 L22.150566,20.1255094 L28.9255094,16.2166038 Z" id="Fill-2" sketch:type="MSShapeGroup"></path>
            </g>
        </g>
    </g>
</svg>