<?xml version="1.0" encoding="UTF-8" standalone="no"?>
<svg width="40px" height="58px" viewBox="0 0 40 58" version="1.1" xmlns="http://www.w3.org/2000/svg" xmlns:xlink="http://www.w3.org/1999/xlink">
    <!-- Generator: Sketch 3.7.1 (28215) - http://www.bohemiancoding.com/sketch -->
    <title>noun_130308_cc</title>
    <desc>Created with Sketch.</desc>
    <defs></defs>
    <g id="Page-1" stroke="none" stroke-width="1" fill="none" fill-rule="evenodd">
        <g id="noun_130308_cc" fill="#000000">
            <g id="Group">
                <g id="Shape">
                    <path d="M20,11.688 C15.539,11.688 11.91,15.318 11.91,19.778 C11.91,24.239 15.539,27.868 20,27.868 C24.46,27.868 28.089,24.239 28.089,19.778 C28.089,15.318 24.46,11.688 20,11.688 L20,11.688 Z M20,24.502 C17.394,24.502 15.274,22.383 15.274,19.776 C15.274,17.171 17.393,15.05 20,15.05 C22.604,15.05 24.725,17.17 24.725,19.776 C24.725,22.384 22.604,24.502 20,24.502 L20,24.502 Z"></path>
                    <path d="M20,0.05 C9.123,0.05 0.274,8.9 0.274,19.778 C0.274,22.729 0.908,25.567 2.161,28.212 L12.774,53.069 C12.78,53.083 12.788,53.096 12.794,53.112 C13.996,56.053 16.814,57.95 20.001,57.95 C23.218,57.95 26.06,56.02 27.226,53.069 L37.833,28.227 C39.09,25.575 39.729,22.732 39.729,19.778 C39.727,8.9 30.877,0.05 20,0.05 L20,0.05 Z M34.777,26.81 C34.767,26.831 34.756,26.852 34.749,26.873 L24.113,51.791 C23.44,53.488 21.825,54.586 20,54.586 C18.172,54.586 16.557,53.488 15.886,51.789 C15.869,51.746 15.854,51.707 15.832,51.666 L5.264,26.912 C5.25,26.879 5.235,26.843 5.218,26.81 C4.168,24.607 3.636,22.241 3.636,19.778 C3.636,10.755 10.977,3.414 20,3.414 C29.021,3.414 36.361,10.755 36.361,19.778 C36.361,22.24 35.829,24.604 34.777,26.81 L34.777,26.81 Z"></path>
                </g>
            </g>
        </g>
    </g>
</svg>