<?xml version="1.0" encoding="UTF-8" standalone="no"?>
<svg width="39px" height="23px" viewBox="0 0 39 23" version="1.1" xmlns="http://www.w3.org/2000/svg" xmlns:xlink="http://www.w3.org/1999/xlink" xmlns:sketch="http://www.bohemiancoding.com/sketch/ns">
    <!-- Generator: Sketch 3.3.2 (12043) - http://www.bohemiancoding.com/sketch -->
    <title>menu-clients2</title>
    <desc>Created with Sketch.</desc>
    <defs></defs>
    <g id="Меню" stroke="none" stroke-width="1" fill="none" fill-rule="evenodd" sketch:type="MSPage">
        <g id="-13-copy" sketch:type="MSArtboardGroup" transform="translate(-48.000000, -224.000000)" fill="#FFFFFF">
            <g id="Клиенты-+-noun_171295_cc" sketch:type="MSLayerGroup" transform="translate(38.000000, 224.000000)">
                <g id="menu-clients2" transform="translate(10.000000, 0.000000)" sketch:type="MSShapeGroup">
                    <path d="M3.67757838,11.129773 C3.12596757,11.129773 2.60756757,10.9149405 2.21785946,10.5247135 L0.238183784,8.54503784 L8.51494054,0.268281081 L10.5465081,2.29984865 C11.3228108,3.07615135 11.3228108,4.33971892 10.5465081,5.11602162 L5.13781622,10.5252324 C4.74758919,10.9149405 4.22918919,11.129773 3.67757838,11.129773 L3.67757838,11.129773 Z M1.70568649,8.54555676 L2.95161081,9.79148108 C3.33872432,10.1791135 4.01539459,10.1791135 4.40406486,9.79148108 L9.81275676,4.38227027 C10.1843027,4.01072432 10.1843027,3.40566486 9.81275676,3.0336 L8.51494054,1.73578378 L1.70568649,8.54555676 L1.70568649,8.54555676 Z" id="Shape"></path>
                    <path d="M5.42316241,9.50594309 L9.01061324,13.0933939 L8.27675811,13.8272491 L4.68930728,10.2397982 L5.42316241,9.50594309 L5.42316241,9.50594309 Z" id="Rectangle-path"></path>
                    <path d="M8.87507027,17.1243243 L8.85223784,17.1243243 C8.4780973,17.1243243 8.1299027,17.0319568 7.87148108,16.7610811 L7.18131892,16.0709189 C6.66551351,15.5307243 6.67537297,14.6781405 7.20363243,14.1498811 L10.3820108,10.9798054 C10.8012973,10.56 11.4836757,10.5641514 11.9034811,10.9829189 L13.0523676,12.1312865 C13.2557838,12.3347027 13.3678703,12.6060973 13.3683892,12.8935784 C13.3683892,13.1815784 13.2563027,13.4524541 13.0528865,13.6558703 L12.3248432,14.3844324 L11.5910919,13.6506811 L12.3191351,12.9226378 C12.3321081,12.9096649 12.3321081,12.8806054 12.3191351,12.8681514 L11.1707676,11.7223784 C11.1557189,11.7073297 11.1313297,11.7073297 11.1162811,11.7223784 L7.9379027,14.9007568 C7.80505946,15.0336 7.80246486,15.2520649 7.93219459,15.3875027 L8.62235676,16.1103568 C8.68722162,16.1783351 8.77491892,16.2167351 8.86884324,16.2182919 C8.97522162,16.2162162 9.05202162,16.1845622 9.11844324,16.1186595 L9.42875676,15.8140541 L10.1557622,16.5545514 L9.84544865,16.7932541 C9.58443243,17.0496 9.24038919,17.1243243 8.87507027,17.1243243 L8.87507027,17.1243243 Z" id="Shape"></path>
                    <path d="M11.2532757,18.6810811 L11.2366703,18.6810811 C10.8604541,18.6810811 10.5101838,18.553427 10.2502054,18.2809946 L9.56523243,17.5778595 C9.04942703,17.0376649 9.05980541,16.1757405 9.58806486,15.6474811 L12.7581405,12.4810378 C12.9636324,12.2745081 13.2500757,12.1593081 13.529773,12.1676108 C13.8214054,12.1702054 14.0933189,12.2890378 14.2956973,12.4992 L15.4051459,13.6537946 C15.8088649,14.0730811 15.8021189,14.7497514 15.3906162,15.1612541 L14.886227,15.6656432 L14.1524757,14.9318919 L14.6568649,14.4275027 C14.6713946,14.412973 14.6719135,14.2656 14.6573838,14.2505514 L13.5463784,12.972973 L13.491373,12.972973 L10.3212973,16.2660324 C10.1884541,16.3988757 10.1858595,16.678573 10.3155892,16.8145297 L11.0005622,17.5628108 C11.065427,17.6313081 11.1536432,17.6847568 11.2486054,17.6863135 C11.3331892,17.6806054 11.4323027,17.6582919 11.4987243,17.5918703 L11.9014054,17.1933405 L12.6351568,17.9296865 L12.2324757,18.3043459 C11.9704216,18.5648432 11.6227459,18.6810811 11.2532757,18.6810811 L11.2532757,18.6810811 Z" id="Shape"></path>
                    <path d="M13.5287351,20.3395459 C13.1623784,20.3395459 12.7970595,20.1963243 12.5256649,19.9119568 L11.8230486,19.1761297 C11.3067243,18.6354162 11.3171027,17.7667459 11.8453622,17.2384865 L15.0232216,14.060627 C15.443027,13.6408216 16.1259243,13.6408216 16.5457297,14.060627 L17.7122595,15.2276757 C18.1315459,15.6469622 18.1315459,16.3298595 17.7122595,16.7496649 L16.620973,17.8404324 L15.8872216,17.1066811 L16.9779892,16.0159135 C16.9930378,16.0008649 16.9930378,15.9764757 16.9779892,15.961427 L15.8114595,14.7943784 C15.7969297,14.7793297 15.7720216,14.7793297 15.756973,14.7943784 L12.5791135,17.9722378 C12.4462703,18.1050811 12.4441946,18.3235459 12.5734054,18.4589838 L13.2760216,19.1948108 C13.4083459,19.3333622 13.6283676,19.3385514 13.7669189,19.2077838 L14.0793081,18.9135568 L14.7912649,19.6685838 L14.4788757,19.9628108 C14.2121514,20.2150054 13.8701838,20.3395459 13.5287351,20.3395459 L13.5287351,20.3395459 Z" id="Shape"></path>
                    <path d="M15.8301405,21.7219459 L15.8301405,21.7219459 C15.4513297,21.7219459 15.0979459,21.5719784 14.8343351,21.3005838 L14.2380973,20.684627 C13.7145081,20.1439135 13.721773,19.2716108 14.2536649,18.7397189 L17.3495351,15.6443676 C17.7542919,15.2390919 18.4595027,15.2370162 18.867373,15.6396973 L19.8839351,16.6453622 C20.3037405,17.0610162 20.3094486,17.7418378 19.8958703,18.1637189 L16.8202378,21.305773 C16.5576649,21.5740541 16.2058378,21.7219459 15.8301405,21.7219459 L15.8301405,21.7219459 Z M18.137773,16.6054054 L18.0832865,16.6054054 L14.9874162,19.5876324 C14.8535351,19.7215135 14.8519784,19.8839351 14.9837838,20.0198919 L15.5800216,20.6067892 C15.711827,20.7432649 15.9468973,20.729773 16.0792216,20.5938162 L19.1548541,17.4450162 C19.1693838,17.4299676 19.1693838,17.5155892 19.1543351,17.5005405 L18.137773,16.6054054 L18.137773,16.6054054 Z" id="Shape"></path>
                    <path d="M12.6844541,7.2 L10.0239568,4.96916757 L10.6907676,4.17418378 L12.9838703,6.09677838 L17.465773,5.3376 L17.6390919,6.36038919 L12.6844541,7.2 Z" id="Shape"></path>
                    <path d="M34.937773,11.0425946 C34.4058811,11.0425946 33.9061622,10.8355459 33.5299459,10.4588108 L28.3044324,5.23381622 C27.5281297,4.45751351 27.5281297,3.19394595 28.3044324,2.41764324 L30.336,0.386075676 L38.3771676,8.42776216 L36.3456,10.4593297 C35.9693838,10.8355459 35.4696649,11.0425946 34.937773,11.0425946 L34.937773,11.0425946 Z M30.336,1.8540973 L29.0381838,3.15191351 C28.6666378,3.52345946 28.6666378,4.12851892 29.0381838,4.50058378 L34.2631784,9.72557838 C34.6233081,10.0857081 35.2512,10.0857081 35.6118486,9.72557838 L36.9096649,8.42828108 L30.336,1.8540973 L30.336,1.8540973 Z" id="Shape"></path>
                    <path d="M18.0625297,22.6975135 C17.7916541,22.6975135 17.5202595,22.5926919 17.3116541,22.3840865 L16.1591351,21.2315676 L16.8928865,20.4978162 L18.0454054,21.6503351 L19.1724973,20.6140541 C19.5938595,20.2155243 20.2440649,20.2248649 20.6534919,20.6342919 L20.9202162,20.9010162 L22.0841514,19.6779243 C22.2792649,19.4667243 22.5563676,19.3421838 22.8438486,19.3364757 C23.1209514,19.3203892 23.4120649,19.4444108 23.6154811,19.647827 L23.7031784,19.7355243 L24.7835676,18.7018378 C25.1981838,18.2924108 25.8696649,18.2944865 26.2811676,18.7059892 L27.8649081,17.2234378 L19.6618378,8.98041081 L16.1181405,12.5235892 L13.1167135,9.61816216 L18.6634378,4.15135135 L20.4184216,4.15135135 L25.721773,6.12947027 L28.0454919,4.20791351 L28.7065946,5.00756757 L25.9205189,7.31156757 L20.230573,5.18918919 L19.0889514,5.18918919 L14.6023784,9.61141622 L16.1067243,11.0675027 L19.6628757,7.51135135 L28.6002162,16.4549189 C28.8036324,16.6588541 28.9141622,16.9297297 28.9110486,17.2177297 C28.9079351,17.5057297 28.7911784,17.7740108 28.5830919,17.9727568 L27.0330811,19.455827 C26.6189838,19.8512432 25.9532108,19.8444973 25.5484541,19.4392216 L24.4685838,20.473427 C24.0550054,20.883373 23.3835243,20.8818162 22.9709838,20.4687568 L22.8832865,20.3810595 L21.7193514,21.6036324 C21.5242378,21.8148324 21.2471351,21.939373 20.9596541,21.9450811 C20.6773622,21.9564973 20.3914378,21.8371459 20.1880216,21.6337297 L19.9212973,21.3675243 L18.7936865,22.4038054 C18.5866378,22.5999568 18.3240649,22.6975135 18.0625297,22.6975135 L18.0625297,22.6975135 Z" id="Shape"></path>
                    <path d="M33.9057647,10.0857701 L34.6211463,10.8376836 L28.2704848,16.8797968 L27.5551032,16.1278833 L33.9057647,10.0857701 L33.9057647,10.0857701 Z" id="Rectangle-path"></path>
                    <path d="M23.1030815,15.5269828 L26.2814081,18.7053094 L25.547553,19.4391645 L22.3692264,16.260838 L23.1030815,15.5269828 L23.1030815,15.5269828 Z" id="Rectangle-path"></path>
                    <path d="M21.4472252,17.5250985 L23.4656938,19.5435671 L22.7318387,20.2774222 L20.7133701,18.2589537 L21.4472252,17.5250985 L21.4472252,17.5250985 Z" id="Rectangle-path"></path>
                    <path d="M18.6865792,18.6661156 L20.6540448,20.6335812 L19.9201897,21.3674364 L17.952724,19.3999708 L18.6865792,18.6661156 L18.6865792,18.6661156 Z" id="Rectangle-path"></path>
                </g>
            </g>
        </g>
    </g>
</svg>