<?xml version="1.0" encoding="UTF-8" standalone="no"?>
<svg width="26px" height="26px" viewBox="0 0 26 26" version="1.1" xmlns="http://www.w3.org/2000/svg" xmlns:xlink="http://www.w3.org/1999/xlink" xmlns:sketch="http://www.bohemiancoding.com/sketch/ns">
    <!-- Generator: Sketch 3.4.4 (17249) - http://www.bohemiancoding.com/sketch -->
    <title>kassa</title>
    <desc>Created with Sketch.</desc>
    <defs></defs>
    <g id="Кассы" stroke="none" stroke-width="1" fill="none" fill-rule="evenodd" sketch:type="MSPage">
        <g sketch:type="MSArtboardGroup" transform="translate(-41.000000, -397.000000)" id="aside" fill="#FFFFFF">
            <g sketch:type="MSLayerGroup">
                <g id="kassa" transform="translate(41.000000, 396.750000)" sketch:type="MSShapeGroup">
                    <path d="M14.40625,0.5 C14.167209,0.545610772 13.9957118,0.75668426 14,1 L14,5 C14.0000276,5.27613094 14.2238691,5.49997239 14.5,5.5 L16,5.5 L16,6 L12.5,6 L12.5,3.5 C12.4999724,3.22386906 12.2761309,3.00002761 12,3 L9.59375,3 L5.5,3 C5.48438359,2.99926725 5.46874141,2.99926725 5.453125,3 C5.43750859,2.99926725 5.42186641,2.99926725 5.40625,3 C5.16720901,3.04561077 4.9957118,3.25668426 5,3.5 L5,6 L4.09375,6 C3.63660715,6 3.20577705,6.1757715 2.90625,6.484375 C2.60672295,6.7929785 2.4460814,7.193816 2.359375,7.65625 C2.35929362,7.66145802 2.35929362,7.66666698 2.359375,7.671875 L0.5,19.921875 C0.499674432,19.9322891 0.499674432,19.9427109 0.5,19.953125 C0.499919591,19.958333 0.499919591,19.963542 0.5,19.96875 C0.499674432,19.9791641 0.499674432,19.9895859 0.5,20 C0.497986881,20.0260028 0.497986881,20.0521222 0.5,20.078125 L0.5,23.75 C0.5,24.711905 1.28809525,25.5 2.25,25.5 L23.796875,25.5 C24.75878,25.5 25.546875,24.711905 25.546875,23.75 L25.546875,20 C25.5435082,19.9112055 25.5165415,19.8249118 25.46875,19.75 L23.640625,7.671875 C23.6407064,7.66666698 23.6407064,7.66145802 23.640625,7.65625 C23.5539185,7.193816 23.393277,6.7929785 23.09375,6.484375 C22.794223,6.1757715 22.363393,6 21.90625,6 L20,6 L20,5.5 L21.5,5.5 C21.7761309,5.49997239 21.9999724,5.27613094 22,5 L22,1 C21.9999724,0.723869062 21.7761309,0.500027609 21.5,0.5 L17.796875,0.5 L14.5,0.5 C14.4843836,0.499267249 14.4687414,0.499267249 14.453125,0.5 C14.4375086,0.499267249 14.4218664,0.499267249 14.40625,0.5 L14.40625,0.5 Z M15,1.5 L17.796875,1.5 L21,1.5 L21,4.5 L19.65625,4.5 L19.609375,4.5 C19.5584396,4.48659534 19.5057062,4.48132201 19.453125,4.484375 C19.4372521,4.48880772 19.421608,4.49402241 19.40625,4.5 L19.390625,4.5 L16.609375,4.5 C16.5584396,4.48659534 16.5057062,4.48132201 16.453125,4.484375 C16.4372521,4.48880772 16.421608,4.49402241 16.40625,4.5 L15,4.5 L15,1.5 L15,1.5 Z M6,4 L9.59375,4 L11.5,4 L11.5,6.421875 C11.4992672,6.43749141 11.4992672,6.45313359 11.5,6.46875 L11.5,12 L6,12 L6,6.5 C6.00073275,6.48438359 6.00073275,6.46874141 6,6.453125 L6,4 L6,4 Z M7,5.5 L7,6.5 L10.5,6.5 L10.5,5.5 L7,5.5 L7,5.5 Z M17,5.5 L19,5.5 L19,6 L17,6 L17,5.5 L17,5.5 Z M4.09375,7 L5,7 L5,12.5 C5.00002761,12.7761309 5.22386906,12.9999724 5.5,13 L12,13 C12.0473786,13.0014832 12.0947275,12.9962222 12.140625,12.984375 C12.1734308,12.9720774 12.2048534,12.9563661 12.234375,12.9375 C12.3964961,12.8514643 12.4984567,12.6835294 12.5,12.5 L12.5,7 L19.40625,7 L19.609375,7 L21.90625,7 C22.149107,7 22.262027,7.0554785 22.375,7.171875 C22.4857375,7.285968 22.59242,7.5019865 22.65625,7.828125 L22.65625,7.84375 L24.40625,19.5 L1.59375,19.5 L3.34375,7.84375 L3.34375,7.828125 C3.4075801,7.5019865 3.51426255,7.285968 3.625,7.171875 C3.73797295,7.0554785 3.85089285,7 4.09375,7 L4.09375,7 Z M7,7.5 L7,8.5 L10.5,8.5 L10.5,7.5 L7,7.5 L7,7.5 Z M15.046875,8 C14.469097,8 14,8.469097 14,9.046875 L14,10.90625 C14,11.5419645 14.515972,12 15.09375,12 L21.046875,12 C21.335764,12 21.6227625,11.8866455 21.8125,11.65625 C21.9887815,11.442194 22.030699,11.1209075 21.96875,10.828125 L22,10.828125 L21.984375,10.765625 L21.75,9.046875 L21.75,8.984375 L21.71875,8.984375 C21.677632,8.3952815 21.209835,8 20.65625,8 L15.046875,8 L15.046875,8 Z M15.046875,9 L20.65625,9 C20.67847,9 20.75,9.0802085 20.75,9.046875 C20.7486968,9.06768795 20.7486968,9.08856205 20.75,9.109375 L21,10.96875 C21.0048427,10.9793455 21.0100542,10.9897685 21.015625,11 L15.09375,11 C15.071528,11 15,10.9705355 15,10.90625 L15,9.046875 C15,9.024653 15.024653,9 15.046875,9 L15.046875,9 Z M7,9.5 L7,10.5 L10.5,10.5 L10.5,9.5 L7,9.5 L7,9.5 Z M14.5,13.046875 C14.25,13.046875 14.046875,13.25 14.046875,13.5 L14.046875,14.546875 C14.046875,14.796875 14.25,15 14.5,15 L15.546875,15 C15.796875,15 16,14.796875 16,14.546875 L16,13.5 C16,13.25 15.796875,13.046875 15.546875,13.046875 L14.5,13.046875 L14.5,13.046875 Z M17.5,13.046875 C17.25,13.046875 17.046875,13.25 17.046875,13.5 L17.046875,14.546875 C17.046875,14.796875 17.25,15 17.5,15 L18.546875,15 C18.796875,15 19,14.796875 19,14.546875 L19,13.5 C19,13.25 18.796875,13.046875 18.546875,13.046875 L17.5,13.046875 L17.5,13.046875 Z M20.5,13.046875 C20.25,13.046875 20.046875,13.25 20.046875,13.5 L20.046875,14.546875 C20.046875,14.796875 20.25,15 20.5,15 L21.546875,15 C21.796875,15 22,14.796875 22,14.546875 L22,13.5 C22,13.25 21.796875,13.046875 21.546875,13.046875 L20.5,13.046875 L20.5,13.046875 Z M14.5,16.046875 C14.25,16.046875 14.046875,16.25 14.046875,16.5 L14.046875,17.546875 C14.046875,17.796875 14.25,18 14.5,18 L15.546875,18 C15.796875,18 16,17.796875 16,17.546875 L16,16.5 C16,16.25 15.796875,16.046875 15.546875,16.046875 L14.5,16.046875 L14.5,16.046875 Z M17.5,16.046875 C17.25,16.046875 17.046875,16.25 17.046875,16.5 L17.046875,17.546875 C17.046875,17.796875 17.25,18 17.5,18 L18.546875,18 C18.796875,18 19,17.796875 19,17.546875 L19,16.5 C19,16.25 18.796875,16.046875 18.546875,16.046875 L17.5,16.046875 L17.5,16.046875 Z M20.5,16.046875 C20.25,16.046875 20.046875,16.25 20.046875,16.5 L20.046875,17.546875 C20.046875,17.796875 20.25,18 20.5,18 L21.546875,18 C21.796875,18 22,17.796875 22,17.546875 L22,16.5 C22,16.25 21.796875,16.046875 21.546875,16.046875 L20.5,16.046875 L20.5,16.046875 Z M1.5,20.5 L24.546875,20.5 L24.546875,23.75 C24.546875,24.188095 24.23497,24.5 23.796875,24.5 L2.25,24.5 C1.81190475,24.5 1.5,24.188095 1.5,23.75 L1.5,20.5 L1.5,20.5 Z M13,21.5 C12.4477155,21.5 12,21.9477155 12,22.5 C12,23.0522845 12.4477155,23.5 13,23.5 C13.5522845,23.5 14,23.0522845 14,22.5 C14,21.9477155 13.5522845,21.5 13,21.5 L13,21.5 Z" id="Shape"></path>
                </g>
            </g>
        </g>
    </g>
</svg>