<?xml version="1.0" encoding="UTF-8" standalone="no"?>
<svg width="25px" height="24px" viewBox="0 0 25 24" version="1.1" xmlns="http://www.w3.org/2000/svg" xmlns:xlink="http://www.w3.org/1999/xlink" xmlns:sketch="http://www.bohemiancoding.com/sketch/ns">
    <!-- Generator: Sketch 3.4.4 (17249) - http://www.bohemiancoding.com/sketch -->
    <title>menu-transaction</title>
    <desc>Created with Sketch.</desc>
    <defs></defs>
    <g id="Кассы" stroke="none" stroke-width="1" fill="none" fill-rule="evenodd" sketch:type="MSPage">
        <g sketch:type="MSArtboardGroup" transform="translate(-43.000000, -143.000000)" id="aside" fill="#FFFFFF">
            <g sketch:type="MSLayerGroup">
                <g id="Счета-и--+-transition-2" transform="translate(23.000000, 137.000000)" sketch:type="MSShapeGroup">
                    <g id="menu-transaction" transform="translate(14.000000, 0.000000)">
                        <g id="transition-2-copy-3" transform="translate(6.000000, 6.000000)">
                            <path d="M13.2176525,12.9022815 C14.0981438,12.9022815 14.760757,12.6565926 15.205384,12.1653333 C15.6496865,11.673837 15.872,10.985837 15.872,10.1002667 C15.872,9.21517037 15.6496865,8.5266963 15.2052759,8.03555556 C14.760757,7.54417778 14.0980356,7.29837037 13.2175443,7.29837037 L9.89723001,7.29837037 L9.89723001,11.84 L8.76088889,11.84 L8.76088889,12.9022815 L9.89723001,12.9022815 L9.89723001,13.9149037 L8.76088889,13.9149037 L8.76088889,14.9770667 L9.89723001,14.9770667 L9.89723001,16.7798519 L11.0487166,16.7798519 L11.0487166,14.9770667 L14.1585092,14.9770667 L14.1585092,13.9149037 L11.0487166,13.9149037 L11.0487166,12.9022815 L13.2176525,12.9022815 L13.2176525,12.9022815 Z M11.0487166,8.36088889 L12.8296046,8.36088889 C13.4841042,8.36088889 13.9630248,8.50915556 14.2659337,8.80580741 C14.5691672,9.10245926 14.7206216,9.5341037 14.7206216,10.1002667 C14.7206216,10.6670222 14.5691672,11.0986667 14.2659337,11.3950815 C13.9630248,11.6917333 13.4841042,11.84 12.8296046,11.84 L11.0487166,11.84 L11.0487166,8.36088889 L11.0487166,8.36088889 Z" id="Shape"></path>
                        </g>
                        <path d="M7.32659726,17.9367703 C7.32659726,24.0127029 12.2521138,28.9382195 18.3280464,28.9382195 C22.5688704,28.9382195 26.3747709,26.5173139 28.2103225,22.7771467 C28.3218591,22.5498769 28.5965158,22.4560565 28.8237855,22.5675929 C29.0510553,22.6791293 29.1448756,22.9537859 29.033339,23.1810557 C27.0451463,27.2322486 22.9219143,29.8550069 18.3280464,29.8550069 C11.7457861,29.8550069 6.40980983,24.5190309 6.40980983,17.9367703 L5.03554767,17.9367703 C4.62716251,17.9367703 4.42264245,17.4430152 4.71141436,17.1542437 L6.54498922,15.3206688 C6.72400305,15.1416542 7.01424191,15.1416542 7.19325584,15.3206688 L9.0268307,17.1542437 C9.3156026,17.4430152 9.11108255,17.9367703 8.70269739,17.9367703 L7.32659726,17.9367703 L7.32659726,17.9367703 Z M18.3280464,6.93532118 C14.0872225,6.93532118 10.2813219,9.35622683 8.44577028,13.0963943 C8.33423374,13.323664 8.05957697,13.4174841 7.83230729,13.3059478 C7.60503752,13.1944112 7.51121725,12.9197544 7.62275379,12.6924847 C9.6109465,8.64129161 13.7341785,6.01853375 18.3280464,6.01853375 C24.9103067,6.01853375 30.246283,11.3545101 30.246283,17.9367703 L31.6223831,17.9367703 C32.0307683,17.9367703 32.2352883,18.4305255 31.9465164,18.719297 L30.1129416,20.5528719 C29.9339276,20.7318865 29.6436888,20.7318865 29.4646749,20.5528719 L27.6311001,18.719297 C27.3423282,18.4305255 27.5468482,17.9367703 27.9552334,17.9367703 L29.3294956,17.9367703 C29.3294956,11.8608377 24.403979,6.93532118 18.3280464,6.93532118 Z" id="Shape" transform="translate(18.328965, 17.936770) rotate(30.000000) translate(-18.328965, -17.936770) "></path>
                    </g>
                </g>
            </g>
        </g>
    </g>
</svg>