<?xml version="1.0" encoding="UTF-8" standalone="no"?>
<svg width="31px" height="22px" viewBox="0 0 31 22" version="1.1" xmlns="http://www.w3.org/2000/svg" xmlns:xlink="http://www.w3.org/1999/xlink" xmlns:sketch="http://www.bohemiancoding.com/sketch/ns">
    <!-- Generator: Sketch 3.4.4 (17249) - http://www.bohemiancoding.com/sketch -->
    <title>menu-dashboard</title>
    <desc>Created with Sketch.</desc>
    <defs></defs>
    <g id="Кассы" stroke="none" stroke-width="1" fill="none" fill-rule="evenodd" sketch:type="MSPage">
        <g sketch:type="MSArtboardGroup" transform="translate(-41.000000, -69.000000)" id="aside" fill="#FFFFFF">
            <g sketch:type="MSLayerGroup">
                <g id="dashboard-2-copy-3" transform="translate(29.000000, 67.000000)" sketch:type="MSShapeGroup">
                    <g id="menu-dashboard" transform="translate(12.500000, 2.090909)">
                        <rect id="Rectangle-path" transform="translate(22.579647, 9.290204) rotate(36.021897) translate(-22.579647, -9.290204) " x="22.0341875" y="4.92652571" width="1.09091948" height="8.72735585"></rect>
                        <rect id="Rectangle-path" transform="translate(13.847247, 11.997753) rotate(40.595701) translate(-13.847247, -11.997753) " x="11.7745749" y="11.4523126" width="4.14534465" height="1.09088017"></rect>
                        <rect id="Rectangle-path" transform="translate(6.807355, 13.641327) rotate(37.560907) translate(-6.807355, -13.641327) " x="6.26190397" y="10.532259" width="1.09090115" height="6.21813658"></rect>
                        <path d="M26.7272727,6.81818182 C24.9272727,6.81818182 23.4545455,5.34545455 23.4545455,3.54545455 C23.4545455,1.74545455 24.9272727,0.272727273 26.7272727,0.272727273 C28.5272727,0.272727273 30,1.74545455 30,3.54545455 C30,5.34545455 28.5272727,6.81818182 26.7272727,6.81818182 L26.7272727,6.81818182 Z M26.7272727,1.36363636 C25.5272727,1.36363636 24.5454545,2.34545455 24.5454545,3.54545455 C24.5454545,4.74545455 25.5272727,5.72727273 26.7272727,5.72727273 C27.9272727,5.72727273 28.9090909,4.74545455 28.9090909,3.54545455 C28.9090909,2.34545455 27.9272727,1.36363636 26.7272727,1.36363636 L26.7272727,1.36363636 Z" id="Shape"></path>
                        <path d="M18,18.2727273 C16.2,18.2727273 14.7272727,16.8 14.7272727,15 C14.7272727,13.2 16.2,11.7272727 18,11.7272727 C19.8,11.7272727 21.2727273,13.2 21.2727273,15 C21.2727273,16.8 19.8,18.2727273 18,18.2727273 L18,18.2727273 Z M18,12.8181818 C16.8,12.8181818 15.8181818,13.8 15.8181818,15 C15.8181818,16.2 16.8,17.1818182 18,17.1818182 C19.2,17.1818182 20.1818182,16.2 20.1818182,15 C20.1818182,13.8 19.2,12.8181818 18,12.8181818 L18,12.8181818 Z" id="Shape"></path>
                        <path d="M10.3636364,12.2727273 C8.56363636,12.2727273 7.09090909,10.8 7.09090909,9 C7.09090909,7.2 8.56363636,5.72727273 10.3636364,5.72727273 C12.1636364,5.72727273 13.6363636,7.2 13.6363636,9 C13.6363636,10.8 12.1636364,12.2727273 10.3636364,12.2727273 L10.3636364,12.2727273 Z M10.3636364,6.81818182 C9.16363636,6.81818182 8.18181818,7.8 8.18181818,9 C8.18181818,10.2 9.16363636,11.1818182 10.3636364,11.1818182 C11.5636364,11.1818182 12.5454545,10.2 12.5454545,9 C12.5454545,7.8 11.5636364,6.81818182 10.3636364,6.81818182 L10.3636364,6.81818182 Z" id="Shape"></path>
                        <path d="M3.27272727,21.5454545 C1.47272727,21.5454545 0,20.0727273 0,18.2727273 C0,16.4727273 1.47272727,15 3.27272727,15 C5.07272727,15 6.54545455,16.4727273 6.54545455,18.2727273 C6.54545455,20.0727273 5.07272727,21.5454545 3.27272727,21.5454545 L3.27272727,21.5454545 Z M3.27272727,16.0909091 C2.07272727,16.0909091 1.09090909,17.0727273 1.09090909,18.2727273 C1.09090909,19.4727273 2.07272727,20.4545455 3.27272727,20.4545455 C4.47272727,20.4545455 5.45454545,19.4727273 5.45454545,18.2727273 C5.45454545,17.0727273 4.47272727,16.0909091 3.27272727,16.0909091 L3.27272727,16.0909091 Z" id="Shape"></path>
                    </g>
                </g>
            </g>
        </g>
    </g>
</svg>