<?xml version="1.0" encoding="UTF-8" standalone="no"?>
<svg width="20px" height="22px" viewBox="0 0 20 22" version="1.1" xmlns="http://www.w3.org/2000/svg" xmlns:xlink="http://www.w3.org/1999/xlink">
    <!-- Generator: Sketch 39 (31667) - http://www.bohemiancoding.com/sketch -->
    <title>Shape</title>
    <desc>Created with Sketch.</desc>
    <defs></defs>
    <g id="Page-1" stroke="none" stroke-width="1" fill="none" fill-rule="evenodd">
        <path d="M10,0 C6.145852,0 3,3.1458513 3,7 C3,9.408843 4.23116,11.55212 6.09375,12.8125 C2.5266131,14.342333 0,17.881262 0,22 L2,22 C2,19.109626 3.5263067,16.592958 5.8125,15.1875 C6.483006,16.834363 8.120749,18 10,18 C11.879251,18 13.516994,16.834363 14.1875,15.1875 C16.473693,16.592958 18,19.109626 18,22 L20,22 C20,17.881262 17.473387,14.342333 13.90625,12.8125 C15.76884,11.55212 17,9.408843 17,7 C17,3.1458513 13.854148,0 10,0 L10,0 Z M10,2 C12.773268,2 15,4.2267317 15,7 C15,9.773268 12.773268,12 10,12 C7.226732,12 5,9.773268 5,7 C5,4.2267317 7.226732,2 10,2 L10,2 Z M10,14 C10.81989,14 11.600009,14.116459 12.34375,14.34375 C11.997935,15.307297 11.090648,16 10,16 C8.909352,16 8.002065,15.307297 7.65625,14.34375 C8.399991,14.116459 9.18011,14 10,14 L10,14 Z" id="Shape" fill="#000000"></path>
    </g>
</svg>