<?xml version="1.0" encoding="UTF-8" standalone="no"?>
<svg width="26px" height="22px" viewBox="0 0 26 22" version="1.1" xmlns="http://www.w3.org/2000/svg" xmlns:xlink="http://www.w3.org/1999/xlink">
    <!-- Generator: Sketch 39 (31667) - http://www.bohemiancoding.com/sketch -->
    <title>Shape</title>
    <desc>Created with Sketch.</desc>
    <defs></defs>
    <g id="Page-1" stroke="none" stroke-width="1" fill="none" fill-rule="evenodd">
        <path d="M0,0 L0,1 L0,18 C0,20.209804 1.7901961,22 4,22 L22,22 C24.209804,22 26,20.209804 26,18 L26,8 L26,7 L25,7 L20,7 L20,1 L20,0 L19,0 L1,0 L0,0 L0,0 Z M2,2 L18,2 L18,7 L18,8 L18,18 C18,18.73015 18.221057,19.41091 18.5625,20 L4,20 C2.8098039,20 2,19.190196 2,18 L2,2 L2,2 Z M4,4 L4,5 L4,8 L4,9 L5,9 L15,9 L16,9 L16,8 L16,5 L16,4 L15,4 L5,4 L4,4 L4,4 Z M6,6 L14,6 L14,7 L6,7 L6,6 L6,6 Z M20,9 L24,9 L24,18 C24,19.190196 23.190196,20 22,20 C20.809804,20 20,19.190196 20,18 L20,9 L20,9 Z M4,10 L4,12 L9,12 L9,10 L4,10 L4,10 Z M11,10 L11,12 L16,12 L16,10 L11,10 L11,10 Z M4,13 L4,15 L9,15 L9,13 L4,13 L4,13 Z M11,13 L11,15 L16,15 L16,13 L11,13 L11,13 Z M4,16 L4,18 L9,18 L9,16 L4,16 L4,16 Z M11,16 L11,18 L16,18 L16,16 L11,16 L11,16 Z" id="Shape" fill="#000000"></path>
    </g>
</svg>