<?xml version="1.0" encoding="UTF-8" standalone="no"?>
<svg width="17px" height="20px" viewBox="0 0 17 20" version="1.1" xmlns="http://www.w3.org/2000/svg" xmlns:xlink="http://www.w3.org/1999/xlink">
    <!-- Generator: Sketch 39 (31667) - http://www.bohemiancoding.com/sketch -->
    <title>icon_bill</title>
    <desc>Created with Sketch.</desc>
    <defs></defs>
    <g id="Главная" stroke="none" stroke-width="1" fill="none" fill-rule="evenodd">
        <g id="Деньги---фильтры" transform="translate(-1067.000000, -98.000000)" fill="#FFFFFF">
            <g id="выписка" transform="translate(1040.000000, 85.000000)">
                <g id="icon_bill" transform="translate(27.000000, 13.000000)">
                    <path d="M0,0 L0,0.833333333 L0,19.1666667 L0,20 L0.833333333,20 L15.8333333,20 L16.6666667,20 L16.6666667,19.1666667 L16.6666667,0.833333333 L16.6666667,0 L15.8333333,0 L0.833333333,0 L0,0 L0,0 Z M1.66666667,1.66666667 L15,1.66666667 L15,18.3333333 L1.66666667,18.3333333 L1.66666667,1.66666667 L1.66666667,1.66666667 Z M3.33333333,5 L3.33333333,6.66666667 L13.3333333,6.66666667 L13.3333333,5 L3.33333333,5 L3.33333333,5 Z M3.33333333,10 L3.33333333,11.6666667 L9.16666667,11.6666667 L9.16666667,10 L3.33333333,10 L3.33333333,10 Z M10.8333333,10 L10.8333333,11.6666667 L13.3333333,11.6666667 L13.3333333,10 L10.8333333,10 L10.8333333,10 Z M3.33333333,13.3333333 L3.33333333,15 L9.16666667,15 L9.16666667,13.3333333 L3.33333333,13.3333333 L3.33333333,13.3333333 Z M10.8333333,13.3333333 L10.8333333,15 L13.3333333,15 L13.3333333,13.3333333 L10.8333333,13.3333333 L10.8333333,13.3333333 Z" id="Shape"></path>
                </g>
            </g>
        </g>
    </g>
</svg>