<?xml version="1.0" encoding="UTF-8" standalone="no"?>
<svg width="20px" height="26px" viewBox="0 0 20 26" version="1.1" xmlns="http://www.w3.org/2000/svg" xmlns:xlink="http://www.w3.org/1999/xlink">
    <!-- Generator: Sketch 39 (31667) - http://www.bohemiancoding.com/sketch -->
    <title>icon_password</title>
    <desc>Created with Sketch.</desc>
    <defs></defs>
    <g id="Page-1" stroke="none" stroke-width="1" fill="none" fill-rule="evenodd">
        <g id="icon_password" fill="#000000">
            <path d="M10,0 C6.145666,0 3,3.1456661 3,7 L3,10 L1,10 L0,10 L0,11 L0,25 L0,26 L1,26 L19,26 L20,26 L20,25 L20,11 L20,10 L19,10 L17,10 L17,7 C17,3.1456661 13.854334,0 10,0 L10,0 Z M10,2 C12.773666,2 15,4.2263339 15,7 L15,10 L5,10 L5,7 C5,4.2263339 7.226334,2 10,2 L10,2 Z M2,12 L18,12 L18,24 L2,24 L2,12 L2,12 Z M6,17 C5.447715,17 5,17.447715 5,18 C5,18.552285 5.447715,19 6,19 C6.552285,19 7,18.552285 7,18 C7,17.447715 6.552285,17 6,17 L6,17 Z M10,17 C9.447715,17 9,17.447715 9,18 C9,18.552285 9.447715,19 10,19 C10.552285,19 11,18.552285 11,18 C11,17.447715 10.552285,17 10,17 L10,17 Z M14,17 C13.447715,17 13,17.447715 13,18 C13,18.552285 13.447715,19 14,19 C14.552285,19 15,18.552285 15,18 C15,17.447715 14.552285,17 14,17 L14,17 Z" id="Shape"></path>
        </g>
    </g>
</svg>