<?xml version="1.0" encoding="UTF-8" standalone="no"?>
<svg width="16px" height="11px" viewBox="0 0 16 11" version="1.1" xmlns="http://www.w3.org/2000/svg" xmlns:xlink="http://www.w3.org/1999/xlink" xmlns:sketch="http://www.bohemiancoding.com/sketch/ns">
    <!-- Generator: Sketch 3.3.2 (12043) - http://www.bohemiancoding.com/sketch -->
    <title>Group</title>
    <desc>Created with Sketch.</desc>
    <defs></defs>
    <g id="Поставщики" stroke="none" stroke-width="1" fill="none" fill-rule="evenodd" sketch:type="MSPage">
        <g id="страница-поставщика-copy-2" sketch:type="MSArtboardGroup" transform="translate(-274.000000, -484.000000)" fill="#FFFFFF">
            <g id="Group" sketch:type="MSLayerGroup" transform="translate(231.000000, 449.000000)">
                <g id="новый-платеж" transform="translate(29.000000, 20.000000)" sketch:type="MSShapeGroup">
                    <g id="noun_9765_cc" transform="translate(14.000000, 15.000000)">
                        <g id="Group">
                            <path d="M14.7724536,0 L0,0 L0,0.620206186 L14.7724536,0.620206186 C14.9492784,0.620206186 15.1361649,0.773113402 15.174268,0.932123711 C15.1836701,0.959340206 15.1907629,0.987051546 15.1907629,1.01459794 L15.1907629,1.88701031 L0.809402062,1.88701031 L0.809402062,3.36065979 L15.1562887,3.36065979 L15.1823505,9.01806186 C15.1823505,9.1948866 14.9700619,9.30589691 14.7724536,9.30589691 L3.12808247,9.30589691 L3.12808247,10.0818144 L14.7724536,10.0818144 C15.3799588,10.0818144 15.8726598,9.63925773 15.8726598,9.09327835 L15.8726598,0.988536082 C15.8726598,0.442556701 15.3797938,0 14.7724536,0 L14.7724536,0 Z" id="Shape"></path>
                            <rect id="Rectangle-path" x="2.39010309" y="7.18746392" width="3.48997938" height="0.772453608"></rect>
                            <rect id="Rectangle-path" x="1.64964948" y="5.02597938" width="3.3862268" height="0.772618557"></rect>
                            <path d="M10.7155464,6.69228866 C10.7155464,6.99991753 10.9656082,7.24997938 11.2732371,7.24997938 L13.0164124,7.24997938 C13.3243711,7.24997938 13.5739381,6.99991753 13.5739381,6.69228866 L13.5739381,5.74268041 C13.5739381,5.4348866 13.3243711,5.18515464 13.0164124,5.18515464 L11.2732371,5.18515464 C10.9656082,5.18515464 10.7155464,5.4348866 10.7155464,5.74268041 L10.7155464,6.69228866 L10.7155464,6.69228866 Z" id="Shape"></path>
                        </g>
                    </g>
                </g>
            </g>
        </g>
    </g>
</svg>