<?xml version="1.0" encoding="UTF-8" standalone="no"?>
<svg width="30px" height="19px" viewBox="0 0 30 19" version="1.1" xmlns="http://www.w3.org/2000/svg" xmlns:xlink="http://www.w3.org/1999/xlink">
    <!-- Generator: Sketch 39 (31667) - http://www.bohemiancoding.com/sketch -->
    <title>icon-menu-payment@3x</title>
    <desc>Created with Sketch.</desc>
    <defs></defs>
    <g id="платежи" stroke="none" stroke-width="1" fill="none" fill-rule="evenodd">
        <g id="Платежи/Меню_плюс" transform="translate(-172.000000, -503.000000)" fill="#FFFFFF">
            <g id="Group-2" transform="translate(26.000000, 361.000000)">
                <g id="submenu" transform="translate(16.000000, 124.000000)">
                    <g id="новый-платеж" transform="translate(119.000000, 0.000000)">
                        <g id="Group-5">
                            <path d="M11,18 L11,19.1764706 L38.9330709,19.1764706 C39.2283465,19.1764706 39.5826772,19.4705882 39.7007874,19.7647059 L39.7007874,19.8823529 L39.7007874,21.5294118 L12.5354331,21.5294118 L12.5354331,25.3529412 L39.6417323,25.3529412 L39.7007874,35 C39.7007874,35.2941176 39.2874016,35.5294118 38.9330709,35.5294118 L16.9055118,35.5294118 L16.9055118,37 L38.9330709,37 C40.0551181,37 41,36.1176471 41,35.1176471 L41,19.8823529 C41,18.8235294 40.0551181,18 38.9330709,18 L11,18 Z M15.488189,31.5294118 L22.1023622,31.5294118 L22.1023622,33 L15.488189,33 L15.488189,31.5294118 Z M14.1299213,27.4705882 L20.507874,27.4705882 L20.507874,28.9411765 L14.1299213,28.9411765 L14.1299213,27.4705882 Z M31.2559055,30.5882353 C31.2559055,31.1764706 31.7283465,31.6470588 32.3188976,31.6470588 L35.6259843,31.6470588 C36.1574803,31.6470588 36.6299213,31.1764706 36.6299213,30.5882353 L36.6299213,28.8235294 C36.6299213,28.2352941 36.1574803,27.7647059 35.6259843,27.7647059 L32.3188976,27.7647059 C31.7283465,27.7647059 31.2559055,28.2352941 31.2559055,28.8235294 L31.2559055,30.5882353 Z" id="icon-menu-payment"></path>
                        </g>
                    </g>
                </g>
            </g>
        </g>
    </g>
</svg>