<?xml version="1.0" encoding="UTF-8" standalone="no"?>
<svg width="24px" height="24px" viewBox="0 0 24 24" version="1.1" xmlns="http://www.w3.org/2000/svg" xmlns:xlink="http://www.w3.org/1999/xlink">
    <!-- Generator: Sketch 3.7.1 (28215) - http://www.bohemiancoding.com/sketch -->
    <title>Shape</title>
    <desc>Created with Sketch.</desc>
    <defs></defs>
    <g id="Symbols" stroke="none" stroke-width="1" fill="none" fill-rule="evenodd">
        <g id="-" transform="translate(-57.000000, -373.000000)" fill="#FFFFFF">
            <g id="Поставщики-+-Shape-Copy" transform="translate(47.000000, 373.000000)">
                <path d="M15.76,0 L15.76,0.48 L15.76,4.995 L15.76,13.44 C15.7575519,13.6131052 15.8485001,13.7741191 15.998019,13.8613861 C16.1475378,13.9486532 16.3324622,13.9486532 16.481981,13.8613861 C16.6314999,13.7741191 16.7224481,13.6131052 16.72,13.44 L16.72,4.995 C16.72,4.32414288 16.9967003,4.07484134 17.425,3.825 C17.6391496,3.70007933 17.8878746,3.60131784 18.13,3.495 C18.3721254,3.38868216 18.6160053,3.29399496 18.835,3.075 C19.0539947,2.85600504 19.153972,2.60516458 19.255,2.355 C19.356028,2.10483542 19.438072,1.84531421 19.54,1.62 C19.641928,1.39468579 19.7608811,1.21636781 19.87,1.11 C19.9791189,1.00363219 20.0653331,0.96 20.23,0.96 L23.77,0.96 C23.9346669,0.96 24.0208811,1.003632 24.13,1.11 C24.2391189,1.21636781 24.358072,1.39468579 24.46,1.62 C24.561928,1.84531421 24.643972,2.10483542 24.745,2.355 C24.846028,2.60516458 24.9460053,2.85600504 25.165,3.075 C25.3839947,3.29399496 25.6278746,3.38868216 25.87,3.495 C26.1121254,3.60131784 26.3608504,3.70007933 26.575,3.825 C27.0032997,4.07484134 27.28,4.32414288 27.28,4.995 L27.28,13.44 C27.2775519,13.6131052 27.3685001,13.7741191 27.518019,13.8613861 C27.6675378,13.9486532 27.8524622,13.9486532 28.001981,13.8613861 C28.1514999,13.7741191 28.2424481,13.6131052 28.24,13.44 L28.24,4.995 L28.24,0.48 L28.24,0 L27.76,0 L23.77,0 L20.23,0 L16.24,0 L15.76,0 L15.76,0 Z M16.72,0.96 L18.805,0.96 C18.7569299,1.04988893 18.710523,1.14042245 18.67,1.23 C18.543928,1.50868579 18.442972,1.77716458 18.355,1.995 C18.267028,2.21283542 18.1810053,2.37899496 18.16,2.4 C18.1389947,2.42100504 17.9808746,2.51081784 17.755,2.61 C17.5291254,2.70918216 17.2348504,2.83092067 16.945,3 C16.8672352,3.04536274 16.7971629,3.09337147 16.72,3.15 L16.72,0.96 L16.72,0.96 Z M25.195,0.96 L27.28,0.96 L27.28,3.15 C27.2028371,3.09337147 27.1327648,3.04536274 27.055,3 C26.7651496,2.83092067 26.4708746,2.70918216 26.245,2.61 C26.0191254,2.51081784 25.8610053,2.42100504 25.84,2.4 C25.8189947,2.37899496 25.732972,2.21283542 25.645,1.995 C25.557028,1.77716458 25.456072,1.50868579 25.33,1.23 C25.289477,1.14042245 25.2430701,1.04988893 25.195,0.96 L25.195,0.96 Z M17.68,1.44 C17.4149032,1.44 17.2,1.65490334 17.2,1.92 C17.2,2.18509666 17.4149032,2.4 17.68,2.4 C17.9450968,2.4 18.16,2.18509666 18.16,1.92 C18.16,1.65490334 17.9450968,1.44 17.68,1.44 L17.68,1.44 Z M26.32,1.44 C26.0549032,1.44 25.84,1.65490334 25.84,1.92 C25.84,2.18509666 26.0549032,2.4 26.32,2.4 C26.5850968,2.4 26.8,2.18509666 26.8,1.92 C26.8,1.65490334 26.5850968,1.44 26.32,1.44 L26.32,1.44 Z M22,1.92 C20.9452989,1.92 20.08,2.78529869 20.08,3.84 C20.08,4.89470112 20.9452989,5.76 22,5.76 C23.0547011,5.76 23.92,4.89470112 23.92,3.84 C23.92,2.78529869 23.0547011,1.92 22,1.92 L22,1.92 Z M22,2.88 C22.5358787,2.88 22.96,3.30412128 22.96,3.84 C22.96,4.37587872 22.5358787,4.8 22,4.8 C21.4641213,4.8 21.04,4.37587872 21.04,3.84 C21.04,3.30412128 21.4641213,2.88 22,2.88 L22,2.88 Z M22,3.36 C21.7349032,3.36 21.52,3.57490334 21.52,3.84 C21.52,4.10509666 21.7349032,4.32 22,4.32 C22.2650968,4.32 22.48,4.10509666 22.48,3.84 C22.48,3.57490334 22.2650968,3.36 22,3.36 L22,3.36 Z M29.125,5.13 C28.9364806,5.15315156 28.779338,5.28527763 28.7241652,5.46702337 C28.6689924,5.6487691 28.7261652,5.84595521 28.87,5.97 L32.575,9.42 C32.5749219,9.42499969 32.5749219,9.43000031 32.575,9.435 C32.8460469,9.67216608 33.04,10.0874544 33.04,10.47 L33.04,10.815 L26.17,16.215 C25.507084,15.694428 24.3968651,14.8323254 24.25,14.715 L24.22,14.7 C23.3902974,14.0362378 22.503111,13.92 22,13.92 C21.4613334,13.92 20.6127006,14.0853528 19.795,14.685 L19.78,14.7 C19.6396091,14.8123128 18.5074389,15.6986016 17.83,16.23 L10.96,10.815 L10.96,10.47 C10.96,10.0006666 11.0886684,9.68896128 11.425,9.39 L15.115,6.12 C15.2608477,6.01257098 15.3338044,5.83219188 15.303651,5.65357689 C15.2734976,5.4749619 15.1453693,5.32852954 14.9723376,5.27493303 C14.799306,5.22133653 14.6108386,5.26970349 14.485,5.4 L10.78,8.67 C10.2523316,9.13903872 10,9.78733344 10,10.47 L10,23.52 C10.0000265,23.7850857 10.2149143,23.9999735 10.48,24 L33.52,24 C33.7850857,23.9999735 33.9999735,23.7850857 34,23.52 L34,10.47 C34,9.80068992 33.6963722,9.16472112 33.205,8.73 L33.205,8.715 L29.53,5.265 C29.4235374,5.15914535 29.2736828,5.10919382 29.125,5.13 L29.125,5.13 Z M22,7.2 C19.655273,7.2 17.68,8.9176152 17.68,11.085 C17.68,12.131737 18.141377,13.031377 18.835,13.725 C18.9503347,13.8681238 19.1372698,13.9328238 19.3164026,13.8916178 C19.4955355,13.8504119 19.6354119,13.7105355 19.6766178,13.5314026 C19.7178238,13.3522698 19.6531238,13.1653347 19.51,13.05 C19.4562074,12.9962074 19.4092264,12.9403392 19.36,12.885 C19.5001619,12.8011867 19.6,12.6551832 19.6,12.48 C19.6,12.2149032 19.3850968,12 19.12,12 C19.0182669,12 18.92764,12.036011 18.85,12.09 C18.7177029,11.7806774 18.64,11.4515093 18.64,11.085 C18.64,10.7069611 18.7246533,10.3413528 18.88,10.005 C18.9519386,10.0480171 19.0300864,10.08 19.12,10.08 C19.3850968,10.08 19.6,9.8650968 19.6,9.6 C19.6,9.44845584 19.5296872,9.31296912 19.42,9.225 C19.6708701,8.96073456 19.9772954,8.74029696 20.32,8.565 C20.3919386,8.60801712 20.4700864,8.64 20.56,8.64 C20.7757158,8.64 20.9495022,8.49084912 21.01,8.295 C21.3230666,8.21007456 21.6529293,8.16 22,8.16 C22.3470707,8.16 22.6769334,8.21007456 22.99,8.295 C23.0504978,8.49084912 23.2242842,8.64 23.44,8.64 C23.5299136,8.64 23.6080614,8.60801712 23.68,8.565 C24.0227046,8.74029696 24.3291299,8.96073456 24.58,9.225 C24.4703128,9.31296912 24.4,9.44845584 24.4,9.6 C24.4,9.8650968 24.6149032,10.08 24.88,10.08 C24.9699136,10.08 25.0480614,10.0480171 25.12,10.005 C25.2753467,10.3413528 25.36,10.7069611 25.36,11.085 C25.36,11.4300653 25.2870021,11.7699581 25.15,12.09 C25.07236,12.036011 24.9817331,12 24.88,12 C24.6149032,12 24.4,12.2149032 24.4,12.48 C24.4,12.6551832 24.4998381,12.8011867 24.64,12.885 C24.5912099,12.9408283 24.5430726,12.9969274 24.49,13.05 C24.3468762,13.1653347 24.2821762,13.3522698 24.3233822,13.5314026 C24.3645881,13.7105355 24.5044645,13.8504119 24.6835974,13.8916178 C24.8627302,13.9328238 25.0496653,13.8681238 25.165,13.725 C25.8673254,13.0226746 26.32,12.0912221 26.32,11.085 C26.32,8.9176152 24.344727,7.2 22,7.2 L22,7.2 Z M22,9.12 C21.7349032,9.12 21.52,9.3349032 21.52,9.6 C21.52,9.8650968 21.7349032,10.08 22,10.08 C22.2650968,10.08 22.48,9.8650968 22.48,9.6 C22.48,9.3349032 22.2650968,9.12 22,9.12 L22,9.12 Z M20.56,10.56 C20.2949032,10.56 20.08,10.7749032 20.08,11.04 C20.08,11.3050968 20.2949032,11.52 20.56,11.52 C20.8250968,11.52 21.04,11.3050968 21.04,11.04 C21.04,10.7749032 20.8250968,10.56 20.56,10.56 L20.56,10.56 Z M23.44,10.56 C23.1749032,10.56 22.96,10.7749032 22.96,11.04 C22.96,11.3050968 23.1749032,11.52 23.44,11.52 C23.7050968,11.52 23.92,11.3050968 23.92,11.04 C23.92,10.7749032 23.7050968,10.56 23.44,10.56 L23.44,10.56 Z M22,12 C21.7349032,12 21.52,12.2149032 21.52,12.48 C21.52,12.7450968 21.7349032,12.96 22,12.96 C22.2650968,12.96 22.48,12.7450968 22.48,12.48 C22.48,12.2149032 22.2650968,12 22,12 L22,12 Z M10.96,12.045 L17.05,16.845 C14.5183302,18.8289461 11.6714934,21.0588778 10.96,21.615 L10.96,12.045 L10.96,12.045 Z M33.04,12.045 L33.04,21.615 C32.327895,21.0562382 29.4751797,18.8111102 26.95,16.83 L33.04,12.045 L33.04,12.045 Z M22,14.88 C22.360889,14.88 23.0097026,14.9617622 23.62,15.45 C24.3619014,16.043521 32.7987318,22.6413408 33.04,22.83 L33.04,23.04 L10.96,23.04 L10.96,22.83 C11.2005414,22.6419974 19.5969597,16.0789085 20.365,15.465 C20.366344,15.463896 20.3786944,15.4510464 20.38,15.45 C20.9975061,15.004439 21.6778149,14.88 22,14.88 L22,14.88 Z" id="Shape"></path>
            </g>
        </g>
    </g>
</svg>