<?xml version="1.0" encoding="UTF-8" standalone="no"?>
<svg width="21px" height="21px" viewBox="0 0 21 21" version="1.1" xmlns="http://www.w3.org/2000/svg" xmlns:xlink="http://www.w3.org/1999/xlink">
    <!-- Generator: Sketch 39 (31667) - http://www.bohemiancoding.com/sketch -->
    <title>Shape</title>
    <desc>Created with Sketch.</desc>
    <defs></defs>
    <g id="Главная" stroke="none" stroke-width="1" fill="none" fill-rule="evenodd">
        <g id="Деньги---действия" transform="translate(-612.000000, -659.000000)" fill="#2B2B2B">
            <g id="Group-2" transform="translate(0.000000, 640.000000)">
                <g id="действия-панель">
                    <g id="Group-19" transform="translate(612.000000, 19.000000)">
                        <path d="M17.4362881,0 C16.5320074,0 15.6284661,0.350313686 14.9261104,1.05269923 L1.45752253,14.5218509 L1.26858443,14.7107969 L1.21460211,14.9807198 L0.26991158,19.7313625 L0,21 L1.26858443,20.7300771 L6.01902824,19.785347 L6.28893982,19.7313625 L6.47787793,19.5424165 L19.9464658,6.07326478 C21.3511781,4.6684937 21.3511781,2.45747031 19.9464658,1.05269923 C19.2441101,0.350313686 18.3405688,0 17.4362881,0 L17.4362881,0 Z M17.4362881,1.64652956 C17.8707689,1.64652956 18.3113872,1.84685855 18.7318637,2.26735219 C19.5728157,3.10833946 19.5728157,4.01762456 18.7318637,4.85861183 L18.111067,5.45244216 L15.546907,2.88817481 L16.1407125,2.26735219 C16.561189,1.84685855 17.0018073,1.64652956 17.4362881,1.64652956 L17.4362881,1.64652956 Z M14.3323049,4.10282776 L16.8964649,6.66709512 L6.45088677,17.1131105 C5.8857066,16.0069959 4.99279548,15.114047 3.88672676,14.5488432 L14.3323049,4.10282776 L14.3323049,4.10282776 Z M2.78008928,15.9524422 C3.81575875,16.3721338 4.62767222,17.1840817 5.04734655,18.2197943 L2.21327496,18.7866324 L2.78008928,15.9524422 L2.78008928,15.9524422 Z" id="Shape"></path>
                    </g>
                </g>
            </g>
        </g>
    </g>
</svg>