<?xml version="1.0" encoding="UTF-8" standalone="no"?>
<svg width="28px" height="27px" viewBox="0 0 28 27" version="1.1" xmlns="http://www.w3.org/2000/svg" xmlns:xlink="http://www.w3.org/1999/xlink">
    <!-- Generator: Sketch 39 (31667) - http://www.bohemiancoding.com/sketch -->
    <title>phone</title>
    <desc>Created with Sketch.</desc>
    <defs></defs>
    <g id="Page-1" stroke="none" stroke-width="1" fill="none" fill-rule="evenodd">
        <path d="M6.65625,1.77635684e-15 C6.1327819,1.77635684e-15 5.6152588,0.189043 5.1875,0.53125 L5.125,0.5625 L5.09375,0.59375 L1.96875,3.8125 L2,3.84375 C1.0365432,4.73509 0.7372965,6.0666437 1.15625,7.21875 C1.1584,7.22495 1.15408,7.24379 1.15625,7.25 C2.0032406,9.677572 4.1733584,14.360858 8.40625,18.59375 C12.65572,22.84322 17.403183,24.92543 19.75,25.84375 L19.78125,25.84375 C20.997478,26.249159 22.311802,25.96042 23.25,25.15625 L23.28125,25.125 L23.3125,25.09375 L26.40625,22 C27.236233,21.170017 27.236233,19.736233 26.40625,18.90625 L22.34375,14.84375 L22.3125,14.78125 C21.482517,13.951267 20.017483,13.951267 19.1875,14.78125 L19.15625,14.8125 L17.1875,16.78125 C16.464474,16.43545 14.741138,15.541257 13.09375,13.96875 C11.458085,12.407433 10.619959,10.61108 10.3125,9.90625 L12.3125,7.90625 C13.154265,7.064485 13.167132,5.6695101 12.28125,4.84375 L12.3125,4.8125 L12.21875,4.71875 L8.21875,0.59375 L8.1875,0.5625 L8.125,0.53125 C7.6972412,0.189043 7.1797181,1.77635684e-15 6.65625,1.77635684e-15 L6.65625,1.77635684e-15 Z M6.65625,2 C6.7295044,2 6.8027588,2.035957 6.875,2.09375 L10.875,6.1875 L10.9375,6.25 L10.96875,6.28125 C10.96085,6.27494 11.02913,6.377124 10.90625,6.5 L8.40625,9 L7.9375,9.4375 L8.15625,10.0625 C8.15625,10.0625 9.306566,13.13496 11.71875,15.4375 L11.9375,15.625 C14.260558,17.74677 17,18.90625 17,18.90625 L17.625,19.1875 L18.09375,18.71875 L20.59375,16.21875 C20.763767,16.048733 20.736233,16.048733 20.90625,16.21875 L25,20.3125 C25.170017,20.482517 25.170017,20.423733 25,20.59375 L21.9375,23.65625 C21.475698,24.05208 20.990022,24.132091 20.40625,23.9375 C18.138957,23.047527 13.736488,21.111488 9.8125,17.1875 C5.8562209,13.231221 3.7887768,8.74039 3.03125,6.5625 C2.8787539,6.1558438 2.9891373,5.5539537 3.34375,5.25 L3.375,5.21875 L3.40625,5.1875 L6.4375,2.09375 C6.5097413,2.035957 6.5829956,2 6.65625,2 L6.65625,2 Z" id="phone" fill="#000000"></path>
    </g>
</svg>