<?xml version="1.0" encoding="UTF-8" standalone="no"?>
<svg width="24px" height="24px" viewBox="0 0 24 24" version="1.1" xmlns="http://www.w3.org/2000/svg" xmlns:xlink="http://www.w3.org/1999/xlink" xmlns:sketch="http://www.bohemiancoding.com/sketch/ns">
    <!-- Generator: Sketch 3.2.2 (9983) - http://www.bohemiancoding.com/sketch -->
    <title>Shape 5</title>
    <desc>Created with Sketch.</desc>
    <defs></defs>
    <g id="Открытие-счета" stroke="none" stroke-width="1" fill="none" fill-rule="evenodd" sketch:type="MSPage">
        <g id="реквизиты-счета" sketch:type="MSArtboardGroup" transform="translate(-966.000000, -98.000000)" fill="#8697AB">
            <path d="M988.518519,103.4 L985.851852,103.4 L985.851852,99.5 C985.851852,98.6729 985.187259,98 984.37037,98 L971.62963,98 C970.812741,98 970.148148,98.6729 970.148148,99.5 L970.148148,103.4 L967.481481,103.4 C966.664593,103.4 966,104.0729 966,104.9 L966,113.6 C966,114.4271 966.664593,115.1 967.481481,115.1 L970.148148,115.1 L970.148148,120.5 C970.148148,121.3271 970.812741,122 971.62963,122 L984.37037,122 C985.187259,122 985.851852,121.3271 985.851852,120.5 L985.851852,115.1 L988.518519,115.1 C989.335407,115.1 990,114.4271 990,113.6 L990,104.9 C990,104.0729 989.335407,103.4 988.518519,103.4 L988.518519,103.4 Z M971.925926,99.8 L984.074074,99.8 L984.074074,103.4 L971.925926,103.4 L971.925926,99.8 L971.925926,99.8 Z M984.074074,120.2 L971.925926,120.2 L971.925926,112.4 L984.074074,112.4 L984.074074,120.2 L984.074074,120.2 Z M988.222222,113.3 L985.851852,113.3 L985.851852,110.6 L970.148148,110.6 L970.148148,113.3 L967.777778,113.3 L967.777778,105.2 L988.222222,105.2 L988.222222,113.3 L988.222222,113.3 Z M983.530667,107.7002 C983.830815,107.7002 984.074074,107.4539 984.074074,107.15 C984.074074,106.8464 983.830815,106.6001 983.530667,106.6001 C983.230815,106.6001 982.987556,106.8464 982.987556,107.15 C982.987556,107.4539 983.230815,107.7002 983.530667,107.7002 L983.530667,107.7002 Z M985.851852,108.125 C986.302222,108.125 986.666667,107.756 986.666667,107.2994 C986.666667,106.8437 986.302222,106.4747 985.851852,106.4747 C985.402074,106.4747 985.037037,106.8437 985.037037,107.2994 C985.037037,107.756 985.402074,108.125 985.851852,108.125 L985.851852,108.125 Z M974.592593,118.7 L978.444444,118.7 C978.935407,118.7 979.333333,118.2971 979.333333,117.8 C979.333333,117.3029 978.935407,116.9 978.444444,116.9 L974.592593,116.9 C974.10163,116.9 973.703704,117.3029 973.703704,117.8 C973.703704,118.2971 974.10163,118.7 974.592593,118.7 L974.592593,118.7 Z M974.592593,115.7 L981.407407,115.7 C981.89837,115.7 982.296296,115.2971 982.296296,114.8 C982.296296,114.3029 981.89837,113.9 981.407407,113.9 L974.592593,113.9 C974.10163,113.9 973.703704,114.3029 973.703704,114.8 C973.703704,115.2971 974.10163,115.7 974.592593,115.7 L974.592593,115.7 Z" id="Shape-5" sketch:type="MSShapeGroup"></path>
        </g>
    </g>
</svg>