<?xml version="1.0" encoding="UTF-8" standalone="no"?>
<svg width="16px" height="16px" viewBox="0 0 16 16" version="1.1" xmlns="http://www.w3.org/2000/svg" xmlns:xlink="http://www.w3.org/1999/xlink">
    <!-- Generator: Sketch 39 (31667) - http://www.bohemiancoding.com/sketch -->
    <title>Shape</title>
    <desc>Created with Sketch.</desc>
    <defs></defs>
    <g id="Настройки" stroke="none" stroke-width="1" fill="none" fill-rule="evenodd">
        <g id="Настройки---реквизиты" transform="translate(-758.000000, -639.000000)" fill="#000000">
            <g id="Group-12" transform="translate(738.000000, 628.000000)">
                <g id="фильтр-даты">
                    <g id="icon_print" transform="translate(20.000000, 11.000000)">
                        <path d="M3.33333333,0 L3.33333333,0.666666667 L3.33333333,4.66666667 L2,4.66666667 C0.903353467,4.66666667 0,5.57002 0,6.66666667 L0,12.6666667 L0,13.3333333 L0.666666667,13.3333333 L3.33333333,13.3333333 L3.33333333,15.3333333 L3.33333333,16 L4,16 L12,16 L12.6666667,16 L12.6666667,15.3333333 L12.6666667,13.3333333 L15.3333333,13.3333333 L16,13.3333333 L16,12.6666667 L16,6.66666667 C16,5.57002 15.0966467,4.66666667 14,4.66666667 L12.6666667,4.66666667 L12.6666667,0.666666667 L12.6666667,0 L12,0 L4,0 L3.33333333,0 L3.33333333,0 Z M4.66666667,1.33333333 L11.3333333,1.33333333 L11.3333333,4.66666667 L4.66666667,4.66666667 L4.66666667,1.33333333 L4.66666667,1.33333333 Z M2,6 L14,6 C14.3766867,6 14.6666667,6.28998 14.6666667,6.66666667 L14.6666667,12 L12.6666667,12 L12.6666667,10 L12.6666667,9.33333333 L12,9.33333333 L4,9.33333333 L3.33333333,9.33333333 L3.33333333,10 L3.33333333,12 L1.33333333,12 L1.33333333,6.66666667 C1.33333333,6.28998 1.6233132,6 2,6 L2,6 Z M2.66666667,6.66666667 C2.29847687,6.66666667 2,6.96514333 2,7.33333333 C2,7.70152333 2.29847687,8 2.66666667,8 C3.03485647,8 3.33333333,7.70152333 3.33333333,7.33333333 C3.33333333,6.96514333 3.03485647,6.66666667 2.66666667,6.66666667 L2.66666667,6.66666667 Z M4.66666667,10.6666667 L11.3333333,10.6666667 L11.3333333,14.6666667 L4.66666667,14.6666667 L4.66666667,10.6666667 L4.66666667,10.6666667 Z" id="Shape"></path>
                    </g>
                </g>
            </g>
        </g>
    </g>
</svg>