<?xml version="1.0" encoding="UTF-8" standalone="no"?>
<svg width="17px" height="17px" viewBox="0 0 17 17" version="1.1" xmlns="http://www.w3.org/2000/svg" xmlns:xlink="http://www.w3.org/1999/xlink">
    <!-- Generator: Sketch 3.8.3 (29802) - http://www.bohemiancoding.com/sketch -->
    <title>Shape</title>
    <desc>Created with Sketch.</desc>
    <defs></defs>
    <g id="Symbols" stroke="none" stroke-width="1" fill="none" fill-rule="evenodd">
        <g id="header" transform="translate(-810.000000, -21.000000)" fill="#FFFFFF">
            <g id="профиль">
                <g transform="translate(810.000000, 21.000000)">
                    <path d="M8.5,0 L8.32291667,0.044213264 L0.53125,2.16644993 L0,2.32119636 L0,2.85175553 L0,16.2925878 L0,17 L0.708333333,17 L7.08333333,17 L7.79166667,17 L7.79166667,16.2925878 L7.79166667,14.1703511 L9.20833333,14.1703511 L9.20833333,16.2925878 L9.20833333,17 L9.91666667,17 L16.2916667,17 L17,17 L17,16.2925878 L17,2.85175553 L17,2.32119636 L16.46875,2.16644993 L8.67708333,0.044213264 L8.5,0 L8.5,0 Z M8.5,1.45903771 L15.5833333,3.38231469 L15.5833333,15.5851756 L10.625,15.5851756 L10.625,13.4629389 L10.625,12.7555267 L9.91666667,12.7555267 L7.08333333,12.7555267 L6.375,12.7555267 L6.375,13.4629389 L6.375,15.5851756 L1.41666667,15.5851756 L1.41666667,3.38231469 L8.5,1.45903771 L8.5,1.45903771 Z M3.54166667,4.26657997 L3.54166667,5.68140442 L4.95833333,5.68140442 L4.95833333,4.26657997 L3.54166667,4.26657997 L3.54166667,4.26657997 Z M6.375,4.26657997 L6.375,5.68140442 L7.79166667,5.68140442 L7.79166667,4.26657997 L6.375,4.26657997 L6.375,4.26657997 Z M9.20833333,4.26657997 L9.20833333,5.68140442 L10.625,5.68140442 L10.625,4.26657997 L9.20833333,4.26657997 L9.20833333,4.26657997 Z M12.0416667,4.26657997 L12.0416667,5.68140442 L13.4583333,5.68140442 L13.4583333,4.26657997 L12.0416667,4.26657997 L12.0416667,4.26657997 Z M3.54166667,7.09622887 L3.54166667,8.51105332 L4.95833333,8.51105332 L4.95833333,7.09622887 L3.54166667,7.09622887 L3.54166667,7.09622887 Z M6.375,7.09622887 L6.375,8.51105332 L7.79166667,8.51105332 L7.79166667,7.09622887 L6.375,7.09622887 L6.375,7.09622887 Z M9.20833333,7.09622887 L9.20833333,8.51105332 L10.625,8.51105332 L10.625,7.09622887 L9.20833333,7.09622887 L9.20833333,7.09622887 Z M12.0416667,7.09622887 L12.0416667,8.51105332 L13.4583333,8.51105332 L13.4583333,7.09622887 L12.0416667,7.09622887 L12.0416667,7.09622887 Z M3.54166667,9.92587776 L3.54166667,11.3407022 L4.95833333,11.3407022 L4.95833333,9.92587776 L3.54166667,9.92587776 L3.54166667,9.92587776 Z M6.375,9.92587776 L6.375,11.3407022 L7.79166667,11.3407022 L7.79166667,9.92587776 L6.375,9.92587776 L6.375,9.92587776 Z M9.20833333,9.92587776 L9.20833333,11.3407022 L10.625,11.3407022 L10.625,9.92587776 L9.20833333,9.92587776 L9.20833333,9.92587776 Z M12.0416667,9.92587776 L12.0416667,11.3407022 L13.4583333,11.3407022 L13.4583333,9.92587776 L12.0416667,9.92587776 L12.0416667,9.92587776 Z M3.54166667,12.7555267 L3.54166667,14.1703511 L4.95833333,14.1703511 L4.95833333,12.7555267 L3.54166667,12.7555267 L3.54166667,12.7555267 Z M12.0416667,12.7555267 L12.0416667,14.1703511 L13.4583333,14.1703511 L13.4583333,12.7555267 L12.0416667,12.7555267 L12.0416667,12.7555267 Z" id="Shape"></path>
                </g>
            </g>
        </g>
    </g>
</svg>