<?xml version="1.0" encoding="UTF-8" standalone="no"?>
<svg width="20px" height="20px" viewBox="0 0 20 20" version="1.1" xmlns="http://www.w3.org/2000/svg" xmlns:xlink="http://www.w3.org/1999/xlink">
    <!-- Generator: Sketch 39 (31667) - http://www.bohemiancoding.com/sketch -->
    <title>Shape</title>
    <desc>Created with Sketch.</desc>
    <defs></defs>
    <g id="Главная" stroke="none" stroke-width="1" fill="none" fill-rule="evenodd" opacity="0.15">
        <g id="Деньги---фильтры" transform="translate(-909.000000, -834.000000)" fill="#000000">
            <g id="таблица-операций" transform="translate(30.000000, 760.000000)">
                <g id="transaction_item" transform="translate(0.000000, 39.000000)">
                    <path d="M879,45 C879,50.5134738 883.486526,55 889,55 C894.513474,55 899,50.5134738 899,45 L897.461538,45 C897.461538,49.6819108 893.681911,53.4615385 889,53.4615385 C884.318089,53.4615385 880.538462,49.6819108 880.538462,45 C880.538462,40.3180893 884.318089,36.5384615 889,36.5384615 C891.982232,36.5384615 894.584844,38.0634336 896.091346,40.3846154 L892.076923,40.3846154 L892.076923,41.9230769 L897.461538,41.9230769 L898.230769,41.9230769 L898.230769,41.1538462 L898.230769,35.7692308 L896.692308,35.7692308 L896.692308,38.6298077 C894.858436,36.4174929 892.091778,35 889,35 C883.486526,35 879,39.4865261 879,45 Z" id="Shape"></path>
                </g>
            </g>
        </g>
    </g>
</svg>