<?xml version="1.0" encoding="UTF-8" standalone="no"?>
<svg width="26px" height="26px" viewBox="0 0 26 26" version="1.1" xmlns="http://www.w3.org/2000/svg" xmlns:xlink="http://www.w3.org/1999/xlink">
    <!-- Generator: Sketch 39 (31667) - http://www.bohemiancoding.com/sketch -->
    <title>round-action</title>
    <desc>Created with Sketch.</desc>
    <defs></defs>
    <g id="Page-1" stroke="none" stroke-width="1" fill="none" fill-rule="evenodd">
        <g id="round-action" fill="#000000">
            <path d="M13,0 C5.8321429,0 0,5.8321429 0,13 C0,20.167857 5.8321429,26 13,26 C20.167857,26 26,20.167857 26,13 C26,5.8321429 20.167857,0 13,0 L13,0 Z M13,2 C19.086977,2 24,6.9130231 24,13 C24,19.086977 19.086977,24 13,24 C6.9130231,24 2,19.086977 2,13 C2,6.9130231 6.9130231,2 13,2 L13,2 Z M13.71875,6.59375 L12.28125,8 L16.28125,12 L6,12 L6,14 L16.28125,14 L12.28125,18 L13.71875,19.40625 L19.40625,13.71875 L20.125,13 L19.40625,12.28125 L13.71875,6.59375 L13.71875,6.59375 Z" id="Shape"></path>
        </g>
    </g>
</svg>