<?xml version="1.0" encoding="UTF-8" standalone="no"?>
<svg width="18px" height="17px" viewBox="0 0 18 17" version="1.1" xmlns="http://www.w3.org/2000/svg" xmlns:xlink="http://www.w3.org/1999/xlink" xmlns:sketch="http://www.bohemiancoding.com/sketch/ns">
    <!-- Generator: Sketch 3.3.2 (12043) - http://www.bohemiancoding.com/sketch -->
    <title>Shape Copy 7</title>
    <desc>Created with Sketch.</desc>
    <defs></defs>
    <g id="Лента-событий" stroke="none" stroke-width="1" fill="none" fill-rule="evenodd" sketch:type="MSPage">
        <g id="лента-событий" sketch:type="MSArtboardGroup" transform="translate(-825.000000, -858.000000)" fill="#F67F1E">
            <path d="M831.75,865.96875 L836.75,865.96875 L836.75,867.03125 L831.75,867.03125 L831.75,865.96875 Z M834,858 C829.318359,858 825.5,861.818359 825.5,866.5 C825.5,871.181641 829.318359,875 834,875 C838.681641,875 842.5,871.181641 842.5,866.5 C842.5,861.818359 838.681641,858 834,858 L834,858 Z M834,873.671875 C830.048828,873.671875 826.828125,870.451172 826.828125,866.5 C826.828125,862.548828 830.048828,859.328125 834,859.328125 C837.951172,859.328125 841.171875,862.548828 841.171875,866.5 C841.171875,870.451172 837.951172,873.671875 834,873.671875 L834,873.671875 Z" id="Shape-Copy-7" sketch:type="MSShapeGroup"></path>
        </g>
    </g>
</svg>