<?xml version="1.0" encoding="UTF-8" standalone="no"?>
<svg width="16px" height="17px" viewBox="0 0 16 17" version="1.1" xmlns="http://www.w3.org/2000/svg" xmlns:xlink="http://www.w3.org/1999/xlink">
    <!-- Generator: Sketch 39 (31667) - http://www.bohemiancoding.com/sketch -->
    <title>Shape</title>
    <desc>Created with Sketch.</desc>
    <defs></defs>
    <g id="Настройки" stroke="none" stroke-width="1" fill="none" fill-rule="evenodd">
        <g id="Настройки---реквизиты" transform="translate(-899.000000, -638.000000)" fill="#000000">
            <g id="Group-12" transform="translate(738.000000, 628.000000)">
                <g id="фильтр-даты" transform="translate(140.000000, 0.000000)">
                    <g id="icon_download" transform="translate(20.000000, 10.000000)">
                        <g id="save" transform="translate(1.000000, 0.000000)">
                            <path d="M7.27272727,0 L7.27272727,7.4375 L5.61363636,5.7513587 L4.56818182,6.8138587 L7.47727273,9.77038043 L8,10.2785326 L8.52272727,9.77038043 L11.4318182,6.8138587 L10.3863636,5.7513587 L8.72727273,7.4375 L8.72727273,0 L7.27272727,0 L7.27272727,0 Z M2.36363636,2.95652174 L2.20454545,3.51086957 L0.0227272727,11.6413043 L0,11.7336957 L0,11.826087 L0,16.2608696 L0,17 L0.727272727,17 L15.2727273,17 L16,17 L16,16.2608696 L16,11.826087 L16,11.7336957 L15.9772727,11.6413043 L13.7954545,3.51086957 L13.6363636,2.95652174 L13.0909091,2.95652174 L10.1818182,2.95652174 L10.1818182,4.43478261 L12.5454545,4.43478261 L14.3181818,11.0869565 L1.68181818,11.0869565 L3.45454545,4.43478261 L5.81818182,4.43478261 L5.81818182,2.95652174 L2.90909091,2.95652174 L2.36363636,2.95652174 L2.36363636,2.95652174 Z M1.45454545,12.5652174 L14.5454545,12.5652174 L14.5454545,15.5217391 L1.45454545,15.5217391 L1.45454545,12.5652174 L1.45454545,12.5652174 Z M12.3636364,13.3043478 C11.9619745,13.3043478 11.6363636,13.6352676 11.6363636,14.0434783 C11.6363636,14.4516889 11.9619745,14.7826087 12.3636364,14.7826087 C12.7652982,14.7826087 13.0909091,14.4516889 13.0909091,14.0434783 C13.0909091,13.6352676 12.7652982,13.3043478 12.3636364,13.3043478 L12.3636364,13.3043478 Z" id="Shape"></path>
                        </g>
                    </g>
                </g>
            </g>
        </g>
    </g>
</svg>