<?xml version="1.0" encoding="utf-8"?>
<!-- Generator: Adobe Illustrator 19.0.0, SVG Export Plug-In . SVG Version: 6.00 Build 0)  -->
<svg version="1.1" id="Layer_1" xmlns="http://www.w3.org/2000/svg" xmlns:xlink="http://www.w3.org/1999/xlink" x="0px" y="0px"
	 viewBox="0 0 21 21" style="enable-background:new 0 0 21 21;" xml:space="preserve">
<style type="text/css">
	.st0{clip-path:url(#SVGID_2_);}
	.st1{clip-path:url(#SVGID_4_);fill:#006AA1;}
</style>
<g>
	<defs>
		<path id="SVGID_1_" d="M9.7,12.8c1.3,0.4,2.7-0.2,3.2-1.5c0.4-1.3-0.2-2.7-1.6-3.2C10,7.6,8.6,8.3,8.1,9.6
			C7.7,10.9,8.4,12.4,9.7,12.8z M18.9,13.4c0.2-0.7,0.4-1.4,0.4-2l1.7,0l0-1.4l-1.7,0c0-0.8-0.2-1.5-0.4-2.3L20.4,7l-0.5-1.3
			l-1.5,0.7C18,5.7,17.5,5.1,17,4.5l1.1-1.2l-1-1L16,3.6c-0.6-0.5-1.3-0.9-2-1.2l0.5-1.6l-1.3-0.5l-0.5,1.6
			c-0.8-0.2-1.5-0.3-2.3-0.3L10.3,0L8.9,0.1L9,1.8C8.3,1.9,7.5,2.1,6.8,2.4L6,1L4.8,1.7l0.8,1.5C5,3.5,4.4,4,3.9,4.6l-1.3-1L1.7,4.7
			l1.3,1C2.7,6.3,2.4,6.9,2.2,7.5L0.5,7.1L0.2,8.5l1.6,0.4c-0.2,0.9-0.2,1.8-0.1,2.6l-1.6,0.3l0.3,1.4L2,12.9
			c0.2,0.7,0.5,1.5,0.9,2.1l-1.4,1l0.8,1.1l1.4-1c0.5,0.6,1,1.1,1.7,1.6l-0.9,1.4l1.2,0.7l0.9-1.4c0.3,0.2,0.7,0.3,1.1,0.4
			C8,19,8.3,19.1,8.7,19.2l-0.2,1.6L9.9,21l0.2-1.6c0.8,0,1.5,0,2.3-0.2l0.5,1.6l1.3-0.4l-0.5-1.6c0.7-0.3,1.4-0.7,2-1.1l1.1,1.3
			l1.1-0.9l-1.1-1.3c0.5-0.5,1-1.2,1.4-1.8l1.5,0.7l0.6-1.3l-1.5-0.7C18.8,13.5,18.8,13.4,18.9,13.4z M3.4,12.7
			c0.7,2.1,2.4,4,4.7,4.7c2.3,0.8,4.7,0.4,6.6-0.9l-2.4-2.7c-0.9,0.5-2,0.6-3.1,0.2C8.2,13.8,7.4,13,6.9,12L3.4,12.7z M13.7,3.7
			c3.4,1.6,5.1,5.5,3.9,9.2c-0.4,1-0.9,1.9-1.6,2.7l-2.4-2.6c0.3-0.3,0.5-0.7,0.6-1.2c0.6-1.8-0.1-3.7-1.7-4.6L13.7,3.7z M12.3,3.2
			C8.6,2.3,4.7,4.3,3.5,8C3.1,9.1,3,10.1,3.1,11.2l3.5-0.7c0-0.4,0.1-0.9,0.2-1.4c0.6-1.8,2.5-2.9,4.3-2.6L12.3,3.2z"/>
	</defs>
	<clipPath id="SVGID_2_">
		<use xlink:href="#SVGID_1_"  style="overflow:visible;"/>
	</clipPath>
	<g class="st0">
		<defs>
			<rect id="SVGID_3_" x="-1008" y="-10" width="1073" height="938"/>
		</defs>
		<clipPath id="SVGID_4_">
			<use xlink:href="#SVGID_3_"  style="overflow:visible;"/>
		</clipPath>
		<rect x="-5" y="-5" transform="matrix(-0.9455 -0.3256 0.3256 -0.9455 17.0265 23.7448)" class="st1" width="31" height="30.9"/>
	</g>
</g>
</svg>
