<?xml version="1.0" encoding="UTF-8" standalone="no"?>
<svg width="20px" height="20px" viewBox="0 0 20 20" version="1.1" xmlns="http://www.w3.org/2000/svg" xmlns:xlink="http://www.w3.org/1999/xlink">
    <!-- Generator: Sketch 3.8.3 (29802) - http://www.bohemiancoding.com/sketch -->
    <title>Shape</title>
    <desc>Created with Sketch.</desc>
    <defs></defs>
    <g id="Symbols" stroke="none" stroke-width="1" fill="none" fill-rule="evenodd">
        <g id="header" transform="translate(-1024.000000, -21.000000)" fill="#FFFFFF">
            <path d="M1031.83654,21 L1031.71635,21.625 L1031.25962,23.9086538 C1030.5275,24.196393 1029.86415,24.6034548 1029.26442,25.0865385 L1027.02885,24.3173077 L1026.42788,24.125 L1026.11538,24.6778846 L1024.57692,27.3221154 L1024.26442,27.875 L1024.72115,28.2836538 L1026.45192,29.7980769 C1026.38766,30.1925085 1026.30769,30.5839277 1026.30769,31 C1026.30769,31.4160723 1026.38766,31.8074915 1026.45192,32.2019231 L1024.72115,33.7163462 L1024.26442,34.125 L1024.57692,34.6778846 L1026.11538,37.3221154 L1026.42788,37.875 L1027.02885,37.6826923 L1029.26442,36.9134615 C1029.86433,37.3965938 1030.52784,37.8036508 1031.25962,38.0913462 L1031.71635,40.375 L1031.83654,41 L1032.46154,41 L1035.53846,41 L1036.16346,41 L1036.28365,40.375 L1036.74038,38.0913462 C1037.4725,37.8036069 1038.13585,37.3965454 1038.73558,36.9134615 L1040.97115,37.6826923 L1041.57212,37.875 L1041.88462,37.3221154 L1043.42308,34.6778846 L1043.73558,34.125 L1043.27885,33.7163462 L1041.54808,32.2019231 C1041.61232,31.8073015 1041.69231,31.4160723 1041.69231,31 C1041.69231,30.5839277 1041.61234,30.1925085 1041.54808,29.7980769 L1043.27885,28.2836538 L1043.73558,27.875 L1043.42308,27.3221154 L1041.88462,24.6778846 L1041.57212,24.125 L1040.97115,24.3173077 L1038.73558,25.0865385 C1038.13567,24.6034062 1037.47216,24.1963493 1036.74038,23.9086538 L1036.28365,21.625 L1036.16346,21 L1035.53846,21 L1032.46154,21 L1031.83654,21 L1031.83654,21 Z M1033.08654,22.5384615 L1034.91346,22.5384615 L1035.29808,24.5336538 L1035.39423,24.9903846 L1035.82692,25.1346154 C1036.70178,25.4076238 1037.4952,25.8695128 1038.15865,26.4807692 L1038.49519,26.7932692 L1038.92788,26.6490385 L1040.875,25.9759615 L1041.78846,27.5384615 L1040.25,28.9086538 L1039.88942,29.1971154 L1040.00962,29.6538462 C1040.10774,30.0926608 1040.15385,30.5405877 1040.15385,31 C1040.15385,31.4594123 1040.10782,31.9063292 1040.00962,32.3461538 L1039.91346,32.8028846 L1040.25,33.0913462 L1041.78846,34.4615385 L1040.875,36.0240385 L1038.92788,35.3509615 L1038.49519,35.2067308 L1038.15865,35.5192308 C1037.49501,36.1306662 1036.7024,36.5923923 1035.82692,36.8653846 L1035.39423,37.0096154 L1035.29808,37.4663462 L1034.91346,39.4615385 L1033.08654,39.4615385 L1032.70192,37.4663462 L1032.60577,37.0096154 L1032.17308,36.8653846 C1031.29822,36.5923762 1030.5048,36.1304869 1029.84135,35.5192308 L1029.50481,35.2067308 L1029.07212,35.3509615 L1027.125,36.0240385 L1026.21154,34.4615385 L1027.75,33.0913462 L1028.11058,32.8028846 L1027.99038,32.3461538 C1027.89226,31.9073392 1027.84615,31.4594123 1027.84615,31 C1027.84615,30.5405877 1027.89226,30.0926608 1027.99038,29.6538462 L1028.11058,29.1971154 L1027.75,28.9086538 L1026.21154,27.5384615 L1027.125,25.9759615 L1029.07212,26.6490385 L1029.50481,26.7932692 L1029.84135,26.4807692 C1030.50499,25.8693335 1031.2976,25.4076075 1032.17308,25.1346154 L1032.60577,24.9903846 L1032.70192,24.5336538 L1033.08654,22.5384615 L1033.08654,22.5384615 Z M1034,27.1538462 C1031.88494,27.1538462 1030.15385,28.8849392 1030.15385,31 C1030.15385,33.1150608 1031.88494,34.8461538 1034,34.8461538 C1036.11506,34.8461538 1037.84615,33.1150608 1037.84615,31 C1037.84615,28.8849392 1036.11506,27.1538462 1034,27.1538462 L1034,27.1538462 Z M1034,28.6923077 C1035.28361,28.6923077 1036.30769,29.7163854 1036.30769,31 C1036.30769,32.2836146 1035.28361,33.3076923 1034,33.3076923 C1032.71639,33.3076923 1031.69231,32.2836146 1031.69231,31 C1031.69231,29.7163854 1032.71639,28.6923077 1034,28.6923077 L1034,28.6923077 Z" id="Shape"></path>
        </g>
    </g>
</svg>