<?xml version="1.0" encoding="UTF-8" standalone="no"?>
<svg width="25px" height="25px" viewBox="0 0 25 25" version="1.1" xmlns="http://www.w3.org/2000/svg" xmlns:xlink="http://www.w3.org/1999/xlink">
    <!-- Generator: Sketch 39 (31667) - http://www.bohemiancoding.com/sketch -->
    <title>Shape</title>
    <desc>Created with Sketch.</desc>
    <defs></defs>
    <g id="Page-1" stroke="none" stroke-width="1" fill="none" fill-rule="evenodd">
        <g id="favorites" transform="translate(-410.000000, -124.000000)" fill="#000000">
            <path d="M425.15625,124 C424.391846,124.00226 423.643332,124.299124 423.09375,124.90625 C423.08695,124.91303 423.10045,124.930721 423.09375,124.9375 C421.864345,126.175609 421.386587,127.40625 420.96875,128.5 C420.788715,128.971267 420.610145,129.417881 420.375,129.875 C419.914691,129.343474 419.24947,129 418.5,129 C417.131133,129 416,130.131133 416,131.5 C416,132.868867 417.131133,134 418.5,134 C419.241728,134 419.883756,133.647084 420.34375,133.125 L420.40625,133.1875 L411.28125,142.28125 L411,142.59375 L411,143 L411,146.5625 L410,147.59375 L411.40625,149 L412.4375,148 L416,148 L416.40625,148 L416.71875,147.71875 L433.28125,131.125 L433.3125,131.09375 C434.466053,129.940197 434.466053,128.059803 433.3125,126.90625 L432.09375,125.6875 C431.516973,125.110723 430.765165,124.8125 430,124.8125 C429.284602,124.8125 428.591161,125.088443 428.03125,125.59375 L427.3125,124.90625 C426.720992,124.314742 425.935289,123.997692 425.15625,124 L425.15625,124 Z M425.1875,126 C425.434319,126.005782 425.697758,126.104008 425.90625,126.3125 L426.59375,127 L420.46875,133.09375 C421.825807,131.655482 422.422354,130.321817 422.84375,129.21875 C423.273625,128.093489 423.544635,127.267865 424.5,126.3125 L424.53125,126.28125 L424.5625,126.25 C424.710481,126.080879 424.940681,125.994218 425.1875,126 L425.1875,126 Z M430,126.78125 C430.234835,126.78125 430.464277,126.870527 430.6875,127.09375 L431.90625,128.3125 C432.352697,128.758947 432.352697,129.241053 431.90625,129.6875 L431,130.5625 L428.4375,128 L429.21875,127.21875 L429.3125,127.09375 C429.535723,126.870527 429.765165,126.78125 430,126.78125 L430,126.78125 Z M427,129.4375 L429.5625,132 L422,139.5625 L419.4375,137 L427,129.4375 L427,129.4375 Z M418.5,131 C418.787987,131 419,131.212013 419,131.5 C419,131.787987 418.787987,132 418.5,132 C418.212013,132 418,131.787987 418,131.5 C418,131.212013 418.212013,131 418.5,131 L418.5,131 Z M418,138.4375 L420.5625,141 L415.5625,146 L413,146 L413,143.4375 L418,138.4375 L418,138.4375 Z" id="Shape"></path>
        </g>
    </g>
</svg>