<?xml version="1.0" encoding="UTF-8" standalone="no"?>
<svg width="16px" height="17px" viewBox="0 0 16 17" version="1.1" xmlns="http://www.w3.org/2000/svg" xmlns:xlink="http://www.w3.org/1999/xlink" xmlns:sketch="http://www.bohemiancoding.com/sketch/ns">
    <!-- Generator: Sketch 3.3.2 (12043) - http://www.bohemiancoding.com/sketch -->
    <title>Shape Copy 4</title>
    <desc>Created with Sketch.</desc>
    <defs></defs>
    <g id="Транзакции" stroke="none" stroke-width="1" fill="none" fill-rule="evenodd" sketch:type="MSPage">
        <g id="просмотр-счета-copy" sketch:type="MSArtboardGroup" transform="translate(-232.000000, -193.000000)" fill="#828A96">
            <path d="M242.077493,207.062124 C241.896498,207.062124 241.913646,207.20692 241.751702,207.387916 L241.751702,207.173724 L241.751702,207.930902 L233.398621,207.930902 L233.398621,198.830784 L237.140271,198.830784 C237.321267,198.830784 237.466063,198.685988 237.466063,198.504992 L237.466063,194.870938 L241.751702,194.870938 L241.751702,197.527617 C241.751702,197.672413 241.896498,197.81721 242.077493,197.81721 L242.895928,197.81721 C243.076923,197.81721 243.221719,197.672413 243.221719,197.527617 L243.221719,194.450694 L243.221719,193.690513 C243.221719,193.545716 243.076923,193.40092 242.895928,193.40092 L236.81448,193.40092 L232,198.179201 L232,209.111327 C232,209.256124 232.144796,209.40092 232.325792,209.40092 L242.895928,209.40092 C243.076923,209.40092 243.221719,209.256124 243.221719,209.111327 L243.221719,208.640739 L243.221719,207.387916 C243.221719,207.20692 243.076923,207.062124 242.895928,207.062124 L242.077493,207.062124 Z M247.384615,199.373771 L245.248869,197.201825 C245.104072,197.093228 244.923077,197.093228 244.778281,197.201825 L238.877828,203.102277 L238.914027,203.138477 L238.877828,203.102277 L238.081448,206.143001 C238.045249,206.251599 238.081448,206.360196 238.153846,206.468793 C238.262443,206.541191 238.40724,206.577391 238.515837,206.504992 L238.515837,206.504992 L241.484163,205.708612 L247.384615,199.80816 C247.529412,199.699563 247.529412,199.482368 247.384615,199.373771 L247.384615,199.373771 Z M239.058824,205.527617 L239.529412,203.753861 L240.832579,205.057029 L239.058824,205.527617 Z" id="Shape-Copy-4" sketch:type="MSShapeGroup"></path>
        </g>
    </g>
</svg>