<?xml version="1.0" encoding="UTF-8" standalone="no"?>
<svg width="24px" height="22px" viewBox="0 0 24 22" version="1.1" xmlns="http://www.w3.org/2000/svg" xmlns:xlink="http://www.w3.org/1999/xlink" xmlns:sketch="http://www.bohemiancoding.com/sketch/ns">
    <!-- Generator: Sketch 3.3.2 (12043) - http://www.bohemiancoding.com/sketch -->
    <title>smile-bubble-wow</title>
    <desc>Created with Sketch.</desc>
    <defs></defs>
    <g id="Дашборд" stroke="none" stroke-width="1" fill="none" fill-rule="evenodd" sketch:type="MSPage">
        <g id="Дашборд-2" sketch:type="MSArtboardGroup" transform="translate(-184.000000, -297.000000)" fill="#EBBA00">
            <g id="smile-bubble-wow" sketch:type="MSLayerGroup" transform="translate(184.000000, 297.000000)">
                <ellipse id="Oval" sketch:type="MSShapeGroup" cx="7.79123077" cy="9.77907692" rx="0.865384615" ry="1.29784615"></ellipse>
                <ellipse id="Oval" sketch:type="MSShapeGroup" cx="16.4450769" cy="9.77907692" rx="0.865384615" ry="1.29784615"></ellipse>
                <ellipse id="Oval" sketch:type="MSShapeGroup" cx="12.1181538" cy="13.6730769" rx="1.73076923" ry="1.73076923"></ellipse>
                <path d="M23.8006154,10.2115385 C23.8006154,4.72430769 18.5603077,0.259846154 12.1181538,0.259846154 C5.676,0.259846154 0.435692308,4.72430769 0.435692308,10.2115385 C0.435692308,15.6987692 5.676,20.1632308 12.1181538,20.1632308 C13.6024615,20.1632308 15.0493846,19.9292308 16.4741538,19.4593846 C16.6555385,19.4593846 16.9753846,19.662 17.3141538,19.8775385 C18.0807692,20.3635385 19.1312308,21.0286154 20.772,21.0286154 C20.9215385,21.0286154 21.0613846,20.9510769 21.1407692,20.8232308 C21.2192308,20.6953846 21.2261538,20.5366154 21.1592308,20.4023077 C20.3210769,18.7264615 20.6150769,17.0635385 21.0004615,16.6790769 C22.8064615,14.8813846 23.8006154,12.5847692 23.8006154,10.2115385 L23.8006154,10.2115385 Z M20.3893846,16.0656923 C19.7316923,16.7224615 19.5096923,18.4472308 20.0995385,20.1170769 C19.0818462,19.9730769 18.3696923,19.5221538 17.7775385,19.1469231 C17.31,18.8501538 16.9056923,18.594 16.4741538,18.594 C16.3601538,18.594 16.2489231,18.6129231 16.1427692,18.648 C14.862,19.0790769 13.5078462,19.2978462 12.1181538,19.2978462 C6.15369231,19.2978462 1.30061538,15.222 1.30061538,10.2110769 C1.30061538,5.20015385 6.15369231,1.12430769 12.1181538,1.12430769 C18.0830769,1.12430769 22.9356923,5.20015385 22.9356923,10.2110769 C22.9352308,12.3521538 22.0310769,14.4323077 20.3893846,16.0656923 L20.3893846,16.0656923 Z" id="Shape" sketch:type="MSShapeGroup"></path>
            </g>
        </g>
    </g>
</svg>