<?xml version="1.0" encoding="UTF-8" standalone="no"?>
<svg width="24px" height="21px" viewBox="0 0 24 21" version="1.1" xmlns="http://www.w3.org/2000/svg" xmlns:xlink="http://www.w3.org/1999/xlink" xmlns:sketch="http://www.bohemiancoding.com/sketch/ns">
    <!-- Generator: Sketch 3.3.2 (12043) - http://www.bohemiancoding.com/sketch -->
    <title>smile-bubble-happy</title>
    <desc>Created with Sketch.</desc>
    <defs></defs>
    <g id="Дашборд" stroke="none" stroke-width="1" fill="none" fill-rule="evenodd" sketch:type="MSPage">
        <g id="Дашборд-2" sketch:type="MSArtboardGroup" transform="translate(-184.000000, -222.000000)" fill="#71A130">
            <g id="smile-bubble-happy" sketch:type="MSLayerGroup" transform="translate(184.000000, 221.769231)">
                <ellipse id="Oval" sketch:type="MSShapeGroup" cx="7.67307692" cy="9.77907692" rx="0.865384615" ry="1.29784615"></ellipse>
                <ellipse id="Oval" sketch:type="MSShapeGroup" cx="16.3269231" cy="9.77907692" rx="0.865384615" ry="1.29784615"></ellipse>
                <path d="M16.3269231,11.9423077 L7.67307692,11.9423077 C7.40261538,11.9423077 7.14830769,12.0687692 6.98446154,12.2838462 C6.82107692,12.4993846 6.76707692,12.7790769 6.84,13.0393846 C6.876,13.1709231 7.78569231,16.2692308 12,16.2692308 C16.2152308,16.2692308 17.124,13.1709231 17.1609231,13.0393846 C17.2329231,12.7790769 17.1798462,12.4993846 17.0155385,12.2838462 C16.8526154,12.0687692 16.5973846,11.9423077 16.3269231,11.9423077 L16.3269231,11.9423077 Z" id="Shape" sketch:type="MSShapeGroup"></path>
                <path d="M23.6824615,10.2115385 C23.6824615,4.72430769 18.4421538,0.259846154 12,0.259846154 C5.55784615,0.259846154 0.317538462,4.72430769 0.317538462,10.2115385 C0.317538462,15.6987692 5.55784615,20.1636923 12,20.1636923 C13.4838462,20.1636923 14.9307692,19.9296923 16.356,19.4598462 C16.5369231,19.4598462 16.8567692,19.6624615 17.196,19.878 C17.9626154,20.364 19.0130769,21.0290769 20.6543077,21.0290769 C20.8038462,21.0290769 20.9432308,20.9515385 21.0226154,20.8236923 C21.1010769,20.6958462 21.108,20.5370769 21.0415385,20.4027692 C20.2033846,18.7269231 20.4969231,17.064 20.8823077,16.6795385 C22.6878462,14.8813846 23.6824615,12.5847692 23.6824615,10.2115385 L23.6824615,10.2115385 Z M20.2707692,16.0656923 C19.6135385,16.7224615 19.3910769,18.4472308 19.9809231,20.1170769 C18.9632308,19.9730769 18.2510769,19.5221538 17.6584615,19.1469231 C17.1909231,18.8501538 16.7870769,18.594 16.3555385,18.594 C16.2410769,18.594 16.1298462,18.6129231 16.0241538,18.648 C14.7429231,19.0790769 13.3892308,19.2978462 11.9995385,19.2978462 C6.03461538,19.2978462 1.182,15.222 1.182,10.2110769 C1.182,5.20015385 6.03507692,1.12523077 12,1.12523077 C17.9649231,1.12523077 22.8175385,5.20107692 22.8175385,10.212 C22.8175385,12.3521538 21.9133846,14.4323077 20.2707692,16.0656923 L20.2707692,16.0656923 Z" id="Shape" sketch:type="MSShapeGroup"></path>
            </g>
        </g>
    </g>
</svg>