<?xml version="1.0" encoding="UTF-8" standalone="no"?>
<svg width="26px" height="26px" viewBox="0 0 26 26" version="1.1" xmlns="http://www.w3.org/2000/svg" xmlns:xlink="http://www.w3.org/1999/xlink">
    <!-- Generator: Sketch 39 (31667) - http://www.bohemiancoding.com/sketch -->
    <title>stop-light</title>
    <desc>Created with Sketch.</desc>
    <defs></defs>
    <g id="Page-1" stroke="none" stroke-width="1" fill="none" fill-rule="evenodd">
        <g id="stop-light" fill="#000000">
            <path d="M13,0 C5.8321429,0 0,5.8321429 0,13 C0,20.167857 5.8321429,26 13,26 C20.167857,26 26,20.167857 26,13 C26,5.8321429 20.167857,0 13,0 L13,0 Z M13,2 C19.086977,2 24,6.9130231 24,13 C24,15.726349 23.010263,18.205644 21.375,20.125 L6.03125,4.46875 C7.926833,2.9178445 10.352785,2 13,2 L13,2 Z M4.625,5.875 L19.96875,21.53125 C18.073167,23.082156 15.647215,24 13,24 C6.9130231,24 2,19.086977 2,13 C2,10.273651 2.9897374,7.794356 4.625,5.875 L4.625,5.875 Z" id="Shape"></path>
        </g>
    </g>
</svg>