<?xml version="1.0" encoding="UTF-8" standalone="no"?>
<svg width="21px" height="21px" viewBox="0 0 21 21" version="1.1" xmlns="http://www.w3.org/2000/svg" xmlns:xlink="http://www.w3.org/1999/xlink" xmlns:sketch="http://www.bohemiancoding.com/sketch/ns">
    <!-- Generator: Sketch 3.4.2 (15857) - http://www.bohemiancoding.com/sketch -->
    <title>stop-light</title>
    <desc>Created with Sketch.</desc>
    <defs></defs>
    <g id="Мессенджер" stroke="none" stroke-width="1" fill="none" fill-rule="evenodd" sketch:type="MSPage">
        <g id="месенджер-на-клиенте" sketch:type="MSArtboardGroup" transform="translate(-2550.000000, -502.000000)" fill="#828A96">
            <g id="Group-Copy-6" sketch:type="MSLayerGroup" transform="translate(2399.507812, 183.000000)">
                <g id="Ирина-уже-взяла-зада-+-Oval-18" transform="translate(104.000000, 319.000000)" sketch:type="MSShapeGroup">
                    <g id="stop-light" transform="translate(46.000000, 0.000000)">
                        <path d="M10.0544705,0.862760417 C4.94335938,1.35164931 0.943359375,5.61831597 0.943359375,10.818316 C0.943359375,16.3738715 5.43224826,20.8627604 10.9433594,20.8627604 C16.4544705,20.8627604 20.9433594,16.3738715 20.9433594,10.818316 C20.9433594,5.61831597 16.9433594,1.35164931 11.8322483,0.862760417 L10.0544705,0.862760417 Z M10.9433594,1.75164931 C15.9655816,1.75164931 20.0544705,5.79609375 20.0544705,10.818316 C20.0544705,15.8849826 15.9655816,19.9294271 10.9433594,19.9294271 C5.92113715,19.9294271 1.83224826,15.8849826 1.83224826,10.818316 C1.83224826,5.79609375 5.92113715,1.75164931 10.9433594,1.75164931 L10.9433594,1.75164931 Z" id="Shape"></path>
                        <path d="M3.65196195,4.86639675 L17.651962,17.8663967 L18.332413,17.1336033 L4.33241305,4.13360325 L3.65196195,4.86639675 L3.65196195,4.86639675 Z" id="Shape"></path>
                    </g>
                </g>
            </g>
        </g>
    </g>
</svg>