<?xml version="1.0" encoding="UTF-8" standalone="no"?>
<svg width="12px" height="10px" viewBox="0 0 12 10" version="1.1" xmlns="http://www.w3.org/2000/svg" xmlns:xlink="http://www.w3.org/1999/xlink" xmlns:sketch="http://www.bohemiancoding.com/sketch/ns">
    <!-- Generator: Sketch 3.3.2 (12043) - http://www.bohemiancoding.com/sketch -->
    <title>Shape</title>
    <desc>Created with Sketch.</desc>
    <defs></defs>
    <g id="Транзакции" stroke="none" stroke-width="1" fill="none" fill-rule="evenodd" sketch:type="MSPage">
        <g id="транзакции-6" sketch:type="MSArtboardGroup" transform="translate(-710.000000, -291.000000)" fill="#6690B0">
            <path d="M721.162011,294.907422 C721.396648,294.907422 721.597765,294.978697 721.765363,295.097489 C721.932961,295.216281 722,295.358831 722,295.52514 C722,295.691448 721.932961,295.833998 721.765363,295.95279 C721.564246,296.071582 721.363128,296.142857 721.162011,296.142857 L710.837989,296.142857 C710.636872,296.142857 710.435754,296.071582 710.234637,295.95279 C710.067039,295.833998 710,295.691448 710,295.52514 C710,295.358831 710.067039,295.216281 710.234637,295.097489 C710.402235,294.978697 710.603352,294.907422 710.837989,294.907422 L721.162011,294.907422 M710.837989,292.235435 C710.636872,292.235435 710.435754,292.186987 710.234637,292.065865 C710.067039,291.92052 710,291.775175 710,291.62983 C710,291.46026 710.067039,291.314915 710.234637,291.193794 C710.402235,291.072673 710.603352,291 710.837989,291 L721.162011,291 C721.396648,291 721.597765,291.072673 721.765363,291.193794 C721.932961,291.314915 722,291.46026 722,291.62983 C722,291.775175 721.932961,291.92052 721.765363,292.065865 C721.564246,292.186987 721.363128,292.235435 721.162011,292.235435 L710.837989,292.235435 M721.162011,298.853152 C721.396648,298.853152 721.597765,298.901601 721.765363,299.022722 C721.932961,299.168067 722,299.313413 722,299.458758 C722,299.628327 721.932961,299.773673 721.765363,299.894794 C721.564246,300.015915 721.363128,300.088587 721.162011,300.088587 L710.837989,300.088587 C710.636872,300.088587 710.435754,300.015915 710.234637,299.894794 C710.067039,299.773673 710,299.628327 710,299.458758 C710,299.313413 710.067039,299.168067 710.234637,299.022722 C710.402235,298.901601 710.603352,298.853152 710.837989,298.853152 L721.162011,298.853152" id="Shape" sketch:type="MSShapeGroup"></path>
        </g>
    </g>
</svg>