<?xml version="1.0" encoding="UTF-8" standalone="no"?>
<svg width="22px" height="23px" viewBox="0 0 22 23" version="1.1" xmlns="http://www.w3.org/2000/svg" xmlns:xlink="http://www.w3.org/1999/xlink">
    <!-- Generator: Sketch 39 (31667) - http://www.bohemiancoding.com/sketch -->
    <title>thumbs-up</title>
    <desc>Created with Sketch.</desc>
    <defs></defs>
    <g id="Page-1" stroke="none" stroke-width="1" fill="none" fill-rule="evenodd">
        <path d="M11.6875,0 L11.375,0.28125 L4.59375,7 L1,7 L0,7 L0,8 L0,22 L0,23 L1,23 L16.84375,23 C18.252639,23 19.485512,22.002126 19.78125,20.625 L21.9375,10.625 C22.333399,8.778954 20.888338,7 19,7 L13.25,7 L13.4375,6.25 C13.640625,6.0936816 13.769008,6.0260315 14.0625,5.625 C14.532087,4.9833496 15,3.9925134 15,2.65625 C15.001571,1.2300298 13.709921,0 12.09375,0 L11.6875,0 L11.6875,0 Z M12.40625,2.09375 C12.827534,2.175457 13.000339,2.3486297 13,2.65625 C13,3.5589866 12.727163,4.1156504 12.46875,4.46875 C12.210337,4.8218496 12.03125,4.90625 12.03125,4.90625 L11.6875,5.09375 L11.5625,5.5 L10.96875,7.75 L10.65625,9 L11.9375,9 L19,9 C19.659662,9 20.106851,9.574796 19.96875,10.21875 L17.84375,20.21875 C17.743488,20.685624 17.320861,21 16.84375,21 L6,21 L6,8.40625 L12.40625,2.09375 L12.40625,2.09375 Z M2,9 L4,9 L4,21 L2,21 L2,9 L2,9 Z" id="thumbs-up" fill="#000000"></path>
    </g>
</svg>