<?xml version="1.0" encoding="UTF-8" standalone="no"?>
<svg width="22px" height="23px" viewBox="0 0 22 23" version="1.1" xmlns="http://www.w3.org/2000/svg" xmlns:xlink="http://www.w3.org/1999/xlink">
    <!-- Generator: Sketch 39 (31667) - http://www.bohemiancoding.com/sketch -->
    <title>thumbs-down</title>
    <desc>Created with Sketch.</desc>
    <defs></defs>
    <g id="Page-1" stroke="none" stroke-width="1" fill="none" fill-rule="evenodd">
        <path d="M5.15625,0 C3.747361,0 2.5144885,0.9978744 2.21875,2.375 L0.0625,12.375 C-0.3333991,14.221046 1.111662,16 3,16 L8.75,16 L8.5625,16.75 C8.359375,16.906318 8.230992,16.973969 7.9375,17.375 C7.467913,18.01665 7,19.007487 7,20.34375 C7,21.769371 8.290079,23 9.90625,23 L10.3125,23 L10.625,22.71875 L17.40625,16 L21,16 L22,16 L22,15 L22,1 L22,0 L21,0 L5.15625,0 L5.15625,0 Z M5.15625,2 L16,2 L16,14.59375 L9.59375,20.90625 C9.172301,20.82439 9,20.651843 9,20.34375 C9,19.441013 9.272837,18.88435 9.53125,18.53125 C9.789663,18.17815 9.96875,18.09375 9.96875,18.09375 L10.3125,17.90625 L10.4375,17.5 L11.03125,15.25 L11.34375,14 L10.0625,14 L3,14 C2.340338,14 1.8931491,13.425204 2.03125,12.78125 L4.15625,2.78125 C4.2565115,2.3143756 4.679139,2 5.15625,2 L5.15625,2 Z M18,2 L20,2 L20,14 L18,14 L18,2 L18,2 Z" id="thumbs-down" fill="#000000"></path>
    </g>
</svg>