<?xml version="1.0" encoding="UTF-8" standalone="no"?>
<svg width="24px" height="24px" viewBox="0 0 24 24" version="1.1" xmlns="http://www.w3.org/2000/svg" xmlns:xlink="http://www.w3.org/1999/xlink">
    <!-- Generator: Sketch 39 (31667) - http://www.bohemiancoding.com/sketch -->
    <title>Shape</title>
    <desc>Created with Sketch.</desc>
    <defs></defs>
    <g id="Page-1" stroke="none" stroke-width="1" fill="none" fill-rule="evenodd">
        <path d="M11,0 L11,1 L11,5 L13,5 L13,2.1875 C18.040418,2.7083394 22,6.818825 22,12 C22,17.534534 17.534534,22 12,22 C6.465466,22 2,17.534534 2,12 C2,8.78587 3.4954192,5.9245749 5.84375,4.09375 L4.625,2.53125 C1.8093308,4.7264251 0,8.15813 0,12 C0,18.615466 5.3845336,24 12,24 C18.615466,24 24,18.615466 24,12 C24,5.3845336 18.615466,0 12,0 L11,0 L11,0 Z M6.71875,5.28125 L5.28125,6.71875 L11.28125,12.71875 C11.462214,12.899714 11.723858,13 12,13 C12.552285,13 13,12.552285 13,12 C13,11.723857 12.899714,11.462214 12.71875,11.28125 L6.71875,5.28125 L6.71875,5.28125 Z" id="Shape" fill="#000000"></path>
    </g>
</svg>