<?xml version="1.0" encoding="UTF-8" standalone="no"?>
<svg width="22px" height="20px" viewBox="0 0 22 20" version="1.1" xmlns="http://www.w3.org/2000/svg" xmlns:xlink="http://www.w3.org/1999/xlink">
    <!-- Generator: Sketch 39 (31667) - http://www.bohemiancoding.com/sketch -->
    <title>Shape</title>
    <desc>Created with Sketch.</desc>
    <defs></defs>
    <g id="Главная" stroke="none" stroke-width="1" fill="none" fill-rule="evenodd">
        <g id="Деньги---действия" transform="translate(-745.000000, -660.000000)" fill="#2B2B2B">
            <g id="Group-2" transform="translate(0.000000, 640.000000)">
                <g id="действия-панель">
                    <g id="Group-20" transform="translate(745.000000, 20.000000)">
                        <path d="M0,0 L0,0.866035183 L0,14.7225981 L0,15.5886333 L0.846153846,15.5886333 L4.23076923,15.5886333 L4.23076923,18.1867388 L4.23076923,20 L5.60576923,18.8633288 L9.59855769,15.5886333 L21.1538462,15.5886333 L22,15.5886333 L22,14.7225981 L22,0.866035183 L22,0 L21.1538462,0 L0.846153846,0 L0,0 L0,0 Z M1.69230769,1.73207037 L20.3076923,1.73207037 L20.3076923,13.8565629 L9.30769231,13.8565629 L9.01682692,13.8565629 L8.77884615,14.0460081 L5.92307692,16.3734777 L5.92307692,14.7225981 L5.92307692,13.8565629 L5.07692308,13.8565629 L1.69230769,13.8565629 L1.69230769,1.73207037 L1.69230769,1.73207037 Z M13.0625,3.84303112 L11.8461538,5.0879567 L13.6442308,6.92828146 L5.92307692,6.92828146 L5.92307692,8.66035183 L13.6442308,8.66035183 L11.7932692,10.5548038 L13.0096154,11.7997294 L16.2884615,8.41677943 L16.8966346,7.79431664 L16.2884615,7.17185386 L13.0625,3.84303112 L13.0625,3.84303112 Z" id="Shape"></path>
                    </g>
                </g>
            </g>
        </g>
    </g>
</svg>