<?xml version="1.0" encoding="UTF-8" standalone="no"?>
<svg width="17px" height="21px" viewBox="0 0 17 21" version="1.1" xmlns="http://www.w3.org/2000/svg" xmlns:xlink="http://www.w3.org/1999/xlink">
    <!-- Generator: Sketch 39 (31667) - http://www.bohemiancoding.com/sketch -->
    <title>Shape</title>
    <desc>Created with Sketch.</desc>
    <defs></defs>
    <g id="Главная" stroke="none" stroke-width="1" fill="none" fill-rule="evenodd">
        <g id="Деньги---действия" transform="translate(-887.000000, -659.000000)" fill="#2B2B2B">
            <g id="Group-2" transform="translate(0.000000, 640.000000)">
                <g id="действия-панель">
                    <g id="Group-20" transform="translate(887.000000, 19.000000)">
                        <path d="M6.8,0 C6.3561113,0 5.89860135,0.162285812 5.578125,0.4921875 C5.25764865,0.822089188 5.1,1.29305558 5.1,1.75 L5.1,2.625 L0,2.625 L0,4.375 L0.85,4.375 L0.85,18.375 C0.85,19.8147731 2.00136368,21 3.4,21 L13.6,21 C14.9986367,21 16.15,19.8147731 16.15,18.375 L16.15,4.375 L17,4.375 L17,2.625 L11.9,2.625 L11.9,1.75 C11.9,1.29305558 11.7423513,0.822089188 11.421875,0.4921875 C11.1013987,0.162285812 10.6438887,0 10.2,0 L6.8,0 L6.8,0 Z M6.8,1.75 L10.2,1.75 L10.2,2.625 L6.8,2.625 L6.8,1.75 L6.8,1.75 Z M2.55,4.375 L14.45,4.375 L14.45,18.375 C14.45,18.8602269 14.0713633,19.25 13.6,19.25 L3.4,19.25 C2.92863675,19.25 2.55,18.8602269 2.55,18.375 L2.55,4.375 L2.55,4.375 Z M4.25,7 L4.25,16.625 L5.95,16.625 L5.95,7 L4.25,7 L4.25,7 Z M7.65,7 L7.65,16.625 L9.35,16.625 L9.35,7 L7.65,7 L7.65,7 Z M11.05,7 L11.05,16.625 L12.75,16.625 L12.75,7 L11.05,7 L11.05,7 Z" id="Shape"></path>
                    </g>
                </g>
            </g>
        </g>
    </g>
</svg>