<?xml version="1.0" encoding="UTF-8" standalone="no"?>
<svg width="22px" height="19px" viewBox="0 0 22 19" version="1.1" xmlns="http://www.w3.org/2000/svg" xmlns:xlink="http://www.w3.org/1999/xlink">
    <!-- Generator: Sketch 39 (31667) - http://www.bohemiancoding.com/sketch -->
    <title>Shape</title>
    <desc>Created with Sketch.</desc>
    <defs></defs>
    <g id="Акция-ПДБ" stroke="none" stroke-width="1" fill="none" fill-rule="evenodd">
        <g id="Деньги---действия" transform="translate(-1150.000000, -732.000000)" fill="#159FF5">
            <g id="выпадушка" transform="translate(380.000000, 60.000000)">
                <g id="Group-2" transform="translate(90.000000, 659.000000)">
                    <g id="Group-9" transform="translate(576.000000, 0.695740)">
                        <g id="icon_twitter" transform="translate(104.000000, 13.013185)">
                            <path d="M22,2.13299934 C21.1905833,2.49511963 20.3206667,2.73899655 19.4076667,2.84892593 C20.3399167,2.2863462 21.0549167,1.39490212 21.39225,0.332559447 C20.5205,0.853569247 19.5543333,1.23231751 18.5258333,1.43647205 C17.7026667,0.552418192 16.5293333,0 15.2313333,0 C12.7389167,0 10.7176667,2.03692661 10.7176667,4.54867421 C10.7176667,4.90525184 10.758,5.25259171 10.8340833,5.58515115 C7.08308333,5.39577702 3.75741667,3.58425181 1.53083333,0.832322393 C1.14308333,1.50390772 0.920333333,2.28542242 0.920333333,3.11959237 C0.920333333,4.69740218 1.71691667,6.08953298 2.92783333,6.9052274 C2.18808333,6.88120922 1.49233333,6.67705467 0.883666667,6.33618124 L0.883666667,6.39345536 C0.883666667,8.59758547 2.43925,10.4359002 4.5045,10.8534471 C4.12591667,10.9578338 3.72716667,11.0132603 3.31466667,11.0132603 C3.02408333,11.0132603 2.74083333,10.9846233 2.46583333,10.931968 C3.04058333,12.7388744 4.70708333,14.0543317 6.6825,14.0912828 C5.13791667,15.3115912 3.19183333,16.0386031 1.07708333,16.0386031 C0.713166667,16.0386031 0.353833333,16.0173562 0,15.9748625 C1.99741667,17.2653779 4.36975,18.0182556 6.919,18.0182556 C15.22125,18.0182556 19.7605833,11.0871624 19.7605833,5.07615044 C19.7605833,4.8793861 19.756,4.68262176 19.74775,4.48770498 C20.6295833,3.84568049 21.395,3.04476649 22,2.13299934 L22,2.13299934 Z" id="Shape"></path>
                        </g>
                    </g>
                </g>
            </g>
        </g>
    </g>
</svg>