<?xml version="1.0" encoding="UTF-8" standalone="no"?>
<svg width="20px" height="22px" viewBox="0 0 20 22" version="1.1" xmlns="http://www.w3.org/2000/svg" xmlns:xlink="http://www.w3.org/1999/xlink">
    <!-- Generator: Sketch 39 (31667) - http://www.bohemiancoding.com/sketch -->
    <title>user</title>
    <desc>Created with Sketch.</desc>
    <defs></defs>
    <g id="Page-1" stroke="none" stroke-width="1" fill="none" fill-rule="evenodd">
        <g id="user" fill="#000000">
            <path d="M10,0 C6.145852,0 3,3.1458513 3,7 C3,9.408843 4.23116,11.55212 6.09375,12.8125 C2.5266131,14.342333 0,17.881262 0,22 L2,22 C2,17.569334 5.569334,14 10,14 C14.430666,14 18,17.569334 18,22 L20,22 C20,17.881262 17.473387,14.342333 13.90625,12.8125 C15.76884,11.55212 17,9.408843 17,7 C17,3.1458513 13.854148,0 10,0 L10,0 Z M10,2 C12.773268,2 15,4.2267317 15,7 C15,9.773268 12.773268,12 10,12 C7.226732,12 5,9.773268 5,7 C5,4.2267317 7.226732,2 10,2 L10,2 Z" id="Shape"></path>
        </g>
    </g>
</svg>