<?xml version="1.0" encoding="UTF-8" standalone="no"?>
<svg width="22px" height="22px" viewBox="0 0 22 22" version="1.1" xmlns="http://www.w3.org/2000/svg" xmlns:xlink="http://www.w3.org/1999/xlink">
    <!-- Generator: Sketch 39 (31667) - http://www.bohemiancoding.com/sketch -->
    <title>icon_bill</title>
    <desc>Created with Sketch.</desc>
    <defs></defs>
    <g id="Контакты" stroke="none" stroke-width="1" fill="none" fill-rule="evenodd">
        <g transform="translate(-1062.000000, -96.000000)" id="выписка" fill="#FFFFFF">
            <g transform="translate(1040.000000, 85.000000)">
                <g id="icon_bill" transform="translate(22.000000, 11.000000)">
                    <path d="M7.85714286,0 C4.82888324,0 2.35714286,2.47174039 2.35714286,5.5 C2.35714286,7.39266236 3.32448254,9.07666571 4.78794643,10.0669643 C1.98519609,11.2689759 0,14.049563 0,17.2857143 L1.57142857,17.2857143 C1.57142857,13.8044767 4.37590521,11 7.85714286,11 C8.93832186,11 9.94278214,11.28116 10.828125,11.7611607 C9.95587529,12.8405868 9.42857143,14.2238101 9.42857143,15.7142857 C9.42857143,19.1764831 12.2520884,22 15.7142857,22 C19.1764831,22 22,19.1764831 22,15.7142857 C22,12.2520884 19.1764831,9.42857143 15.7142857,9.42857143 C14.3415242,9.42857143 13.0670037,9.88010493 12.03125,10.6316964 C11.6835934,10.4132655 11.3082923,10.2305154 10.9263393,10.0669643 C12.3898029,9.07666571 13.3571429,7.39266236 13.3571429,5.5 C13.3571429,2.47174031 10.885402,0 7.85714286,0 L7.85714286,0 Z M7.85714286,1.57142857 C10.0361391,1.57142857 11.7857143,3.32100348 11.7857143,5.5 C11.7857143,7.67899629 10.0361391,9.42857143 7.85714286,9.42857143 C5.67814634,9.42857143 3.92857143,7.67899629 3.92857143,5.5 C3.92857143,3.3210034 5.67814626,1.57142857 7.85714286,1.57142857 L7.85714286,1.57142857 Z M15.7142857,11 C18.3272202,11 20.4285714,13.1013512 20.4285714,15.7142857 C20.4285714,18.3272202 18.3272202,20.4285714 15.7142857,20.4285714 C13.1013512,20.4285714 11,18.3272202 11,15.7142857 C11,13.1013512 13.1013512,11 15.7142857,11 L15.7142857,11 Z M14.9285714,12.5714286 L14.9285714,14.9285714 L12.5714286,14.9285714 L12.5714286,16.5 L14.9285714,16.5 L14.9285714,18.8571429 L16.5,18.8571429 L16.5,16.5 L18.8571429,16.5 L18.8571429,14.9285714 L16.5,14.9285714 L16.5,12.5714286 L14.9285714,12.5714286 L14.9285714,12.5714286 Z" id="Shape"></path>
                </g>
            </g>
        </g>
    </g>
</svg>