<?xml version="1.0" encoding="UTF-8" standalone="no"?>
<svg width="16px" height="17px" viewBox="0 0 16 17" version="1.1" xmlns="http://www.w3.org/2000/svg" xmlns:xlink="http://www.w3.org/1999/xlink" xmlns:sketch="http://www.bohemiancoding.com/sketch/ns">
    <!-- Generator: Sketch 3.3.2 (12043) - http://www.bohemiancoding.com/sketch -->
    <title>Shape Copy 8</title>
    <desc>Created with Sketch.</desc>
    <defs></defs>
    <g id="Поставщики" stroke="none" stroke-width="1" fill="none" fill-rule="evenodd" sketch:type="MSPage">
        <g id="создание-поставщика-copy-3" sketch:type="MSArtboardGroup" transform="translate(-255.000000, -500.000000)" fill="#828A96">
            <g id="Group" sketch:type="MSLayerGroup" transform="translate(201.000000, 65.000000)">
                <g id="Rectangle-3-Copy-+-Полное-наименование*" transform="translate(42.000000, 424.500000)" sketch:type="MSShapeGroup">
                    <path d="M27.998173,26.6873763 L12.0025488,26.6873763 L12.0012971,25.6881892 C11.9910858,23.9417363 11.9826533,22.434556 14.4237346,21.8712904 L14.5543068,21.8407884 C15.6840662,21.5812251 17.0895292,21.257232 17.3215551,20.7423216 C17.3957349,20.5786781 17.3452716,20.3351892 17.1731297,20.0171253 C15.5649569,17.0569173 15.2638239,14.7303338 16.3279018,12.9432335 C17.0628482,11.7082654 18.4013123,11 20.0005915,11 C21.587156,11 22.9175169,11.6971977 23.6494988,12.9152349 C24.7110074,14.6794752 24.4200857,17.0137007 22.8300955,20.0120526 C22.6600617,20.3326858 22.6117724,20.5794686 22.6867427,20.7440344 C22.9216673,21.2597354 24.2885253,21.5743736 25.4930573,21.8525808 L25.5769872,21.8720809 C28.0172121,22.4353466 28.0095701,23.9425927 27.9985683,25.6881233 L27.998173,26.6873763 L27.998173,26.6873763 Z M13.1946955,25.4927261 L26.8060262,25.4927261 C26.813207,23.8769772 26.7632708,23.3705652 25.3089913,23.0364268 L25.2262473,23.0168607 C23.6083244,22.6436561 22.0811828,22.2916644 21.6006612,21.2407623 C21.3632332,20.7207791 21.4225902,20.1186449 21.7753723,19.4527397 C23.1613352,16.8403071 23.4632588,14.9234252 22.6256729,13.5315332 C22.1074685,12.6697697 21.174885,12.1947819 20.0005256,12.1947819 C18.8151643,12.1947819 17.8766518,12.6782022 17.3545605,13.5552496 C16.5148665,14.964929 16.8231803,16.8716655 18.2231096,19.4476012 C18.5831384,20.1100806 18.6463823,20.7122149 18.4109965,21.2330544 C17.9351524,22.2890293 16.4232288,22.6368705 14.8226979,23.0049366 L14.6920598,23.0354386 C13.2379781,23.3710263 13.1875147,23.8773066 13.1946955,25.4927261 L13.1946955,25.4927261 Z" id="Shape-Copy-8"></path>
                </g>
            </g>
        </g>
    </g>
</svg>