<?xml version="1.0" encoding="UTF-8" standalone="no"?>
<svg width="22px" height="23px" viewBox="0 0 22 23" version="1.1" xmlns="http://www.w3.org/2000/svg" xmlns:xlink="http://www.w3.org/1999/xlink">
    <!-- Generator: Sketch 39 (31667) - http://www.bohemiancoding.com/sketch -->
    <title>Shape</title>
    <desc>Created with Sketch.</desc>
    <defs></defs>
    <g id="Акция-ПДБ" stroke="none" stroke-width="1" fill="none" fill-rule="evenodd">
        <g id="Деньги---действия" transform="translate(-998.000000, -730.000000)" fill="#4F719B">
            <g id="выпадушка" transform="translate(380.000000, 60.000000)">
                <g id="Group-2" transform="translate(90.000000, 659.000000)">
                    <g id="Group-9" transform="translate(414.000000, 0.695740)">
                        <g id="icon_vk" transform="translate(114.000000, 11.011156)">
                            <path d="M4.09375,0 C1.8512095,0 0,1.8512095 0,4.09375 L0,17.90625 C0,20.148791 1.8512095,22 4.09375,22 L17.90625,22 C20.148791,22 22,20.148791 22,17.90625 L22,4.09375 C22,1.8512095 20.148791,0 17.90625,0 L4.09375,0 L4.09375,0 Z M4.09375,2 L17.90625,2 C19.067709,2 20,2.9322905 20,4.09375 L20,17.90625 C20,19.067709 19.067709,20 17.90625,20 L4.09375,20 C2.9322905,20 2,19.067709 2,17.90625 L2,4.09375 C2,2.9322905 2.9322905,2 4.09375,2 L4.09375,2 Z M10.71875,7.21875 C9.98475,7.21175 9.352,7.23325 9,7.40625 C8.766,7.52125 8.5775,7.76625 8.6875,7.78125 C8.8235,7.79925 9.1495,7.87175 9.3125,8.09375 C9.5235,8.38075 9.5,9.03125 9.5,9.03125 C9.5,9.03125 9.62275,10.81025 9.21875,11.03125 C8.94175,11.18225 8.567,10.8485 7.75,9.4375 C7.331,8.7145 7.03125,7.9375 7.03125,7.9375 C7.03125,7.9375 6.95275,7.7675 6.84375,7.6875 C6.71175,7.5905 6.53125,7.5625 6.53125,7.5625 L4.59375,7.59375 C4.59375,7.59375 4.2945,7.59075 4.1875,7.71875 C4.0915,7.83275 4.15625,8.0625 4.15625,8.0625 C4.15625,8.0625 5.7035,11.66375 7.4375,13.46875 C9.0295,15.12275 10.84375,15 10.84375,15 L11.65625,15 C11.65625,15 11.90525,14.97975 12.03125,14.84375 C12.14725,14.71875 12.125,14.46875 12.125,14.46875 C12.125,14.46875 12.116,13.37975 12.625,13.21875 C13.127,13.05975 13.78475,14.281 14.46875,14.75 C14.98575,15.105 15.375,15.03125 15.375,15.03125 L17.1875,15 C17.1875,15 18.1405,14.9395 17.6875,14.1875 C17.6505,14.1265 17.43875,13.641 16.34375,12.625 C15.19775,11.561 15.33775,11.715 16.71875,9.875 C17.55975,8.754 17.9175,8.07425 17.8125,7.78125 C17.7125,7.50225 17.09375,7.59375 17.09375,7.59375 L15.03125,7.59375 C15.03125,7.59375 14.863,7.58825 14.75,7.65625 C14.639,7.72225 14.5625,7.875 14.5625,7.875 C14.5625,7.875 14.2465,8.73075 13.8125,9.46875 C12.8965,11.02475 12.525,11.096 12.375,11 C12.026,10.775 12.125,10.107 12.125,9.625 C12.125,8.117 12.3615,7.4755 11.6875,7.3125 C11.4635,7.2585 11.29175,7.22475 10.71875,7.21875 L10.71875,7.21875 Z" id="Shape"></path>
                        </g>
                    </g>
                </g>
            </g>
        </g>
    </g>
</svg>