<?xml version="1.0" encoding="UTF-8" standalone="no"?>
<svg width="26px" height="23px" viewBox="0 0 26 23" version="1.1" xmlns="http://www.w3.org/2000/svg" xmlns:xlink="http://www.w3.org/1999/xlink">
    <!-- Generator: Sketch 39 (31667) - http://www.bohemiancoding.com/sketch -->
    <title>Shape</title>
    <desc>Created with Sketch.</desc>
    <defs></defs>
    <g id="Page-1" stroke="none" stroke-width="1" fill="none" fill-rule="evenodd">
        <path d="M25.288,19.131 L15.234,1.719 C14.005,-0.41 11.995,-0.41 10.765,1.719 L0.712,19.131 C-0.518,21.262 0.488,23 2.945,23 L23.054,23 C25.512,23 26.517,21.262 25.288,19.131 L25.288,19.131 Z M11.619,6.659 C11.98,6.269 12.439,6.073 13,6.073 C13.561,6.073 14.02,6.266 14.381,6.651 C14.74,7.037 14.92,7.52 14.92,8.1 C14.92,8.599 14.17,12.269 13.92,14.939 L12.113,14.939 C11.893,12.269 11.08,8.599 11.08,8.1 C11.08,7.528 11.26,7.048 11.619,6.659 L11.619,6.659 Z M14.355,19.354 C13.975,19.724 13.523,19.909 13,19.909 C12.477,19.909 12.024,19.724 11.645,19.354 C11.266,18.985 11.078,18.538 11.078,18.012 C11.078,17.49 11.266,17.037 11.645,16.658 C12.025,16.279 12.477,16.09 13,16.09 C13.523,16.09 13.976,16.279 14.355,16.658 C14.734,17.037 14.922,17.489 14.922,18.012 C14.923,18.538 14.734,18.985 14.355,19.354 L14.355,19.354 Z" id="Shape" fill="#000000"></path>
    </g>
</svg>